<svg xmlns="http://www.w3.org/2000/svg" xmlns:xlink="http://www.w3.org/1999/xlink" viewBox="0 0 358.56 229.46"><defs><style>.cls-1{fill:none;}.cls-2{isolation:isolate;}.cls-3{fill:#666;}.cls-14,.cls-3,.cls-37{opacity:0.6;}.cls-11,.cls-23,.cls-25,.cls-3,.cls-36,.cls-39,.cls-42,.cls-6,.cls-7{mix-blend-mode:multiply;}.cls-4,.cls-6{fill:#9baaac;}.cls-5,.cls-7,.cls-9{fill:#c2d3d5;}.cls-23,.cls-39,.cls-8{opacity:0.5;}.cls-28,.cls-30,.cls-31,.cls-37,.cls-38,.cls-9{mix-blend-mode:screen;}.cls-10,.cls-11{fill:#88c8e3;}.cls-10,.cls-36{opacity:0.8;}.cls-11{opacity:0.4;}.cls-12{fill:#444a72;}.cls-13{fill:#212441;}.cls-15{fill:#2b8ca8;}.cls-16{fill:#e84b9b;}.cls-17{fill:#5ac6d0;}.cls-18{fill:#f0bfd9;}.cls-19{fill:#ef905b;}.cls-20,.cls-32,.cls-37,.cls-39{fill:#fff;}.cls-20{opacity:0.9;mix-blend-mode:color-dodge;}.cls-21{clip-path:url(#clip-path);}.cls-22{fill:#b5d35b;}.cls-23,.cls-25,.cls-29,.cls-30{fill:#7eb05f;}.cls-24{fill:#009965;}.cls-25{opacity:0.3;}.cls-26{fill:#00233d;}.cls-27{fill:#0d5076;}.cls-28{fill:#007b96;}.cls-31{fill:#cfdd57;}.cls-33{fill:#a1a09e;}.cls-34{fill:#79c162;}.cls-35{fill:#19b266;}.cls-36{fill:#a2b980;}.cls-40{fill:#6d6e71;}.cls-41,.cls-42{fill:#00874c;}.cls-43{fill:#c2e1b7;}</style><clipPath id="clip-path"><path class="cls-1" d="M190.09,109.15c-2.65-3.87-4.75-6.85-3.73-11.62,1.37-6.47,0-12.94-2.34-19-2.44-6.4-5.73-12.47-8.09-18.92-1.76-4.87,0-9.07-.53-14-1-9.22-6.22-14.66-15.69-14.82-7.54-.14-15.24,1.69-22.37,4-8.81,2.88-17.86,7.93-22.24,16.49-5.11,10-2.86,21,.93,31a80.32,80.32,0,0,0,8.29,16.55c3.73,5.49,9.11,9.13,14.34,13.07A.89.89,0,0,1,139,113c-7.13,9.72-12.8,23.23-11.65,35.78,11.66-.92,26.29-3.55,42.83-7.71A235.36,235.36,0,0,0,205,129.46C200.17,122.59,194.87,116.06,190.09,109.15Z"/></clipPath></defs><title>alien</title><g class="cls-2"><g id="Layer_2" data-name="Layer 2"><g id="map"><g id="aliens"><g id="alien"><path class="cls-3" d="M357.48,102.47a14.22,14.22,0,0,0-.06-1.47C355.48,93.12,345,87.88,328.5,85.21h.38c-.52-.09-1.18-.11-1.71-.19-3.13-.47-6.45-.87-10-1.16-1-.07-2-.18-3.09-.24a262.1,262.1,0,0,0-27.47-.28c0-.06-.05-.11-.07-.17-1.18-2.8-2.42-5.54-3.79-8.2-.67-1.31-1.36-2.59-2.09-3.87-1.45-2.58-3-5.08-4.65-7.5-.73-1.09-1.43-2.21-2.2-3.27a110.1,110.1,0,0,0-7.32-9.14c-.17-.18-.3-.39-.47-.56A111.36,111.36,0,0,0,257.19,42c-.93-.81-1.91-1.56-2.87-2.35-2.24-1.85-4.53-3.64-6.89-5.3-1.18-.82-2.35-1.62-3.54-2.39q-3.55-2.31-7.29-4.33c-1.15-.64-2.3-1.31-3.48-1.9q-4.86-2.43-9.91-4.39c-.38-.16-.75-.37-1.13-.51a0,0,0,0,1,0,0A110.46,110.46,0,0,0,83.67,76.52l0-.2c-.06.13-.1.27-.16.42A112.51,112.51,0,0,0,77.29,93c-.26.82-.51,1.62-.75,2.45a113.9,113.9,0,0,0-3.34,16.81c-.11.94-.2,1.88-.29,2.83a114.23,114.23,0,0,0-.37,17.57c0,.75.15,1.49.22,2.23,0,.08,0,.16,0,.24C34,152.94,10.69,171.66,14.08,185.47a12.58,12.58,0,0,0,.66,1.39,12.56,12.56,0,0,0,.08,1.5,17.52,17.52,0,0,0,2.67,5.48c.4.58.94,1.14,1.41,1.72a33.58,33.58,0,0,0,3.68,3.85c.69.63,1.43,1.25,2.22,1.88a62.92,62.92,0,0,0,5.34,3.78c.85.55,1.64,1.1,2.56,1.64a104.75,104.75,0,0,0,9.46,4.95,3,3,0,0,1,.3.16c3.62,1.64,7.61,3.21,11.81,4.7,1.17.41,2.43.79,3.64,1.2,3.16,1.05,6.41,2.05,9.84,3,1.56.44,3.14.83,4.75,1.24q5.15,1.27,10.63,2.36c1.62.33,3.2.67,4.85,1q7.08,1.28,14.62,2.18c.56.08,1.09.18,1.65.25l-.14,0a289.23,289.23,0,0,0,72.91-1.1l-.6.2c.88-.11,1.79-.38,2.67-.51l.51-.08c0,.16-.07.28,0,.44,0,0-.1,0-.13,0s.07.15.09.25a4,4,0,0,0,.19.64h0l.41,1a23.79,23.79,0,0,0,6.85-1.29,14.46,14.46,0,0,0,4.62-2.4v0a3.43,3.43,0,0,0,.27-.26l.73-.67c3.86-.76,7.72-1.51,11.61-2.46l.06,0c.14,0,.22.07.37.09v0a15,15,0,0,0,5.2-.07,23.62,23.62,0,0,0,6.66-2.09c0-.27-.07-.68-.12-1.11h0s0,0,0,0a.5.5,0,0,0,0-.16c88.59-25.75,147.82-90,141.86-114.23A11.64,11.64,0,0,0,357.48,102.47Z"/><path class="cls-4" d="M344.39,90.15c6.21,25.25-58.24,94-153,117.36S7.28,199.87,1.06,174.61,66.68,110,161.49,86.67,338.17,64.89,344.39,90.15Z"/><path class="cls-5" d="M68.3,208.41C54.63,204,41.57,197.08,31.13,187.05c-9.86-9.43-15.77-21.44-15.72-35.25q0-1.67.12-3.3c-11,9.43-16.34,18.41-14.47,26.11C4.93,190.33,41,208.26,90.5,213.94A198.34,198.34,0,0,1,68.3,208.41Z"/><path class="cls-6" d="M263.4,70.62c2.2,5.74,4.41,11.44,5.19,17.64a97,97,0,0,1-.26,26.8c-2.16,14.14-9.15,27-18,38.09a183.08,183.08,0,0,1-32,31.18,174.64,174.64,0,0,1-39.7,23.16,146.82,146.82,0,0,1-16,5.52,280.23,280.23,0,0,0,28.71-5.5c94.79-23.32,159.24-92.11,153-117.36C340.61,74.82,308.94,68.22,263.4,70.62Z"/><path class="cls-5" d="M343.66,87.24c5.81,23.65-66.33,61.73-161.13,85.06s-176.39,23-182.2-.58,66.33-61.73,161.14-85S337.84,63.6,343.66,87.24Z"/><path class="cls-5" d="M343.66,87.24c5.81,23.65-66.33,61.73-161.13,85.06s-176.39,23-182.2-.58,66.33-61.73,161.14-85S337.84,63.6,343.66,87.24Z"/><path class="cls-7" d="M307.71,87.13c4.67,19-53.24,49.55-129.34,68.28S36.79,173.9,32.11,154.94s53.25-49.56,129.36-68.27S303,68.15,307.71,87.13Z"/><g class="cls-8"><path class="cls-9" d="M13.51,172.85c-5.4-22,68.32-59,164.7-82.75C231.74,76.94,281,70.66,315.13,71.45c-32.89-5.43-90.32-.37-153.66,15.22C66.66,110-5.48,148.08.33,171.72c4.6,18.66,56.4,22.76,124.64,12.17C63,192.52,17.49,189,13.51,172.85Z"/></g><path class="cls-10" d="M142.71,3.33C83,18.32,46.8,79.46,62,139.88c.68,2.73,1.47,5.42,2.33,8h0a4.14,4.14,0,0,0,.71,1.45c7,10.12,55.94,6.57,112.82-8.5,57.12-15.13,101.43-36.42,101.92-48.6-.12-.73-.27-1.46-.42-2.19-.31-1.49-.65-3-1-4.45C263.16,25.22,202.46-11.64,142.71,3.33Z"/><path class="cls-11" d="M208.32,7A70.61,70.61,0,0,1,221,29.5c4.51,13.49,9.13,34.07-5.29,46.39-6.57,5.62-15.13,9-23.67,11.59-14.08,4.35-28.6,7.82-43,11.14-11.52,2.67-23.2,5.39-34.84,7.43-9,1.58-19.29,2.92-27.75.23-17.94-5.72-20.7-23.84-17.67-38.73.35-1.65.75-3.33,1.18-5a113,113,0,0,0-8,77.31c.68,2.73,1.47,5.42,2.33,8h0a4.14,4.14,0,0,0,.71,1.45c7,10.12,55.94,6.57,112.82-8.5,57.12-15.13,101.43-36.42,101.92-48.6-.12-.73-.27-1.46-.42-2.19-.31-1.49-.65-3-1-4.45A113.11,113.11,0,0,0,208.32,7Z"/><path class="cls-12" d="M273.81,93c2.73,10.84-41.75,31.45-99.38,46S67.87,156.64,65.13,145.8s41.74-31.44,99.37-46S271.07,82.16,273.81,93Z"/><path class="cls-13" d="M256.42,101.06c2.26,8.94-34.46,26-82,38s-87.91,14.53-90.17,5.59,34.44-26,82-38S254.15,92.11,256.42,101.06Z"/><g class="cls-14"><path class="cls-15" d="M98,134.39l11.8,4.33a44,44,0,0,1,5.38-4.05l-10.71-4.49C102.33,131.44,100.15,132.83,98,134.39Z"/><path class="cls-16" d="M127.73,134.53c2.67-1.3,4.45-1.95,4.45-1.95L126,129.35c-1.42.52-3,1.15-4.77,2Z"/><path class="cls-16" d="M111.5,126.42c-2.23,1.08-4.61,2.32-7,3.76l10.71,4.49a53.72,53.72,0,0,1,6.09-3.36C118,129.7,114.6,128,111.5,126.42Z"/><path class="cls-17" d="M115.18,134.67l7.06,2.93a56.73,56.73,0,0,1,5.49-3.07l-6.46-3.22A53.72,53.72,0,0,0,115.18,134.67Z"/><path class="cls-16" d="M111.5,126.42c1.73-.82,3.35-1.55,4.85-2.17L112,122c-1.58.54-3.4,1.23-5.35,2C108.1,124.72,109.74,125.55,111.5,126.42Z"/><path class="cls-17" d="M121.27,131.31c1.73-.81,3.35-1.44,4.77-2l-9.69-5.1c-1.5.62-3.12,1.35-4.85,2.17C114.6,128,118,129.7,121.27,131.31Z"/><path class="cls-18" d="M82.87,138.48a47.84,47.84,0,0,0-5.76,6.38l8.77,1a52.78,52.78,0,0,1,5.21-5.74Z"/><path class="cls-15" d="M98,134.39,91.31,132a62.9,62.9,0,0,0-8.44,6.53l8.22,1.64A68.59,68.59,0,0,1,98,134.39Z"/><path class="cls-16" d="M104.47,130.18c-2.11-.91-4.11-1.75-5.88-2.49A80.85,80.85,0,0,0,91.31,132L98,134.39C100.15,132.83,102.33,131.44,104.47,130.18Z"/><path class="cls-17" d="M85.88,145.86l16.34,1.82a36.38,36.38,0,0,1,3.34-4.62l-14.47-2.94A52.78,52.78,0,0,0,85.88,145.86Z"/><path class="cls-16" d="M91.09,140.12l14.47,2.94a38.77,38.77,0,0,1,4.24-4.34L98,134.39A68.59,68.59,0,0,0,91.09,140.12Z"/><path class="cls-18" d="M111.5,126.42c-1.76-.87-3.4-1.7-4.88-2.44-2.51,1-5.22,2.26-8,3.71,1.77.74,3.77,1.58,5.88,2.49C106.89,128.74,109.27,127.5,111.5,126.42Z"/><path class="cls-16" d="M106.62,124c-1.42-.72-2.7-1.37-3.73-1.87-2.45.87-5.5,2.1-8.83,3.66,1.2.52,2.76,1.17,4.53,1.92C101.4,126.24,104.11,125,106.62,124Z"/><path class="cls-19" d="M102.22,147.68l7.92.89a35.09,35.09,0,0,1,3.29-3.93l-7.87-1.58A36.38,36.38,0,0,0,102.22,147.68Z"/><path class="cls-16" d="M105.56,143.06l7.87,1.58a43.43,43.43,0,0,1,3.6-3.27l-7.23-2.65A38.77,38.77,0,0,0,105.56,143.06Z"/><path class="cls-19" d="M115.18,134.67a44,44,0,0,0-5.38,4.05l7.23,2.65a49.9,49.9,0,0,1,5.21-3.77Z"/><path class="cls-16" d="M91.31,132,86,130a71.78,71.78,0,0,0-10,7.09l6.78,1.37A62.9,62.9,0,0,1,91.31,132Z"/><path class="cls-18" d="M112,122l-3.26-1.72s-2.26.59-5.82,1.88c1,.5,2.31,1.15,3.73,1.87C108.57,123.18,110.39,122.49,112,122Z"/><path class="cls-17" d="M98.59,127.69c-1.77-.75-3.33-1.4-4.53-1.92A90,90,0,0,0,86,130L91.31,132A80.85,80.85,0,0,1,98.59,127.69Z"/><path class="cls-15" d="M82.87,138.48l-6.78-1.37a50.13,50.13,0,0,0-6.68,6.9l7.7.85A47.84,47.84,0,0,1,82.87,138.48Z"/></g><g class="cls-8"><path class="cls-15" d="M237.93,98.27l-8.39,9.39a47.4,47.4,0,0,0-6.65-1c2.43-3,5-6.12,7.33-9C232.71,97.71,235.29,97.91,237.93,98.27Z"/><path class="cls-16" d="M211.77,112.41a44.79,44.79,0,0,0-4.85.39l3.88-5.75c1.52-.2,3.25-.4,5.15-.51C214.46,108.62,213.05,110.61,211.77,112.41Z"/><path class="cls-16" d="M222.25,97.62c2.47-.11,5.15-.13,8,0-2.35,2.9-4.9,6-7.33,9a54.22,54.22,0,0,0-6.94-.08C218.06,103.57,220.27,100.45,222.25,97.62Z"/><path class="cls-17" d="M222.89,106.62l-4.83,5.92a57.81,57.81,0,0,0-6.29-.13c1.28-1.8,2.69-3.79,4.18-5.87A54.22,54.22,0,0,1,222.89,106.62Z"/><path class="cls-16" d="M222.25,97.62c-1.9.07-3.69.21-5.31.36l2.8-4.09c1.66-.26,3.57-.52,5.67-.73Z"/><path class="cls-17" d="M216,106.54c-1.9.11-3.63.31-5.15.51L216.94,98c1.62-.15,3.41-.29,5.31-.36C220.27,100.45,218.06,103.57,216,106.54Z"/><path class="cls-18" d="M253.17,94.74a46.41,46.41,0,0,1,8.11,2.92l-7.28,5a51.39,51.39,0,0,0-7.28-2.6Z"/><path class="cls-15" d="M237.93,98.27,242.66,93a62.4,62.4,0,0,1,10.51,1.78l-6.45,5.33A67.89,67.89,0,0,0,237.93,98.27Z"/><path class="cls-16" d="M230.22,97.6l4-4.95a80.74,80.74,0,0,1,8.43.31l-4.73,5.31C235.29,97.91,232.71,97.71,230.22,97.6Z"/><path class="cls-17" d="M254,102.67,240.47,112a35.26,35.26,0,0,0-5.13-2.52l11.38-9.4A51.39,51.39,0,0,1,254,102.67Z"/><path class="cls-16" d="M246.72,100.07l-11.38,9.4a37.22,37.22,0,0,0-5.8-1.81l8.39-9.39A67.89,67.89,0,0,1,246.72,100.07Z"/><path class="cls-18" d="M222.25,97.62l3.16-4.46c2.67-.27,5.66-.48,8.82-.51l-4,4.95C227.4,97.49,224.72,97.51,222.25,97.62Z"/><path class="cls-16" d="M225.41,93.16c.92-1.3,1.73-2.48,2.39-3.41,2.59-.38,5.85-.75,9.54-1-.83,1-1.89,2.35-3.11,3.85C231.07,92.68,228.08,92.89,225.41,93.16Z"/><path class="cls-19" d="M240.47,112l-6.56,4.51a33.66,33.66,0,0,0-4.77-1.91l6.2-5.12A35.26,35.26,0,0,1,240.47,112Z"/><path class="cls-16" d="M235.34,109.47l-6.2,5.12a43.81,43.81,0,0,0-4.7-1.2l5.1-5.73A37.22,37.22,0,0,1,235.34,109.47Z"/><path class="cls-19" d="M222.89,106.62a47.4,47.4,0,0,1,6.65,1l-5.1,5.73a49.64,49.64,0,0,0-6.38-.85Z"/><path class="cls-16" d="M242.66,93l3.74-4.17a70.07,70.07,0,0,1,12.1,1.54l-5.33,4.41A62.4,62.4,0,0,0,242.66,93Z"/><path class="cls-18" d="M219.74,93.89l2-3.07s2.29-.53,6-1.07c-.66.93-1.47,2.11-2.39,3.41C223.31,93.37,221.4,93.63,219.74,93.89Z"/><path class="cls-17" d="M234.23,92.65c1.22-1.5,2.28-2.82,3.11-3.85,2.8-.13,5.86-.18,9.06,0L242.66,93A80.74,80.74,0,0,0,234.23,92.65Z"/><path class="cls-15" d="M253.17,94.74l5.33-4.41a52.25,52.25,0,0,1,9.16,2.93l-6.38,4.4A46.41,46.41,0,0,0,253.17,94.74Z"/></g><path class="cls-19" d="M125,115.62a1.26,1.26,0,1,1-1.53-.93A1.26,1.26,0,0,1,125,115.62Z"/><path class="cls-19" d="M132.58,112.93a1.26,1.26,0,0,1-2.44.62,1.26,1.26,0,1,1,2.44-.62Z"/><path class="cls-19" d="M128,118.33a1.26,1.26,0,1,1-1.52-.92A1.25,1.25,0,0,1,128,118.33Z"/><path class="cls-19" d="M131,121.34a1.26,1.26,0,0,1-2.45.61,1.27,1.27,0,0,1,.93-1.54A1.26,1.26,0,0,1,131,121.34Z"/><path class="cls-19" d="M207.35,95a1.27,1.27,0,0,0,2.46-.6,1.27,1.27,0,0,0-1.55-.93A1.24,1.24,0,0,0,207.35,95Z"/><path class="cls-19" d="M199.39,96.17a1.28,1.28,0,0,0,1.55.93,1.26,1.26,0,1,0-1.55-.93Z"/><path class="cls-19" d="M206,98.75a1.27,1.27,0,1,0,.92-1.52A1.27,1.27,0,0,0,206,98.75Z"/><path class="cls-19" d="M204.79,102.82a1.27,1.27,0,1,0,.91-1.53A1.27,1.27,0,0,0,204.79,102.82Z"/><path class="cls-11" d="M142.71,3.33C83,18.32,46.8,79.46,62,139.88c.68,2.73,1.47,5.42,2.33,8h0a4.14,4.14,0,0,0,.71,1.45c7,10.12,55.94,6.57,112.82-8.5,57.12-15.13,101.43-36.42,101.92-48.6-.12-.73-.27-1.46-.42-2.19-.31-1.49-.65-3-1-4.45C263.16,25.22,202.46-11.64,142.71,3.33Zm95.7,90.09c-8.76,18.17-39,29.07-62.23,35.47C150,136.12,119.67,140.61,95.44,135c-10.9-2.53-20.71-6.95-25.17-14.59-3.2-5.48-4-11.46-3.55-17.66-2.13-14.47,3-30.47,10.48-44.09,9-16.29,23.48-29.83,41.94-39.36,16.59-8.57,36.53-16,55.41-13.8l1.2.18c1,.1,1.95.22,2.89.38,24.33,4.19,39.26,20.17,49.3,35.05C237.79,55.67,247.26,75.09,238.41,93.42Z"/><path class="cls-20" d="M71.74,100.71a123.67,123.67,0,0,0-.12,15.57,43.75,43.75,0,0,0,20.73,14.15,132.46,132.46,0,0,1-2.43-20.29A168.48,168.48,0,0,1,71.74,100.71Z"/><path class="cls-20" d="M72.78,91.44c5.49,2.25,11.19,4.14,17,5.92.6-22.17,6-51.56,26.31-75.59C116.06,21.77,80.19,43,72.78,91.44Z"/><g class="cls-21"><path class="cls-22" d="M137.9,161.42l-.19,0a2.92,2.92,0,0,1-3.4-2.33C129.09,130.8,150,109.86,150.92,109a2.94,2.94,0,0,1,4.14,0,2.89,2.89,0,0,1,0,4.12h0c-.2.2-19.62,19.7-15,44.9A3,3,0,0,1,137.9,161.42Z"/><path class="cls-22" d="M137.9,161.42l-.19,0a2.92,2.92,0,0,1-3.4-2.33C129.09,130.8,150,109.86,150.92,109a2.94,2.94,0,0,1,4.14,0,2.89,2.89,0,0,1,0,4.12h0c-.2.2-19.62,19.7-15,44.9A3,3,0,0,1,137.9,161.42Z"/><path class="cls-22" d="M137.9,161.42l-.19,0a2.92,2.92,0,0,1-3.4-2.33C129.09,130.8,150,109.86,150.92,109a2.94,2.94,0,0,1,4.14,0,2.89,2.89,0,0,1,0,4.12h0c-.2.2-19.62,19.7-15,44.9A3,3,0,0,1,137.9,161.42Z"/><path class="cls-23" d="M155.06,109a2.94,2.94,0,0,0-4.14,0c-.14.14-.71.72-1.59,1.69,1,2.25-.36,5.46-1.53,7.61-2.57,4.72-5.74,9-7.84,14a49.83,49.83,0,0,0-3.56,20.34c0,1.13.21,4-1.27,4.45A1.59,1.59,0,0,1,134,157c.09.71.18,1.43.33,2.16a2.92,2.92,0,0,0,3.4,2.33l.19,0a3,3,0,0,0,2.17-3.37c-4.67-25.2,14.75-44.7,15-44.9A2.89,2.89,0,0,0,155.06,109Z"/><path class="cls-22" d="M204,144.85a2.94,2.94,0,0,1-3.5-1.95c-7.82-24.49-34.1-32.44-34.37-32.53a2.92,2.92,0,0,1,1.64-5.61c1.21.35,29.56,8.93,38.31,36.36a3,3,0,0,1-1.9,3.68Z"/><path class="cls-22" d="M204,144.85a2.94,2.94,0,0,1-3.5-1.95c-7.82-24.49-34.1-32.44-34.37-32.53a2.92,2.92,0,0,1,1.64-5.61c1.21.35,29.56,8.93,38.31,36.36a3,3,0,0,1-1.9,3.68Z"/><path class="cls-23" d="M201.59,138.35c-1.71-2.34-2.67-5.1-4.21-7.55a40.41,40.41,0,0,0-6-7.61,73.22,73.22,0,0,0-14.7-10.67c-2.85-1.61-5.76-3.54-5.76-6.67-1.74-.69-2.88-1-3.11-1.09a2.92,2.92,0,0,0-1.64,5.61c.27.09,26.55,8,34.37,32.53a2.94,2.94,0,0,0,3.5,1.95l.18,0a3,3,0,0,0,1.9-3.68c-.16-.47-.33-.93-.49-1.38A3.3,3.3,0,0,1,201.59,138.35Z"/><path class="cls-22" d="M175.35,211.89a2.94,2.94,0,0,1-3.39-1.66c-10.47-23.88-14-53.95-14.09-55.22a2.92,2.92,0,1,1,5.8-.65c0,.29,3.52,30.47,13.65,53.52a2.92,2.92,0,0,1-1.51,3.83A1.75,1.75,0,0,1,175.35,211.89Z"/><path class="cls-24" d="M160.14,152.15a2.65,2.65,0,0,0-2,2.83c.16,1.24,3.62,31.31,14.08,55.11a2.58,2.58,0,0,0,3.42,1.34A2.59,2.59,0,0,0,177,208c-10.16-23.11-13.62-53.32-13.66-53.63a2.61,2.61,0,0,0-2.88-2.29Z"/><path class="cls-22" d="M175.35,211.89a2.94,2.94,0,0,1-3.39-1.66c-10.47-23.88-14-53.95-14.09-55.22a2.92,2.92,0,1,1,5.8-.65c0,.29,3.52,30.47,13.65,53.52a2.92,2.92,0,0,1-1.51,3.83A1.75,1.75,0,0,1,175.35,211.89Z"/><path class="cls-23" d="M177.32,207.88c-10.13-23-13.61-53.23-13.65-53.52a2.92,2.92,0,1,0-5.8.65c.06.53.71,6.11,2.21,14.2a7.75,7.75,0,0,1,3.37,2.88,30.74,30.74,0,0,1,2.09,6.58c1.05,3.94,5.56,16.88,4.25,18.79a2.74,2.74,0,0,1-2.31,1.12c1.33,3.93,2.82,7.86,4.48,11.65a2.94,2.94,0,0,0,3.39,1.66,1.75,1.75,0,0,0,.46-.18A2.92,2.92,0,0,0,177.32,207.88Z"/><path class="cls-22" d="M193.59,207.3a1.93,1.93,0,0,1-.49.08,2.89,2.89,0,0,1-3.12-2.67c-2-25.1-13.14-53.35-13.24-53.63a2.92,2.92,0,1,1,5.42-2.17c.48,1.19,11.6,29.33,13.64,55.34A2.9,2.9,0,0,1,193.59,207.3Z"/><path class="cls-24" d="M178.82,147.48c-.12,0-.21.07-.33.09A2.65,2.65,0,0,0,177,151c.14.28,11.3,28.55,13.28,53.72a2.56,2.56,0,0,0,2.79,2.38,2.58,2.58,0,0,0,2.38-2.79c-2-25.91-13.14-54.06-13.61-55.24A2.6,2.6,0,0,0,178.82,147.48Z"/><path class="cls-22" d="M193.59,207.3a1.93,1.93,0,0,1-.49.08,2.89,2.89,0,0,1-3.12-2.67c-2-25.1-13.14-53.35-13.24-53.63a2.92,2.92,0,1,1,5.42-2.17c.48,1.19,11.6,29.33,13.64,55.34A2.9,2.9,0,0,1,193.59,207.3Z"/><path class="cls-23" d="M182.16,148.91a2.92,2.92,0,1,0-5.42,2.17c0,.12,2.34,5.93,5,14.58a1.78,1.78,0,0,1,1.63.18c1.14.65,1.81,2.77,2.23,3.9a74.07,74.07,0,0,1,4.09,15.13c.34,2.13.74,6.9-1.31,7.67.69,4,1.26,8.15,1.58,12.17a2.89,2.89,0,0,0,3.12,2.67,1.93,1.93,0,0,0,.49-.08,2.9,2.9,0,0,0,2.21-3.05C193.76,178.24,182.64,150.1,182.16,148.91Z"/><path class="cls-22" d="M191,140.18c-.88-4.42-3.57-8.36-6.23-11.89a131.38,131.38,0,0,0-9.42-10.76c-3.55-3.69-7.19-7.63-8.85-12.57-1.1-3.29-1.41-7.53-4.44-9.71-2.3-1.68-6.31-1.19-8.76-.23-3.41,1.37-4.91,3.39-4.36,7.08.62,4.14,2.38,7.75,2.31,12.05-.2,12.88-7.17,25.31-5.38,38.23a18.3,18.3,0,0,0,14.64,15.78c6.54,1.4,14-.41,19.83-3.49a22.75,22.75,0,0,0,11.21-13.35C192.63,147.86,191.74,143.66,191,140.18Z"/><path class="cls-25" d="M184.8,128.29a131.38,131.38,0,0,0-9.42-10.76c-3.55-3.69-7.19-7.63-8.85-12.57-1.1-3.29-1.41-7.53-4.44-9.71-2.3-1.68-6.31-1.19-8.76-.23-3.41,1.37-4.91,3.39-4.36,7.08.62,4.14,2.38,7.75,2.31,12.05-.2,12.88-7.17,25.31-5.38,38.23a18.3,18.3,0,0,0,14.64,15.78c6.54,1.4,14-.41,19.83-3.49a22.75,22.75,0,0,0,11.21-13.35c1-3.46.16-7.66-.55-11.14C190.15,135.76,187.46,131.82,184.8,128.29Zm-5.39,24.8a21.63,21.63,0,0,1-18.68,5.44,13.79,13.79,0,0,1-11.54-12.31,27.83,27.83,0,0,1,.69-11.34,15.54,15.54,0,0,1,11.55-10.68c5.47-1.09,11.88-.1,16.32,3.45,2.22,1.78,5,4.79,6.07,7.47A16.55,16.55,0,0,1,179.41,153.09Z"/><path class="cls-23" d="M150.9,119a14.24,14.24,0,0,1,7.81-6.75c5.73-2,10.78.41,15.25,3.75-3.07-3.28-6-6.81-7.43-11.08-1.1-3.29-1.41-7.53-4.44-9.71-2.3-1.68-6.31-1.19-8.76-.23-3.41,1.37-4.91,3.39-4.36,7.08.62,4.14,2.38,7.75,2.31,12.05A44.91,44.91,0,0,1,150.9,119Z"/><path class="cls-23" d="M150.82,109.9c4.12,1.46,9.12.15,13-1.55,1.11-.51,2.26-1.07,3.4-1.72-.24-.55-.46-1.09-.65-1.67-1.1-3.29-1.41-7.53-4.44-9.71-2.3-1.68-6.31-1.19-8.76-.23-3.41,1.37-4.91,3.39-4.36,7.08C149.38,104.82,150.28,107.3,150.82,109.9Z"/><path class="cls-23" d="M188.67,134.07c1.68,4.66,2.58,9.67,1.18,14.38-2.2,7.36-9.23,12-16.35,13.75-6.48,1.66-14.39,2.05-19.9-2.42-4.67-3.81-6.59-9.49-7.83-15.33a35.69,35.69,0,0,0,.13,7.93,18.3,18.3,0,0,0,14.64,15.78c6.54,1.4,14-.41,19.83-3.49a22.75,22.75,0,0,0,11.21-13.35c1-3.46.16-7.66-.55-11.14A21.38,21.38,0,0,0,188.67,134.07Z"/><path class="cls-22" d="M165.88,54.16a13,13,0,0,0-3.26-1.67c1.07-3,2.45-7,2.45-7l-2.2-2.71-3.24,8.9c-9.2-1.67-22.56,1.83-29.47,7.8l-7.43-6.64-.64,3.43s3.53,3.26,5.93,5.43A10.11,10.11,0,0,0,126.55,64s-6,12.69,1,28.12c5.53,12.21,16,15.85,24.79,15.59a25.8,25.8,0,0,0,11.38-2.85c7.86-3.91,15.38-12.06,14.48-25.44C177.1,62.55,165.88,54.16,165.88,54.16Z"/><path class="cls-23" d="M165.88,54.16a13,13,0,0,0-3.26-1.67c1.07-3,2.45-7,2.45-7l-2.2-2.71-3.24,8.9c-9.2-1.67-22.56,1.83-29.47,7.8l-7.43-6.64-.64,3.43s3.53,3.26,5.93,5.43A10.11,10.11,0,0,0,126.55,64s-6,12.69,1,28.12c5.53,12.21,16,15.85,24.79,15.59a25.8,25.8,0,0,0,11.38-2.85c7.86-3.91,15.38-12.06,14.48-25.44C177.1,62.55,165.88,54.16,165.88,54.16ZM174,81.33c-1.8,9.81-8.69,20.19-20.92,20.94-4.29.25-8.39,0-12.12-1.84-6.33-3-11.36-8.37-13.31-14.62-2.18-7-2.31-15.06,2.82-21.57a35.93,35.93,0,0,1,4.63-4.41l.07-.08a.29.29,0,0,1,.14-.08,27,27,0,0,1,18.19-4.51c6.69.84,12.8,3.83,16.56,8.77A22.08,22.08,0,0,1,174,81.33Z"/><path class="cls-23" d="M178.15,79.91a23,23,0,0,1-3.4,11.24,29.17,29.17,0,0,1-21.35,13.62,23.63,23.63,0,0,1-19.91-7.3,44,44,0,0,1-8.59-13.66,37.92,37.92,0,0,0,2.68,8.34c5.53,12.21,16,15.85,24.79,15.59a25.8,25.8,0,0,0,11.38-2.85c7.86-3.91,15.38-12.06,14.48-25.44a3.13,3.13,0,0,0,0-.42C178.19,79.33,178.17,79.63,178.15,79.91Z"/><path class="cls-23" d="M148.5,87.69s4.16-5-3-13.27-19.65-6-15.23,6.25S145.7,91,148.5,87.69Z"/><path class="cls-26" d="M147.93,86.79S152,82,145,74.16s-19.1-5.67-14.81,6S145.23,89.93,147.93,86.79Z"/><path class="cls-27" d="M143.29,83.83s2.71-3.2-2-8.43-12.75-3.79-9.89,4S141.48,85.93,143.29,83.83Z"/><path class="cls-28" d="M134.67,79s1-.63.17-2.44-3.15-2.08-3,.27S134,79.39,134.67,79Z"/><path class="cls-23" d="M158,85.32s-6.06-2.47-3.62-13.14,14.5-14.54,16.39-1.68S162,86.91,158,85.32Z"/><path class="cls-26" d="M158.05,84.25s-5.84-2.29-3.38-12.5,14.14-14,15.87-1.74S161.92,85.75,158.05,84.25Z"/><path class="cls-27" d="M160.74,79.46s-3.9-1.55-2.25-8.35,9.46-9.37,10.6-1.17S163.32,80.45,160.74,79.46Z"/><path class="cls-28" d="M160.66,72.45s-1.19-.08-1.3-2.09,1.81-3.32,2.79-1.18S161.45,72.51,160.66,72.45Z"/><path class="cls-29" d="M168.34,41.83a3.85,3.85,0,1,1-4.67-2.78A3.85,3.85,0,0,1,168.34,41.83Z"/><path class="cls-30" d="M165.61,41.4a2,2,0,1,1-3.87,1,2,2,0,0,1,3.87-1Z"/><path class="cls-29" d="M124.92,52.72a3.85,3.85,0,1,1-4.66-2.79A3.84,3.84,0,0,1,124.92,52.72Z"/><path class="cls-30" d="M122.18,52.29a2,2,0,0,1-1.43,2.43,2,2,0,0,1-1-3.87A2,2,0,0,1,122.18,52.29Z"/><path class="cls-31" d="M135.63,59.79s-13.49,8.64-6.52,27.42C129.11,87.21,123.64,71.42,135.63,59.79Z"/><path class="cls-32" d="M165.94,211.58c1.12-1.17,3.19-2.6,3.07-3-.4-1.33-3-8.23-3.06-8.27a93.34,93.34,0,0,0,9.91-2.93c.71,3.4,1.62,8.25,1.62,8.25s.64.1.48.45a1.91,1.91,0,0,0-.15.61s.36.12.54.81c.12.45.47,2.05.58,2.54-.88.82-1.65,1.93-5.75,3.42a23.39,23.39,0,0,1-6.84,1.29C166.07,214,165.21,212.36,165.94,211.58Z"/><path class="cls-33" d="M166.55,214.43a26.67,26.67,0,0,0,4.65-.68c.66-.17,1.28-.36,1.88-.58,3.55-1.32,4.53-2.28,5.31-3.06l.2-.17a5.55,5.55,0,0,1-.16-.67c-.14-.65-.3-1.38-.38-1.66-.14-.5-.35-.61-.35-.61a.29.29,0,0,1-.22-.32,2.32,2.32,0,0,1,.16-.66,1.14,1.14,0,0,0-.22-.07.29.29,0,0,1-.26-.25s-.85-4.55-1.57-7.88c-1.14.39-4.94,1.68-7.91,2.42-.47.13-.9.24-1.29.32.57,1.45,2.57,6.76,2.92,7.93.13.42-.36.84-1.51,1.85-.55.47-1.17,1-1.62,1.46s0,1.74.29,2.45A.91.91,0,0,1,166.55,214.43Z"/><path class="cls-34" d="M165.94,211.58c1.12-1.17,3.19-2.6,3.07-3-.4-1.33-3-8.23-3.06-8.27a93.34,93.34,0,0,0,9.91-2.93c.71,3.4,1.62,8.25,1.62,8.25s.64.1.48.45a1.91,1.91,0,0,0-.15.61s.36.12.54.81c.12.45.47,2.05.58,2.54-.88.82-1.65,1.93-5.75,3.42a23.39,23.39,0,0,1-6.84,1.29C166.07,214,165.21,212.36,165.94,211.58Z"/><path class="cls-35" d="M176.46,210a23.76,23.76,0,0,1-4.69,2.1,24.16,24.16,0,0,1-2.76.68,18.1,18.1,0,0,1-2.32.26,1.74,1.74,0,0,1-1-.2,8.84,8.84,0,0,0,.65,1.93,23.39,23.39,0,0,0,6.84-1.29c4.1-1.49,4.87-2.6,5.75-3.42-.07-.29-.21-1-.34-1.58A15.59,15.59,0,0,1,176.46,210Z"/><path class="cls-34" d="M168.91,208.91s2.29-1.53,7-.69Z"/><path class="cls-24" d="M176.2,208.43a.35.35,0,0,0,.08-.29.29.29,0,0,0-.31-.24,13.28,13.28,0,0,0-5.49.06,6.09,6.09,0,0,0-1.75.68.34.34,0,0,0-.12.38.07.07,0,0,0,0,.06A10.27,10.27,0,0,1,176.2,208.43Z"/><path class="cls-36" d="M177.48,205.64s-.91-4.85-1.62-8.25l-1.6.55a41.19,41.19,0,0,1,1.76,5.41c.17.62.28,1.27.48,1.88.07.24.23.61.07.86a1.39,1.39,0,0,1-.56.52,4.64,4.64,0,0,1,1-.25.14.14,0,0,1,.11.23c-.3.29-.59,1-1,1.1a12.83,12.83,0,0,1-1.86,0,9.81,9.81,0,0,0-2.81.49l-.17.08c.6-.08,1.22-.09,1.83-.12a10.43,10.43,0,0,1,2.09,0,2.66,2.66,0,0,1,1.26.39c.52.48-.94,1.37-1.2,1.56a18.57,18.57,0,0,1-3.16,1.71c.23-.07.45-.14.69-.19a12.64,12.64,0,0,0,1.36-.43c.89-.35,1.74-.79,2.58-1.22.29-.15.6-.3.75.06a7.59,7.59,0,0,1,.31,1.06c.48-.41.79-.74,1.12-1-.11-.49-.46-2.09-.58-2.54-.18-.69-.54-.81-.54-.81a1.91,1.91,0,0,1,.15-.61C178.12,205.74,177.48,205.64,177.48,205.64Z"/><path class="cls-36" d="M176.68,210.66a17.92,17.92,0,0,1-4,1.93,23.73,23.73,0,0,1-4.7,1.08,7.7,7.7,0,0,1-2.09.06h0c.16.4.31.78.42,1a23.39,23.39,0,0,0,6.84-1.29c4.1-1.49,4.87-2.6,5.75-3.42,0-.17-.1-.45-.17-.76A19.06,19.06,0,0,1,176.68,210.66Z"/><path class="cls-35" d="M172.42,199.72a43.8,43.8,0,0,1-5.92,1.37.8.8,0,0,1-.88-.69.79.79,0,0,1,.63-.9,40.05,40.05,0,0,0,9.25-2.6.76.76,0,0,1,1,.43.8.8,0,0,1-.39,1A33.48,33.48,0,0,1,172.42,199.72Z"/><path class="cls-37" d="M170.35,201.77c-1.08.06-2.12.15-3.19.11,0,0-.12.1-.08.11a6.18,6.18,0,0,0,2.12.17,3.76,3.76,0,0,0-1.46.86c-.06,0-.13.16-.08.22.23.17.76.22.58.56a.52.52,0,0,0,0,.56,15.93,15.93,0,0,0,1.51,3.63s.11-.07.09-.1c-.29-.67-1.6-3.74-1.1-4.3.14-.18.1-.25,0-.41s-.5-.18-.59-.2c.15.06,1.63-.77,2-.88C170.24,202.07,170.54,201.76,170.35,201.77Z"/><path class="cls-37" d="M168,211.92c-.95-.34-.18-1.36.57-2.14a18.17,18.17,0,0,0-1.95,1.82c-.1.15-.22.39,0,.52a3.67,3.67,0,0,0,2.16-.08A2,2,0,0,1,168,211.92Z"/><path class="cls-32" d="M201.54,202.65c-1.5-.5-4-.79-4.1-1.19-.27-1.36-1.21-8.69-1.21-8.74a91.37,91.37,0,0,1-10.1,2.09c1,3.34,2.46,8,2.46,8s-.53.4-.22.64a1.83,1.83,0,0,1,.42.46s-.26.27-.1,1c.12.46.56,2,.71,2.52,1.14.3,2.34.9,6.65.3a24.18,24.18,0,0,0,6.67-2.09C202.61,204.87,202.56,203,201.54,202.65Z"/><path class="cls-33" d="M189.64,207.16l.25.07c1.07.32,2.38.71,6.12.19.63-.1,1.27-.22,1.93-.38a26.19,26.19,0,0,0,4.43-1.59c0-.07,0-.12,0-.2-.1-.77-.24-2.07-.9-2.29a20.31,20.31,0,0,0-2.11-.53c-1.51-.34-2.13-.48-2.21-.91-.24-1.2-1-6.82-1.16-8.38-.4.12-.81.23-1.28.35-3,.74-6.94,1.41-8.15,1.58,1,3.28,2.35,7.64,2.35,7.69a.32.32,0,0,1-.11.35,1.22,1.22,0,0,0-.15.17,2.42,2.42,0,0,1,.45.5.33.33,0,0,1-.06.4h0a1.06,1.06,0,0,0,0,.68c.07.28.27,1,.46,1.64C189.53,206.75,189.6,207,189.64,207.16Z"/><path class="cls-34" d="M201.54,202.65c-1.5-.5-4-.79-4.1-1.19-.27-1.36-1.21-8.69-1.21-8.74a91.37,91.37,0,0,1-10.1,2.09c1,3.34,2.46,8,2.46,8s-.53.4-.22.64a1.83,1.83,0,0,1,.42.46s-.26.27-.1,1c.12.46.56,2,.71,2.52,1.14.3,2.34.9,6.65.3a24.18,24.18,0,0,0,6.67-2.09C202.61,204.87,202.56,203,201.54,202.65Z"/><path class="cls-35" d="M191.52,206.2a23.2,23.2,0,0,0,5.14-.35,20.94,20.94,0,0,0,2.75-.72,19.22,19.22,0,0,0,2.18-.84,1.8,1.8,0,0,0,.78-.67,12.73,12.73,0,0,1,.35,2,24.18,24.18,0,0,1-6.67,2.09c-4.31.6-5.51,0-6.65-.3-.1-.3-.29-1-.46-1.57A13.51,13.51,0,0,0,191.52,206.2Z"/><path class="cls-34" d="M197.68,201.7s-2.73-.28-6.53,2.71Z"/><path class="cls-24" d="M191,204.73a15.72,15.72,0,0,1,6.79-3.32.36.36,0,0,0-.11,0,6.24,6.24,0,0,0-1.87.23,13.44,13.44,0,0,0-4.91,2.55.35.35,0,0,0-.08.42A1.29,1.29,0,0,0,191,204.73Z"/><path class="cls-36" d="M188.59,202.85s-1.48-4.7-2.46-8l1.67-.27a36.86,36.86,0,0,0,1,5.61c.12.62.35,1.25.44,1.88.06.25.09.64.33.79a1.37,1.37,0,0,0,.76.19,5.62,5.62,0,0,0-1.05.28.14.14,0,0,0,0,.25c.4.13,1,.61,1.43.49a15.15,15.15,0,0,0,1.64-.87,9.6,9.6,0,0,1,2.71-.9h.18c-.56.21-1.11.5-1.68.76a9.68,9.68,0,0,0-1.81,1c-.31.23-.8.56-.94.94-.23.66,1.48.76,1.79.81a18.73,18.73,0,0,0,3.59,0c-.23.06-.47.09-.69.15a12.14,12.14,0,0,1-1.41.27,27.31,27.31,0,0,1-2.87.14c-.3,0-.65,0-.61.41s.14.72.21,1.08c-.6-.12-1-.3-1.45-.39-.15-.5-.59-2.06-.71-2.52-.16-.7.1-1,.1-1a1.83,1.83,0,0,0-.42-.46C188.06,203.25,188.59,202.85,188.59,202.85Z"/><path class="cls-36" d="M191.66,206.91a17.92,17.92,0,0,0,4.39-.18,22.34,22.34,0,0,0,4.65-1.26,7.49,7.49,0,0,0,1.88-.93h0c0,.41.09.84.13,1.11a24.18,24.18,0,0,1-6.67,2.09c-4.31.6-5.51,0-6.65-.3-.06-.17-.14-.45-.23-.77A18.83,18.83,0,0,0,191.66,206.91Z"/><path class="cls-35" d="M190.25,195.25a42.66,42.66,0,0,0,5.87-1.59.78.78,0,0,0,.44-1,.76.76,0,0,0-1-.48,41.59,41.59,0,0,1-9.39,2.06.75.75,0,0,0-.67.85.78.78,0,0,0,.82.74A34.18,34.18,0,0,0,190.25,195.25Z"/><path class="cls-37" d="M193,196.08c1-.46,1.94-.87,2.87-1.4,0,0,.14,0,.1,0a5.69,5.69,0,0,1-1.78,1.15,3.81,3.81,0,0,1,1.71.07c.07,0,.2.07.16.15-.11.27-.55.55-.25.78s.27.22.3.47a17.66,17.66,0,0,1,.4,3.91s-.14,0-.14,0c0-.72-.36-4-1.08-4.32-.19-.07-.18-.16-.19-.34s.35-.38.43-.45c-.14.12-1.83.09-2.19.17C193.28,196.3,192.87,196.16,193,196.08Z"/><path class="cls-37" d="M199.93,203.91c.68-.75-.48-1.29-1.52-1.63A20.64,20.64,0,0,1,201,203c.16.09.4.26.24.46a3.6,3.6,0,0,1-1.93.95A2.21,2.21,0,0,0,199.93,203.91Z"/><path class="cls-30" d="M154.63,129.74s-7.62,8.3-2.74,21.57c0,0-4.26-20.14,15.72-25.94A14.59,14.59,0,0,0,154.63,129.74Z"/><g class="cls-38"><path class="cls-39" d="M179.31,156.13a1.13,1.13,0,0,0-1.53-.06l-.06,0a1.57,1.57,0,0,0-.61.77c0,.06-.05.13-.09.22h0a1.91,1.91,0,0,0,0,1.41c.26.46.93.3,1.31.14C179.25,158.25,180.06,157,179.31,156.13Z"/><path class="cls-39" d="M183.1,154c-.2-.1-.38,0-.53.2l-.15.11a.88.88,0,0,0-.24.67.4.4,0,0,0,.47.33,1,1,0,0,0,.64-.64A.49.49,0,0,0,183.1,154Z"/><path class="cls-39" d="M184.82,156.29a.83.83,0,0,0-.77.08.76.76,0,0,0-.38,0,1.11,1.11,0,0,0-.55,1.45,1.32,1.32,0,0,0,.76.65c.37.15.72-.17,1-.42C185.38,157.59,185.66,156.65,184.82,156.29Z"/><path class="cls-39" d="M185.76,152.91a.82.82,0,0,0-.64.12.79.79,0,0,0-.54.35,1.05,1.05,0,0,0,.11,1.42c.51.46,1.22.06,1.51-.44A1,1,0,0,0,185.76,152.91Z"/></g><g class="cls-38"><path class="cls-39" d="M163.05,162.38c.41.06,1.09.09,1.25-.42a1.83,1.83,0,0,0-.27-1.34,0,0,0,0,0,0,0,.41.41,0,0,0-.12-.19,1.52,1.52,0,0,0-.76-.64l0,0a1.15,1.15,0,0,0-1.5.39C161,161.13,162.07,162.16,163.05,162.38Z"/><path class="cls-39" d="M156.62,159.1a.47.47,0,0,1,.56.11s.11,0,.17.06a.85.85,0,0,1,.37.59.37.37,0,0,1-.4.42,1,1,0,0,1-.74-.48A.5.5,0,0,1,156.62,159.1Z"/><path class="cls-39" d="M155.74,163.48a1,1,0,0,0,1,.21,1.4,1.4,0,0,0,.58-.79,1.09,1.09,0,0,0-.81-1.31.67.67,0,0,0-.4,0,.79.79,0,0,0-.74.09C154.63,162.2,155.1,163.08,155.74,163.48Z"/><path class="cls-39" d="M153.81,158.54a1,1,0,0,1,.65,0,.74.74,0,0,1,.58.24,1.09,1.09,0,0,1,.22,1.42c-.42.57-1.22.3-1.61-.13A1,1,0,0,1,153.81,158.54Z"/></g><g class="cls-38"><path class="cls-39" d="M167.75,164.68a1.16,1.16,0,0,0-1-1.16h-.06a1.61,1.61,0,0,0-1,.11c-.07,0-.14.05-.22.07h0a2,2,0,0,0-1,1c-.16.51.41.88.81,1C166.19,166.1,167.64,165.86,167.75,164.68Z"/><path class="cls-39" d="M174.64,160.79a.46.46,0,0,0-.52-.23.26.26,0,0,0-.18,0,.91.91,0,0,0-.65.27.38.38,0,0,0,.1.58,1,1,0,0,0,.87,0C174.5,161.3,174.74,161.05,174.64,160.79Z"/><path class="cls-39" d="M174.17,163.62a.85.85,0,0,0-.57-.5.76.76,0,0,0-.31-.24,1.09,1.09,0,0,0-1.43.61,1.36,1.36,0,0,0,0,1c.17.38.64.42,1,.43C173.62,164.94,174.52,164.48,174.17,163.62Z"/><path class="cls-39" d="M177.26,161.93a1.79,1.79,0,0,0-1.14-.51,1.06,1.06,0,0,0-1,1.05c0,.7.81.93,1.38.81A1,1,0,0,0,177.26,161.93Z"/></g><path class="cls-32" d="M161.67,171.1l.31,1.11c.19.73.47,1.75.8,3l1.07,4.2c.37,1.54.82,3.18,1.22,4.81s.83,3.3,1.18,4.84.78,3,1.09,4.18.57,2.27.76,3l.24,1.14s-.13-.41-.37-1.1-.58-1.71-1-2.92-.84-2.63-1.3-4.15-.83-3.17-1.24-4.82l-.61-2.45c-.22-.82-.39-1.61-.56-2.39-.33-1.56-.62-3-.88-4.24s-.43-2.3-.56-3S161.67,171.1,161.67,171.1Z"/><path class="cls-32" d="M183.16,166.73s.14.38.41,1,.61,1.6,1,2.74.81,2.5,1.27,4c.21.72.43,1.46.64,2.23s.44,1.54.64,2.33c.36,1.57.79,3.13,1.06,4.62.14.75.27,1.47.41,2.16s.26,1.3.33,1.92c.16,1.19.28,2.2.37,2.89s.12,1.1.12,1.1-.1-.37-.25-1.07-.38-1.66-.61-2.86c-.1-.58-.27-1.22-.43-1.89s-.32-1.39-.49-2.11-.36-1.5-.56-2.27-.4-1.55-.59-2.33-.41-1.55-.61-2.32-.39-1.52-.58-2.25c-.41-1.44-.72-2.82-1.07-4C183.59,168.3,183.16,166.73,183.16,166.73Z"/><path class="cls-32" d="M148.12,112.72s-.41.57-1.07,1.6-1.6,2.51-2.66,4.32c-.52.91-1.07,1.89-1.64,3s-1.14,2.18-1.71,3.36-1.12,2.41-1.68,3.67-1,2.57-1.51,3.88-.94,2.63-1.33,4c-.19.65-.38,1.3-.53,2s-.33,1.31-.45,1.93-.27,1.28-.4,1.89-.2,1.23-.31,1.81-.16,1.18-.21,1.74-.13,1.11-.15,1.64c-.09,1-.11,2-.13,2.83s0,1.61,0,2.22c.11,1.22.14,1.92.14,1.92s-.07-.7-.25-1.91c-.05-.6-.12-1.35-.16-2.21a27.44,27.44,0,0,1,0-2.88c0-.53.05-1.09.08-1.63s.1-1.17.18-1.76a37.63,37.63,0,0,1,.61-3.76c.14-.66.28-1.32.45-2s.34-1.33.53-2c.37-1.35.81-2.69,1.28-4s1-2.62,1.57-3.88,1.14-2.51,1.73-3.69c1.19-2.35,2.43-4.46,3.55-6.26s2.15-3.22,2.86-4.2S148.12,112.72,148.12,112.72Z"/><path class="cls-32" d="M172.61,108.33s.67.25,1.8.75,2.71,1.26,4.55,2.29c.93.52,1.91,1.13,3,1.75s2.1,1.33,3.17,2.11a63.91,63.91,0,0,1,6.47,5.21c.54.47,1.05,1,1.54,1.47s1,1,1.45,1.52c1,1,1.86,2.07,2.68,3.09a36.45,36.45,0,0,1,2.24,3.11c.67,1,1.28,2,1.79,2.93s.93,1.81,1.32,2.57.63,1.5.86,2.06c.42,1.16.64,1.83.64,1.83s-.27-.65-.77-1.78c-.25-.57-.57-1.23-1-2s-.87-1.61-1.41-2.5-1.17-1.87-1.85-2.85-1.47-2-2.29-3-1.74-2-2.68-3-1.94-2-3-2.93a65.92,65.92,0,0,0-6.37-5.22c-2.12-1.56-4.16-2.9-6-4s-3.35-1.94-4.43-2.51S172.61,108.33,172.61,108.33Z"/></g><path class="cls-40" d="M13.34,168c2.63-.66,5.07-.42,6.24.46a1.25,1.25,0,0,0,.2-1c-.33-1.4-3.38-1.79-6.8-.94s-5.9,2.65-5.57,4a1.4,1.4,0,0,0,.64.78C8.67,170.07,10.71,168.7,13.34,168Z"/><path class="cls-41" d="M14.21,171.53c2.64-.65,4.71-1.87,5.37-3-1.17-.88-3.61-1.12-6.24-.46s-4.67,2-5.29,3.36C9.18,172.11,11.58,172.2,14.21,171.53Z"/><path class="cls-42" d="M15.48,170.77c-1.6.42-4.18,1.16-5.8.2a.93.93,0,0,1-.44-1,4.62,4.62,0,0,0-1.19,1.44c1.13.71,3.53.8,6.16.13a11.71,11.71,0,0,0,4.23-1.87C17.47,170,16.41,170.53,15.48,170.77Z"/><path class="cls-43" d="M10.91,170.18c.05.18-.16.37-.49.45s-.57,0-.63-.17.18-.35.49-.42S10.87,170,10.91,170.18Z"/><path class="cls-43" d="M11.88,169.23c0,.14-.15.28-.39.35s-.47,0-.5-.12.16-.29.39-.34S11.84,169.11,11.88,169.23Z"/><path class="cls-32" d="M8.05,171.4l.52.2c.16,0,.35.07.58.12s.51.05.79.07a7.27,7.27,0,0,0,.93,0c.35,0,.68-.05,1.06-.08s.72-.12,1.09-.17.76-.15,1.13-.25.76-.19,1.12-.32.72-.22,1.05-.36.65-.27,1-.42a5.39,5.39,0,0,0,.83-.44c.25-.15.45-.31.66-.43l.46-.39c.23-.26.35-.42.35-.42l-.27.48c-.11.14-.26.29-.42.47s-.37.36-.62.55-.51.35-.81.51a6.33,6.33,0,0,1-1,.51c-.33.16-.69.28-1.07.42s-.73.23-1.14.35a14.33,14.33,0,0,1-2.32.36,6.53,6.53,0,0,1-1.08,0,7.06,7.06,0,0,1-1-.1,7.06,7.06,0,0,1-.8-.16l-.58-.23Z"/><path class="cls-40" d="M181.5,166.21c2.63-.67,5.06-.44,6.25.46a1.49,1.49,0,0,0,.18-1c-.33-1.35-3.38-1.79-6.8-.93s-5.91,2.66-5.56,4a1.41,1.41,0,0,0,.64.79C176.83,168.21,178.86,166.88,181.5,166.21Z"/><path class="cls-41" d="M182.37,169.69c2.64-.65,4.72-1.87,5.38-3-1.19-.9-3.62-1.13-6.25-.46s-4.67,2-5.29,3.35C177.33,170.27,179.74,170.35,182.37,169.69Z"/><path class="cls-42" d="M183.63,168.92c-1.6.42-4.19,1.18-5.79.21a.91.91,0,0,1-.44-1,4,4,0,0,0-1.19,1.43c1.12.71,3.53.79,6.16.13a12.64,12.64,0,0,0,4.23-1.85C185.62,168.13,184.57,168.67,183.63,168.92Z"/><path class="cls-43" d="M179.08,168.34c0,.17-.18.36-.49.45s-.59,0-.63-.16.17-.37.47-.45S179,168.18,179.08,168.34Z"/><path class="cls-43" d="M180,167.38c0,.15-.12.31-.36.37s-.47,0-.51-.14.14-.28.4-.34S180,167.27,180,167.38Z"/><path class="cls-32" d="M176.21,169.56l.5.2.61.12c.23,0,.5.05.78.07s.59,0,.94,0a9.29,9.29,0,0,0,1-.08c.35,0,.72-.12,1.12-.18s.75-.15,1.12-.24.75-.19,1.13-.32.69-.22,1-.36.67-.28,1-.42.58-.31.84-.43.44-.33.65-.44.35-.31.46-.41c.25-.25.37-.39.37-.39l-.29.47c-.1.12-.26.28-.42.46a4.29,4.29,0,0,1-.62.54,7,7,0,0,1-.81.52,7.35,7.35,0,0,1-1,.51c-.33.16-.71.3-1.07.44s-.75.22-1.13.34a16.06,16.06,0,0,1-2.33.36,7.69,7.69,0,0,1-1.07,0,9.2,9.2,0,0,1-1-.07c-.3-.06-.57-.14-.8-.19l-.6-.22Z"/><path class="cls-40" d="M330.63,88.49c2.64-.66,5.08-.43,6.25.47a1.32,1.32,0,0,0,.2-1c-.36-1.39-3.41-1.79-6.82-.94s-5.91,2.66-5.57,4a1.4,1.4,0,0,0,.64.78C325.93,90.51,328,89.16,330.63,88.49Z"/><path class="cls-41" d="M331.51,92c2.63-.67,4.71-1.89,5.37-3-1.17-.9-3.61-1.13-6.25-.47s-4.7,2-5.3,3.36C326.46,92.55,328.87,92.64,331.51,92Z"/><path class="cls-42" d="M332.76,91.22c-1.58.41-4.19,1.16-5.79.19a.9.9,0,0,1-.43-1,4.34,4.34,0,0,0-1.21,1.44c1.13.7,3.54.79,6.18.14a12.37,12.37,0,0,0,4.22-1.88C334.76,90.42,333.71,91,332.76,91.22Z"/><path class="cls-43" d="M328.2,90.63c.05.17-.17.36-.48.44s-.59,0-.64-.16.19-.35.49-.43S328.17,90.46,328.2,90.63Z"/><path class="cls-43" d="M329.16,89.69c0,.13-.14.26-.38.34s-.45,0-.49-.13.13-.28.37-.34S329.13,89.55,329.16,89.69Z"/><path class="cls-32" d="M325.33,91.85s.2.06.51.19l.6.13.79.06a7.37,7.37,0,0,0,.94,0c.33,0,.68,0,1-.08s.73-.13,1.12-.18.74-.15,1.12-.23.77-.2,1.12-.33a9.75,9.75,0,0,0,1-.37c.34-.14.67-.26,1-.42a7.8,7.8,0,0,0,.82-.42c.24-.16.46-.32.66-.44l.49-.4a4.49,4.49,0,0,1,.34-.4s-.1.16-.27.47c-.14.14-.27.29-.43.47s-.4.36-.62.54-.51.36-.81.53a6.77,6.77,0,0,1-1,.49c-.33.17-.71.28-1.08.43s-.74.23-1.14.34a14.9,14.9,0,0,1-2.32.37,6.45,6.45,0,0,1-1.07,0,6.85,6.85,0,0,1-1-.11,4.83,4.83,0,0,1-.81-.16l-.6-.22Z"/></g></g></g></g></g></svg>