<svg xmlns="http://www.w3.org/2000/svg" xmlns:xlink="http://www.w3.org/1999/xlink" viewBox="0 0 650 450"><defs><style>.cls-1{isolation:isolate;}.cls-2{fill:url(#Áåçûìÿííûé_ãðàäèåíò_31);}.cls-3{fill:#ff0961;opacity:0.1;}.cls-3,.cls-4,.cls-5{mix-blend-mode:multiply;}.cls-4{fill:#00507f;opacity:0.28;}.cls-5{fill:#e17abb;opacity:0.31;}.cls-10,.cls-11,.cls-12,.cls-13,.cls-14,.cls-15,.cls-16,.cls-17,.cls-21,.cls-27,.cls-28,.cls-29,.cls-32,.cls-34,.cls-35,.cls-36,.cls-37,.cls-6,.cls-7,.cls-8,.cls-9{mix-blend-mode:screen;}.cls-6{fill:url(#Áåçûìÿííûé_ãðàäèåíò_43);}.cls-7{fill:url(#Áåçûìÿííûé_ãðàäèåíò_51);}.cls-8{fill:url(#Áåçûìÿííûé_ãðàäèåíò_51-2);}.cls-9{fill:url(#Áåçûìÿííûé_ãðàäèåíò_51-3);}.cls-10{fill:url(#Áåçûìÿííûé_ãðàäèåíò_51-4);}.cls-11{fill:url(#Áåçûìÿííûé_ãðàäèåíò_58);}.cls-12{fill:url(#Áåçûìÿííûé_ãðàäèåíò_51-5);}.cls-13{fill:url(#Áåçûìÿííûé_ãðàäèåíò_51-6);}.cls-14{fill:url(#Áåçûìÿííûé_ãðàäèåíò_58-2);}.cls-15{fill:url(#Áåçûìÿííûé_ãðàäèåíò_51-7);}.cls-16{fill:url(#Áåçûìÿííûé_ãðàäèåíò_51-8);}.cls-17{fill:url(#Áåçûìÿííûé_ãðàäèåíò_58-3);}.cls-18,.cls-19,.cls-20,.cls-38,.cls-39{fill:#fff;}.cls-19{opacity:0.26;}.cls-20{opacity:0.15;}.cls-22{fill:url(#Áåçûìÿííûé_ãðàäèåíò_125);}.cls-23{fill:url(#Áåçûìÿííûé_ãðàäèåíò_122);}.cls-24{fill:url(#Áåçûìÿííûé_ãðàäèåíò_10);}.cls-25{fill:url(#Áåçûìÿííûé_ãðàäèåíò_10-2);}.cls-26{fill:url(#Áåçûìÿííûé_ãðàäèåíò_10-3);}.cls-27{fill:url(#Áåçûìÿííûé_ãðàäèåíò_17);}.cls-28{fill:url(#Áåçûìÿííûé_ãðàäèåíò_85);}.cls-29{fill:url(#Áåçûìÿííûé_ãðàäèåíò_85-2);}.cls-30{fill:url(#Áåçûìÿííûé_ãðàäèåíò_85-3);}.cls-31{fill:url(#Áåçûìÿííûé_ãðàäèåíò_85-4);}.cls-32{opacity:0.61;fill:url(#Áåçûìÿííûé_ãðàäèåíò_17-2);}.cls-33{fill:url(#Áåçûìÿííûé_ãðàäèåíò_120);}.cls-34{fill:url(#Áåçûìÿííûé_ãðàäèåíò_122-2);}.cls-35{fill:url(#Áåçûìÿííûé_ãðàäèåíò_122-3);}.cls-36{fill:url(#Áåçûìÿííûé_ãðàäèåíò_122-4);}.cls-37{fill:url(#Áåçûìÿííûé_ãðàäèåíò_122-5);}.cls-38{opacity:0.17;}.cls-39{opacity:0.58;}</style><radialGradient id="Áåçûìÿííûé_ãðàäèåíò_31" cx="325" cy="225" r="367.17" gradientUnits="userSpaceOnUse"><stop offset="0" stop-color="#0f4d91"/><stop offset="1" stop-color="#221e36"/></radialGradient><radialGradient id="Áåçûìÿííûé_ãðàäèåíò_43" cx="328.15" cy="225" r="190.78" gradientTransform="translate(-178.65) scale(1.53 1)" gradientUnits="userSpaceOnUse"><stop offset="0" stop-color="#8e0046"/><stop offset="1"/></radialGradient><radialGradient id="Áåçûìÿííûé_ãðàäèåíò_51" cx="325" cy="237.82" r="229.84" gradientUnits="userSpaceOnUse"><stop offset="0" stop-color="#340093"/><stop offset="1"/></radialGradient><radialGradient id="Áåçûìÿííûé_ãðàäèåíò_51-2" cx="346.68" cy="225" r="227.58" xlink:href="#Áåçûìÿííûé_ãðàäèåíò_51"/><radialGradient id="Áåçûìÿííûé_ãðàäèåíò_51-3" cx="336.52" cy="243.47" r="38.78" gradientTransform="matrix(0.78, -0.63, 0.63, 0.78, -80.25, 260.61)" xlink:href="#Áåçûìÿííûé_ãðàäèåíò_51"/><radialGradient id="Áåçûìÿííûé_ãðàäèåíò_51-4" cx="337.61" cy="239.66" r="39.31" gradientTransform="matrix(0.81, -0.58, 0.58, 0.81, -82.03, 238.66)" xlink:href="#Áåçûìÿííûé_ãðàäèåíò_51"/><radialGradient id="Áåçûìÿííûé_ãðàäèåíò_58" cx="333.7" cy="237.01" r="4.69" gradientUnits="userSpaceOnUse"><stop offset="0" stop-color="#ff3a80"/><stop offset="1"/></radialGradient><radialGradient id="Áåçûìÿííûé_ãðàäèåíò_51-5" cx="327.55" cy="65.12" r="27.3" gradientTransform="matrix(0.78, -0.63, 0.63, 0.78, -80.25, 260.61)" xlink:href="#Áåçûìÿííûé_ãðàäèåíò_51"/><radialGradient id="Áåçûìÿííûé_ãðàäèåíò_51-6" cx="318.26" cy="62.67" r="27.67" gradientTransform="matrix(0.81, -0.58, 0.58, 0.81, -82.03, 238.66)" xlink:href="#Áåçûìÿííûé_ãðàäèåíò_51"/><radialGradient id="Áåçûìÿííûé_ãðàäèåíò_58-2" cx="214.63" cy="104.36" r="3.3" xlink:href="#Áåçûìÿííûé_ãðàäèåíò_58"/><radialGradient id="Áåçûìÿííûé_ãðàäèåíò_51-7" cx="560.37" cy="380.36" r="27.3" gradientTransform="matrix(1, 0, 0, 1, 34.2, -177.24)" xlink:href="#Áåçûìÿííûé_ãðàäèåíò_51"/><radialGradient id="Áåçûìÿííûé_ãðàäèåíò_51-8" cx="570.01" cy="362.97" r="27.67" gradientTransform="matrix(0.81, -0.58, 0.58, 0.81, -82.03, 238.66)" xlink:href="#Áåçûìÿííûé_ãðàäèåíò_51"/><radialGradient id="Áåçûìÿííûé_ãðàäèåíò_58-3" cx="594" cy="202.57" r="3.3" xlink:href="#Áåçûìÿííûé_ãðàäèåíò_58"/><radialGradient id="Áåçûìÿííûé_ãðàäèåíò_125" cx="259.38" cy="217.76" r="189.69" gradientUnits="userSpaceOnUse"><stop offset="0" stop-color="#004ae1"/><stop offset="0.1" stop-color="#0048db"/><stop offset="0.24" stop-color="#0042c9"/><stop offset="0.39" stop-color="#0039ac"/><stop offset="0.57" stop-color="#002b84"/><stop offset="0.75" stop-color="#001a50"/><stop offset="0.95" stop-color="#000612"/><stop offset="1"/></radialGradient><radialGradient id="Áåçûìÿííûé_ãðàäèåíò_122" cx="521.85" cy="293.13" r="107.85" gradientUnits="userSpaceOnUse"><stop offset="0" stop-color="#004ae1"/><stop offset="1"/></radialGradient><radialGradient id="Áåçûìÿííûé_ãðàäèåíò_10" cx="335.16" cy="237.29" r="87.4" gradientTransform="translate(475.23 -148.74) rotate(74.65)" gradientUnits="userSpaceOnUse"><stop offset="0" stop-color="#ff2c49"/><stop offset="1"/></radialGradient><radialGradient id="Áåçûìÿííûé_ãðàäèåíò_10-2" cx="332" cy="237.18" r="34.31" gradientTransform="translate(90.95 -92.02) rotate(18.25)" xlink:href="#Áåçûìÿííûé_ãðàäèåíò_10"/><radialGradient id="Áåçûìÿííûé_ãðàäèåíò_10-3" cx="333.7" cy="237.29" r="29.77" gradientTransform="translate(48.89 -56.9) rotate(10.51)" xlink:href="#Áåçûìÿííûé_ãðàäèåíò_10"/><radialGradient id="Áåçûìÿííûé_ãðàäèåíò_17" cx="334.38" cy="500.33" r="19.06" gradientTransform="translate(0 -248.12) scale(1 0.97)" gradientUnits="userSpaceOnUse"><stop offset="0" stop-color="#ff0967"/><stop offset="1"/></radialGradient><linearGradient id="Áåçûìÿííûé_ãðàäèåíò_85" x1="180.52" y1="108.87" x2="110.24" y2="91.72" gradientTransform="translate(149.25 -83.02) rotate(54.38)" gradientUnits="userSpaceOnUse"><stop offset="0" stop-color="#ff9cdd"/><stop offset="0" stop-color="#fc9ada"/><stop offset="0.08" stop-color="#c77aad"/><stop offset="0.17" stop-color="#985d84"/><stop offset="0.26" stop-color="#6f4460"/><stop offset="0.35" stop-color="#4d2f43"/><stop offset="0.45" stop-color="#311e2a"/><stop offset="0.55" stop-color="#1b1118"/><stop offset="0.67" stop-color="#0c070a"/><stop offset="0.8" stop-color="#030202"/><stop offset="1"/></linearGradient><linearGradient id="Áåçûìÿííûé_ãðàäèåíò_85-2" x1="383.74" y1="113.93" x2="411.07" y2="87.27" gradientTransform="matrix(1, 0, 0, 1, 0, 0)" xlink:href="#Áåçûìÿííûé_ãðàäèåíò_85"/><linearGradient id="Áåçûìÿííûé_ãðàäèåíò_85-3" x1="500.36" y1="286.66" x2="537.69" y2="305.99" gradientTransform="translate(358.9 -277.98) rotate(45)" xlink:href="#Áåçûìÿííûé_ãðàäèåíò_85"/><linearGradient id="Áåçûìÿííûé_ãðàäèåíò_85-4" x1="281.68" y1="253.47" x2="263.68" y2="266.47" gradientTransform="matrix(1, 0, 0, 1, 0, 0)" xlink:href="#Áåçûìÿííûé_ãðàäèåíò_85"/><radialGradient id="Áåçûìÿííûé_ãðàäèåíò_17-2" cx="337.19" cy="1231.53" r="70.65" gradientTransform="translate(0 -889.8) scale(1 0.89)" xlink:href="#Áåçûìÿííûé_ãðàäèåíò_17"/><linearGradient id="Áåçûìÿííûé_ãðàäèåíò_120" x1="434.38" y1="198.48" x2="516.38" y2="180.48" gradientUnits="userSpaceOnUse"><stop offset="0" stop-color="#ff9cdd"/><stop offset="0.01" stop-color="#fd9cde"/><stop offset="0.11" stop-color="#d599e6"/><stop offset="0.22" stop-color="#b396ee"/><stop offset="0.34" stop-color="#9794f4"/><stop offset="0.46" stop-color="#8192f9"/><stop offset="0.6" stop-color="#7291fc"/><stop offset="0.76" stop-color="#6990fe"/><stop offset="1" stop-color="#6690ff"/></linearGradient><radialGradient id="Áåçûìÿííûé_ãðàäèåíò_122-2" cx="474.36" cy="189.88" r="34.61" gradientTransform="translate(566.33 -312.73) rotate(78.55)" xlink:href="#Áåçûìÿííûé_ãðàäèåíò_122"/><radialGradient id="Áåçûìÿííûé_ãðàäèåíò_122-3" cx="481.6" cy="228.57" r="4.09" xlink:href="#Áåçûìÿííûé_ãðàäèåíò_122"/><radialGradient id="Áåçûìÿííûé_ãðàäèåíò_122-4" cx="511.21" cy="174.57" r="2.24" xlink:href="#Áåçûìÿííûé_ãðàäèåíò_122"/><radialGradient id="Áåçûìÿííûé_ãðàäèåíò_122-5" cx="460.15" cy="155" r="2.15" xlink:href="#Áåçûìÿííûé_ãðàäèåíò_122"/></defs><title>all</title><g class="cls-1"><g id="Layer_2" data-name="Layer 2"><g id="space"><rect class="cls-2" width="650" height="450"/><path class="cls-3" d="M650,97.63V288.27c-4.63,9.2-9.74,18.16-15.24,26.81A334.56,334.56,0,0,1,605,354.94q-4.29,4.95-8.69,9.66h0a302.84,302.84,0,0,1-34.26,31.48q-3.72,2.91-7.54,5.65c-32.39,23.44-69.49,39-108.65,48.27H247.94a501.85,501.85,0,0,1-91.77-27.88h0c-2.24-.92-4.46-1.87-6.66-2.83l-2-.89c-27.92-12.33-52.26-26.68-71.31-42.15-24.33-19.73-40-41.27-43.55-62.67-2.81-17.14,2.09-35,12.61-52.7A158,158,0,0,1,58.49,242q3.46-4.26,7.31-8.5a267.63,267.63,0,0,1,22.13-21.6c27.25-23.89,61.87-46.12,98-64.47,14.85-7.56,29.94-14.46,44.88-20.55l3.31-1.34c15.71-6.29,31.21-11.68,46-16A587.6,587.6,0,0,1,358.69,92h0c24.69-3.63,52-5.63,77.89-3.19h0a176.37,176.37,0,0,1,33.48,6.22h0c3.29,1,6.5,2.06,9.64,3.27l.62.24A101.52,101.52,0,0,1,506,112.81a83.05,83.05,0,0,1,17.1,17.78c16.06,22.69,18.41,50.32,15.4,75.4q-.15,1.31-.33,2.61a196.8,196.8,0,0,1-4.92,24.34c-.9,3.39-1.85,6.66-2.82,9.77-1.46,4.65-3,9-4.42,12.82a200.92,200.92,0,0,1-8.91,20.56A164.81,164.81,0,0,1,479.17,324c-48.71,42.49-111.64,49.53-125.58,51.09a258.22,258.22,0,0,1-35,1.42A299.2,299.2,0,0,1,262,369.56c-1.81-.4-3.61-.81-5.4-1.25q-6.35-1.53-12.45-3.32-3.82-1.11-7.55-2.33-7.6-2.48-14.7-5.34c-.73-.3-1.46-.59-2.18-.9q-4-1.67-7.81-3.45c-27.59-13-46.73-30.34-48.83-49.88-2.25-20.92,15.56-42.3,40.08-60q3.56-2.58,7.29-5.05,4.26-2.82,8.7-5.49a272.88,272.88,0,0,1,37.47-18.66c6.5-2.63,12.87-4.9,19-6.77a213.73,213.73,0,0,1,26.85-6.33c1.27-.22,2.53-.42,3.79-.61l.28-.05c6.76-1,13.44-1.72,20-2.16a245.47,245.47,0,0,1,39.34.57c4.81.46,9.39,1.06,13.66,1.76l1.32.22c12.07,2.06,21.68,4.94,27.61,7.89h0c4.24,2.12,6.61,4.27,6.66,6.21.1,4-9.55,9.82-54.12,17.74-5,.89-10.35,1.8-16.21,2.73l-4.91.77h0l-1.55.24-.67.1q-.57.11-1.14.18h0l-.52.08-.18,0-.25,0,.18-.17.21-.19.58-.54h0l.38-.36.79-.75c.79-.75,1.52-1.47,2.2-2.16,3.91-3.95,6.15-6.87,7.2-9,.86-1.74.92-3,.45-3.81a3.23,3.23,0,0,0-1.46-1.25c-2.36-1.14-7.05-1.31-13.29-.64-2.18.24-4.55.58-7.08,1-.75.13-1.52.26-2.3.42-2.21.4-4.52.88-6.92,1.42a287.87,287.87,0,0,0-38.69,11.91h0a254.34,254.34,0,0,0-24.46,10.85c-21.82,11.19-38.87,24.89-39.19,38.87-.27,11.89,11.53,25.81,30.58,37.83,3,1.89,6.13,3.72,9.44,5.49,4.69,2.5,9.7,4.89,15,7.11A207.79,207.79,0,0,0,334.62,348a171.59,171.59,0,0,0,59.47-5.95C418.59,335,443.51,321,464,302.94a176.73,176.73,0,0,0,16.94-17c2.31-2.67,4.52-5.4,6.6-8.17a125.91,125.91,0,0,0,16.74-29.26c.74-1.86,1.42-3.74,2.05-5.62A95.48,95.48,0,0,0,509,232.79a78.1,78.1,0,0,0,.56-30.2c-6.47-35.43-37.39-58.42-61.52-71.35h0c-3.38-1.82-6.62-3.44-9.65-4.86-4-1.88-7.6-3.43-10.64-4.66h0c-3.72-1.51-6.55-2.55-8.17-3.13C395,109.66,369.64,107,344.73,109,292.94,113.13,243,137.53,205.5,168.14a265.27,265.27,0,0,0-19.9,18c-1,1-2.42,2.42-4.07,4.11-1.47,1.5-3.16,3.26-5,5.24a346.6,346.6,0,0,0-22.68,26.62c-2.64,3.44-5.3,7.05-7.92,10.82-2.23,3.17-4.42,6.46-6.56,9.84-18.91,29.85-33.74,67.15-22.73,102.36a85.64,85.64,0,0,0,10.6,22c.72,1.08,1.47,2.16,2.25,3.22,7.85,10.78,18.24,20.39,30.59,28.74q1.92,1.32,3.92,2.58,4,2.52,8.15,4.86h0c64.69,36.3,170.2,43.55,253.46,13.63,7.54-2.71,15.66-6,24.13-9.85l0,0c39-17.77,85.44-47.48,115.8-87.46,13.46-17.7,23.77-37.41,28.91-59a133.15,133.15,0,0,0,3.3-21.6c.2-2.86.3-5.76.31-8.68,0-.79,0-1.59,0-2.39A138.16,138.16,0,0,0,585.5,176c-.5-1.13-1-2.26-1.56-3.37-11.48-24-29.07-45.25-49.37-63.34a288.37,288.37,0,0,0-31.79-24.54q-2.67-1.8-5.36-3.51-4.07-2.62-8.17-5.07C482.12,71.9,475,68,467.87,64.43c-9-4.52-17.9-8.45-26.45-11.74h0q-6.57-2.53-12.82-4.58c-5.18-1.7-10.43-3.21-15.71-4.54h0c-49.25-12.42-102.79-9.4-156.91,7.33h0a412.49,412.49,0,0,0-62.77,25.45l-1.51.76c-34.55,17.49-68.74,40.32-101.57,68Q77.63,155.6,65.5,167q-4.3,4-8.57,8.2h0A685.25,685.25,0,0,0,3.08,234.32Q1.53,236.23,0,238.15V99.3c22.5-4,48.46-9,77.32-15.31,0,0,0,0,0,0s0,0,0,0l2-.43q17.7-3.9,36.77-8.5c23.31-5.63,48.06-12.08,74-19.46C274.29,31.66,324,11.26,365.93,0H495.65c8.45,2.22,18,5,28.17,8.56h0c7.91,2.74,16.19,5.92,24.64,9.58,2.48,1.07,5,2.19,7.48,3.35,29.95,13.89,61.17,34,84.34,62.8C643.71,88.54,647,93,650,97.63Z"/><path class="cls-4" d="M225.35,0A506.15,506.15,0,0,1,175.1,22.6a508.44,508.44,0,0,1-60.8,19.18A528.23,528.23,0,0,1,0,57V42.46A404.48,404.48,0,0,1,100.21,0h0l.08,0Z"/><path class="cls-4" d="M323,123a217.91,217.91,0,0,1-34,21,219.76,219.76,0,0,1-62,20,197.09,197.09,0,0,1,96-41Z"/><path class="cls-4" d="M491,56a794,794,0,0,0-215,8c-19.53,3.44-38.21,7.5-56,12a383.24,383.24,0,0,1,36-14C346.67,31.94,431.85,41.68,491,56Z"/><path class="cls-5" d="M650,0V79.54q-4.63,2.5-9.71,4.75c-24,10.69-54.91,17.44-87.67,22.44q-9,1.36-18,2.57c-9.49,1.27-19.06,2.42-28.58,3.51-8.36,1-16.69,1.88-24.9,2.78-6.45.71-13,1.36-19.53,2-5.44.55-10.82,1.1-16,1.7-6.29.72-12.3,1.5-17.79,2.42h0c-16.31,2.71-28.08,6.58-29.17,13.37-.92,5.74,6.22,10.76,14.76,16.13,3,1.87,6.13,3.79,9.16,5.8,8.52,5.64,16.14,12,16.58,20.07.48,8.71-7.41,19.06-30.66,31.29h0c-13.86,7.3-33.18,15.27-59.45,24h0l-2.18.73-5.57,1.79-3,1-.73.23-1,.32h0l-.51.16-.15.05-1.7.53,1.51-.94.27-.17.6-.38h0l.44-.28.89-.56,3.81-2.43c7.46-4.82,13.69-9.13,18.86-13a126.73,126.73,0,0,0,16.34-14h0a42.82,42.82,0,0,0,4-4.79A21.4,21.4,0,0,0,383,196.8c1.16-2.6,1.2-4.62.64-6.21-.77-2.22-2.68-3.56-5.34-4.46-9.67-3.31-29.23-.79-39.66-13.54-12-14.66-6.5-43,6.14-63.62a80.82,80.82,0,0,1,5.86-8.37,73.39,73.39,0,0,1,8.1-8.57h0C394,60.24,453.37,67,455.59,75.1c1,3.71-9.76,8.83-19,13.74h0c-7.12,3.79-13.33,7.45-12.5,10.26,1.23,4.19,18.31,7.22,37.94,3.92a94.9,94.9,0,0,0,17.7-4.69c.46-.17.93-.35,1.39-.54a71.57,71.57,0,0,0,21.66-13q1.19-1,2.31-2.16c.78-.77,1.54-1.57,2.28-2.39A67.23,67.23,0,0,0,520.75,57.5a81.25,81.25,0,0,0,4-16.16,100.39,100.39,0,0,0-.89-32.78h0c-.53-2.84-1.18-5.7-2-8.56Z"/><path class="cls-5" d="M336,237l-.21-.44a1,1,0,0,0,0-.1l-.07-.13a1.42,1.42,0,0,0-.08-.18c-.6-1.26-1.19-2.47-1.79-3.65l-.09-.18-.59-1.16-.75-1.4v0a111.66,111.66,0,0,0-6.7-11.12c-6.71-9.76-13.26-15.35-19.15-18.52l-.7-.37a33.61,33.61,0,0,0-5.19-2.14,31.13,31.13,0,0,0-4-1c-15.32-2.74-26.85,6.66-40,17.27-8.18,6.62-17,13.71-27.69,18.63h0A67.36,67.36,0,0,1,210.47,238c-1.74.26-3.53.46-5.37.58-11.8.8-17.66-1.87-25.68-5.9a146,146,0,0,0-25.6-10.63c-5-1.54-10.83-3.05-17.72-4.47a308.87,308.87,0,0,0-48.17-5.66c-19.77-1-32.24-1-34.32-7.84-3-9.79,20-18.53,18-30-.55-3.05-2.7-5.31-6.11-7.1a29.58,29.58,0,0,0-3.28-1.45C49.39,160.76,25.27,159.7,0,152.92V0H100.2V0h0A181.82,181.82,0,0,1,114.3,41.78c2.38,12,3.09,23.38,1.79,33.28-1.38,10.63-5.07,19.52-11.48,25.54-14.7,13.8-36.46,5.71-39,15-1.58,5.76,5,15.31,15.91,23.73A84.18,84.18,0,0,0,90,145.13c12.8,7.66,29,13,44.56,11,19.69-2.56,25.77-15.23,42-12a34.26,34.26,0,0,1,9.3,3.37c9,4.72,16.34,13,19.6,20.68,1.88,4.43,2.4,8.68,1.1,12-3,7.61-15.62,9.29-25.07,10.11-6.13.53-10.92.69-10.93,1.89,0,.8,2.12,2,5.9,3.35,12,4.13,40.68,8.79,72.1,1.15,33.86-8.22,44.38-23.63,60-18,5.88,2.13,12.42,7.24,17.89,19.35a103.33,103.33,0,0,1,6.26,19.67c.8,3.58,1.54,7.48,2.2,11.73.1.7.21,1.42.31,2.14h0c.05.28.09.55.12.83,0,.11,0,.22.05.33.05.33.09.66.14,1q.15,1.16.3,2.34a.88.88,0,0,1,0,.16,2.89,2.89,0,0,1,0,.29s0,0,0,.08Z"/><path class="cls-5" d="M334.62,348a89.67,89.67,0,0,1-14.38,26.48c-.54.68-1.1,1.34-1.66,2-12.26,14.2-28.88,22.33-45.2,26.51-.79.2-1.57.4-2.35.58h0c-27.91,6.52-54.31,1.75-55.78-3.58-.74-2.71,4.79-6.16,11.41-9.73h0c9-4.84,20-9.9,20.13-13.64h0a1.57,1.57,0,0,0-.06-.61,2.88,2.88,0,0,0-.26-.57c-2.64-4-20.25-6.7-39.89-3a91.89,91.89,0,0,0-20,6.13,69.89,69.89,0,0,0-19.18,12.3c-.57.52-1.13,1-1.68,1.6a61.81,61.81,0,0,0-5.7,6.5,68.23,68.23,0,0,0-8.79,15.52q-1,2.33-1.76,4.76a82.39,82.39,0,0,0-3.06,12.36h0A93.65,93.65,0,0,0,145.22,450H0V410.47a78.58,78.58,0,0,1,9.09-7.59c16.7-12.05,40.26-20.41,67.07-26.63,15.44-3.58,32-6.45,48.88-8.89l2.17-.31c20.73-2.95,42-5.29,62.54-7.54,5.77-.63,11.66-1.22,17.49-1.81,4.21-.42,8.4-.84,12.5-1.28l3.47-.38c2.69-.3,5.34-.61,7.92-.93l3.9-.51c20.38-2.78,36-6.71,37.21-14.58.42-2.62-.83-5.08-3.14-7.5-3-3.12-7.66-6.15-12.74-9.34-3-1.87-6.15-3.8-9.14-5.83-8.06-5.46-15.05-11.6-15.48-19.33-.74-13.62,19-31.26,85.9-53.83l2.63-.88h0l1.05-.35c2.86-1,5.8-1.9,8.83-2.87l1.38-.44,3.35-1.05.15,0,1.7-.53-1.51.94-.27.17-2.54,1.61-.76.49c-1.12.7-2.21,1.4-3.27,2.09-9.77,6.35-17.39,11.79-23.27,16.48h0q-1.78,1.43-3.36,2.76h0a73.5,73.5,0,0,0-10.91,10.94h0c-3.87,5.07-4.44,8.53-3.58,11a6.89,6.89,0,0,0,4,4c9.1,4.1,30.05.7,41,14C341,313.2,340.43,331.1,334.62,348Z"/><path class="cls-5" d="M650,317.61V450H560.79c-.85-2.74-1.63-5.47-2.32-8.19-3.7-14.37-5.19-28.23-3.93-40.08,1.21-11.37,5-20.89,11.69-27.22,9.45-8.87,21.81-8.7,30.12-9.91,4.61-.68,8-1.78,8.88-5.09a8.48,8.48,0,0,0-.19-4.57c-1.74-6.29-9-14.59-19.15-21.66a87.45,87.45,0,0,0-20.32-10.53c-9.34-3.35-19.46-5-29.34-3.73-19.69,2.56-25.77,15.23-42,12a37.69,37.69,0,0,1-15.06-7c-7.76-5.82-13.53-14-15.18-21.05a13.34,13.34,0,0,1,.24-7.92c2.18-5.48,9.34-7.89,16.7-9.11,9.47-1.57,19.29-1.19,19.3-2.89,0-1.19-4.73-3.4-12.7-5.28-14.22-3.35-38.8-5.66-65.3.78-33.85,8.22-44.38,23.63-60,18-9.61-3.47-20.95-14.89-26.5-51.72l-.09-.62c0-.28-.09-.57-.13-.86-.09-.62-.18-1.25-.26-1.89s-.19-1.38-.27-2.09a1.52,1.52,0,0,1,0-.21c0-.18,0-.35-.07-.53l-.06-.49.21.44c.06.14.13.28.19.41l.07.15c.3.64.6,1.26.9,1.87l.88,1.77c.1.19.2.38.29.57a125.09,125.09,0,0,0,6.36,11c5.24,8.05,10.39,13.5,15.24,17.19a38.31,38.31,0,0,0,8.56,5,32.57,32.57,0,0,0,6.71,2c24.54,4.39,39.33-22.36,66.52-35.37a67.49,67.49,0,0,1,25-6.63c8.57-.58,14,.67,19.4,2.93,2.36,1,4.72,2.17,7.32,3.48l2.48,1.25c2.72,1.35,5.75,2.81,9.34,4.3A149.31,149.31,0,0,0,526,255.53c2.71.68,5.61,1.34,8.73,2,24.65,5.09,45.26,5.42,59.75,6.24,13,.75,21.09,1.89,22.74,7.26,3,9.79-20.05,18.53-18,30,.55,3.09,2.76,5.38,6.25,7.17,6.27,3.23,16.71,4.9,29.28,6.89C639.56,315.84,644.68,316.65,650,317.61Z"/><ellipse class="cls-6" cx="325" cy="225" rx="292.81" ry="190.78"/><path class="cls-7" d="M650,234.1v7.44l-22.13.29-30.09.33c-21,.21-43.52.39-67.36.55l-24.1.15-10.94.06h-2.93L484,243q-21.11.1-43.24.18c-31.24.1-63.86.16-97.42.17H318.82c-22.32,0-44.2,0-65.53-.09q-25.64-.06-50.11-.16c-22.12-.09-43.45-.21-63.84-.34-29-.19-56.12-.42-80.85-.69l-15.82-.17c-15.3-.19-29.57-.39-42.67-.59v-6.9l3.08-.05c12.19-.19,25.35-.36,39.39-.53l23.33-.26c24.62-.26,51.46-.48,80.1-.65q16.38-.1,33.52-.19,19.44-.1,39.75-.17l9.77,0h0q23.9-.09,48.8-.12h0q23.57,0,47.9-.05H349c4,0,8,0,12,0,44.35,0,86.88.16,126.57.35l10.13,0,11.36.06,24.21.15,29.68.22h0l5.62.05,29.54.27,30,.33Q639.44,233.95,650,234.1Z"/><path class="cls-8" d="M576.81,0Q567,10.1,556,21.49q-16.29,16.73-35.2,36-9.46,9.66-19.52,19.88l-3.81,3.87q-8,8.1-16.3,16.54l-.77.78q-9.19,9.33-18.79,19l-13.49,13.64h0Q435.57,143.87,422.51,157,403.25,176.43,383,196.8l-3.46,3.47L372.77,207l-12.29,12.32-4.54,4.54,0,0c-2.79,2.8-5.6,5.62-8.42,8.43l-.73.74-2,2-4.45,4.46-2.18,2.18-1.05,1.05-.57.57-.86.86-.23.23q-22.49,22.47-44.15,44.06-17.81,17.73-34.91,34.71l-2.24,2.23Q241.84,337.61,230,349.34L228.35,351,223.21,356l-1.29,1.28-15.33,15.16L181.7,397l-9.57,9.42h0l-16,15.67h0c-3.3,3.25-6.53,6.41-9.72,9.53h0q-9.7,9.52-18.75,18.34H116.56q14.49-14.83,30.91-31.6l3.79-3.87L164,401.59l8.36-8.49q7-7.12,14.28-14.49l20.63-20.91,4.69-4.73q15.91-16.08,32.75-33.05c.85-.85,1.7-1.71,2.54-2.57q21.2-21.33,43.6-43.82h0l10.91-10.94h0l1.65-1.66h0L321,243.31l.35-.35,5.4-5.4,1.73-1.73,1.19-1.19.71-.71.95-1,.66-.66,1.16-1.16.22-.22,1.6-1.6L346,218.25l19.79-19.74,12.42-12.38q17.91-17.83,35.1-34.91l25.06-24.84,7.15-7.08Q453.92,111,462,103q4.05-4,8.05-8h0l19.16-18.88,2.8-2.76q17.11-16.85,32.67-32.08,12.43-12.17,23.75-23.2Q558.27,8.61,567.15,0Z"/><path class="cls-9" d="M337.15,235.59c19,23.48,33.27,43.49,31.78,44.69S350.81,263.43,331.78,240,298.51,196.47,300,195.26,318.12,212.12,337.15,235.59Z"/><path class="cls-10" d="M377.18,205.38c1,1.41-18.41,17-43.36,34.79s-46,31.1-47,29.69,18.41-17,43.36-34.78S376.18,204,377.18,205.38Z"/><path class="cls-11" d="M338.39,237a4.7,4.7,0,1,1-4.69-4.69A4.69,4.69,0,0,1,338.39,237Z"/><path class="cls-12" d="M217.07,103.36c13.4,16.53,23.41,30.61,22.37,31.46S226.68,123,213.28,106.43,189.86,75.82,190.91,75,203.67,86.84,217.07,103.36Z"/><path class="cls-13" d="M245.24,82.1c.71,1-13,12-30.52,24.48s-32.37,21.9-33.08,20.91,13-11.95,30.52-24.49S244.54,81.11,245.24,82.1Z"/><circle class="cls-14" cx="214.63" cy="104.36" r="3.3"/><ellipse class="cls-15" cx="594.54" cy="203.1" rx="2.44" ry="38.53" transform="translate(4.82 419.81) rotate(-39.04)"/><path class="cls-16" d="M624.61,180.3c.71,1-13,12-30.52,24.49S561.71,226.68,561,225.7s13-12,30.52-24.49S623.91,179.32,624.61,180.3Z"/><circle class="cls-17" cx="594" cy="202.57" r="3.3"/><circle class="cls-18" cx="538.66" cy="251.06" r="1.69"/><path class="cls-18" d="M588.46,269.92a1.55,1.55,0,1,1-1.55-1.55A1.54,1.54,0,0,1,588.46,269.92Z"/><circle class="cls-19" cx="509.67" cy="270.5" r="1.67"/><path class="cls-18" d="M422.5,231.31a1.32,1.32,0,1,1-1.32-1.32A1.32,1.32,0,0,1,422.5,231.31Z"/><path class="cls-18" d="M514.39,194.91a1.31,1.31,0,1,1-1.31-1.3A1.31,1.31,0,0,1,514.39,194.91Z"/><path class="cls-18" d="M558.66,216.44a.64.64,0,0,1-.64.64.64.64,0,0,1-.63-.64.63.63,0,0,1,.63-.63A.64.64,0,0,1,558.66,216.44Z"/><path class="cls-18" d="M492.81,161.65a1.41,1.41,0,1,1-1.4-1.4A1.41,1.41,0,0,1,492.81,161.65Z"/><path class="cls-18" d="M571.34,52.5a1.61,1.61,0,1,1-1.61-1.61A1.61,1.61,0,0,1,571.34,52.5Z"/><path class="cls-18" d="M514.83,82.15a2.58,2.58,0,1,1-2.58-2.58A2.57,2.57,0,0,1,514.83,82.15Z"/><path class="cls-18" d="M621.32,24a1.76,1.76,0,1,1-1.75-1.76A1.75,1.75,0,0,1,621.32,24Z"/><path class="cls-18" d="M470.48,18.91a1.82,1.82,0,1,1-1.81-1.81A1.82,1.82,0,0,1,470.48,18.91Z"/><path class="cls-18" d="M523.29,19.58a1.15,1.15,0,1,1-1.15-1.15A1.15,1.15,0,0,1,523.29,19.58Z"/><circle class="cls-18" cx="441.11" cy="77.59" r="1.59"/><circle class="cls-19" cx="571.04" cy="284.17" r="2.38"/><path class="cls-18" d="M534.81,266.07a1,1,0,1,1-1-1A1,1,0,0,1,534.81,266.07Z"/><circle class="cls-18" cx="121.55" cy="251.06" r="1.69"/><path class="cls-18" d="M71.75,269.92a1.55,1.55,0,1,0,1.55-1.55A1.54,1.54,0,0,0,71.75,269.92Z"/><circle class="cls-19" cx="150.54" cy="270.5" r="1.67"/><path class="cls-20" d="M237.71,231.31A1.32,1.32,0,1,0,239,230,1.32,1.32,0,0,0,237.71,231.31Z"/><path class="cls-18" d="M145.83,194.91a1.31,1.31,0,1,0,1.3-1.3A1.3,1.3,0,0,0,145.83,194.91Z"/><path class="cls-18" d="M101.56,216.44a.64.64,0,0,0,.63.64.64.64,0,0,0,.64-.64.64.64,0,0,0-.64-.63A.63.63,0,0,0,101.56,216.44Z"/><path class="cls-18" d="M167.4,161.65a1.41,1.41,0,1,0,1.41-1.4A1.41,1.41,0,0,0,167.4,161.65Z"/><circle class="cls-18" cx="90.48" cy="52.5" r="1.61"/><path class="cls-18" d="M112.38,88.08A2.58,2.58,0,1,0,115,85.5,2.58,2.58,0,0,0,112.38,88.08Z"/><path class="cls-18" d="M193,28.51a1.82,1.82,0,1,0,1.82-1.81A1.81,1.81,0,0,0,193,28.51Z"/><path class="cls-18" d="M136.92,19.58a1.15,1.15,0,1,0,2.3,0,1.15,1.15,0,1,0-2.3,0Z"/><path class="cls-18" d="M192.42,80.6A1.59,1.59,0,1,0,194,79,1.59,1.59,0,0,0,192.42,80.6Z"/><circle class="cls-19" cx="89.17" cy="284.17" r="2.38"/><path class="cls-18" d="M125.41,266.07a1,1,0,1,0,1-1A1,1,0,0,0,125.41,266.07Z"/><path class="cls-20" d="M240.63,141.71a2.91,2.91,0,1,1-2.91-2.91A2.91,2.91,0,0,1,240.63,141.71Z"/><path class="cls-19" d="M381.38,134a2.08,2.08,0,1,1-2.08-2.08A2.08,2.08,0,0,1,381.38,134Z"/><circle class="cls-20" cx="278.55" cy="176.81" r="2.02"/><path class="cls-19" d="M432.53,124.1a2.38,2.38,0,1,1-2.38-2.38A2.37,2.37,0,0,1,432.53,124.1Z"/><circle class="cls-18" cx="259.38" cy="284.17" r="2.38"/><circle class="cls-18" cx="21.16" cy="20.73" r="2.6"/><circle class="cls-18" cx="66.1" cy="102.33" r="1.84"/><circle class="cls-18" cx="27.99" cy="67.44" r="2.44"/><path class="cls-18" d="M62.66,90.53A1.49,1.49,0,1,1,61.17,89,1.49,1.49,0,0,1,62.66,90.53Z"/><path class="cls-18" d="M99,75.88a1.71,1.71,0,1,1-1.71-1.71A1.71,1.71,0,0,1,99,75.88Z"/><circle class="cls-18" cx="32.22" cy="224.39" r="2.13"/><g class="cls-21"><path class="cls-22" d="M259.38,407.44c-104.6,0-189.69-85.09-189.69-189.68S154.78,28.07,259.38,28.07s189.69,85.09,189.69,189.69S364,407.44,259.38,407.44Zm0-339.37c-82.54,0-149.69,67.15-149.69,149.69s67.15,149.68,149.69,149.68,149.69-67.15,149.69-149.68S341.92,68.07,259.38,68.07Z"/></g><g class="cls-21"><path class="cls-23" d="M521.85,401A107.85,107.85,0,1,1,629.7,293.13,108,108,0,0,1,521.85,401Zm0-175.69a67.85,67.85,0,1,0,67.85,67.85A67.93,67.93,0,0,0,521.85,225.28Z"/></g><g class="cls-21"><rect class="cls-24" x="333.66" y="114.46" width="3" height="245.66" transform="translate(17.6 497.65) rotate(-74.65)"/></g><g class="cls-21"><rect class="cls-25" x="284.4" y="235.68" width="95.22" height="3" transform="translate(-57.57 115.87) rotate(-18.25)"/></g><g class="cls-21"><rect class="cls-26" x="332.2" y="195.74" width="3" height="83.09" transform="translate(-37.69 64.86) rotate(-10.51)"/></g><circle class="cls-27" cx="334.38" cy="236.63" r="28.07"/><circle class="cls-28" cx="157.59" cy="106.53" r="23.37" transform="translate(-28.33 146.73) rotate(-46.26)"/><circle class="cls-29" cx="395.96" cy="102.01" r="13.4"/><circle class="cls-30" cx="515" cy="294.24" r="12.6" transform="translate(-57.22 450.34) rotate(-45)"/><circle class="cls-31" cx="273.27" cy="259.54" r="8.85"/><circle class="cls-32" cx="338.39" cy="186.81" r="57.57"/><circle class="cls-33" cx="470.48" cy="190.56" r="27.2"/><circle class="cls-34" cx="474.36" cy="189.88" r="34.61" transform="translate(194.12 617.13) rotate(-78.55)"/><path class="cls-35" d="M485.68,228.57a4.09,4.09,0,1,1-4.08-4.08A4.09,4.09,0,0,1,485.68,228.57Z"/><path class="cls-36" d="M513.44,174.57a2.24,2.24,0,1,1-2.23-2.24A2.24,2.24,0,0,1,513.44,174.57Z"/><circle class="cls-37" cx="460.15" cy="155" r="2.15"/><circle class="cls-18" cx="620.55" cy="359.23" r="2.3"/><path class="cls-38" d="M573.41,334.91a2,2,0,1,1-2-2A2,2,0,0,1,573.41,334.91Z"/><path class="cls-39" d="M600.74,320.93a2.16,2.16,0,1,1-2.16-2.15A2.16,2.16,0,0,1,600.74,320.93Z"/><circle class="cls-18" cx="640.15" cy="308.71" r="1.87"/><path class="cls-39" d="M588.64,319.17a1.77,1.77,0,1,1-1.77-1.77A1.76,1.76,0,0,1,588.64,319.17Z"/><path class="cls-18" d="M476.74,326.51a2.67,2.67,0,1,1-2.67-2.67A2.67,2.67,0,0,1,476.74,326.51Z"/><circle class="cls-18" cx="38.12" cy="359.23" r="2.3"/><path class="cls-38" d="M85.26,334.91a2,2,0,1,0,2-2A2,2,0,0,0,85.26,334.91Z"/><path class="cls-39" d="M57.94,320.93a2.15,2.15,0,1,0,2.15-2.15A2.15,2.15,0,0,0,57.94,320.93Z"/><circle class="cls-18" cx="18.52" cy="308.71" r="1.87"/><path class="cls-39" d="M70,319.17a1.77,1.77,0,1,0,1.76-1.77A1.76,1.76,0,0,0,70,319.17Z"/><path class="cls-18" d="M181.93,326.51a2.68,2.68,0,1,0,2.68-2.67A2.67,2.67,0,0,0,181.93,326.51Z"/><path class="cls-18" d="M384.89,324.11a3.18,3.18,0,1,1-3.18-3.18A3.18,3.18,0,0,1,384.89,324.11Z"/></g></g></g></svg>