<svg xmlns="http://www.w3.org/2000/svg" xmlns:xlink="http://www.w3.org/1999/xlink" viewBox="0 0 55.06 56.95"><defs><style>.cls-1{isolation:isolate;}.cls-2{fill:#376e73;}.cls-3{fill:url(#linear-gradient);}.cls-4{fill:#5db3c1;}.cls-5{fill:#a8e2ef;}.cls-10,.cls-6{mix-blend-mode:screen;}.cls-6{fill:url(#linear-gradient-2);}.cls-7{fill:#fff;}.cls-8{fill:#295648;}.cls-9{fill:#377360;}.cls-10{fill:#bdf7e9;}</style><linearGradient id="linear-gradient" x1="0.61" y1="26.71" x2="53.31" y2="26.71" gradientUnits="userSpaceOnUse"><stop offset="0" stop-color="#6edfe5"/><stop offset="1" stop-color="#376e73"/></linearGradient><linearGradient id="linear-gradient-2" x1="0.85" y1="31.68" x2="53.06" y2="31.68" gradientUnits="userSpaceOnUse"><stop offset="0" stop-color="#53aaac"/><stop offset="1"/></linearGradient></defs><title>avarat-placeholder</title><g class="cls-1"><g id="Layer_2" data-name="Layer 2"><g id="Layer_1-2" data-name="Layer 1"><path class="cls-2" d="M51.69,10a12.55,12.55,0,0,0-2.94-5.36C46.38,2.41,39.45,0,27.1,0S7.76,2.41,5.31,4.66C1.37,8.29-.19,18.51,0,27,0,29.47.18,31.79.26,34.17c.28,8.27,1.93,14.77,4.66,17.36,2.37,2.25,9.31,4.66,21.65,4.66s19.35-2.4,21.79-4.66C51.09,49,53,42.74,53.54,34.73a62.33,62.33,0,0,0,.36-8.35C54.05,19.94,53.25,14,51.69,10Z"/><g class="cls-1"><path class="cls-3" d="M51.11,10.21a12.19,12.19,0,0,0-2.79-5.14C45.17,2.08,36.15.58,27.1.58S9,2.08,5.74,5.07C2.15,8.38.41,18,.63,27c-.14,6,.57,12.1,2.18,16.17a12.19,12.19,0,0,0,2.78,5.14c3.16,3,12.18,4.49,21.22,4.49s18.12-1.5,21.37-4.49c3.58-3.31,5.32-13,5.11-22C53.43,20.36,52.72,14.28,51.11,10.21Z"/><path class="cls-4" d="M29.35,9.08c9,0,18.06,1.49,21.21,4.49,6.31,6,5.88,32.89-.63,38.88-3.25,3-12.32,4.5-21.36,4.5s-18.06-1.5-21.22-4.5C1,46.46,1.48,19.56,8,13.57,11.23,10.57,20.3,9.08,29.35,9.08Z"/><path class="cls-5" d="M9.2,14.73c3.26-3,12.32-4.5,21.37-4.5,8.48,0,16.94,1.32,20.56,3.95a5.55,5.55,0,0,0-.57-.61c-3.15-3-12.17-4.49-21.21-4.49S11.23,10.57,8,13.57c-6.5,6-6.94,32.89-.63,38.88A7.39,7.39,0,0,0,8,53C2.3,46,2.9,20.53,9.2,14.73Z"/><path class="cls-6" d="M27.35,7.74c9,0,18.06,1.5,21.21,4.5,6.31,6,5.88,32.89-.63,38.88-3.25,3-12.32,4.5-21.36,4.5s-18.06-1.5-21.22-4.5C-1,45.13-.52,18.23,6,12.24,9.23,9.24,18.3,7.74,27.35,7.74Z"/><path class="cls-7" d="M11.38,16.27c-1.56,1.39-3.49,1.84-4.32,1s-.22-2.63,1.34-4,3.5-1.84,4.32-1S13,14.88,11.38,16.27Z"/><path class="cls-7" d="M6.71,19.35A1.43,1.43,0,0,1,5,20.1a1.26,1.26,0,0,1-.24-1.8,1.42,1.42,0,0,1,1.75-.75A1.27,1.27,0,0,1,6.71,19.35Z"/></g><circle class="cls-8" cx="13.67" cy="28.5" r="5.13"/><circle class="cls-9" cx="13.67" cy="28.5" r="3.91"/><circle class="cls-7" cx="11.33" cy="26.56" r="1.59"/><circle class="cls-7" cx="13.93" cy="27.61" r="0.61"/><path class="cls-8" d="M50.17,26.9a5.8,5.8,0,0,1-3,1.17,5.61,5.61,0,0,0-.3-1,7.11,7.11,0,0,0,3.37-1.62c.36-.3-.16-.82-.52-.51a6.38,6.38,0,0,1-3.17,1.44,5,5,0,0,0-.5-.79,6,6,0,0,0,3.38-1.76.36.36,0,0,0-.52-.51,5.23,5.23,0,0,1-3.46,1.6,5.64,5.64,0,0,0-3.91-1.62,5.9,5.9,0,0,0-5.9,5.64c-.13,1.57,2.32,1.56,2.44,0,.34-4.25,6.58-4.09,6.78.16.07,1.57,2.51,1.57,2.44,0,0-.1,0-.19,0-.29a6.43,6.43,0,0,0,3.28-1.27C50.92,27.25,50.55,26.62,50.17,26.9Z"/><ellipse class="cls-10" cx="15.67" cy="39.7" rx="5.13" ry="2.59"/><ellipse class="cls-10" cx="43.28" cy="39.7" rx="5.13" ry="2.59"/><path class="cls-8" d="M36.3,45.38c0,1.68-4.1,3-9.16,3S18,47.06,18,45.38s4.11.61,9.17.61S36.3,43.69,36.3,45.38Z"/></g></g></g></svg>