<svg xmlns="http://www.w3.org/2000/svg" xmlns:xlink="http://www.w3.org/1999/xlink" viewBox="0 0 650 450"><defs><style>.cls-1{isolation:isolate;}.cls-2{fill:url(#Áåçûìÿííûé_ãðàäèåíò_31);}.cls-3{fill:#ff0961;opacity:0.1;}.cls-3,.cls-4,.cls-5{mix-blend-mode:multiply;}.cls-4{fill:#00507f;opacity:0.28;}.cls-5{fill:#e17abb;opacity:0.31;}.cls-10,.cls-11,.cls-12,.cls-6{mix-blend-mode:screen;}.cls-6{fill:url(#Áåçûìÿííûé_ãðàäèåíò_43);}.cls-13,.cls-14,.cls-7,.cls-8,.cls-9{fill:#fff;}.cls-8{opacity:0.26;}.cls-9{opacity:0.15;}.cls-10{fill:url(#Áåçûìÿííûé_ãðàäèåíò_122);}.cls-11{fill:url(#Áåçûìÿííûé_ãðàäèåíò_122-2);}.cls-12{fill:url(#Áåçûìÿííûé_ãðàäèåíò_122-3);}.cls-13{opacity:0.17;}.cls-14{opacity:0.58;}</style><radialGradient id="Áåçûìÿííûé_ãðàäèåíò_31" cx="325" cy="225" r="367.17" gradientUnits="userSpaceOnUse"><stop offset="0" stop-color="#0f4d91"/><stop offset="1" stop-color="#221e36"/></radialGradient><radialGradient id="Áåçûìÿííûé_ãðàäèåíò_43" cx="328.15" cy="225" r="190.78" gradientTransform="translate(-178.65) scale(1.53 1)" gradientUnits="userSpaceOnUse"><stop offset="0" stop-color="#8e0046"/><stop offset="1"/></radialGradient><radialGradient id="Áåçûìÿííûé_ãðàäèåíò_122" cx="481.6" cy="228.57" r="4.09" gradientUnits="userSpaceOnUse"><stop offset="0" stop-color="#004ae1"/><stop offset="1"/></radialGradient><radialGradient id="Áåçûìÿííûé_ãðàäèåíò_122-2" cx="511.21" cy="174.57" r="2.24" xlink:href="#Áåçûìÿííûé_ãðàäèåíò_122"/><radialGradient id="Áåçûìÿííûé_ãðàäèåíò_122-3" cx="460.15" cy="155" r="2.15" xlink:href="#Áåçûìÿííûé_ãðàäèåíò_122"/></defs><title>clear-bg</title><g class="cls-1"><g id="Layer_2" data-name="Layer 2"><g id="space"><rect class="cls-2" width="650" height="450"/><path class="cls-3" d="M650,97.63V288.27c-4.63,9.2-9.74,18.16-15.24,26.81A334.56,334.56,0,0,1,605,354.94q-4.29,4.95-8.69,9.66h0a302.84,302.84,0,0,1-34.26,31.48q-3.72,2.91-7.54,5.65c-32.39,23.44-69.49,39-108.65,48.27H247.94a501.85,501.85,0,0,1-91.77-27.88h0c-2.24-.92-4.46-1.87-6.66-2.83l-2-.89c-27.92-12.33-52.26-26.68-71.31-42.15-24.33-19.73-40-41.27-43.55-62.67-2.81-17.14,2.09-35,12.61-52.7A158,158,0,0,1,58.49,242q3.46-4.26,7.31-8.5a267.63,267.63,0,0,1,22.13-21.6c27.25-23.89,61.87-46.12,98-64.47,14.85-7.56,29.94-14.46,44.88-20.55l3.31-1.34c15.71-6.29,31.21-11.68,46-16A587.6,587.6,0,0,1,358.69,92h0c24.69-3.63,52-5.63,77.89-3.19h0a176.37,176.37,0,0,1,33.48,6.22h0c3.29,1,6.5,2.06,9.64,3.27l.62.24A101.52,101.52,0,0,1,506,112.81a83.05,83.05,0,0,1,17.1,17.78c16.06,22.69,18.41,50.32,15.4,75.4q-.15,1.31-.33,2.61a196.8,196.8,0,0,1-4.92,24.34c-.9,3.39-1.85,6.66-2.82,9.77-1.46,4.65-3,9-4.42,12.82a200.92,200.92,0,0,1-8.91,20.56A164.81,164.81,0,0,1,479.17,324c-48.71,42.49-111.64,49.53-125.58,51.09a258.22,258.22,0,0,1-35,1.42A299.2,299.2,0,0,1,262,369.56c-1.81-.4-3.61-.81-5.4-1.25q-6.35-1.53-12.45-3.32-3.82-1.11-7.55-2.33-7.6-2.48-14.7-5.34c-.73-.3-1.46-.59-2.18-.9q-4-1.67-7.81-3.45c-27.59-13-46.73-30.34-48.83-49.88-2.25-20.92,15.56-42.3,40.08-60q3.56-2.58,7.29-5.05,4.26-2.82,8.7-5.49a272.88,272.88,0,0,1,37.47-18.66c6.5-2.63,12.87-4.9,19-6.77a213.73,213.73,0,0,1,26.85-6.33c1.27-.22,2.53-.42,3.79-.61l.28-.05c6.76-1,13.44-1.72,20-2.16a245.47,245.47,0,0,1,39.34.57c4.81.46,9.39,1.06,13.66,1.76l1.32.22c12.07,2.06,21.68,4.94,27.61,7.89h0c4.24,2.12,6.61,4.27,6.66,6.21.1,4-9.55,9.82-54.12,17.74-5,.89-10.35,1.8-16.21,2.73l-4.91.77h0l-1.55.24-.67.1q-.57.11-1.14.18h0l-.52.08-.18,0-.25,0,.18-.17.21-.19.58-.54h0l.38-.36.79-.75c.79-.75,1.52-1.47,2.2-2.16,3.91-3.95,6.15-6.87,7.2-9,.86-1.74.92-3,.45-3.81a3.23,3.23,0,0,0-1.46-1.25c-2.36-1.14-7.05-1.31-13.29-.64-2.18.24-4.55.58-7.08,1-.75.13-1.52.26-2.3.42-2.21.4-4.52.88-6.92,1.42a287.87,287.87,0,0,0-38.69,11.91h0a254.34,254.34,0,0,0-24.46,10.85c-21.82,11.19-38.87,24.89-39.19,38.87-.27,11.89,11.53,25.81,30.58,37.83,3,1.89,6.13,3.72,9.44,5.49,4.69,2.5,9.7,4.89,15,7.11A207.79,207.79,0,0,0,334.62,348a171.59,171.59,0,0,0,59.47-5.95C418.59,335,443.51,321,464,302.94a176.73,176.73,0,0,0,16.94-17c2.31-2.67,4.52-5.4,6.6-8.17a125.91,125.91,0,0,0,16.74-29.26c.74-1.86,1.42-3.74,2.05-5.62A95.48,95.48,0,0,0,509,232.79a78.1,78.1,0,0,0,.56-30.2c-6.47-35.43-37.39-58.42-61.52-71.35h0c-3.38-1.82-6.62-3.44-9.65-4.86-4-1.88-7.6-3.43-10.64-4.66h0c-3.72-1.51-6.55-2.55-8.17-3.13C395,109.66,369.64,107,344.73,109,292.94,113.13,243,137.53,205.5,168.14a265.27,265.27,0,0,0-19.9,18c-1,1-2.42,2.42-4.07,4.11-1.47,1.5-3.16,3.26-5,5.24a346.6,346.6,0,0,0-22.68,26.62c-2.64,3.44-5.3,7.05-7.92,10.82-2.23,3.17-4.42,6.46-6.56,9.84-18.91,29.85-33.74,67.15-22.73,102.36a85.64,85.64,0,0,0,10.6,22c.72,1.08,1.47,2.16,2.25,3.22,7.85,10.78,18.24,20.39,30.59,28.74q1.92,1.32,3.92,2.58,4,2.52,8.15,4.86h0c64.69,36.3,170.2,43.55,253.46,13.63,7.54-2.71,15.66-6,24.13-9.85l0,0c39-17.77,85.44-47.48,115.8-87.46,13.46-17.7,23.77-37.41,28.91-59a133.15,133.15,0,0,0,3.3-21.6c.2-2.86.3-5.76.31-8.68,0-.79,0-1.59,0-2.39A138.16,138.16,0,0,0,585.5,176c-.5-1.13-1-2.26-1.56-3.37-11.48-24-29.07-45.25-49.37-63.34a288.37,288.37,0,0,0-31.79-24.54q-2.67-1.8-5.36-3.51-4.07-2.62-8.17-5.07C482.12,71.9,475,68,467.87,64.43c-9-4.52-17.9-8.45-26.45-11.74h0q-6.57-2.53-12.82-4.58c-5.18-1.7-10.43-3.21-15.71-4.54h0c-49.25-12.42-102.79-9.4-156.91,7.33h0a412.49,412.49,0,0,0-62.77,25.45l-1.51.76c-34.55,17.49-68.74,40.32-101.57,68Q77.63,155.6,65.5,167q-4.3,4-8.57,8.2h0A685.25,685.25,0,0,0,3.08,234.32Q1.53,236.23,0,238.15V99.3c22.5-4,48.46-9,77.32-15.31,0,0,0,0,0,0s0,0,0,0l2-.43q17.7-3.9,36.77-8.5c23.31-5.63,48.06-12.08,74-19.46C274.29,31.66,324,11.26,365.93,0H495.65c8.45,2.22,18,5,28.17,8.56h0c7.91,2.74,16.19,5.92,24.64,9.58,2.48,1.07,5,2.19,7.48,3.35,29.95,13.89,61.17,34,84.34,62.8C643.71,88.54,647,93,650,97.63Z"/><path class="cls-4" d="M225.35,0A506.15,506.15,0,0,1,175.1,22.6a508.44,508.44,0,0,1-60.8,19.18A528.23,528.23,0,0,1,0,57V42.46A404.48,404.48,0,0,1,100.21,0h0l.08,0Z"/><path class="cls-4" d="M323,123a217.91,217.91,0,0,1-34,21,219.76,219.76,0,0,1-62,20,197.09,197.09,0,0,1,96-41Z"/><path class="cls-4" d="M491,56a794,794,0,0,0-215,8c-19.53,3.44-38.21,7.5-56,12a383.24,383.24,0,0,1,36-14C346.67,31.94,431.85,41.68,491,56Z"/><path class="cls-5" d="M650,0V79.54q-4.63,2.5-9.71,4.75c-24,10.69-54.91,17.44-87.67,22.44q-9,1.36-18,2.57c-9.49,1.27-19.06,2.42-28.58,3.51-8.36,1-16.69,1.88-24.9,2.78-6.45.71-13,1.36-19.53,2-5.44.55-10.82,1.1-16,1.7-6.29.72-12.3,1.5-17.79,2.42h0c-16.31,2.71-28.08,6.58-29.17,13.37-.92,5.74,6.22,10.76,14.76,16.13,3,1.87,6.13,3.79,9.16,5.8,8.52,5.64,16.14,12,16.58,20.07.48,8.71-7.41,19.06-30.66,31.29h0c-13.86,7.3-33.18,15.27-59.45,24h0l-2.18.73-5.57,1.79-3,1-.73.23-1,.32h0l-.51.16-.15.05-1.7.53,1.51-.94.27-.17.6-.38h0l.44-.28.89-.56,3.81-2.43c7.46-4.82,13.69-9.13,18.86-13a126.73,126.73,0,0,0,16.34-14h0a42.82,42.82,0,0,0,4-4.79A21.4,21.4,0,0,0,383,196.8c1.16-2.6,1.2-4.62.64-6.21-.77-2.22-2.68-3.56-5.34-4.46-9.67-3.31-29.23-.79-39.66-13.54-12-14.66-6.5-43,6.14-63.62a80.82,80.82,0,0,1,5.86-8.37,73.39,73.39,0,0,1,8.1-8.57h0C394,60.24,453.37,67,455.59,75.1c1,3.71-9.76,8.83-19,13.74h0c-7.12,3.79-13.33,7.45-12.5,10.26,1.23,4.19,18.31,7.22,37.94,3.92a94.9,94.9,0,0,0,17.7-4.69c.46-.17.93-.35,1.39-.54a71.57,71.57,0,0,0,21.66-13q1.19-1,2.31-2.16c.78-.77,1.54-1.57,2.28-2.39A67.23,67.23,0,0,0,520.75,57.5a81.25,81.25,0,0,0,4-16.16,100.39,100.39,0,0,0-.89-32.78h0c-.53-2.84-1.18-5.7-2-8.56Z"/><path class="cls-5" d="M336,237l-.21-.44a1,1,0,0,0,0-.1l-.07-.13a1.42,1.42,0,0,0-.08-.18c-.6-1.26-1.19-2.47-1.79-3.65l-.09-.18-.59-1.16-.75-1.4v0a111.66,111.66,0,0,0-6.7-11.12c-6.71-9.76-13.26-15.35-19.15-18.52l-.7-.37a33.61,33.61,0,0,0-5.19-2.14,31.13,31.13,0,0,0-4-1c-15.32-2.74-26.85,6.66-40,17.27-8.18,6.62-17,13.71-27.69,18.63h0A67.36,67.36,0,0,1,210.47,238c-1.74.26-3.53.46-5.37.58-11.8.8-17.66-1.87-25.68-5.9a146,146,0,0,0-25.6-10.63c-5-1.54-10.83-3.05-17.72-4.47a308.87,308.87,0,0,0-48.17-5.66c-19.77-1-32.24-1-34.32-7.84-3-9.79,20-18.53,18-30-.55-3.05-2.7-5.31-6.11-7.1a29.58,29.58,0,0,0-3.28-1.45C49.39,160.76,25.27,159.7,0,152.92V0H100.2V0h0A181.82,181.82,0,0,1,114.3,41.78c2.38,12,3.09,23.38,1.79,33.28-1.38,10.63-5.07,19.52-11.48,25.54-14.7,13.8-36.46,5.71-39,15-1.58,5.76,5,15.31,15.91,23.73A84.18,84.18,0,0,0,90,145.13c12.8,7.66,29,13,44.56,11,19.69-2.56,25.77-15.23,42-12a34.26,34.26,0,0,1,9.3,3.37c9,4.72,16.34,13,19.6,20.68,1.88,4.43,2.4,8.68,1.1,12-3,7.61-15.62,9.29-25.07,10.11-6.13.53-10.92.69-10.93,1.89,0,.8,2.12,2,5.9,3.35,12,4.13,40.68,8.79,72.1,1.15,33.86-8.22,44.38-23.63,60-18,5.88,2.13,12.42,7.24,17.89,19.35a103.33,103.33,0,0,1,6.26,19.67c.8,3.58,1.54,7.48,2.2,11.73.1.7.21,1.42.31,2.14h0c.05.28.09.55.12.83,0,.11,0,.22.05.33.05.33.09.66.14,1q.15,1.16.3,2.34a.88.88,0,0,1,0,.16,2.89,2.89,0,0,1,0,.29s0,0,0,.08Z"/><path class="cls-5" d="M334.62,348a89.67,89.67,0,0,1-14.38,26.48c-.54.68-1.1,1.34-1.66,2-12.26,14.2-28.88,22.33-45.2,26.51-.79.2-1.57.4-2.35.58h0c-27.91,6.52-54.31,1.75-55.78-3.58-.74-2.71,4.79-6.16,11.41-9.73h0c9-4.84,20-9.9,20.13-13.64h0a1.57,1.57,0,0,0-.06-.61,2.88,2.88,0,0,0-.26-.57c-2.64-4-20.25-6.7-39.89-3a91.89,91.89,0,0,0-20,6.13,69.89,69.89,0,0,0-19.18,12.3c-.57.52-1.13,1-1.68,1.6a61.81,61.81,0,0,0-5.7,6.5,68.23,68.23,0,0,0-8.79,15.52q-1,2.33-1.76,4.76a82.39,82.39,0,0,0-3.06,12.36h0A93.65,93.65,0,0,0,145.22,450H0V410.47a78.58,78.58,0,0,1,9.09-7.59c16.7-12.05,40.26-20.41,67.07-26.63,15.44-3.58,32-6.45,48.88-8.89l2.17-.31c20.73-2.95,42-5.29,62.54-7.54,5.77-.63,11.66-1.22,17.49-1.81,4.21-.42,8.4-.84,12.5-1.28l3.47-.38c2.69-.3,5.34-.61,7.92-.93l3.9-.51c20.38-2.78,36-6.71,37.21-14.58.42-2.62-.83-5.08-3.14-7.5-3-3.12-7.66-6.15-12.74-9.34-3-1.87-6.15-3.8-9.14-5.83-8.06-5.46-15.05-11.6-15.48-19.33-.74-13.62,19-31.26,85.9-53.83l2.63-.88h0l1.05-.35c2.86-1,5.8-1.9,8.83-2.87l1.38-.44,3.35-1.05.15,0,1.7-.53-1.51.94-.27.17-2.54,1.61-.76.49c-1.12.7-2.21,1.4-3.27,2.09-9.77,6.35-17.39,11.79-23.27,16.48h0q-1.78,1.43-3.36,2.76h0a73.5,73.5,0,0,0-10.91,10.94h0c-3.87,5.07-4.44,8.53-3.58,11a6.89,6.89,0,0,0,4,4c9.1,4.1,30.05.7,41,14C341,313.2,340.43,331.1,334.62,348Z"/><path class="cls-5" d="M650,317.61V450H560.79c-.85-2.74-1.63-5.47-2.32-8.19-3.7-14.37-5.19-28.23-3.93-40.08,1.21-11.37,5-20.89,11.69-27.22,9.45-8.87,21.81-8.7,30.12-9.91,4.61-.68,8-1.78,8.88-5.09a8.48,8.48,0,0,0-.19-4.57c-1.74-6.29-9-14.59-19.15-21.66a87.45,87.45,0,0,0-20.32-10.53c-9.34-3.35-19.46-5-29.34-3.73-19.69,2.56-25.77,15.23-42,12a37.69,37.69,0,0,1-15.06-7c-7.76-5.82-13.53-14-15.18-21.05a13.34,13.34,0,0,1,.24-7.92c2.18-5.48,9.34-7.89,16.7-9.11,9.47-1.57,19.29-1.19,19.3-2.89,0-1.19-4.73-3.4-12.7-5.28-14.22-3.35-38.8-5.66-65.3.78-33.85,8.22-44.38,23.63-60,18-9.61-3.47-20.95-14.89-26.5-51.72l-.09-.62c0-.28-.09-.57-.13-.86-.09-.62-.18-1.25-.26-1.89s-.19-1.38-.27-2.09a1.52,1.52,0,0,1,0-.21c0-.18,0-.35-.07-.53l-.06-.49.21.44c.06.14.13.28.19.41l.07.15c.3.64.6,1.26.9,1.87l.88,1.77c.1.19.2.38.29.57a125.09,125.09,0,0,0,6.36,11c5.24,8.05,10.39,13.5,15.24,17.19a38.31,38.31,0,0,0,8.56,5,32.57,32.57,0,0,0,6.71,2c24.54,4.39,39.33-22.36,66.52-35.37a67.49,67.49,0,0,1,25-6.63c8.57-.58,14,.67,19.4,2.93,2.36,1,4.72,2.17,7.32,3.48l2.48,1.25c2.72,1.35,5.75,2.81,9.34,4.3A149.31,149.31,0,0,0,526,255.53c2.71.68,5.61,1.34,8.73,2,24.65,5.09,45.26,5.42,59.75,6.24,13,.75,21.09,1.89,22.74,7.26,3,9.79-20.05,18.53-18,30,.55,3.09,2.76,5.38,6.25,7.17,6.27,3.23,16.71,4.9,29.28,6.89C639.56,315.84,644.68,316.65,650,317.61Z"/><ellipse class="cls-6" cx="325" cy="225" rx="292.81" ry="190.78"/><path class="cls-7" d="M588.46,269.92a1.55,1.55,0,1,1-1.55-1.55A1.54,1.54,0,0,1,588.46,269.92Z"/><circle class="cls-8" cx="509.67" cy="270.5" r="1.67"/><path class="cls-7" d="M422.5,231.31a1.32,1.32,0,1,1-1.32-1.32A1.32,1.32,0,0,1,422.5,231.31Z"/><path class="cls-7" d="M514.39,194.91a1.31,1.31,0,1,1-1.31-1.3A1.31,1.31,0,0,1,514.39,194.91Z"/><path class="cls-7" d="M558.66,216.44a.64.64,0,0,1-.64.64.64.64,0,0,1-.63-.64.63.63,0,0,1,.63-.63A.64.64,0,0,1,558.66,216.44Z"/><circle class="cls-8" cx="571.04" cy="284.17" r="2.38"/><path class="cls-7" d="M534.81,266.07a1,1,0,1,1-1-1A1,1,0,0,1,534.81,266.07Z"/><circle class="cls-8" cx="150.54" cy="270.5" r="1.67"/><path class="cls-9" d="M237.71,231.31A1.32,1.32,0,1,0,239,230,1.32,1.32,0,0,0,237.71,231.31Z"/><path class="cls-7" d="M101.56,216.44a.64.64,0,0,0,.63.64.64.64,0,0,0,.64-.64.64.64,0,0,0-.64-.63A.63.63,0,0,0,101.56,216.44Z"/><path class="cls-7" d="M136.92,19.58a1.15,1.15,0,1,0,2.3,0,1.15,1.15,0,1,0-2.3,0Z"/><path class="cls-7" d="M192.42,80.6A1.59,1.59,0,1,0,194,79,1.59,1.59,0,0,0,192.42,80.6Z"/><circle class="cls-8" cx="89.17" cy="284.17" r="2.38"/><path class="cls-7" d="M125.41,266.07a1,1,0,1,0,1-1A1,1,0,0,0,125.41,266.07Z"/><circle class="cls-9" cx="278.55" cy="176.81" r="2.02"/><path class="cls-7" d="M62.66,90.53A1.49,1.49,0,1,1,61.17,89,1.49,1.49,0,0,1,62.66,90.53Z"/><path class="cls-10" d="M485.68,228.57a4.09,4.09,0,1,1-4.08-4.08A4.09,4.09,0,0,1,485.68,228.57Z"/><path class="cls-11" d="M513.44,174.57a2.24,2.24,0,1,1-2.23-2.24A2.24,2.24,0,0,1,513.44,174.57Z"/><circle class="cls-12" cx="460.15" cy="155" r="2.15"/><path class="cls-13" d="M573.41,334.91a2,2,0,1,1-2-2A2,2,0,0,1,573.41,334.91Z"/><path class="cls-13" d="M85.26,334.91a2,2,0,1,0,2-2A2,2,0,0,0,85.26,334.91Z"/><path class="cls-14" d="M57.94,320.93a2.15,2.15,0,1,0,2.15-2.15A2.15,2.15,0,0,0,57.94,320.93Z"/></g></g></g></svg>