<svg xmlns="http://www.w3.org/2000/svg" xmlns:xlink="http://www.w3.org/1999/xlink" viewBox="0 0 650 450"><defs><style>.cls-1{isolation:isolate;}.cls-2,.cls-3,.cls-4,.cls-5,.cls-6,.cls-7{mix-blend-mode:screen;}.cls-2{fill:url(#Áåçûìÿííûé_ãðàäèåíò_51);}.cls-3{fill:url(#Áåçûìÿííûé_ãðàäèåíò_51-2);}.cls-4{fill:url(#Áåçûìÿííûé_ãðàäèåíò_51-3);}.cls-5{fill:url(#Áåçûìÿííûé_ãðàäèåíò_51-4);}.cls-6{fill:url(#Áåçûìÿííûé_ãðàäèåíò_58);}.cls-8{fill:url(#Áåçûìÿííûé_ãðàäèåíò_10);}.cls-9{fill:url(#Áåçûìÿííûé_ãðàäèåíò_10-2);}.cls-10{fill:url(#Áåçûìÿííûé_ãðàäèåíò_10-3);}</style><radialGradient id="Áåçûìÿííûé_ãðàäèåíò_51" cx="325" cy="237.82" r="229.84" gradientUnits="userSpaceOnUse"><stop offset="0" stop-color="#340093"/><stop offset="1"/></radialGradient><radialGradient id="Áåçûìÿííûé_ãðàäèåíò_51-2" cx="346.68" cy="225" r="227.58" xlink:href="#Áåçûìÿííûé_ãðàäèåíò_51"/><radialGradient id="Áåçûìÿííûé_ãðàäèåíò_51-3" cx="336.52" cy="243.47" r="38.78" gradientTransform="matrix(0.78, -0.63, 0.63, 0.78, -80.25, 260.61)" xlink:href="#Áåçûìÿííûé_ãðàäèåíò_51"/><radialGradient id="Áåçûìÿííûé_ãðàäèåíò_51-4" cx="337.61" cy="239.66" r="39.31" gradientTransform="matrix(0.81, -0.58, 0.58, 0.81, -82.03, 238.66)" xlink:href="#Áåçûìÿííûé_ãðàäèåíò_51"/><radialGradient id="Áåçûìÿííûé_ãðàäèåíò_58" cx="333.7" cy="237.01" r="4.69" gradientUnits="userSpaceOnUse"><stop offset="0" stop-color="#ff3a80"/><stop offset="1"/></radialGradient><radialGradient id="Áåçûìÿííûé_ãðàäèåíò_10" cx="335.16" cy="237.29" r="87.4" gradientTransform="translate(475.23 -148.74) rotate(74.65)" gradientUnits="userSpaceOnUse"><stop offset="0" stop-color="#ff2c49"/><stop offset="1"/></radialGradient><radialGradient id="Áåçûìÿííûé_ãðàäèåíò_10-2" cx="332" cy="237.18" r="34.31" gradientTransform="translate(90.95 -92.02) rotate(18.25)" xlink:href="#Áåçûìÿííûé_ãðàäèåíò_10"/><radialGradient id="Áåçûìÿííûé_ãðàäèåíò_10-3" cx="333.7" cy="237.29" r="29.77" gradientTransform="translate(48.89 -56.9) rotate(10.51)" xlink:href="#Áåçûìÿííûé_ãðàäèåíò_10"/></defs><title>main-star</title><g class="cls-1"><g id="Layer_2" data-name="Layer 2"><g id="space"><path class="cls-2" d="M650,234.1v7.44l-22.13.29-30.09.33c-21,.21-43.52.39-67.36.55l-24.1.15-10.94.06h-2.93L484,243q-21.11.1-43.24.18c-31.24.1-63.86.16-97.42.17H318.82c-22.32,0-44.2,0-65.53-.09q-25.64-.06-50.11-.16c-22.12-.09-43.45-.21-63.84-.34-29-.19-56.12-.42-80.85-.69l-15.82-.17c-15.3-.19-29.57-.39-42.67-.59v-6.9l3.08-.05c12.19-.19,25.35-.36,39.39-.53l23.33-.26c24.62-.26,51.46-.48,80.1-.65q16.38-.1,33.52-.19,19.44-.1,39.75-.17l9.77,0h0q23.9-.09,48.8-.12h0q23.57,0,47.9-.05H349c4,0,8,0,12,0,44.35,0,86.88.16,126.57.35l10.13,0,11.36.06,24.21.15,29.68.22h0l5.62.05,29.54.27,30,.33Q639.44,233.95,650,234.1Z"/><path class="cls-3" d="M576.81,0Q567,10.1,556,21.49q-16.29,16.73-35.2,36-9.46,9.66-19.52,19.88l-3.81,3.87q-8,8.1-16.3,16.54l-.77.78q-9.19,9.33-18.79,19l-13.49,13.64h0Q435.57,143.87,422.51,157,403.25,176.43,383,196.8l-3.46,3.47L372.77,207l-12.29,12.32-4.54,4.54,0,0c-2.79,2.8-5.6,5.62-8.42,8.43l-.73.74-2,2-4.45,4.46-2.18,2.18-1.05,1.05-.57.57-.86.86-.23.23q-22.49,22.47-44.15,44.06-17.81,17.73-34.91,34.71l-2.24,2.23Q241.84,337.61,230,349.34L228.35,351,223.21,356l-1.29,1.28-15.33,15.16L181.7,397l-9.57,9.42h0l-16,15.67h0c-3.3,3.25-6.53,6.41-9.72,9.53h0q-9.7,9.52-18.75,18.34H116.56q14.49-14.83,30.91-31.6l3.79-3.87L164,401.59l8.36-8.49q7-7.12,14.28-14.49l20.63-20.91,4.69-4.73q15.91-16.08,32.75-33.05c.85-.85,1.7-1.71,2.54-2.57q21.2-21.33,43.6-43.82h0l10.91-10.94h0l1.65-1.66h0L321,243.31l.35-.35,5.4-5.4,1.73-1.73,1.19-1.19.71-.71.95-1,.66-.66,1.16-1.16.22-.22,1.6-1.6L346,218.25l19.79-19.74,12.42-12.38q17.91-17.83,35.1-34.91l25.06-24.84,7.15-7.08Q453.92,111,462,103q4.05-4,8.05-8h0l19.16-18.88,2.8-2.76q17.11-16.85,32.67-32.08,12.43-12.17,23.75-23.2Q558.27,8.61,567.15,0Z"/><path class="cls-4" d="M337.15,235.59c19,23.48,33.27,43.49,31.78,44.69S350.81,263.43,331.78,240,298.51,196.47,300,195.26,318.12,212.12,337.15,235.59Z"/><path class="cls-5" d="M377.18,205.38c1,1.41-18.41,17-43.36,34.79s-46,31.1-47,29.69,18.41-17,43.36-34.78S376.18,204,377.18,205.38Z"/><path class="cls-6" d="M338.39,237a4.7,4.7,0,1,1-4.69-4.69A4.69,4.69,0,0,1,338.39,237Z"/><g class="cls-7"><rect class="cls-8" x="333.66" y="114.46" width="3" height="245.66" transform="translate(17.6 497.65) rotate(-74.65)"/></g><g class="cls-7"><rect class="cls-9" x="284.4" y="235.68" width="95.22" height="3" transform="translate(-57.57 115.87) rotate(-18.25)"/></g><g class="cls-7"><rect class="cls-10" x="332.2" y="195.74" width="3" height="83.09" transform="translate(-37.69 64.86) rotate(-10.51)"/></g></g></g></g></svg>