<svg xmlns="http://www.w3.org/2000/svg" preserveAspectRatio='none' viewBox="0 0 481.94 826.7"><defs><style>.cls-1{fill-opacity:0.2;}.cls-2{fill:#146c72;}.cls-3{fill:#ccc;}.cls-4{fill:#fff;}.cls-5{fill:#02b3be;}.cls-6{fill:#05747c;}.cls-7{fill:#25a6ac;}.cls-8{fill:#e6e6e6;}.cls-9{fill:#045e66;}.cls-10{fill:#04454b;}.cls-11{fill:#058890;}</style></defs><title>menu-bg</title><g id="Layer_2" data-name="Layer 2"><g id="Layer_1-2" data-name="Layer 1"><path class="cls-1" d="M408.09,41.08c-107.3-16.47-226.94-16.47-334.24,0a80.73,80.73,0,0,0-68,74.62c-7.92,126.43-7.75,516.74.54,635.59,2.28,32.65,28.89,62.63,59.51,70.87,22.5,6.05,327.72,6.05,350.22,0,30.62-8.25,57.23-38.22,59.51-70.87,8.29-118.85,8.46-509.16.55-635.59A80.74,80.74,0,0,0,408.09,41.08Z"/><g id="g2886"><path class="cls-2" d="M424.75,0h-368C45,0,47.36,45.88,47.36,68.82H434.17C434.17,45.88,438.32,0,424.75,0Z"/><path class="cls-3" d="M49.18,44.23,57,43.9C57.06,26.38,58,8.42,62.87,3a5.94,5.94,0,0,0-4.09-1.65C50.68,1.33,49.27,23.16,49.18,44.23Z"/><path class="cls-3" d="M426.75,1.33a5.87,5.87,0,0,0-3.84,1.43c5.57,5.09,6.25,22.91,6,40.46,2.62.08,5.22.18,7.79.27C437,22.65,436,1.33,426.75,1.33Z"/></g><path class="cls-4" d="M406.32,32.19c-106.85-16.47-223.85-16.47-330.69,0-36.8,5.67-65.4,36.66-67.77,74.62C0,233.24.14,623.55,8.41,742.4c2.26,32.65,28.77,62.62,59.26,70.86,22.4,6,324.21,6,346.6,0,30.5-8.23,57-38.21,59.26-70.86,8.26-118.85,8.43-509.16.55-635.59C471.72,68.85,443.11,37.86,406.32,32.19Z"/><path class="cls-5" d="M396.34,38.13a1011.83,1011.83,0,0,0-310.74,0,78.29,78.29,0,0,0-65.82,72.48c-7.66,122.81-7.5,505.36.53,620.81,2.2,31.72,27.94,60.83,57.56,68.83,21.76,5.88,304.44,5.88,326.2,0,29.62-8,55.36-37.13,57.56-68.83,8-115.46,8.19-498,.54-620.81A78.32,78.32,0,0,0,396.34,38.13Z"/><path class="cls-6" d="M448.43,705c-2.21,31.72-27.95,60.83-57.57,68.83-21.75,5.88-283.49,6.71-305.24.84-29.62-8-55.36-37.12-57.57-68.84-6.42-92.4-12.78-239.37-11.13-373.61-4.6,134.69-3.47,300.58,3.39,399.22,2.2,31.72,28,60.83,57.56,68.83,21.76,5.88,304.44,5.88,326.2,0,29.62-8,55.36-37.13,57.56-68.83,7.17-103.13,8.08-283.56,2.72-417.14C465.6,449,455.14,608.4,448.43,705Z"/><path class="cls-6" d="M390.86,773.81c-21.75,5.88-283.49,6.71-305.24.84-29.62-8-55.36-37.12-57.57-68.84-5.69-81.94-11.34-198.07-11.39-326.16v0c-.05,128.75,5.64,247.08,11.39,329.8,2.21,31.71,28,60.83,57.57,68.83,21.75,5.88,283.49,5,305.24-.83,29.61-8,55.36-37.12,57.57-68.84,6.37-91.65,16.12-235.77,16-369.56-.08,133.48-9.71,275.08-16,365.89C446.22,736.7,420.48,765.81,390.86,773.81Z"/><path class="cls-7" d="M24.93,653.24c1,19.66,2.07,37.41,3.12,52.57,2.21,31.72,28,60.84,57.57,68.84,21.75,5.87,283.49,5,305.24-.84,29.62-8,55.37-37.12,57.57-68.83.31-4.62.65-9.49,1-14.57C285.59,745.13,209.39,739.53,24.93,653.24Z"/><path class="cls-6" d="M462.17,110.61a78.31,78.31,0,0,0-65.83-72.48,1011.83,1011.83,0,0,0-310.74,0,78.3,78.3,0,0,0-65.82,72.48c-1.12,17.89-2.07,198.63-2.86,221.59q-.08,6.29-.13,12.73c.81-24.5,1.81-206.61,3-225.5a78.37,78.37,0,0,1,21-48.72c-1.86,4.36-2.13,8.67-.43,12.41C45,93.4,62.79,95.4,80,87.59s27.43-22.48,22.78-32.76c-2-4.47-6.52-7.37-12.37-8.59,112.73-15.3,203.64-15.06,305.9.7a78.31,78.31,0,0,1,65.83,72.49C463,133,463.77,308.27,464.43,325c0-3.6,0-7.16-.08-10.67C463.71,298.31,463,123.71,462.17,110.61Z"/><path class="cls-8" d="M475.53,739.2c-2.26,32.65-28.77,62.63-59.26,70.86-22.39,6.05-324.2,6.05-346.6,0-30.49-8.23-57-38.2-59.26-70.86C6.21,678.83,4.1,529.4,4.07,429.35v.49c0,101.4,2.08,252.71,6.34,313.89,2.26,32.66,28.76,62.63,59.26,70.87,22.39,6,324.21,6,346.6,0,30.5-8.24,57-38.22,59.27-70.87,4.25-61.28,6.37-212.81,6.33-314.38C481.84,529.4,479.73,678.83,475.53,739.2Z"/><path class="cls-1" d="M244.52,28.74c-63.89-.07-153-2.66-179.8,5.93C64.55,47.55,63.65,79,63.65,85c0,9.06,7.75,16.47,17.22,16.47H401.06c9.47,0,17.22-7.41,17.22-16.47,0-6.11-.92-37-1.08-50.12C382.63,23,305.08,28.81,244.52,28.74Z"/><path class="cls-4" d="M57,0c15.83,0,9.91,59.59,9.91,75.57A17,17,0,0,0,83.8,92.47H398.14A16.94,16.94,0,0,0,415,75.57C415,59.59,409.13,0,425,0H57Z"/><path class="cls-9" d="M67.92,0c14.88,0,9.32,52.42,9.32,66.47,0,8.18,7.16,14.88,15.9,14.88H388.79c8.75,0,15.9-6.7,15.9-14.88,0-14-5.56-66.47,9.32-66.47H67.92Z"/><path class="cls-8" d="M400.14,90.87H85.8a17,17,0,0,1-16.88-16c0,.74,0,1.41,0,2A17,17,0,0,0,85.8,93.8H400.14A16.94,16.94,0,0,0,417,76.9c0-.62,0-1.29,0-2A17,17,0,0,1,400.14,90.87Z"/><path class="cls-10" d="M226.49,68.82c-50-2.76-97-7.95-140.6-15.85q-4-.73-8.07-1.5c0,.55,0,1.1-.07,1.64-.26,5.62-.51,10.36-.51,13.36a14,14,0,0,0,.2,2.35c1.21,7.08,7.81,12.53,15.7,12.53H388.79c7.67,0,14.12-5.15,15.59-11.94C341.66,72,282.2,71.9,226.49,68.82Z"/><path class="cls-11" d="M76.28,10.74c110.79-5.57,220.85-6.2,330.41-3.56C408.26,2.76,410.6,0,414,0H67.92C72.18,0,74.76,4.29,76.28,10.74Z"/></g></g></svg>