<svg xmlns="http://www.w3.org/2000/svg" preserveAspectRatio='none' viewBox="0 0 1214.64 805.03"><defs><style>.cls-1{fill-opacity:0.2;}.cls-2{fill:#fff;}.cls-3{fill:#a9f6f0;}.cls-4{fill:#6feee3;}.cls-5{fill:#ccfaf6;}.cls-6{fill:#96f3eb;}.cls-7{fill:#ccfaf7;}.cls-8{fill:#e6e6e6;}</style></defs><title>nice-bg-clear</title><g id="Layer_2" data-name="Layer 2"><g id="Layer_1-2" data-name="Layer 1"><g id="g2154"><path class="cls-1" d="M1127.83,25c-126.1-19.36-914.91-19.36-1041,0a94.89,94.89,0,0,0-80,87.7c-9.31,148.58-9.11,464.05.65,603.73,2.68,38.38,33.94,73.61,69.94,83.29,26.43,7.12,1033.36,7.12,1059.81,0,36-9.69,67.26-44.91,69.94-83.29,9.75-139.68,9.95-455.15.64-603.73A94.88,94.88,0,0,0,1127.83,25Z"/><path class="cls-2" d="M1125.75,14.51C1000.17-4.84,214.47-4.84,88.89,14.51,45.64,21.18,12,57.6,9.25,102.22,0,250.8.18,566.26,9.88,706c2.67,38.38,33.82,73.6,69.65,83.28,26.33,7.13,1029.25,7.13,1055.58,0,35.83-9.68,67-44.9,69.65-83.28,9.71-139.69,9.9-455.15.63-603.73C1202.62,57.6,1169,21.18,1125.75,14.51Z"/><path class="cls-3" d="M1116,22.82C994,4,224.6,4,102.62,22.82,60.6,29.3,28,64.69,25.25,108c-9,144.34-8.82,450.67.62,586.36,2.6,37.28,32.85,71.49,67.66,80.91,25.56,6.91,1006,6.91,1031.58,0,34.81-9.42,65.06-43.63,67.66-80.91,9.43-135.69,9.63-442,.62-586.36C1190.69,64.69,1158,29.3,1116,22.82Z"/><path class="cls-4" d="M1177.25,663.31c-2.59,37.28-32.85,71.49-67.67,80.89-25.56,6.91-981.38,7.89-1006.95,1-34.8-9.41-65.07-43.63-67.65-80.91-7.56-108.59-15-326-13.08-483.74-5.41,158.3-4.09,397.91,4,513.83,2.6,37.28,32.85,71.49,67.66,80.91,25.56,6.91,1006,6.91,1031.58,0,34.81-9.42,65.06-43.63,67.66-80.91,8.42-121.2,9.49-377.9,3.2-534.91C1197.44,317.83,1185.13,549.79,1177.25,663.31Z"/><path class="cls-5" d="M1109.58,744.2c-25.56,6.91-981.38,7.89-1006.95,1-34.8-9.41-65.07-43.63-67.65-80.91-6.7-96.3-13.33-277.43-13.39-428v0c-.07,151.32,6.63,335,13.39,432.26,2.58,37.28,32.85,71.49,67.65,80.9,25.57,6.9,981.39,5.93,1007-1,34.82-9.41,65.08-43.62,67.67-80.9,7.48-107.71,18.94-321.74,18.84-479-.11,156.88-11.43,367.94-18.84,474.68C1174.66,700.59,1144.4,734.8,1109.58,744.2Z"/><path class="cls-6" d="M31.31,602.5c1.19,23.1,2.44,44,3.67,61.78,2.58,37.28,32.85,71.5,67.65,80.91,25.57,6.9,981.39,5.92,1007-1,34.82-9.4,65.08-43.61,67.67-80.89.37-5.43.76-11.16,1.16-17.13C901.31,724.07,368.15,693.48,31.31,602.5Z"/><path class="cls-7" d="M1193.39,108C1190.69,64.68,1158,29.3,1116,22.82,994,4,224.6,4,102.62,22.82,60.6,29.3,28,64.68,25.25,108c-1.32,21-2.44,45.54-3.35,72.53-.06,4.92-.12,9.9-.15,15,.95-28.8,2.11-54.91,3.5-77.12A92.11,92.11,0,0,1,49,62.2a.28.28,0,0,1,.47.28c-1.69,4.66-1.79,9.23,0,13.22C54.94,87.79,75.8,90.14,96.06,81s32.25-26.42,26.77-38.5c-2.2-4.88-6.92-8.16-13.08-9.75a.27.27,0,0,1,0-.53c134.82-17.78,886.5-17.45,1006.24,1,42,6.47,74.67,41.85,77.37,85.19,1,16,1.88,34,2.66,53.65,0-4.24,0-8.42-.08-12.56C1195.22,140.71,1194.36,123.42,1193.39,108Z"/><path class="cls-8" d="M1206.76,702c-2.67,38.38-33.83,73.6-69.66,83.28-26.32,7.11-1029.24,7.11-1055.57,0-35.82-9.68-67-44.9-69.65-83.28C7,631,4.47,410.74,4.43,293.15v.58c0,119.17,2.46,341.65,7.45,413.56,2.67,38.38,33.82,73.59,69.65,83.29,26.33,7.11,1029.25,7.11,1055.57,0,35.84-9.7,67-44.92,69.66-83.29,5-72,7.48-294.78,7.44-414.14C1214.17,410.74,1211.68,631,1206.76,702Z"/></g></g></g></svg>