<svg xmlns="http://www.w3.org/2000/svg" preserveAspectRatio='none' viewBox="0 0 1214.64 846.3"><defs><style>.cls-1{fill:#146c72;}.cls-2{fill:#ccc;}.cls-3{fill-opacity:0.2;}.cls-4{fill:#058890;}.cls-5{fill:#fff;}.cls-6{fill:#a9f6f0;}.cls-7{fill:#6feee3;}.cls-8{fill:#ccfaf6;}.cls-9{fill:#96f3eb;}.cls-10{fill:#ccfaf7;}.cls-11{fill:#e6e6e6;}.cls-12{fill:#045e66;}.cls-13{fill:#04454b;}</style></defs><title>nice-bg_2</title><g id="Layer_2" data-name="Layer 2"><g id="Layer_1-2" data-name="Layer 1"><g id="g2886"><path class="cls-1" d="M891.36,0h-553c-17.64,0-14.15,45.88-14.15,68.82H905.51C905.51,45.88,911.75,0,891.36,0Z"/><path class="cls-2" d="M327,44.23l11.71-.33c.13-17.52,1.61-35.48,8.87-40.92a11.67,11.67,0,0,0-6.15-1.65C329.22,1.33,327.1,23.16,327,44.23Z"/><path class="cls-2" d="M894.36,1.33a11.75,11.75,0,0,0-5.77,1.43C897,7.85,898,25.67,897.65,43.22c3.94.08,7.85.18,11.71.27C909.8,22.65,908.26,1.33,894.36,1.33Z"/></g><path class="cls-3" d="M620.51,28.74c-96-.07-229.95-2.66-270.19,5.93-.26,12.88-1.61,44.3-1.61,50.31,0,9.06,11.64,16.47,25.88,16.47H855.76C870,101.45,881.63,94,881.63,85c0-6.11-1.38-37-1.62-50.12C828.06,23,711.52,28.81,620.51,28.74Z"/><path class="cls-4" d="M367.69,10.74c166.49-5.57,331.88-6.2,496.53-3.56,2.36-4.42,5.87-7.18,11-7.18H355.12C361.53,0,365.4,4.29,367.69,10.74Z"/><g id="g2154"><path class="cls-3" d="M1127.83,66.24c-126.1-19.35-914.91-19.35-1041,0a94.9,94.9,0,0,0-80,87.7C-2.48,302.52-2.28,618,7.48,757.68c2.68,38.37,33.94,73.6,69.94,83.29,26.43,7.11,1033.36,7.11,1059.81,0,36-9.7,67.26-44.92,69.94-83.29,9.75-139.69,9.95-455.16.64-603.74A94.89,94.89,0,0,0,1127.83,66.24Z"/><path class="cls-5" d="M1125.75,55.78c-125.58-19.34-911.28-19.34-1036.86,0C45.64,62.46,12,98.87,9.25,143.49,0,292.07.18,607.53,9.88,747.23c2.67,38.37,33.82,73.59,69.65,83.28,26.33,7.12,1029.25,7.12,1055.58,0,35.83-9.69,67-44.91,69.65-83.28,9.71-139.7,9.9-455.16.63-603.74C1202.62,98.87,1169,62.46,1125.75,55.78Z"/><path class="cls-6" d="M1116,64.1c-122-18.81-891.42-18.81-1013.4,0C60.6,70.57,28,106,25.25,149.28c-9,144.34-8.82,450.68.62,586.36,2.6,37.28,32.85,71.5,67.66,80.91,25.56,6.91,1006,6.91,1031.58,0,34.81-9.41,65.06-43.63,67.66-80.91,9.43-135.68,9.63-442,.62-586.36C1190.69,106,1158,70.57,1116,64.1Z"/><path class="cls-7" d="M1177.25,704.58c-2.59,37.28-32.85,71.49-67.67,80.9-25.56,6.91-981.38,7.88-1006.95,1-34.8-9.41-65.07-43.62-67.65-80.9C27.42,597,20,379.58,21.9,221.81c-5.41,158.3-4.09,397.92,4,513.83,2.6,37.28,32.85,71.5,67.66,80.91,25.56,6.91,1006,6.91,1031.58,0,34.81-9.41,65.06-43.63,67.66-80.91,8.42-121.19,9.49-377.9,3.2-534.9C1197.44,359.11,1185.13,591.06,1177.25,704.58Z"/><path class="cls-8" d="M1109.58,785.48c-25.56,6.91-981.38,7.88-1006.95,1-34.8-9.41-65.07-43.62-67.65-80.9-6.7-96.31-13.33-277.44-13.39-428v0c-.07,151.32,6.63,335,13.39,432.26,2.58,37.28,32.85,71.49,67.65,80.91,25.57,6.9,981.39,5.92,1007-1,34.82-9.4,65.08-43.62,67.67-80.9,7.48-107.71,18.94-321.74,18.84-479-.11,156.88-11.43,367.93-18.84,474.67C1174.66,741.86,1144.4,776.07,1109.58,785.48Z"/><path class="cls-9" d="M31.31,643.77c1.19,23.11,2.44,44,3.67,61.79,2.58,37.28,32.85,71.49,67.65,80.9,25.57,6.9,981.39,5.93,1007-1,34.82-9.41,65.08-43.62,67.67-80.9.37-5.43.76-11.15,1.16-17.12C901.31,765.34,368.15,734.75,31.31,643.77Z"/><path class="cls-10" d="M1193.39,149.28C1190.69,106,1158,70.57,1116,64.1c-122-18.81-891.42-18.81-1013.4,0C60.6,70.57,28,106,25.25,149.28c-1.32,21-2.44,45.54-3.35,72.53-.06,4.92-.12,9.91-.15,14.95.95-28.8,2.11-54.91,3.5-77.11A92.06,92.06,0,0,1,49,103.48a.28.28,0,0,1,.47.27c-1.69,4.66-1.79,9.23,0,13.22,5.48,12.1,26.34,14.45,46.6,5.26s32.25-26.42,26.77-38.51c-2.2-4.87-6.92-8.16-13.08-9.74a.28.28,0,0,1,0-.54C244.6,55.66,996.28,56,1116,74.45c42,6.48,74.67,41.85,77.37,85.2,1,16,1.88,34,2.66,53.64,0-4.23,0-8.42-.08-12.55C1195.22,182,1194.36,164.69,1193.39,149.28Z"/><path class="cls-11" d="M1206.76,743.24c-2.67,38.37-33.83,73.59-69.66,83.28-26.32,7.11-1029.24,7.11-1055.57,0-35.82-9.69-67-44.91-69.65-83.28C7,672.28,4.47,452,4.43,334.43V335c0,119.18,2.46,341.66,7.45,413.56,2.67,38.39,33.82,73.6,69.65,83.29,26.33,7.11,1029.25,7.11,1055.57,0,35.84-9.69,67-44.92,69.66-83.29,5-72,7.48-294.77,7.44-414.13C1214.17,452,1211.68,672.28,1206.76,743.24Z"/></g><path class="cls-5" d="M338.68,0c23.79,0,14.9,59.59,14.9,75.57,0,9.3,11.43,16.9,25.41,16.9H851.37c14,0,25.39-7.6,25.39-16.9,0-16-8.88-75.57,14.9-75.57h-553Z"/><path class="cls-12" d="M355.12,0c22.37,0,14,52.42,14,66.47,0,8.18,10.76,14.88,23.89,14.88h444.3c13.15,0,23.89-6.7,23.89-14.88,0-14-8.35-66.47,14-66.47H355.12Z"/><path class="cls-13" d="M593.42,68.82C518.25,66.06,447.64,60.87,382.13,53Q376,52.24,370,51.47c0,.55-.07,1.1-.1,1.64-.39,5.62-.77,10.36-.77,13.36a9.7,9.7,0,0,0,.3,2.35c1.82,7.08,11.74,12.53,23.59,12.53h444.3c11.52,0,21.22-5.15,23.43-11.94C766.49,72,677.14,71.9,593.42,68.82Z"/></g></g></svg>