<svg xmlns="http://www.w3.org/2000/svg" xmlns:xlink="http://www.w3.org/1999/xlink" viewBox="0 0 650 140.38"><defs><style>.cls-1{isolation:isolate;}.cls-2{fill:#00507f;opacity:0.28;}.cls-10,.cls-11,.cls-2,.cls-23,.cls-24,.cls-35,.cls-8,.cls-9{mix-blend-mode:multiply;}.cls-28,.cls-3,.cls-31,.cls-34,.cls-4,.cls-5{mix-blend-mode:screen;}.cls-3{fill:url(#Áåçûìÿííûé_ãðàäèåíò_51);}.cls-4{fill:url(#Áåçûìÿííûé_ãðàäèåíò_51-2);}.cls-5{fill:url(#Áåçûìÿííûé_ãðàäèåíò_58);}.cls-6{fill:#02bede;}.cls-7{fill:url(#Áåçûìÿííûé_ãðàäèåíò_242);}.cls-8,.cls-9{opacity:0.15;}.cls-8{fill:url(#Áåçûìÿííûé_ãðàäèåíò_258);}.cls-9{fill:url(#Áåçûìÿííûé_ãðàäèåíò_258-2);}.cls-10,.cls-11,.cls-24{opacity:0.33;}.cls-10{fill:url(#Áåçûìÿííûé_ãðàäèåíò_132);}.cls-11{fill:url(#Áåçûìÿííûé_ãðàäèåíò_132-2);}.cls-12,.cls-13,.cls-14,.cls-15,.cls-19,.cls-20,.cls-22{opacity:0.6;}.cls-12{fill:url(#Áåçûìÿííûé_ãðàäèåíò_126);}.cls-13{fill:url(#Áåçûìÿííûé_ãðàäèåíò_126-2);}.cls-14{fill:url(#Áåçûìÿííûé_ãðàäèåíò_126-3);}.cls-15{fill:url(#Áåçûìÿííûé_ãðàäèåíò_126-4);}.cls-16{fill:url(#Áåçûìÿííûé_ãðàäèåíò_106);}.cls-17{fill:url(#Áåçûìÿííûé_ãðàäèåíò_126-5);}.cls-18{fill:#b5e1ff;}.cls-19{fill:url(#Áåçûìÿííûé_ãðàäèåíò_126-6);}.cls-20{fill:url(#Áåçûìÿííûé_ãðàäèåíò_126-7);}.cls-21{fill:#d4edff;}.cls-22{fill:url(#Áåçûìÿííûé_ãðàäèåíò_126-8);}.cls-23{fill:#8065cf;opacity:0.5;}.cls-24{fill:url(#Áåçûìÿííûé_ãðàäèåíò_132-3);}.cls-25{fill:url(#Áåçûìÿííûé_ãðàäèåíò_249);}.cls-26{fill:url(#Áåçûìÿííûé_ãðàäèåíò_126-9);}.cls-27{fill:#495bff;}.cls-28,.cls-31,.cls-34{opacity:0.61;}.cls-28{fill:url(#Áåçûìÿííûé_ãðàäèåíò_263);}.cls-29{fill:url(#Áåçûìÿííûé_ãðàäèåíò_106-2);}.cls-30{fill:url(#Áåçûìÿííûé_ãðàäèåíò_126-10);}.cls-31{fill:url(#Áåçûìÿííûé_ãðàäèåíò_263-2);}.cls-32{fill:url(#Áåçûìÿííûé_ãðàäèåíò_106-3);}.cls-33{fill:url(#Áåçûìÿííûé_ãðàäèåíò_126-11);}.cls-34{fill:url(#Áåçûìÿííûé_ãðàäèåíò_263-3);}.cls-35{opacity:0.35;fill:url(#Áåçûìÿííûé_ãðàäèåíò_126-12);}</style><radialGradient id="Áåçûìÿííûé_ãðàäèåíò_51" cx="66.77" cy="-79.8" r="27.3" gradientTransform="matrix(0.78, -0.63, 0.63, 0.78, 248.98, 170.96)" gradientUnits="userSpaceOnUse"><stop offset="0" stop-color="#340093"/><stop offset="1"/></radialGradient><radialGradient id="Áåçûìÿííûé_ãðàäèåíò_51-2" cx="80.47" cy="-64.59" r="27.67" gradientTransform="matrix(0.81, -0.58, 0.58, 0.81, 220.87, 166.14)" xlink:href="#Áåçûìÿííûé_ãðàäèåíò_51"/><radialGradient id="Áåçûìÿííûé_ãðàäèåíò_58" cx="250.05" cy="66.4" r="3.3" gradientUnits="userSpaceOnUse"><stop offset="0" stop-color="#ff3a80"/><stop offset="1"/></radialGradient><linearGradient id="Áåçûìÿííûé_ãðàäèåíò_242" x1="323.52" y1="4.3" x2="326.52" y2="211.3" gradientUnits="userSpaceOnUse"><stop offset="0" stop-color="#19e7fa"/><stop offset="0.21" stop-color="#16d0ee"/><stop offset="0.52" stop-color="#13b6e0"/><stop offset="0.79" stop-color="#12a6d7"/><stop offset="1" stop-color="#11a0d4"/></linearGradient><linearGradient id="Áåçûìÿííûé_ãðàäèåíò_258" x1="488.94" y1="5.08" x2="301.16" y2="88.14" gradientUnits="userSpaceOnUse"><stop offset="0" stop-color="#6babff"/><stop offset="0.02" stop-color="#68a6fd"/><stop offset="0.25" stop-color="#4977ef"/><stop offset="0.47" stop-color="#3152e3"/><stop offset="0.68" stop-color="#1f37db"/><stop offset="0.86" stop-color="#1527d6"/><stop offset="1" stop-color="#1121d4"/></linearGradient><linearGradient id="Áåçûìÿííûé_ãðàäèåíò_258-2" x1="415.98" y1="15.24" x2="287.37" y2="72.12" xlink:href="#Áåçûìÿííûé_ãðàäèåíò_258"/><linearGradient id="Áåçûìÿííûé_ãðàäèåíò_132" x1="522.65" y1="76.18" x2="614.01" y2="76.18" gradientUnits="userSpaceOnUse"><stop offset="0" stop-color="#337bd4"/><stop offset="1" stop-color="#0030e6"/></linearGradient><linearGradient id="Áåçûìÿííûé_ãðàäèåíò_132-2" x1="534.93" y1="55.82" x2="590.28" y2="55.82" xlink:href="#Áåçûìÿííûé_ãðàäèåíò_132"/><linearGradient id="Áåçûìÿííûé_ãðàäèåíò_126" x1="620.71" y1="112.98" x2="638.71" y2="150.31" gradientUnits="userSpaceOnUse"><stop offset="0" stop-color="#337bd4"/><stop offset="0.11" stop-color="#3565b7"/><stop offset="0.24" stop-color="#37509c"/><stop offset="0.39" stop-color="#393f86"/><stop offset="0.55" stop-color="#3a3377"/><stop offset="0.73" stop-color="#3b2c6e"/><stop offset="1" stop-color="#3b2a6b"/></linearGradient><linearGradient id="Áåçûìÿííûé_ãðàäèåíò_126-2" x1="523.13" y1="124.89" x2="577.68" y2="124.89" xlink:href="#Áåçûìÿííûé_ãðàäèåíò_126"/><linearGradient id="Áåçûìÿííûé_ãðàäèåíò_126-3" x1="572.61" y1="120.15" x2="597.69" y2="120.15" xlink:href="#Áåçûìÿííûé_ãðàäèåíò_126"/><linearGradient id="Áåçûìÿííûé_ãðàäèåíò_126-4" x1="221.97" y1="100.36" x2="216.64" y2="115.7" xlink:href="#Áåçûìÿííûé_ãðàäèåíò_126"/><linearGradient id="Áåçûìÿííûé_ãðàäèåíò_106" x1="85.93" y1="36.27" x2="-4.57" y2="92.77" gradientUnits="userSpaceOnUse"><stop offset="0" stop-color="#19e7fa"/><stop offset="0.02" stop-color="#1be2f9"/><stop offset="0.17" stop-color="#28c7f5"/><stop offset="0.33" stop-color="#32b1f1"/><stop offset="0.5" stop-color="#39a2ef"/><stop offset="0.7" stop-color="#3d99ed"/><stop offset="1" stop-color="#3e96ed"/></linearGradient><linearGradient id="Áåçûìÿííûé_ãðàäèåíò_126-5" x1="0" y1="66.46" x2="61" y2="66.46" xlink:href="#Áåçûìÿííûé_ãðàäèåíò_126"/><linearGradient id="Áåçûìÿííûé_ãðàäèåíò_126-6" x1="405.94" y1="95.17" x2="401.27" y2="118.5" xlink:href="#Áåçûìÿííûé_ãðàäèåíò_126"/><linearGradient id="Áåçûìÿííûé_ãðàäèåíò_126-7" x1="382.52" y1="89.19" x2="379.02" y2="106.7" gradientTransform="translate(-10.71 -56.54) rotate(8.33)" xlink:href="#Áåçûìÿííûé_ãðàäèåíò_126"/><linearGradient id="Áåçûìÿííûé_ãðàäèåíò_126-8" x1="125.47" y1="45.23" x2="120.55" y2="58.34" xlink:href="#Áåçûìÿííûé_ãðàäèåíò_126"/><linearGradient id="Áåçûìÿííûé_ãðàäèåíò_132-3" x1="207.59" y1="22.91" x2="200.25" y2="42.91" xlink:href="#Áåçûìÿííûé_ãðàäèåíò_132"/><linearGradient id="Áåçûìÿííûé_ãðàäèåíò_249" x1="403.84" y1="2.22" x2="405.17" y2="64.88" gradientUnits="userSpaceOnUse"><stop offset="0" stop-color="#19e7fa"/><stop offset="0.06" stop-color="#1ddef9"/><stop offset="0.32" stop-color="#2bbff4"/><stop offset="0.56" stop-color="#36a8f0"/><stop offset="0.79" stop-color="#3c9bee"/><stop offset="1" stop-color="#3e96ed"/></linearGradient><linearGradient id="Áåçûìÿííûé_ãðàäèåíò_126-9" x1="406.1" y1="6.04" x2="403.63" y2="40.54" xlink:href="#Áåçûìÿííûé_ãðàäèåíò_126"/><radialGradient id="Áåçûìÿííûé_ãðàäèåíò_263" cx="394.84" cy="64.26" r="29.96" gradientTransform="matrix(0, 1.81, -0.79, 0, 454.47, -689.2)" gradientUnits="userSpaceOnUse"><stop offset="0" stop-color="#99003a"/><stop offset="1"/></radialGradient><linearGradient id="Áåçûìÿííûé_ãðàäèåíò_106-2" x1="191.5" y1="33.03" x2="162.16" y2="111.7" xlink:href="#Áåçûìÿííûé_ãðàäèåíò_106"/><linearGradient id="Áåçûìÿííûé_ãðàäèåíò_126-10" x1="162.86" y1="52.86" x2="168.86" y2="108.87" xlink:href="#Áåçûìÿííûé_ãðàäèåíò_126"/><radialGradient id="Áåçûìÿííûé_ãðàäèåíò_263-2" cx="229.14" cy="156.24" r="29.96" gradientTransform="matrix(1.81, 0, 0, 0.79, -246.55, -50.53)" xlink:href="#Áåçûìÿííûé_ãðàäèåíò_263"/><linearGradient id="Áåçûìÿííûé_ãðàäèåíò_106-3" x1="598.02" y1="63.63" x2="580.02" y2="111.91" gradientTransform="matrix(-1, 0, 0, 1, 1172.2, 0)" xlink:href="#Áåçûìÿííûé_ãðàäèåíò_106"/><linearGradient id="Áåçûìÿííûé_ãðàäèåíò_126-11" x1="580.45" y1="75.8" x2="584.13" y2="110.17" gradientTransform="matrix(-1, 0, 0, 1, 1172.2, 0)" xlink:href="#Áåçûìÿííûé_ãðàäèåíò_126"/><radialGradient id="Áåçûìÿííûé_ãðàäèåíò_263-3" cx="445.26" cy="337.78" r="18.39" gradientTransform="matrix(0, -1.81, -0.79, 0, 856.44, 892.76)" xlink:href="#Áåçûìÿííûé_ãðàäèåíò_263"/><linearGradient id="Áåçûìÿííûé_ãðàäèåíò_126-12" x1="326.33" y1="131.16" x2="330.33" y2="191.16" xlink:href="#Áåçûìÿííûé_ãðàäèåíò_126"/></defs><title>particle-bot</title><g class="cls-1"><g id="Layer_2" data-name="Layer 2"><g id="Layer_2-2" data-name="Layer 2"><path class="cls-2" d="M650,72.42v68H539q9.59-3.7,19.5-8.19a357.67,357.67,0,0,0,71.11-42.73Q640.49,81,650,72.42Z"/><path class="cls-2" d="M70.78,140.38H0V82.74c.18.22.36.45.55.67q3.95,4.84,8.54,9.85c.86.94,1.74,1.87,2.63,2.81A220.19,220.19,0,0,0,62.61,136Q66.72,138.3,70.78,140.38Z"/><path class="cls-2" d="M490,60.38a72.55,72.55,0,0,0-37,15,71.7,71.7,0,0,0-19,23,120.25,120.25,0,0,0,35-18A119.32,119.32,0,0,0,490,60.38Z"/><path class="cls-3" d="M252.48,65.4C265.88,81.92,275.9,96,274.85,96.86S262.1,85,248.7,68.47,225.28,37.86,226.32,37,239.08,48.87,252.48,65.4Z"/><path class="cls-4" d="M280.66,44.13c.7,1-13,11.95-30.53,24.49s-32.37,21.89-33.08,20.9,13-12,30.53-24.48S280,43.14,280.66,44.13Z"/><circle class="cls-5" cx="250.05" cy="66.4" r="3.3"/><path class="cls-6" d="M314,18.38,305.33,7.05A212.83,212.83,0,0,0,208,22.38Z"/><path class="cls-6" d="M563.33,46.38l-3.33-12A400.9,400.9,0,0,0,418,11.05q-3.33,5-6.67,10Q444,25.53,478,31.05,521.91,38.21,563.33,46.38Z"/><path class="cls-7" d="M650,72v68.38H0V83.65l.55-.24,1.5-.65q17.13-7.5,34.63-14.22,7.77-3,15.61-5.84,12-4.34,24.13-8.32Q95,48.3,113.86,43.07a838,838,0,0,1,146.7-26.83q38.67-3.55,78.29-3.59h0A845.4,845.4,0,0,1,504.68,29a833.7,833.7,0,0,1,86.56,22.15c2.21.69,4.43,1.4,6.63,2.11Q624,61.68,649.41,71.77Z"/><path class="cls-8" d="M649.41,71.77c-10.52,3-24.86,6.25-44.41,9.63C429.58,111.72,114.28,104.59,2.05,82.76q17.13-7.5,34.63-14.22c23.47,29.67,190,27.2,225.32,23.84,1.56-.15,23-2.25,23-5,0-2.29-15-3.2-15-5,0-2.35,25.17-3.48,47-5,55.35-3.85,80.78-9.55,83-3,1.87,5.53-15.32,12.32-14,17,4,14.18,172.58-8.9,211.87-38.15Q624,61.68,649.41,71.77Z"/><path class="cls-9" d="M591.24,51.12c-12.31,2.05-25,4-39.24,6.26-33.87,5.29-66.14,9.67-67,6-.63-2.67,16.23-6.15,16-10-.89-15.08-263.34-21.44-267,7-.79,6.15,11.13,9.35,10,14-3.4,14-101.12,3.38-191.71-11.68q12-4.34,24.13-8.32Q95,48.3,113.86,43.07c54,.41,118.28-1.71,178.14-3.69C335.62,37.94,423.44,35,504.68,29A833.7,833.7,0,0,1,591.24,51.12Z"/><path class="cls-10" d="M614,83.72c-.65,3.84-23.3,3.21-36,2-28.23-2.71-56.11-13-55.33-17.34s29.92-2.16,32-2C584.74,68.71,614.76,79.17,614,83.72Z"/><path class="cls-11" d="M590.26,61.31c.51-2-11.17-7.46-22.67-10-16.1-3.57-32.47-1.64-32.66.66s14.57,5.09,22.66,6.67C568.62,60.79,589.6,63.94,590.26,61.31Z"/><path class="cls-12" d="M650,116.71v23.67H606.44c5.4-7.41,14.75-16.92,29.21-21.34A54.73,54.73,0,0,1,650,116.71Z"/><path class="cls-13" d="M577.63,131.63c-.79,2.91-12,2.11-20.5,1.5-15.2-1.09-34.15-5.88-34-10.5.1-3,8.31-5,10.5-5.5C555.33,111.94,578.86,127.11,577.63,131.63Z"/><path class="cls-14" d="M597.63,124.13c-.7,2-7.8,1.27-11.5.5-6.59-1.36-14-5.19-13.5-7.5.4-2,6.41-2.68,11-2C591.39,116.28,598.41,121.92,597.63,124.13Z"/><path class="cls-15" d="M241.1,105.4c.22,3.3-15,6.46-16,6.66-12.5,2.55-26.85,1.22-27.33-2-.42-2.8,9.8-6.36,10.67-6.66C223.54,98.13,240.88,101.92,241.1,105.4Z"/><path class="cls-16" d="M80.5,56.88c-5.61,4.35-11.88,8.89-18.83,13.42A277.14,277.14,0,0,1,19.5,92.88q-3.94,1.7-7.78,3.19-5.57,2.19-10.93,4l-.79.27V71A178.45,178.45,0,0,1,65,47.38l11.42,7Z"/><path class="cls-17" d="M61,50.38a207.31,207.31,0,0,1-20,13.5A208.85,208.85,0,0,1,0,82.53V74.78c4.13-2.68,8.63-5.34,13.5-7.9A170.25,170.25,0,0,1,61,50.38Z"/><path class="cls-18" d="M76.5,54.3l4.27-1.48c2.79-1,6.88-2.37,12.13-4s11.62-3.68,19-5.88,15.69-4.53,24.84-6.87,19.1-4.76,29.67-7.06,21.78-4.57,33.43-6.52c5.85-1,11.76-1.85,17.76-2.79l4.51-.7,4.57-.59,9.19-1.2c6.15-.87,12.38-1.44,18.62-2.12s12.52-1.19,18.8-1.71,12.57-.85,18.84-1.19,12.51-.55,18.71-.75,12.35-.27,18.43-.34,12.08,0,18,.07c11.81.13,23.22.63,34,1.28,5.41.26,10.65.73,15.73,1.09s10,.86,14.68,1.29,9.2.91,13.47,1.41,8.33,1,12.13,1.51l10.65,1.45,9,1.37,3.86.59,3.39.58,5.35.92,4.46.77-4.48-.61c-2.93-.37-7.2-1-12.67-1.67l-9-1.13-10.67-1.16c-3.8-.44-7.87-.8-12.15-1.18L418.42,17c-2.25-.22-4.55-.37-6.9-.56-4.7-.35-9.59-.78-14.67-1s-10.31-.67-15.71-.83-10.93-.5-16.6-.56-11.45-.35-17.34-.31-11.87-.12-17.93,0-12.19.14-18.37.43-12.41.43-18.65.86-12.51.71-18.76,1.28-12.53.91-18.75,1.6-12.43,1.18-18.55,2L227,21.07l-4.55.57-4.51.67c-6,.91-12,1.75-17.74,2.69-11.62,1.94-22.82,3.95-33.41,6.09s-20.55,4.35-29.71,6.56S119.58,42,112.17,44s-13.83,3.81-19.1,5.37S83.64,52.1,80.82,53Z"/><path class="cls-19" d="M442,104.38c-.4,4.15-23.06,4.88-27,5-22.91.73-48.09-4.47-48-9,.07-3.6,16.14-6.31,26-7C417.82,91.65,442.43,100,442,104.38Z"/><path class="cls-20" d="M370.41,91.51c0,2.56-11.28,5-20.85,4.36-5.48-.35-13.48-1.87-13.56-4s7.17-4.21,12.84-4.85C359.16,85.83,370.45,88.94,370.41,91.51Z"/><path class="cls-21" d="M80.08,56.63c-2.55-1.38-5.06-2.84-7.59-4.27-1.27-.71-2.52-1.44-3.77-2.18L65,48l.49.09c-2.69.52-5.37,1.11-8,1.71s-5.32,1.28-8,2S44.16,53.19,41.55,54s-5.24,1.62-7.82,2.51S28.56,58.29,26,59.27l-3.84,1.49c-1.27.5-2.54,1-3.8,1.55-2.54,1-5,2.15-7.56,3.26-1.25.56-2.5,1.13-3.74,1.71L3.33,69.05c1.17-.73,2.34-1.46,3.53-2.15s2.39-1.37,3.6-2c2.4-1.35,4.87-2.58,7.35-3.8A164.85,164.85,0,0,1,33.1,54.68c2.61-.93,5.22-1.78,7.87-2.6s5.31-1.53,8-2.2,5.38-1.26,8.09-1.8,5.44-1,8.17-1.39h0a.61.61,0,0,1,.46.1l3.62,2.42c1.2.81,2.41,1.62,3.6,2.45C75.32,53.31,77.72,54.93,80.08,56.63Z"/><path class="cls-22" d="M131,51.56c.29-1.75-4.23-4.75-8.61-4.51-3.53.19-7.18,2.51-7,4.1.24,1.81,5.46,2.38,6.15,2.46C125.36,54,130.73,53.35,131,51.56Z"/><path class="cls-23" d="M80.5,56.88A346.11,346.11,0,0,1,38.25,81.13,348,348,0,0,1,0,96.9v9.27A203.59,203.59,0,0,0,52.25,80.38,201.11,201.11,0,0,0,80.5,56.88Z"/><path class="cls-24" d="M226.72,34.23c.09,2.54-13.6,4.83-16.67,5.34-14.46,2.41-31,1.49-31.33-1.34-.27-2.23,9.64-5.35,16-6.66C210.34,28.34,226.62,31.48,226.72,34.23Z"/><path class="cls-25" d="M533.84,44.53A550.46,550.46,0,0,1,414.5,49.86,550.6,550.6,0,0,1,275.17,22.53l22-11.34a721.33,721.33,0,0,1,216,16.67Z"/><path class="cls-26" d="M509.17,29.2a453.75,453.75,0,0,1-57.33,5.33q-3.19.09-6.35.14a455.25,455.25,0,0,1-83.9-6.54,471.85,471.85,0,0,1-60.75-14.6A618.75,618.75,0,0,1,509.17,29.2Z"/><path class="cls-27" d="M445.49,34.67a455.25,455.25,0,0,1-83.9-6.54,134.36,134.36,0,0,1,55.25-1.93A132.27,132.27,0,0,1,445.49,34.67Z"/><path class="cls-23" d="M277.84,23.53c35.27,16.24,97.28,38.52,175,34a355.14,355.14,0,0,0,80-14,657.5,657.5,0,0,1-76,4.5A665.09,665.09,0,0,1,277.84,23.53Z"/><path class="cls-21" d="M510.84,27.53l-9.1-1.91c-2.89-.61-6.4-1.33-10.44-2.1s-8.61-1.6-13.59-2.5-10.39-1.78-16.12-2.66-11.77-1.74-18-2.56-12.76-1.55-19.35-2.24-13.31-1.27-20.05-1.78-13.43-.94-20.06-1.21-13.15-.53-19.47-.66-12.43-.18-18.23-.13-11.27.12-16.33.23-9.69.3-13.81.45-7.69.35-10.64.53l-9.27.54,2.41-.31c1.57-.19,3.87-.51,6.81-.81s6.52-.68,10.62-1.06l6.54-.56,7.27-.5c10.12-.63,22-1,34.66-1,6.34.05,12.9.11,19.56.4s13.42.66,20.19,1.13,13.49,1.13,20.1,1.88,13.13,1.59,19.41,2.51,12.33,1.93,18,3,11.11,2.13,16.08,3.17,9.49,2.12,13.49,3.1,7.49,1.87,10.35,2.62,5.09,1.39,6.62,1.82Z"/><ellipse class="cls-28" cx="403.59" cy="24.2" rx="23.73" ry="54.14" transform="translate(340.34 423.53) rotate(-84.43)"/><path class="cls-29" d="M265.59,64.07a238.76,238.76,0,0,1-75,35,240.53,240.53,0,0,1-110.5,3l12-14a206,206,0,0,1,38-22c43.36-19.26,83.79-19.16,107.5-17Z"/><path class="cls-30" d="M234.09,53.57a161,161,0,0,1-25,17.6c-4.21,2.41-8.72,4.73-13.55,6.9A162.76,162.76,0,0,1,129,92.14a180.16,180.16,0,0,1-33.37-3.07,195.62,195.62,0,0,1,42-23C177.32,50.31,213.34,51.27,234.09,53.57Z"/><path class="cls-27" d="M209.14,71.17c-4.21,2.41-8.72,4.73-13.55,6.9A162.76,162.76,0,0,1,129,92.14c9.66-8.15,29.42-21.82,56.63-23.07A88.37,88.37,0,0,1,209.14,71.17Z"/><path class="cls-21" d="M139.59,61.82q5.72-2.41,11.6-4.42c3.92-1.35,7.89-2.53,11.89-3.63s8-2,12.11-2.88c2-.43,4.09-.77,6.11-1.15s4.11-.69,6.17-1,4.11-.54,6.18-.79,4.13-.44,6.2-.6,4.14-.31,6.22-.42,4.15-.18,6.23-.22c4.15-.1,8.3-.09,12.45.08q3.12.12,6.22.32c2.08.13,4.14.32,6.21.52h0a.94.94,0,0,1,.41.13l7.1,4,7.08,4,7,4.09c2.35,1.37,4.68,2.77,7,4.18-2.47-1.14-4.93-2.28-7.38-3.45l-7.34-3.53-7.3-3.6-7.28-3.65L237,50c-2.05-.12-4.11-.19-6.16-.28s-4.1-.13-6.15-.15-4.11,0-6.16,0-4.11.05-6.16.11-4.1.17-6.14.27-4.1.24-6.14.41c-4.1.3-8.18.73-12.25,1.24-2,.23-4.06.53-6.09.8s-4.08.62-6.1,1-4,.7-6.06,1.08-4,.82-6.05,1.24-4,.88-6,1.35-4,1-6,1.49Q145.54,60.07,139.59,61.82Z"/><path class="cls-23" d="M265.59,63.73a195.78,195.78,0,0,1-53.67,34.34c-60,25.64-116,13.37-137.33,7.5l10-9.17q8.25,2,17,3.33C167.73,109.87,226.33,86.17,265.59,63.73Z"/><ellipse class="cls-31" cx="167.45" cy="73.22" rx="54.14" ry="23.73" transform="matrix(0.95, -0.31, 0.31, 0.95, -14.47, 55.76)"/><path class="cls-32" d="M528.71,82.68a146.34,146.34,0,0,0,46,21.48,147.49,147.49,0,0,0,67.8,1.84l-7.36-8.59a126.38,126.38,0,0,0-23.32-13.5c-26.6-11.82-51.42-11.76-66-10.44Z"/><path class="cls-33" d="M548,76.24A100,100,0,0,0,563.35,87c2.59,1.48,5.35,2.9,8.32,4.23a99.71,99.71,0,0,0,40.89,8.63A110.68,110.68,0,0,0,633,98a119.8,119.8,0,0,0-25.77-14.11A123.64,123.64,0,0,0,548,76.24Z"/><path class="cls-27" d="M563.35,87c2.59,1.48,5.35,2.9,8.32,4.23a99.71,99.71,0,0,0,40.89,8.63c-5.93-5-18.06-13.39-34.75-14.15A54.35,54.35,0,0,0,563.35,87Z"/><path class="cls-21" d="M606,81.3c-2.34-1-4.71-1.9-7.12-2.71s-4.84-1.55-7.29-2.23-4.94-1.24-7.43-1.77c-1.25-.26-2.51-.47-3.75-.7s-2.53-.43-3.79-.6-2.52-.33-3.79-.48-2.53-.27-3.81-.37-2.54-.19-3.81-.26-2.55-.11-3.82-.13c-2.55-.07-5.1-.06-7.65,0-1.27.05-2.54.11-3.82.19s-2.53.2-3.8.32h0a.67.67,0,0,0-.25.08l-4.36,2.44-4.34,2.47-4.32,2.52q-2.15,1.26-4.29,2.56c1.52-.7,3-1.4,4.53-2.12l4.5-2.16,4.48-2.21L546.54,74l-.28.08c1.26-.07,2.52-.11,3.78-.17s2.51-.07,3.77-.09h3.78c1.26,0,2.52,0,3.78.07s2.51.1,3.77.17,2.51.14,3.77.25c2.51.18,5,.44,7.51.76,1.26.14,2.5.32,3.74.49s2.5.38,3.74.6,2.49.43,3.73.66,2.47.5,3.7.76,2.47.54,3.7.83,2.46.59,3.68.91C601.16,79.91,603.6,80.58,606,81.3Z"/><path class="cls-23" d="M528.71,82.47a120.28,120.28,0,0,0,32.94,21.07c36.8,15.74,71.21,8.21,84.27,4.61l-6.14-5.63q-5.06,1.22-10.43,2C588.76,110.78,552.8,96.25,528.71,82.47Z"/><ellipse class="cls-34" cx="588.94" cy="88.29" rx="14.56" ry="33.22" transform="matrix(0.31, -0.95, 0.95, 0.31, 321.7, 620.48)"/><path class="cls-35" d="M520,110.38c45.82-7.85,89.19-17.53,130-28.41v58.41H0V107C140.44,132.17,319.27,144.75,520,110.38Z"/></g></g></g></svg>