<svg xmlns="http://www.w3.org/2000/svg" xmlns:xlink="http://www.w3.org/1999/xlink" viewBox="0 0 1323.57 1350.58"><defs><style>.cls-1{isolation:isolate;}.cls-2{fill:#fff;}.cls-3,.cls-6{opacity:0.5;}.cls-3,.cls-5{mix-blend-mode:screen;}.cls-3{fill:url(#radial-gradient);}.cls-4{fill:url(#radial-gradient-2);}.cls-5{fill:#45cbff;}.cls-6{mix-blend-mode:multiply;}.cls-7{fill:#26d3ff;}.cls-8{fill:url(#radial-gradient-3);}</style><radialGradient id="radial-gradient" cx="-2559.11" cy="549.06" r="2228.48" gradientTransform="translate(-1755.88 -1160.3) rotate(-135)" gradientUnits="userSpaceOnUse"><stop offset="0.06" stop-color="#6ce2ff"/><stop offset="0.89" stop-color="#00c2ff"/></radialGradient><radialGradient id="radial-gradient-2" cx="319" cy="123.81" r="1538.29" gradientUnits="userSpaceOnUse"><stop offset="0.02" stop-color="#45cbff"/><stop offset="0.22" stop-color="#44c8fc"/><stop offset="0.39" stop-color="#43c0f2"/><stop offset="0.55" stop-color="#40b3e0"/><stop offset="0.69" stop-color="#3ca0c8"/><stop offset="0.84" stop-color="#3787a9"/><stop offset="0.97" stop-color="#316983"/><stop offset="1" stop-color="#30637c"/><stop offset="1" stop-color="#1cc3ff"/></radialGradient><radialGradient id="radial-gradient-3" cx="689.97" cy="710.46" r="535.75" xlink:href="#radial-gradient-2"/></defs><title>planet_2</title><g class="cls-1"><g id="Layer_2" data-name="Layer 2"><g id="Layer_4" data-name="Layer 4"><path class="cls-2" d="M555.54,1316.34s10.58-26.72,10.58-36.13-10.58-36.12-10.58-36.12,26.71,10.58,36.12,10.58,36.13-10.58,36.13-10.58-10.58,26.71-10.58,36.12,10.58,36.13,10.58,36.13-26.72-10.58-36.13-10.58S555.54,1316.34,555.54,1316.34Z"/><path class="cls-3" d="M1024.91,1175.82s-14.83,5.88-20.06,5.88-20.06-5.88-20.06-5.88,5.87,14.84,5.87,20.06-5.87,20.07-5.87,20.07,14.83-5.88,20.06-5.88,20.06,5.88,20.06,5.88-5.88-14.84-5.88-20.07S1024.91,1175.82,1024.91,1175.82Z"/><path class="cls-4" d="M1296.1,750c2.07-21.08,3.18-42.43,3.18-64.05a646.81,646.81,0,0,0-146-410.25c17.62-23,2.22-70.42-36.25-108.78-40.22-40.11-90.34-55.07-111.93-33.41a30.55,30.55,0,0,0-4.47,5.9,646.36,646.36,0,0,0-351-103.1c-5.18,0-10.29.27-15.44.39C621.37,6,554.93-8.19,479.32,4.82c-80.55,13.87-141,53.37-135,88.23a31.46,31.46,0,0,0,7.85,15.37C143.07,216.35,0,434.35,0,685.9a646.49,646.49,0,0,0,94.66,337.81,42.4,42.4,0,0,0-5.23,4.34C58.36,1059.21,80.08,1131.25,138,1189s130,79.23,161,48.07c.88-.88,1.56-1.91,2.36-2.86a648.56,648.56,0,0,0,490.44,85.57c12.92,27.46,63.9,38.7,119.07,25,59.07-14.66,100.55-52.33,92.65-84.13-2-8.15-7.12-15.1-14.53-20.71a651.33,651.33,0,0,0,277.12-349.13,21.14,21.14,0,0,0,4.05,1.55c21.17,3.85,44.12-24.91,51.27-64.23S1317.23,753.85,1296.1,750Z"/><path class="cls-5" d="M283,212.89c25.64,12.66,23.85,68.67-4,125.1s-71.24,91.9-96.89,79.23-23.86-68.67,4-125.09S257.37,200.22,283,212.89Z"/><path class="cls-5" d="M220.44,304.77c20.76-42,50.12-72.42,74.36-79.95A27.38,27.38,0,0,0,283,212.89c-25.65-12.67-69,22.81-96.89,79.24s-29.66,112.43-4,125.09c6.54,3.23,14.24,3.3,22.53.72C192.48,395.5,198,350.29,220.44,304.77Z"/><path class="cls-5" d="M115.58,448.77c20.75-1.91,41,33.54,45.21,79.2s-9.19,84.21-29.94,86.13-41-33.54-45.21-79.19S94.83,450.69,115.58,448.77Z"/><path class="cls-5" d="M111.76,529.67c-3.14-34,3.51-64.06,15.68-78a19.89,19.89,0,0,0-11.86-2.92c-20.75,1.92-34.16,40.48-29.94,86.14S110.1,616,130.85,614.1c5.29-.49,10.09-3.38,14.26-8.15C129,596.66,115.16,566.5,111.76,529.67Z"/><path class="cls-5" d="M1139.54,585.65c-20,5.74-46.5-25.35-59.12-69.42s-6.59-84.46,13.44-90.2,46.51,25.35,59.12,69.43S1159.58,579.92,1139.54,585.65Z"/><path class="cls-5" d="M1128.28,505.45c9.4,32.84,8.44,63.61-.94,79.54a19.92,19.92,0,0,0,12.2.66c20-5.73,26-46.11,13.44-90.19S1113.9,420.3,1093.86,426c-5.11,1.46-9.29,5.2-12.5,10.65C1098.92,442.82,1118.11,469.9,1128.28,505.45Z"/><path class="cls-5" d="M606.45,1215.83c-3-20.62,31.33-42.7,76.69-49.32s84.59,4.73,87.6,25.35-31.33,42.7-76.7,49.32S609.46,1236.45,606.45,1215.83Z"/><path class="cls-5" d="M687.44,1215.37c-33.8,4.94-64.16-.12-78.71-11.54a19.93,19.93,0,0,0-2.28,12c3,20.62,42.23,32,87.59,25.35s79.71-28.7,76.7-49.32c-.77-5.26-3.91-9.91-8.89-13.81C753.42,1194.63,724,1210,687.44,1215.37Z"/><path class="cls-5" d="M119.45,1047.1c18.9-18.47,67.17.28,107.8,41.87s58.23,90.29,39.33,108.75-67.17-.28-107.8-41.87S100.54,1065.57,119.45,1047.1Z"/><path class="cls-5" d="M180.33,1129.82c-30.27-31-47.74-65.9-46.87-89.33a25.22,25.22,0,0,0-14,6.61c-18.91,18.47-1.3,67.16,39.33,108.75s88.89,60.34,107.8,41.87c4.82-4.7,7.24-11.39,7.53-19.41C250.82,1182,213.1,1163.38,180.33,1129.82Z"/><path class="cls-5" d="M1133.26,252c-11.66,12.6-43.59,2-71.31-23.66s-40.73-56.69-29.06-69.29,43.59-2,71.31,23.66S1144.93,239.38,1133.26,252Z"/><path class="cls-5" d="M1091.07,200.28c20.65,19.12,33.12,41.21,33.32,56.44a16.4,16.4,0,0,0,8.87-4.74c11.67-12.6-1.34-43.62-29.06-69.29s-59.65-36.26-71.31-23.66c-3,3.21-4.33,7.63-4.26,12.85C1043.62,168.7,1068.71,179.58,1091.07,200.28Z"/><path class="cls-5" d="M837.26,1316.15c-6.49-15.9,16.6-40.36,51.57-54.63s68.59-13,75.08,2.93-16.6,40.36-51.58,54.64S843.75,1332.05,837.26,1316.15Z"/><path class="cls-5" d="M901.94,1299.75c-26.06,10.64-51.34,12.61-65.23,6.35a16.35,16.35,0,0,0,.55,10.05c6.49,15.9,40.1,17.21,75.07,2.94s58.07-38.74,51.58-54.64c-1.66-4-5.09-7.14-9.84-9.29C950.61,1270.1,930.15,1288.23,901.94,1299.75Z"/><ellipse class="cls-5" cx="487.45" cy="63.58" rx="92.23" ry="41.93" transform="translate(-1.78 111.56) rotate(-13.03)"/><path class="cls-5" d="M487.67,50.71c37-8.56,71.06-5.75,88.21,5.56a22.11,22.11,0,0,0,1.43-13.49c-5.22-22.56-49.69-31.53-99.32-20s-85.62,39.09-80.4,61.65c1.33,5.75,5.24,10.6,11.11,14.48C416.51,79.72,447.64,60,487.67,50.71Z"/><ellipse class="cls-5" cx="663.27" cy="334.75" rx="116.92" ry="99.47"/><path class="cls-5" d="M666.76,284.15c52.12,0,96.23,29,111.32,69.11a85.32,85.32,0,0,0,2.1-18.51c0-54.93-52.34-99.46-116.91-99.46s-116.92,44.53-116.92,99.46a85.78,85.78,0,0,0,5.59,30.36C562.14,319,609.63,284.15,666.76,284.15Z"/><ellipse class="cls-5" cx="302.35" cy="858.94" rx="74.81" ry="87.93" transform="translate(-288.49 166.05) rotate(-21.06)"/><path class="cls-5" d="M265.89,870.17c-14.09-36.58-5.64-75.38,18.41-96.81a64.27,64.27,0,0,0-13.55,3.53c-38.56,14.85-55.66,63.62-38.21,108.94S295.4,955.85,334,941a64.43,64.43,0,0,0,19.79-12.13C318.64,934.17,281.33,910.27,265.89,870.17Z"/><path class="cls-5" d="M676.58,906.57C649.08,874.51,657.34,822.31,695,790s90.54-32.53,118-.47,19.24,84.27-18.45,116.59S704.08,938.63,676.58,906.57Z"/><path class="cls-5" d="M768.12,879.33c-30.42,26.09-70.71,31.23-99.58,15.39a65.81,65.81,0,0,0,8,11.85c27.5,32.06,80.35,31.85,118-.47s46-84.52,18.45-116.59a65.88,65.88,0,0,0-18.46-14.91C811.72,806.6,801.47,850.73,768.12,879.33Z"/><path class="cls-5" d="M902.94,883.89c-13.77-16.07-9.64-42.22,9.25-58.42s45.36-16.3,59.14-.23,9.64,42.22-9.25,58.41S916.72,900,902.94,883.89Z"/><path class="cls-5" d="M948.81,870.24c-15.24,13.07-35.43,15.65-49.9,7.71a33.42,33.42,0,0,0,4,5.94c13.78,16.06,40.26,16,59.15-.24s23-42.35,9.24-58.41a33.11,33.11,0,0,0-9.25-7.48C970.65,833.8,965.52,855.91,948.81,870.24Z"/><g class="cls-6"><path class="cls-7" d="M579.32,117.68c-.27-2.28,13.24-6.58,23.51-15.28a87.83,87.83,0,0,0,17.41-19.62,88,88,0,0,0,13.82-22.31c5.39-12.34,5.63-26.52,7.9-26.91s6.55,14.54,3.42,30.17c-2.73,15.54-11.78,29-11.78,29s-10.3,12.52-24.4,19.59C595.12,119.79,579.43,120,579.32,117.68Z"/><path class="cls-7" d="M444.06,157.17c.21,2.28-11.45,5.29-23.54,6.19a159.33,159.33,0,0,1-24.24-.12,160.35,160.35,0,0,1-23-7.72C362.14,150.75,352.08,144.13,353,142s12.31.51,23.57,2.16S399,146.81,399,146.81s10.82,2.79,22.05,4.78S443.86,154.87,444.06,157.17Z"/><path class="cls-7" d="M591.37,466c.12,2.38-26.17,2.3-49.28-10.44a115.3,115.3,0,0,1-28.65-21.36,105.83,105.83,0,0,1-10.66-12.6A104.87,104.87,0,0,1,495.25,407a115.13,115.13,0,0,1-8.71-34.67c-2.87-26.23,7.17-50.54,9.32-49.51,2.1.61-3.21,24.76,2.33,47.8a113.11,113.11,0,0,0,10.91,29.77,100.55,100.55,0,0,0,7.54,12.06A100.23,100.23,0,0,0,524.87,424a113.07,113.07,0,0,0,23.29,21.51C567.28,459.47,591.61,463.86,591.37,466Z"/><path class="cls-7" d="M836.6,346c-2.26-.47-2.68-9.73-4.45-18.39a135.58,135.58,0,0,0-4.46-16.79,136.56,136.56,0,0,0-3-17.11c-2-8.6-5.52-17.19-3.66-18.56s9.16,5.29,14.47,13.86A87.38,87.38,0,0,1,844,307.21a87,87,0,0,1,0,20.1C842.7,337.31,838.83,346.44,836.6,346Z"/><path class="cls-7" d="M219,605.14c2.29-.8,7,14.38,1.15,29.27a50.86,50.86,0,0,1-11.55,18.17,46.17,46.17,0,0,1-7.87,6.47,46,46,0,0,1-9.57,3.51,50.86,50.86,0,0,1-21.51.76c-15.83-2.48-26.52-14.25-24.67-15.82,1.41-1.61,13.24,5.06,25.65,4.08a43.43,43.43,0,0,0,15.71-3.6,35.17,35.17,0,0,0,6.11-3.39,35.51,35.51,0,0,0,6-3.55,43.43,43.43,0,0,0,11.06-11.73C216.7,619.11,216.93,605.54,219,605.14Z"/><path class="cls-7" d="M257.71,433.44c-1.74-1.72,15.87-21.11,31.8-41.2a311,311,0,0,0,20.17-28.47c5-8,7.78-13.56,7.78-13.56s3.37-5.19,7.59-13.48a151.16,151.16,0,0,0,12-31.89,127.3,127.3,0,0,0,3.68-34.1c-.25-9.48-1.36-15.93-.17-16.3,1-.33,4.27,5.58,6.6,15.45s3.22,23.56,1.48,37.07A147.74,147.74,0,0,1,339.05,343a156.06,156.06,0,0,1-7.14,15.47s-3.51,5.83-9.55,13.92a260.34,260.34,0,0,1-24,27.62C279.59,418.74,259.23,435,257.71,433.44Z"/><path class="cls-7" d="M326.3,725.66c-1.34,1.88-14.88-4.55-29.14-5.2a92.67,92.67,0,0,0-27.68,2.73,92.21,92.21,0,0,0-26.74,7.7c-13,5.87-23.22,16.85-25.16,15.6-2-1.08,5.44-15.82,19-25.65,13.2-10.05,29.76-14,29.76-14s16.86-2.44,32.83,2C315.4,713,327.76,723.92,326.3,725.66Z"/><path class="cls-7" d="M396.4,943.05c-1.57-1.69,10.38-16.27,16-33.53a124.36,124.36,0,0,0,5.39-23.95c.73-6.62.84-11,.84-11s.56-4.38.87-11A124.19,124.19,0,0,0,417.87,839c-2.91-17.92-12.47-34.17-10.66-35.6s15.56,13.17,22,32.57c6.86,19.11,6,39.86,6,39.86s-2.34,20.62-12.06,38.45C413.8,932.44,397.8,944.84,396.4,943.05Z"/><path class="cls-7" d="M231.14,1044.43c-1.88,1.35-13.65-10.71-28.07-18.17a126.24,126.24,0,0,0-29.86-11.11,126.05,126.05,0,0,0-31.19-6.54c-16.17-1.37-32.57,2.55-33.44.41s15-10.45,33.18-12.19c18-2.08,36.08,2.31,36.08,2.31s17.6,5.91,31.74,17.29C224,1027.6,233.05,1043.22,231.14,1044.43Z"/><path class="cls-7" d="M336.17,1225.85c-2.23-.62.56-20-3.19-38.64a139.54,139.54,0,0,0-7.29-24.65c-2.67-6.44-4.77-10.56-4.77-10.56s-1.68-4.3-4.72-10.58a139.28,139.28,0,0,0-13.57-21.84c-11.4-15.17-27.78-26-26.75-28.07.84-2.1,20.33,5.42,35.46,20.14,15.34,14.31,24.79,33.53,24.79,33.53s8.07,19.83,8.56,40.8C345.63,1207.06,338.3,1226.61,336.17,1225.85Z"/><path class="cls-7" d="M638.74,934.16c-.41.92-5.57,0-12-4.53s-13.3-12.84-17.62-22.34A100,100,0,0,1,601.38,880a107.55,107.55,0,0,1-1.14-12.77s1-20.25,6.69-39.42c5.28-19.28,14.86-36.64,17-35.69s-3.35,19.34-5.41,38.05a238.13,238.13,0,0,0-1.58,37.19s-1.72,18.39,3.23,35.73c2.41,8.6,6.59,16.54,11,21.72S639.32,933,638.74,934.16Z"/><path class="cls-7" d="M821.17,715.44c-.28,2.3-12,3.09-23.28,5s-22.13,4.77-22.13,4.77-11.17,1-22.44,3.08-22.55,5.28-23.6,3.22,8.78-9.26,20-14.43a144.42,144.42,0,0,1,23.18-8.28,144.05,144.05,0,0,1,24.61-.14C809.76,709.74,821.47,713.18,821.17,715.44Z"/><path class="cls-7" d="M1062.67,548.85c-1.85,1.33-15-14.86-23.16-34.22-8.67-19.1-11.9-40.18-11.9-40.18s-1.82-21.18,2.28-42c2-10.47,6.23-21,12-27.15,5.71-6.31,11.43-7.57,11.8-6.65.64,1.1-3.4,4.19-6.51,10.4-3.26,6.1-5.25,15.33-5.6,24.86a197.86,197.86,0,0,0,2.56,38.55,202.29,202.29,0,0,0,6.46,38.19C1055.44,529.7,1064.6,547.58,1062.67,548.85Z"/><path class="cls-7" d="M1153.76,638c0,2.29-8.86,4-17.94,3.45a86.2,86.2,0,0,1-17.89-3.08A86,86,0,0,1,1103,628.1c-6.88-6-12-13.34-10.43-15s9.07,2.17,16.61,5,15,4.9,15,4.9,6.76,3.82,14.19,7S1153.83,635.72,1153.76,638Z"/><path class="cls-7" d="M1027.4,259.77c-.66,2.17-14.91-.74-27.6-8.3C987.05,244.15,976.94,233,976.94,233s-8.8-12.18-13.32-26.17c-4.77-14-4.67-28.54-2.41-28.74s6.31,12.74,13.16,23.89a126.44,126.44,0,0,0,15.52,20.53A126.61,126.61,0,0,0,1006.76,242C1016.25,251,1028.15,257.58,1027.4,259.77Z"/><path class="cls-7" d="M1157.35,300c1.09,2-4.25,7-11.19,9.84a50.49,50.49,0,0,1-14.49,3.44,50.42,50.42,0,0,1-14.07-4.91c-6.6-3.54-11.41-9.07-10.12-10.95s7.61-.47,13.55-.33a74.55,74.55,0,0,0,11.5-.45,75.66,75.66,0,0,0,11.39,1.64C1149.84,298.7,1156.28,297.92,1157.35,300Z"/><path class="cls-7" d="M641.21,1133.18c.64,2.31-15.69,8.26-30.18,16.39A124.5,124.5,0,0,0,592.5,1162a88,88,0,0,0-7.28,6.64,70.16,70.16,0,0,0-7.13,6.49,72.36,72.36,0,0,0-12.5,17.45,64.57,64.57,0,0,0-6.41,20.88c-.79,6.08-.59,10.44-1.78,10.75-1,.29-3.45-3.68-4.7-10.54s-.83-16.37,1.92-25.38a79.13,79.13,0,0,1,19.44-32,89.45,89.45,0,0,1,9.54-6.77,112.78,112.78,0,0,1,22.64-10.71C623.28,1132.89,640.69,1131.07,641.21,1133.18Z"/><path class="cls-7" d="M818.88,1155.31c-2.15.8-7-4.94-12.76-8.53a54.49,54.49,0,0,0-11.89-5.68,54.26,54.26,0,0,0-11.64-6.18c-6.33-2.54-13.81-3-14.44-5.19s7.05-6.29,16.06-6.48a49,49,0,0,1,17.52,3,49.11,49.11,0,0,1,12.81,12.31C819.74,1145.9,821,1154.57,818.88,1155.31Z"/><path class="cls-7" d="M851.52,1254.2c1.22,2-7.41,9.58-15.41,17.24a198.93,198.93,0,0,0-14.82,15.67A87.51,87.51,0,0,0,807,1302c-6.38,8.15-8.94,18.86-11.26,18.87-2.26.18-4.05-12.44.84-24.36a75.32,75.32,0,0,1,12.89-21.1,124.48,124.48,0,0,1,19.73-13.47C839.52,1256.29,850.33,1252.27,851.52,1254.2Z"/><path class="cls-7" d="M986.38,1226c-1.85,1.33-9.53-4.63-18.29-6.44a52.65,52.65,0,0,0-17.24-.92,52.56,52.56,0,0,0-17.23,1.15c-8.74,1.93-16.34,8-18.21,6.69s3.26-11.51,13.46-17.47c9.87-6.14,21.87-7,21.87-7s12,.74,22,6.74C983,1214.51,988.33,1224.76,986.38,1226Z"/><path class="cls-7" d="M1243.66,805.47c-2.26-.32-2.71-10.4-.48-20.4a93.06,93.06,0,0,1,6.71-19.3,93.14,93.14,0,0,1,14-14.9c7.83-6.61,17-10.89,18.3-9s-4.74,9.14-9.5,16.87a152.74,152.74,0,0,0-8.56,15.69,153.07,153.07,0,0,0-9.94,14.84C1249.56,797,1245.94,805.82,1243.66,805.47Z"/><path class="cls-7" d="M1262.57,896.8c-1.15,2-7.07.83-12.47-2a50.24,50.24,0,0,1-9.93-6.92,50.52,50.52,0,0,1-4.62-11.2c-1.58-5.88-1.43-11.9.75-12.6s5.84,3.41,9.54,6.85,7.32,6.51,7.32,6.51,2.14,4.21,4.78,8.56S1263.74,894.82,1262.57,896.8Z"/><path class="cls-7" d="M991.41,802.68c-2.11.44-7.23-9.33-16.13-14.27a43.45,43.45,0,0,0-18.16-6.21A56,56,0,0,0,937.35,780c-10.53.44-21.28,4.26-22.43,2.26s8-9.89,20.06-13.8a58.82,58.82,0,0,1,17.26-3,52.59,52.59,0,0,1,8.24.43,46.77,46.77,0,0,1,7.86,3,48.75,48.75,0,0,1,14.56,10.56C992.44,789,993.85,802.46,991.41,802.68Z"/><path class="cls-7" d="M973.11,933.24c1.55,1.76-9.22,12-24,15a59.65,59.65,0,0,1-20.4,1,54.76,54.76,0,0,1-9.36-1.91A55.32,55.32,0,0,1,911,942.8a60,60,0,0,1-15-13.93c-9.31-11.85-11-26.59-8.66-26.93,2.16-.54,7.72,11.36,17.3,18.92a83.65,83.65,0,0,0,43,15.7C959.89,937,971.81,931.44,973.11,933.24Z"/></g><path class="cls-8" d="M604.42,639.17A21.39,21.39,0,1,1,583,617.78,21.39,21.39,0,0,1,604.42,639.17Zm91.25,10a25.67,25.67,0,1,0,25.66,25.67A25.66,25.66,0,0,0,695.67,649.15ZM958,386.8A34.22,34.22,0,1,0,992.24,421,34.22,34.22,0,0,0,958,386.8ZM943.77,552.2a17.11,17.11,0,1,0,17.11,17.11A17.11,17.11,0,0,0,943.77,552.2Zm97,94.1A14.26,14.26,0,1,0,1055,660.56,14.25,14.25,0,0,0,1040.72,646.3ZM558.79,1039.83a37.08,37.08,0,1,0,37.07,37.08A37.07,37.07,0,0,0,558.79,1039.83Zm112.64,25.67a12.83,12.83,0,1,0,12.83,12.83A12.82,12.82,0,0,0,671.43,1065.5Zm215.3,25.66a20,20,0,1,0,20,20A20,20,0,0,0,886.73,1091.16Zm164-77a38.5,38.5,0,1,0,38.5,38.5A38.49,38.49,0,0,0,1050.7,1014.17Zm-57,131.18a12.83,12.83,0,1,0,12.83,12.83A12.82,12.82,0,0,0,993.67,1145.35Zm193.92-248.1a18.54,18.54,0,1,0,18.53,18.54A18.54,18.54,0,0,0,1187.59,897.25ZM494.63,1228a18.54,18.54,0,1,0,18.53,18.54A18.54,18.54,0,0,0,494.63,1228Zm-298-393.53a22.82,22.82,0,1,0,22.81,22.82A22.82,22.82,0,0,0,196.63,834.51Zm172.52,219.58A12.84,12.84,0,1,0,382,1066.92,12.83,12.83,0,0,0,369.15,1054.09Zm47.05-539a31.37,31.37,0,1,0,31.37,31.37A31.37,31.37,0,0,0,416.2,515.12Zm59.89,222.44a8.56,8.56,0,1,0,8.55,8.55A8.55,8.55,0,0,0,476.09,737.56ZM506,272.73a15.69,15.69,0,1,0,15.69,15.69A15.68,15.68,0,0,0,506,272.73Zm71.29-34.22A15.69,15.69,0,1,0,593,254.19,15.68,15.68,0,0,0,577.32,238.51Zm250.95-82.7a47.06,47.06,0,1,0,47.06,47.06A47.06,47.06,0,0,0,828.27,155.81Zm2.85,148.29a10,10,0,1,0,10,10A10,10,0,0,0,831.12,304.1Z"/></g></g></g></svg>