<svg xmlns="http://www.w3.org/2000/svg" xmlns:xlink="http://www.w3.org/1999/xlink" viewBox="0 0 57.54 60.78"><defs><style>.cls-1{mask:url(#mask);filter:url(#luminosity-noclip-2);}.cls-2{mix-blend-mode:multiply;fill:url(#linear-gradient);}.cls-3{opacity:0.58;}.cls-4{opacity:0;}.cls-5{opacity:0.03;}.cls-6{opacity:0.07;}.cls-7{opacity:0.1;}.cls-8{opacity:0.14;}.cls-9{opacity:0.17;}.cls-10{opacity:0.21;}.cls-11{opacity:0.24;}.cls-12{opacity:0.28;}.cls-13{opacity:0.31;}.cls-14{opacity:0.34;}.cls-15{opacity:0.38;}.cls-16{opacity:0.41;}.cls-17{opacity:0.45;}.cls-18{opacity:0.48;}.cls-19{opacity:0.52;}.cls-20{opacity:0.55;}.cls-21{opacity:0.59;}.cls-22{opacity:0.62;}.cls-23{opacity:0.66;}.cls-24{opacity:0.69;}.cls-25{opacity:0.72;}.cls-26{opacity:0.76;}.cls-27{opacity:0.79;}.cls-28{opacity:0.83;}.cls-29{opacity:0.86;}.cls-30{opacity:0.9;}.cls-31{opacity:0.93;}.cls-32{opacity:0.97;}.cls-33{isolation:isolate;}.cls-34{fill:#bf4c00;}.cls-35{fill:url(#linear-gradient-2);}.cls-36{fill:#fb0;}.cls-37{mask:url(#mask-2);}.cls-38{opacity:0.75;fill:url(#linear-gradient-3);}.cls-39{fill:#fff;}.cls-40{filter:url(#luminosity-noclip);}</style><filter id="luminosity-noclip" x="15.79" y="-3033.3" width="36.4" height="32766" filterUnits="userSpaceOnUse" color-interpolation-filters="sRGB"><feFlood flood-color="#fff" result="bg"/><feBlend in="SourceGraphic" in2="bg"/></filter><mask id="mask" x="15.79" y="-3033.3" width="36.4" height="32766" maskUnits="userSpaceOnUse"><g class="cls-40"/></mask><linearGradient id="linear-gradient" x1="4756.29" y1="-639.09" x2="4756.29" y2="-605.84" gradientTransform="matrix(0.63, 0.78, -0.78, 0.63, -3433.32, -3287.39)" gradientUnits="userSpaceOnUse"><stop offset="0" stop-color="#fff"/><stop offset="1"/></linearGradient><linearGradient id="linear-gradient-2" x1="5293.29" y1="-819.92" x2="5293.29" y2="-775.8" gradientTransform="matrix(0.63, 0.78, -0.78, 0.63, -3909.36, -3593.55)" gradientUnits="userSpaceOnUse"><stop offset="0" stop-color="#fe0"/><stop offset="1" stop-color="#ff8624"/></linearGradient><filter id="luminosity-noclip-2" x="15.79" y="4.91" width="36.4" height="38.47" filterUnits="userSpaceOnUse" color-interpolation-filters="sRGB"><feFlood flood-color="#fff" result="bg"/><feBlend in="SourceGraphic" in2="bg"/></filter><mask id="mask-2" x="15.79" y="4.91" width="36.4" height="38.47" maskUnits="userSpaceOnUse"><g class="cls-1"><path class="cls-2" d="M50,15.19a4.27,4.27,0,0,1,.82,4.49l-3.5,7.1,4.35,8.35c1.59,3-.57,5.92-3.63,4.91l-8.41-2.77L34,42.61c-1.49,1.4-4,.78-5.4-.94a4.8,4.8,0,0,1-1.05-2.2l-1.7-8.8L18,25.61a5.22,5.22,0,0,1-1.13-1c-1.69-2-1.49-5,.75-5.84l7.42-2.67.72-8.46c.29-3,4-3.71,6.22-1.13l6.29,7.17,8.28-.16A4.34,4.34,0,0,1,50,15.19Z"/></g></mask><linearGradient id="linear-gradient-3" x1="4756.29" y1="-639.09" x2="4756.29" y2="-605.84" gradientTransform="matrix(0.63, 0.78, -0.78, 0.63, -3433.32, -3287.39)" gradientUnits="userSpaceOnUse"><stop offset="0" stop-color="#fff"/><stop offset="1" stop-color="#fff"/></linearGradient></defs><title>star</title><g id="Layer_2" data-name="Layer 2"><g id="Layer_1-2" data-name="Layer 1"><g class="cls-3"><path class="cls-4" d="M57.54,32a28.78,28.78,0,1,1-8.43-20.34A28.66,28.66,0,0,1,57.54,32Z"/><path class="cls-5" d="M28.86,3.82a28.46,28.46,0,0,1,9.76,1.72h0A28.62,28.62,0,0,1,48.79,12a30.08,30.08,0,0,1,5.52,7.6h0a29,29,0,0,1,2.55,12.61,28.38,28.38,0,0,1-26.5,28.07c-.32,0-.65,0-1,0h-.62A28.33,28.33,0,0,1,.69,32.25a28.53,28.53,0,0,1,4-15.19s0-.1.08-.14l.08-.12.05-.07h0a29.6,29.6,0,0,1,8.17-8.22,30.3,30.3,0,0,1,5.27-2.75A29.34,29.34,0,0,1,28.86,3.82Z"/><path class="cls-6" d="M28.94,4.41A28.28,28.28,0,0,1,38.5,6.06h0a28.37,28.37,0,0,1,10,6.35A31.24,31.24,0,0,1,54,20h0c1.76,3.56,2.14,8.26,2.14,12.5A27.93,27.93,0,0,1,30.31,59.9l-.94.06h-.6C14,60,1.38,47.29,1.38,32.49c0-5.26.92-10.86,3.54-15,0,0,0-.1.08-.14s.06-.07.08-.11l0-.07h0A30.35,30.35,0,0,1,13.25,9a30.2,30.2,0,0,1,5.23-2.73A29.94,29.94,0,0,1,28.94,4.41Z"/><path class="cls-7" d="M29,5a28.11,28.11,0,0,1,9.35,1.59h0a28.15,28.15,0,0,1,9.75,6.21,32.11,32.11,0,0,1,5.62,7.52h0c1.69,3.44,1.74,8.32,1.74,12.41A27.54,27.54,0,0,1,30.26,59.49l-.91.06h-.58C14.52,59.56,2.07,47,2.07,32.74c0-5.08.56-10.83,3.08-14.82,0,0,0-.09.08-.14l.08-.1,0-.07h0a31.16,31.16,0,0,1,8.09-8.1,31.71,31.71,0,0,1,5.2-2.72A30.79,30.79,0,0,1,29,5Z"/><path class="cls-8" d="M29.11,5.58A28.23,28.23,0,0,1,38.26,7.1h0a28.17,28.17,0,0,1,9.54,6.06,33,33,0,0,1,5.66,7.49h0C55.09,24,54.8,29,54.8,33c0,6.85-3.4,13.75-7.89,18.24-4.18,4.18-10.41,7.52-16.7,7.87-.28,0-.59.07-.88.07h-.56c-13.7,0-26-12.47-26-26.17,0-4.88.2-10.79,2.63-14.63a.75.75,0,0,0,.06-.13.87.87,0,0,1,.08-.1.25.25,0,0,0,0-.07h0a31.83,31.83,0,0,1,8-8,32.11,32.11,0,0,1,5.17-2.7A31.45,31.45,0,0,1,29.11,5.58Z"/><path class="cls-9" d="M29.2,6.16a27.79,27.79,0,0,1,8.94,1.47h0a27.79,27.79,0,0,1,9.34,5.91A34.5,34.5,0,0,1,53.18,21h0c1.57,3.17.94,8.43.94,12.2,0,6.58-3.45,13.41-7.76,17.72-4,4-10.16,7.41-16.2,7.75-.27,0-.58.07-.85.07a.66.66,0,0,1-.14,0h-.41c-13.14,0-25.31-12.37-25.31-25.52,0-4.68-.16-10.75,2.17-14.44,0,0,0-.09.06-.13l.08-.09s0,0,0-.07h0a33,33,0,0,1,8-8,32.09,32.09,0,0,1,5.13-2.69A32.56,32.56,0,0,1,29.2,6.16Z"/><path class="cls-10" d="M29.28,6.74A27.69,27.69,0,0,1,38,8.15h0a27.85,27.85,0,0,1,9.13,5.76,36.18,36.18,0,0,1,5.75,7.41h0c1.5,3,.53,8.49.53,12.11,0,6.3-3.49,13.06-7.62,17.19-3.84,3.85-9.91,7.3-15.7,7.62-.26,0-.56.08-.82.09h-.53c-12.6,0-24.62-12.26-24.62-24.87,0-4.48-.52-10.72,1.72-14.25,0,0,0-.09,0-.13S6,19,6,19s0-.05,0-.07H6A33.44,33.44,0,0,1,14,11a32.41,32.41,0,0,1,5.09-2.67A33.36,33.36,0,0,1,29.28,6.74Z"/><path class="cls-11" d="M29.37,7.33A27.55,27.55,0,0,1,37.9,8.67h0a27.6,27.6,0,0,1,8.92,5.62,37.54,37.54,0,0,1,5.8,7.37h0c1.43,2.91.13,8.55.13,12,0,6-3.54,12.72-7.49,16.67-3.68,3.67-9.67,7.18-15.2,7.49-.25,0-.54.08-.8.09h-.5c-12,0-23.94-12.16-23.94-24.21C4.82,29.42,4,23,6.09,19.65c0,0,0-.1,0-.13s.07-.05.09-.08,0-.05,0-.07h0a34.75,34.75,0,0,1,7.92-7.86,34.7,34.7,0,0,1,5.05-2.66A34.69,34.69,0,0,1,29.37,7.33Z"/><path class="cls-12" d="M29.46,7.91A27.53,27.53,0,0,1,37.78,9.2h0a27.35,27.35,0,0,1,8.71,5.46c1.61,1.61,4.83,5.28,5.85,7.34h0c1.37,2.77-.27,8.6-.27,11.9,0,5.76-3.59,12.38-7.36,16.15-3.51,3.51-9.42,7.07-14.7,7.36-.24,0-.52.1-.77.1H29a.48.48,0,0,1-.12,0h-.13C17.26,57.52,5.51,45.45,5.51,34c0-4.1-1.23-10.65.81-13.87,0,0,0-.09,0-.13s.07,0,.08-.07,0-.05,0-.07h0A35.73,35.73,0,0,1,14.34,12a34.79,34.79,0,0,1,5-2.64C21.73,8.43,26.75,7.91,29.46,7.91Z"/><path class="cls-13" d="M29.54,8.5a27.46,27.46,0,0,1,8.12,1.22h0A27.4,27.4,0,0,1,46.17,15c1.53,1.52,4.92,5.33,5.89,7.29h0c1.3,2.64-.68,8.67-.68,11.81,0,5.48-3.63,12-7.22,15.62C40.82,53.1,35,56.71,30,57c-.23,0-.51.1-.74.1H29.1l-.1,0h-.24c-11,0-22.56-12-22.56-22.92,0-3.9-1.59-10.61.36-13.68,0,0,0-.09,0-.13s.07,0,.09-.06,0-.05,0-.07h0a37.07,37.07,0,0,1,7.83-7.74,36.49,36.49,0,0,1,5-2.63C21.77,9,27,8.5,29.54,8.5Z"/><path class="cls-14" d="M29.63,9.08a27.58,27.58,0,0,1,7.92,1.16h0a27.48,27.48,0,0,1,8.29,5.17c1.45,1.45,5,5.4,5.93,7.26h0C53,25.18,50.7,31.39,50.7,34.38c0,5.2-3.68,11.68-7.09,15.09-3.18,3.18-8.92,6.84-13.7,7.11-.21,0-.49.11-.71.12l-.11,0h0l-.1,0h-.23C18.35,56.7,6.89,44.84,6.89,34.43c0-3.7-1.94-10.58-.1-13.49,0,0,0-.09,0-.12s.07,0,.09-.06,0-.05,0-.07h0A38.83,38.83,0,0,1,14.7,13a37.65,37.65,0,0,1,4.95-2.61C21.8,9.55,27.18,9.08,29.63,9.08Z"/><path class="cls-15" d="M29.71,9.67a27.23,27.23,0,0,1,7.72,1.1h0a27.38,27.38,0,0,1,8.08,5c1.38,1.38,5.11,5.46,6,7.22h0C52.67,25.38,50,31.78,50,34.61c0,4.94-3.72,11.34-6.95,14.57-3,3-8.67,6.73-13.2,7-.2,0-.47.11-.68.12l-.11,0h-.31c-9.86,0-21.18-11.75-21.18-21.61,0-3.51-2.3-10.55-.55-13.31,0,0,0-.09,0-.12s.07,0,.09-.05,0-.05,0-.07h0a39.91,39.91,0,0,1,7.74-7.62,39.13,39.13,0,0,1,4.92-2.6C21.83,10.11,27.39,9.67,29.71,9.67Z"/><path class="cls-16" d="M29.8,10.25a27.69,27.69,0,0,1,7.51,1h0a27.52,27.52,0,0,1,7.87,4.87c1.3,1.3,5.21,5.51,6,7.18h0c1.11,2.25-1.88,8.84-1.88,11.51,0,4.66-3.77,11-6.82,14-2.84,2.84-8.42,6.61-12.7,6.85-.19,0-.45.13-.65.13h-.4c-9.32,0-20.49-11.65-20.49-21,0-3.32-2.66-10.51-1-13.12,0,0,0-.09,0-.11s.08,0,.09-.05,0-.05,0-.07h0A42.46,42.46,0,0,1,15.06,14,41.33,41.33,0,0,1,20,11.43C21.87,10.67,27.61,10.25,29.8,10.25Z"/><path class="cls-17" d="M29.88,10.83a27.8,27.8,0,0,1,7.31,1h0a27.59,27.59,0,0,1,7.67,4.72c1.22,1.23,5.3,5.58,6.07,7.15h0c1,2.11-2.29,8.89-2.29,11.41,0,4.38-3.81,10.64-6.69,13.52-2.67,2.67-8.16,6.5-12.19,6.73-.18,0-.44.13-.62.13H29l-.08,0-.09,0-.11,0C20,55.48,9,43.93,9,35.16c0-3.12-3-10.47-1.47-12.93,0,0,0-.08,0-.11s.08,0,.09,0,0,0,0-.07h0a44.21,44.21,0,0,1,7.65-7.51,44.79,44.79,0,0,1,4.85-2.56C21.9,11.23,27.82,10.83,29.88,10.83Z"/><path class="cls-18" d="M30,11.42a28.08,28.08,0,0,1,7.1.91h0a27.94,27.94,0,0,1,7.46,4.58c1.15,1.14,5.39,5.63,6.12,7.1h0c1,2-2.69,9-2.69,11.32,0,4.1-3.86,10.3-6.56,13-2.5,2.5-7.92,6.39-11.69,6.6-.17,0-.42.14-.59.15l-.1,0h0l-.07,0-.09,0-.1,0c-8.22,0-19.11-11.45-19.11-19.67,0-2.92-3.38-10.44-1.92-12.74,0,0,0-.08,0-.11s.08,0,.09,0,0-.06,0-.07h0A46.25,46.25,0,0,1,15.42,15a47,47,0,0,1,4.82-2.54C21.93,11.79,28,11.42,30,11.42Z"/><path class="cls-19" d="M30.06,12a27.85,27.85,0,0,1,6.89.86h0a28,28,0,0,1,7.25,4.42c1.07,1.07,5.49,5.7,6.17,7.07h0c.91,1.85-3.1,9-3.1,11.21,0,3.84-3.9,10-6.42,12.47-2.34,2.34-7.67,6.28-11.19,6.48-.16,0-.4.14-.56.15l-.09,0h0l-.07,0-.09,0-.1,0c-7.67,0-18.41-11.34-18.41-19,0-2.73-3.74-10.41-2.38-12.56,0,0,0-.08,0-.1S8,23,8,23s0-.06,0-.07H8A48.94,48.94,0,0,1,15.6,15.5,48.53,48.53,0,0,1,20.39,13C22,12.35,28.25,12,30.06,12Z"/><path class="cls-20" d="M30.14,12.59a28.77,28.77,0,0,1,6.69.79h0a27.92,27.92,0,0,1,7,4.28c1,1,5.59,5.75,6.22,7h0c.84,1.71-3.5,9.06-3.5,11.11,0,3.56-4,9.61-6.29,11.94-2.17,2.17-7.42,6.17-10.69,6.35-.14,0-.39.16-.54.16l-.08,0h0s0,0-.06,0l-.08,0-.1,0C21.63,54.25,11,43,11,35.89c0-2.54-4.1-10.37-2.83-12.36,0,0,0-.09,0-.11s.08,0,.09,0,0-.06,0-.07h0A52.12,52.12,0,0,1,15.78,16a52.46,52.46,0,0,1,4.75-2.51C22,12.9,28.47,12.59,30.14,12.59Z"/><path class="cls-21" d="M30.23,13.17a29.25,29.25,0,0,1,6.48.73h0A29,29,0,0,1,43.55,18c.92.92,5.67,5.82,6.25,7h0c.79,1.59-3.89,9.13-3.89,11,0,3.28-4,9.26-6.16,11.41-2,2-7.17,6.06-10.19,6.23-.13,0-.37.16-.51.16l-.08,0h0l0,0-.08,0-.09,0c-6.57,0-17-11.14-17-17.72,0-2.34-4.46-10.33-3.29-12.17,0,0,0-.09,0-.11s.08,0,.09,0,0,0,0-.06h0A55.88,55.88,0,0,1,16,16.5c.69-.45,3.94-2.19,4.72-2.5C22,13.46,28.68,13.17,30.23,13.17Z"/><path class="cls-22" d="M30.31,13.75a29.33,29.33,0,0,1,6.28.68h0a29.22,29.22,0,0,1,6.63,4c.84.85,5.77,5.88,6.3,7h0c.72,1.45-4.3,9.18-4.3,10.91,0,3-4,8.92-6,10.9-1.84,1.83-6.92,5.94-9.69,6.09-.12,0-.35.17-.48.17s-.05,0-.07,0h0s0,0-.05,0l-.07,0-.09,0c-6,0-16.34-11-16.34-17.07,0-2.14-4.82-10.29-3.75-12,0,0-.05-.08,0-.1s.09,0,.1,0,0-.05,0-.06h0A59.66,59.66,0,0,1,16.15,17c.62-.42,4-2.2,4.67-2.48C22.07,14,28.9,13.75,30.31,13.75Z"/><path class="cls-23" d="M30.4,14.34a30.18,30.18,0,0,1,6.07.61h0a29.72,29.72,0,0,1,6.42,3.83c.77.76,5.87,5.93,6.35,6.91h0c.65,1.33-4.7,9.25-4.7,10.82,0,2.74-4.09,8.57-5.89,10.37s-6.67,5.83-9.19,6c-.11,0-.33.17-.45.18l-.07,0h0s0,0,0,0l-.07,0-.08,0C23.27,53,13.1,42.09,13.1,36.62c0-1.95-5.17-10.27-4.2-11.8,0,0-.06-.08-.05-.1s.09,0,.1,0a.42.42,0,0,1,0-.06h0a65,65,0,0,1,7.4-7.15c.57-.38,4-2.21,4.64-2.47C22.1,14.58,29.11,14.34,30.4,14.34Z"/><path class="cls-24" d="M30.48,14.92a32.39,32.39,0,0,1,5.88.55h0a31.56,31.56,0,0,1,6.21,3.68c.68.69,6,6,6.39,6.88h0c.59,1.19-5.11,9.3-5.11,10.72,0,2.46-4.13,8.22-5.75,9.84s-6.42,5.72-8.69,5.84c-.1,0-.32.19-.42.19l-.07,0h0s0,0,0,0l-.06,0-.08,0c-4.93,0-15-10.83-15-15.76,0-1.76-5.53-10.23-4.66-11.61,0,0-.06-.08-.05-.09s.09,0,.09,0,0,0,0-.06h0A70.37,70.37,0,0,1,16.51,18c.51-.34,4-2.22,4.61-2.45C22.13,15.14,29.32,14.92,30.48,14.92Z"/><path class="cls-25" d="M30.57,15.51a33,33,0,0,1,5.67.49h0a32.57,32.57,0,0,1,6,3.53c.61.61,6,6,6.44,6.84h0c.52,1.05-5.51,9.36-5.51,10.61,0,2.19-4.18,7.89-5.62,9.32S31.38,51.9,29.36,52c-.09,0-.3.19-.39.19l-.06,0h0s0,0,0,0l-.06,0-.07,0c-4.39,0-14.28-10.73-14.28-15.11,0-1.56-5.88-10.19-5.1-11.42,0,0-.08-.08-.07-.09s.09,0,.1,0,0-.05,0-.05h0a77.14,77.14,0,0,1,7.31-7c.45-.31,4.06-2.24,4.57-2.44C22.17,15.7,29.54,15.51,30.57,15.51Z"/><path class="cls-26" d="M30.66,16.09a35,35,0,0,1,5.46.43h0a34.21,34.21,0,0,1,5.79,3.38c.54.54,6.15,6.12,6.49,6.8h0c.45.93-5.92,9.42-5.92,10.52,0,1.92-4.22,7.54-5.48,8.79s-5.93,5.49-7.69,5.59c-.08,0-.28.2-.36.2l-.06,0h0s0,0,0,0l-.06,0-.06,0c-3.84,0-13.59-10.63-13.59-14.47,0-1.36-6.24-10.15-5.56-11.23,0,0-.08-.08-.07-.09s.09,0,.1,0,0-.05,0-.05h0a85.47,85.47,0,0,1,7.26-7c.4-.27,4.09-2.25,4.54-2.42C22.2,16.26,29.75,16.09,30.66,16.09Z"/><path class="cls-27" d="M30.74,16.67A37.76,37.76,0,0,1,36,17h0a37,37,0,0,1,5.58,3.24c.46.45,6.24,6.17,6.53,6.76h0c.4.79-6.31,9.47-6.31,10.42,0,1.64-4.27,7.19-5.35,8.27s-5.68,5.37-7.19,5.46c-.06,0-.26.21-.33.21l-.06,0h0s0,0,0,0l-.05,0-.06,0c-3.29,0-12.9-10.53-12.9-13.81,0-1.17-6.6-10.13-6-11.05,0,0-.08-.07-.07-.08s.09,0,.1,0l0,0h0c.44-.68,6.54-6.48,7.22-6.93.34-.22,4.12-2.25,4.51-2.4C22.23,16.82,30,16.67,30.74,16.67Z"/><path class="cls-28" d="M30.83,17.26a44,44,0,0,1,5.05.3h0a41.6,41.6,0,0,1,5.38,3.09c.38.38,6.33,6.24,6.57,6.73h0c.33.66-6.71,9.53-6.71,10.31,0,1.37-4.33,6.85-5.22,7.75s-5.43,5.26-6.69,5.33c-.05,0-.25.22-.3.22l-.05,0h0s0,0,0,0l-.05,0-.06,0C26,51,16.54,40.57,16.54,37.83c0-1-7-10.09-6.47-10.86L10,26.89s.1,0,.1,0,0-.05,0-.05h0c.37-.57,6.62-6.49,7.18-6.87.29-.19,4.15-2.26,4.47-2.38C22.27,17.38,30.18,17.26,30.83,17.26Z"/><path class="cls-29" d="M30.91,17.84a48.3,48.3,0,0,1,4.85.25h0A48,48,0,0,1,40.93,21c.3.31,6.43,6.3,6.62,6.69h0c.26.53-7.12,9.59-7.12,10.22,0,1.1-4.37,6.5-5.08,7.22s-5.18,5.15-6.19,5.21c0,0-.23.22-.28.22l0,0h0s0,0,0,0l0,0-.06,0c-2.19,0-11.51-10.32-11.51-12.51,0-.78-7.32-10-6.93-10.66,0,0-.1-.08-.09-.09l.1,0,0-.05h0c.29-.46,6.68-6.51,7.13-6.81.23-.15,4.18-2.27,4.44-2.37C22.3,17.94,30.4,17.84,30.91,17.84Z"/><path class="cls-30" d="M31,18.43c.36,0,4.32.06,4.64.18h0a55.08,55.08,0,0,1,5,2.79c.23.23,6.52,6.36,6.67,6.65h0c.2.4-7.52,9.65-7.52,10.12,0,.82-4.42,6.15-5,6.69s-4.93,5-5.69,5.08c0,0-.21.23-.25.23l0,0h0s0,0,0,0l0,0-.05,0C27.1,50.17,17.92,40,17.92,38.31c0-.58-7.68-10-7.38-10.47,0,0-.11-.08-.1-.08s.1,0,.1,0l0-.05h0c.22-.34,6.75-6.52,7.09-6.75.17-.11,4.21-2.28,4.41-2.36S30.61,18.43,31,18.43Z"/><path class="cls-31" d="M31.08,19c.25,0,4.23,0,4.44.12h0c.28.1,4.52,2.41,4.75,2.64s6.62,6.42,6.72,6.62h0c.13.26-7.93,9.7-7.93,10,0,.55-4.46,5.81-4.81,6.17s-4.68,4.93-5.19,5c0,0-.19.24-.22.24l0,0h0v0l0,0-.05,0c-1.09,0-10.13-10.12-10.13-11.21,0-.39-8-10-7.84-10.29l-.11-.08.11,0,0-.05h0c.14-.23,6.82-6.54,7-6.69S22,19.2,22.14,19.15,30.83,19,31.08,19Z"/><path class="cls-32" d="M31.17,19.6c.12,0,4.13,0,4.23.06h0c.14.05,4.41,2.36,4.55,2.49s6.71,6.47,6.76,6.57h0c.06.13-8.33,9.76-8.33,9.92s-4.51,5.47-4.69,5.65S29.27,49.1,29,49.11c0,0-.18.25-.19.25l0,0h0l0,0,0,0,0,0c-.55,0-9.44-10-9.44-10.56,0-.2-8.39-9.95-8.3-10.1l-.11-.08.1.05,0-.05h0c.07-.12,6.89-6.55,7-6.63l4.34-2.33C22.4,19.62,31,19.6,31.17,19.6Z"/><polygon points="46.42 29.06 46.42 29.06 46.42 29.06 39.62 22.52 39.62 22.52 39.59 22.49 39.59 22.49 39.59 22.49 39.59 22.49 35.29 20.18 35.29 20.18 31.25 20.18 22.43 20.18 18.13 22.49 11.18 29.06 11.18 29.06 11.18 29.06 11.18 29.06 11.22 29.11 11.12 29.06 11.24 29.13 19.99 39.04 28.74 48.95 28.77 48.91 28.8 48.95 28.77 48.91 28.77 48.91 28.8 48.95 28.96 48.7 37.7 38.88 46.42 29.06 46.42 29.06"/></g><g class="cls-33"><path class="cls-34" d="M47.17,51.86a3.68,3.68,0,0,0,1-.59l5.67-4.74,0,0a3.91,3.91,0,0,1-1.64.75l-.35.07a4.78,4.78,0,0,1-2.18-.2L38.44,43.42l-5.68,4.74L44,51.87l.49.14a4.64,4.64,0,0,0,1.69.06l.34-.07A3.88,3.88,0,0,0,47.17,51.86Z"/><path class="cls-34" d="M18.94,15l1-11.35A4,4,0,0,1,21.27.9L15.6,5.64A4,4,0,0,0,14.23,8.4l-1,11.35Z"/><path class="cls-34" d="M30.75,50.73a3.55,3.55,0,0,1-1.48.7,3.13,3.13,0,0,1-.44.1,4.69,4.69,0,0,1-1.54,0l-.15,0a6,6,0,0,1-1.71-.7l-.23-.15a6.94,6.94,0,0,1-1.51-1.31,5.74,5.74,0,0,1-.43-.66,6.24,6.24,0,0,1-1-2.3L20,34.56,9.49,27.77A6.74,6.74,0,0,1,8,26.43a7,7,0,0,1-.76-1.28,6.86,6.86,0,0,1-.38-.77,5.38,5.38,0,0,1-.23-1.17,4.85,4.85,0,0,1-.11-.75,4.63,4.63,0,0,1,.2-1.19,4,4,0,0,1,.13-.6,3.62,3.62,0,0,1,1-1.42L2.18,24a3.54,3.54,0,0,0-1,1.42A5.79,5.79,0,0,0,1,26,4.71,4.71,0,0,0,.82,27.2,6.46,6.46,0,0,0,.93,28a5.93,5.93,0,0,0,.24,1.17,6.86,6.86,0,0,0,.38.77,6.9,6.9,0,0,0,.43.86l.32.42c.13.15.27.3.41.44a6.55,6.55,0,0,0,.79.68l.32.22,10.5,6.79,2.29,11.8a6.24,6.24,0,0,0,1,2.3,2.44,2.44,0,0,0,.1.24l.32.42.41.45a7.18,7.18,0,0,0,.79.67l.31.19.24.15c.12.07.24.16.37.22a5.31,5.31,0,0,0,1.29.48h0l.16,0a4.63,4.63,0,0,0,1.53,0,3.27,3.27,0,0,0,.45-.1c.15,0,.31,0,.46-.09a3.69,3.69,0,0,0,1-.6h0Z"/><path class="cls-35" d="M28.23,51.36a5.9,5.9,0,0,1-4.35-2.2,6.23,6.23,0,0,1-1.35-2.84L20.22,34.4,9.63,27.56a6.66,6.66,0,0,1-1.46-1.29,5.72,5.72,0,0,1-1.29-5,3.44,3.44,0,0,1,2.2-2.42l10.1-3.64,1-11.51A3.59,3.59,0,0,1,23.89.25a5.63,5.63,0,0,1,4.17,2.06L36.58,12l11.35-.21A5.55,5.55,0,0,1,52.15,14a5.41,5.41,0,0,1,1.07,5.75l-4.75,9.64,5.9,11.32a4.85,4.85,0,0,1,.12,4.76,3.6,3.6,0,0,1-3.15,1.73,5.09,5.09,0,0,1-1.55-.26L38.37,43.13l-7.61,7.26A3.6,3.6,0,0,1,28.23,51.36Z"/><path class="cls-36" d="M23.89.5a5.38,5.38,0,0,1,4,2l8.45,9.61.15.17h.23l11.11-.21h.13a5.34,5.34,0,0,1,4,2.06,5.19,5.19,0,0,1,1,5.48l-4.7,9.53-.11.23.12.22,5.84,11.2a4.59,4.59,0,0,1,.12,4.52,3.33,3.33,0,0,1-2.93,1.61,4.54,4.54,0,0,1-1.47-.25L38.59,42.94l-.28-.09-.22.2-7.5,7.16a3.37,3.37,0,0,1-2.36.9A5.67,5.67,0,0,1,24.07,49a6.07,6.07,0,0,1-1.3-2.73L20.49,34.46l0-.21-.18-.11L9.76,27.35a6.14,6.14,0,0,1-1.4-1.24,5.46,5.46,0,0,1-1.24-4.79,3.17,3.17,0,0,1,2-2.25l10-3.59.3-.11,0-.32,1-11.34A3.36,3.36,0,0,1,23.89.5m0-.5a3.86,3.86,0,0,0-4,3.66L18.94,15,9,18.6c-3,1.09-3.27,5.12-1,7.83a6.74,6.74,0,0,0,1.51,1.34L20,34.56l2.28,11.8a6.48,6.48,0,0,0,1.41,3,6.13,6.13,0,0,0,4.54,2.29,3.84,3.84,0,0,0,2.7-1l7.51-7.15,11.27,3.71a5.45,5.45,0,0,0,1.63.27c3.19,0,5.08-3.37,3.25-6.86l-5.84-11.2,4.7-9.53a5.72,5.72,0,0,0-1.1-6,5.88,5.88,0,0,0-4.41-2.24H47.8l-11.11.21L28.24,2.15A5.85,5.85,0,0,0,23.89,0Z"/></g><g class="cls-37"><path class="cls-38" d="M50,15.19a4.27,4.27,0,0,1,.82,4.49l-3.5,7.1,4.35,8.35c1.59,3-.57,5.92-3.63,4.91l-8.41-2.77L34,42.61c-1.49,1.4-4,.78-5.4-.94a4.8,4.8,0,0,1-1.05-2.2l-1.7-8.8L18,25.61a5.22,5.22,0,0,1-1.13-1c-1.69-2-1.49-5,.75-5.84l7.42-2.67.72-8.46c.29-3,4-3.71,6.22-1.13l6.29,7.17,8.28-.16A4.34,4.34,0,0,1,50,15.19Z"/></g><path class="cls-39" d="M41.12,10.27a7.51,7.51,0,0,1-1.85-4.43,7.46,7.46,0,0,1-1.84,4.43A7,7,0,0,1,33,12.12,6.92,6.92,0,0,1,37.43,14a7.48,7.48,0,0,1,1.84,4.43A7.53,7.53,0,0,1,41.12,14a6.92,6.92,0,0,1,4.43-1.84A7,7,0,0,1,41.12,10.27Z"/><path class="cls-39" d="M50.62,7.24a4,4,0,0,1-1-2.41,4.11,4.11,0,0,1-1,2.41,3.77,3.77,0,0,1-2.4,1,3.77,3.77,0,0,1,2.4,1,4.07,4.07,0,0,1,1,2.4,4,4,0,0,1,1-2.4,3.77,3.77,0,0,1,2.4-1A3.77,3.77,0,0,1,50.62,7.24Z"/></g></g></svg>