<svg xmlns="http://www.w3.org/2000/svg" viewBox="0 0 106 104.33"><defs><style>.cls-1{fill:#fff;}.cls-2{fill:#21c3c8;}</style></defs><title>flag</title><g id="Layer_2" data-name="Layer 2"><g id="Layer_1-2" data-name="Layer 1"><rect class="cls-1" x="81.5" y="43.17" width="23" height="59.67" rx="4.83"/><path class="cls-2" d="M99.67,44.67A3.33,3.33,0,0,1,103,48V98a3.33,3.33,0,0,1-3.33,3.33H86.33A3.33,3.33,0,0,1,83,98V48a3.33,3.33,0,0,1,3.33-3.33H99.67m0-3H86.33A6.34,6.34,0,0,0,80,48V98a6.34,6.34,0,0,0,6.33,6.33H99.67A6.34,6.34,0,0,0,106,98V48a6.34,6.34,0,0,0-6.33-6.33Z"/><rect class="cls-1" x="54.83" y="53.17" width="23" height="49.67" rx="4.83"/><path class="cls-2" d="M73,54.67A3.33,3.33,0,0,1,76.33,58V98A3.33,3.33,0,0,1,73,101.33H59.67A3.34,3.34,0,0,1,56.33,98V58a3.34,3.34,0,0,1,3.34-3.33H73m0-3H59.67A6.34,6.34,0,0,0,53.33,58V98a6.34,6.34,0,0,0,6.34,6.33H73A6.34,6.34,0,0,0,79.33,98V58A6.34,6.34,0,0,0,73,51.67Z"/><rect class="cls-1" x="1.5" y="79.83" width="23" height="23" rx="4.83"/><path class="cls-2" d="M19.67,81.33A3.34,3.34,0,0,1,23,84.67V98a3.33,3.33,0,0,1-3.33,3.33H6.33A3.33,3.33,0,0,1,3,98V84.67a3.34,3.34,0,0,1,3.33-3.34H19.67m0-3H6.33A6.34,6.34,0,0,0,0,84.67V98a6.34,6.34,0,0,0,6.33,6.33H19.67A6.34,6.34,0,0,0,26,98V84.67a6.34,6.34,0,0,0-6.33-6.34Z"/><rect class="cls-1" x="28.17" y="69.83" width="23" height="33" rx="4.83"/><path class="cls-2" d="M46.33,71.33a3.35,3.35,0,0,1,3.34,3.34V98a3.34,3.34,0,0,1-3.34,3.33H33A3.33,3.33,0,0,1,29.67,98V74.67A3.34,3.34,0,0,1,33,71.33H46.33m0-3H33a6.34,6.34,0,0,0-6.33,6.34V98A6.34,6.34,0,0,0,33,104.33H46.33A6.34,6.34,0,0,0,52.67,98V74.67a6.34,6.34,0,0,0-6.34-6.34Z"/><path class="cls-1" d="M88.17,42.83V6.3a4.83,4.83,0,0,1,9.66,0V42.83Z"/><path class="cls-2" d="M93,3a3.3,3.3,0,0,1,3.3,3.3v35H89.67V6.3A3.3,3.3,0,0,1,93,3H93m0-3H93a6.32,6.32,0,0,0-6.3,6.29v38H99.33V6.3A6.32,6.32,0,0,0,93,0Z"/><path class="cls-1" d="M50,34.5l8.11-9.73a.17.17,0,0,0,0-.21L50,14.83H66.17v11.5A1.84,1.84,0,0,0,68,28.17h8.17V34.5Z"/><path class="cls-2" d="M64.67,16.33v10A3.34,3.34,0,0,0,68,29.67h6.67V33H53.22l6.06-7.27a1.65,1.65,0,0,0,0-2.13l-6.06-7.27H64.67m3-3H46.82l4.1,4.92,5.35,6.42-5.35,6.41L46.82,36H77.67V26.67H68a.34.34,0,0,1-.33-.34v-13Z"/><rect class="cls-1" x="68.17" y="8.17" width="19.67" height="19.67"/><path class="cls-2" d="M86.33,9.67V26.33H69.67V9.67H86.33m3-3H66.67V29.33H89.33V6.67Z"/></g></g></svg>