<svg xmlns="http://www.w3.org/2000/svg" viewBox="0 0 94.22 106"><defs><style>.cls-1{fill:#fff;}.cls-2{fill:#21c3c8;}</style></defs><title>head</title><g id="Layer_2" data-name="Layer 2"><g id="Layer_1-2" data-name="Layer 1"><path class="cls-1" d="M15.93,104.5V74.09A41.72,41.72,0,0,1,5.77,61,40.73,40.73,0,0,1,1.51,42.11a41.48,41.48,0,0,1,12-28.54A39.61,39.61,0,0,1,41.88,1.5c14.58,0,27,8.23,32.43,15.88,1.47,2.08,3.76,9.05,5.43,14.6L92.26,55.63a4,4,0,0,1-2,5.56L84,63.81V71A16.91,16.91,0,0,1,67.14,87.93H61.76V104.5ZM42.58,60v-6l1.21-.24a13,13,0,0,0,4.76-2l1-.68,4.21,4.2,2-2-4.21-4.21.68-1a13.25,13.25,0,0,0,2-4.77l.24-1.21h5.94V39.28H54.49l-.25-1.2a13.13,13.13,0,0,0-2-4.76l-.69-1,4.21-4.2-2-2-4.21,4.21-1-.68a13.15,13.15,0,0,0-4.77-2l-1.2-.24V21.44H39.69v5.94l-1.21.24a13.4,13.4,0,0,0-4.76,2l-1,.69-4.2-4.21-2,2,4.21,4.21-.68,1a13.25,13.25,0,0,0-2,4.77l-.24,1.21H21.84v2.86h5.94l.25,1.2a13.25,13.25,0,0,0,2,4.77l.69,1-4.21,4.21,2,2,4.2-4.21,1,.68a13.17,13.17,0,0,0,4.77,2l1.2.24V60Z"/><path class="cls-2" d="M41.88,3c14,0,26,7.9,31.21,15.25,1.48,2.09,4.11,10.49,5.26,14.3L90.93,56.33a2.5,2.5,0,0,1-1.24,3.48l-7.16,3V71A15.39,15.39,0,0,1,67.14,86.43H60.26V103H17.43V73.4a40.3,40.3,0,0,1-10.32-13A39.34,39.34,0,0,1,3,42.13a39.91,39.91,0,0,1,11.55-27.5A38.11,38.11,0,0,1,41.88,3m-9,25.36L28.49,24l-4.14,4.14,4.4,4.4a14.66,14.66,0,0,0-2.2,5.31H20.34v5.86h6.22A14.56,14.56,0,0,0,28.77,49l-4.4,4.4,4.15,4.14,4.4-4.4a14.9,14.9,0,0,0,5.3,2.2v6.21h5.86V55.31a14.86,14.86,0,0,0,5.31-2.21l4.39,4.4,4.14-4.15L53.52,49a14.59,14.59,0,0,0,2.2-5.31h6.21V37.78H55.71a14.63,14.63,0,0,0-2.21-5.3l4.4-4.39-4.14-4.15-4.41,4.4a14.7,14.7,0,0,0-5.3-2.19V19.94H38.19v6.21a15,15,0,0,0-5.31,2.21M41.88,0A41.1,41.1,0,0,0,12.42,12.52,42.93,42.93,0,0,0,0,42.08,42.21,42.21,0,0,0,4.42,61.7a43.1,43.1,0,0,0,10,13.07V106H63.26V89.43h3.88A18.41,18.41,0,0,0,85.53,71V64.81l5.32-2.23a5.55,5.55,0,0,0,3.05-3.23,5.46,5.46,0,0,0-.32-4.42L81.14,31.4c-2.45-8.08-4.33-13.09-5.6-14.88C69.92,8.56,57,0,41.88,0ZM32.57,32.18l2-1.32a11.84,11.84,0,0,1,4.23-1.77l2.34-.47,2.34.47a11.65,11.65,0,0,1,4.23,1.75l2,1.33,1.33,2a11.57,11.57,0,0,1,1.76,4.23l.48,2.34-.47,2.34A11.72,11.72,0,0,1,51,47.29l-1.33,2-2,1.33a11.82,11.82,0,0,1-4.23,1.76l-2.34.47-2.34-.46a11.85,11.85,0,0,1-4.23-1.76l-2-1.32-1.33-2a11.52,11.52,0,0,1-1.76-4.22L29,40.75l.47-2.34a11.77,11.77,0,0,1,1.75-4.24l1.33-2Z"/><path class="cls-1" d="M41.14,51.25c-.32,0-.64,0-1,0a10.51,10.51,0,0,1,1-21c.31,0,.63,0,1,0a10.52,10.52,0,0,1-1,21Z"/><path class="cls-2" d="M41.13,31.72c.28,0,.55,0,.83,0a9,9,0,0,1-.83,18c-.27,0-.54,0-.82,0a9,9,0,0,1,.82-18m0-3a12,12,0,0,0-1.08,24c.36,0,.72,0,1.08,0a12,12,0,0,0,1.09-24,9.83,9.83,0,0,0-1.09-.05Z"/></g></g></svg>