<svg xmlns="http://www.w3.org/2000/svg" xmlns:xlink="http://www.w3.org/1999/xlink" viewBox="0 0 123.4 123.91"><defs><style>.cls-1{mask:url(#mask);filter:url(#luminosity-noclip-2);}.cls-10,.cls-12,.cls-13,.cls-14,.cls-2,.cls-4{mix-blend-mode:multiply;}.cls-2{fill:url(#radial-gradient);}.cls-3{isolation:isolate;}.cls-4{opacity:0.15;}.cls-5{fill:#eec700;}.cls-6{fill:#eebc03;}.cls-7{fill:#f8e107;opacity:0.55;}.cls-15,.cls-16,.cls-18,.cls-7,.cls-8{mix-blend-mode:overlay;}.cls-8{fill:#fbf00a;opacity:0.49;}.cls-15,.cls-16,.cls-9{fill:#fff;}.cls-10{opacity:0.33;}.cls-11,.cls-12,.cls-14{fill:#ee711f;}.cls-13{opacity:0.12;}.cls-14{opacity:0.5;}.cls-15{opacity:0.7;}.cls-16{opacity:0.57;}.cls-17{mask:url(#mask-2);}.cls-18{fill:url(#radial-gradient-2);}.cls-19{filter:url(#luminosity-noclip);}</style><filter id="luminosity-noclip" x="56.59" y="-1523.05" width="11.56" height="32766" filterUnits="userSpaceOnUse" color-interpolation-filters="sRGB"><feFlood flood-color="#fff" result="bg"/><feBlend in="SourceGraphic" in2="bg"/></filter><mask id="mask" x="56.59" y="-1523.05" width="11.56" height="32766" maskUnits="userSpaceOnUse"><g class="cls-19"/></mask><radialGradient id="radial-gradient" cx="62.37" cy="13.8" r="5.78" gradientUnits="userSpaceOnUse"><stop offset="0" stop-color="#fff"/><stop offset="1"/></radialGradient><filter id="luminosity-noclip-2" x="56.59" y="8.02" width="11.56" height="11.56" filterUnits="userSpaceOnUse" color-interpolation-filters="sRGB"><feFlood flood-color="#fff" result="bg"/><feBlend in="SourceGraphic" in2="bg"/></filter><mask id="mask-2" x="56.59" y="8.02" width="11.56" height="11.56" maskUnits="userSpaceOnUse"><g class="cls-1"><path class="cls-2" d="M68.15,13.8A5.78,5.78,0,1,1,62.37,8,5.78,5.78,0,0,1,68.15,13.8Z"/></g></mask><radialGradient id="radial-gradient-2" cx="62.37" cy="13.8" r="5.78" gradientUnits="userSpaceOnUse"><stop offset="0" stop-color="#fff"/><stop offset="1" stop-color="#fff"/></radialGradient></defs><title>icon-star</title><g class="cls-3"><g id="Layer_2" data-name="Layer 2"><g id="Layer_1-2" data-name="Layer 1"><path class="cls-4" d="M123.37,50.85c0-.11,0-.22,0-.33s0-.25,0-.38l0-.37a1.89,1.89,0,0,1,0-.23,4.49,4.49,0,0,0-.58-1.44h0l-.06-.1,0,0a6.41,6.41,0,0,0-.39-.52h0c-4.63-5.5-22.36-7-34.34-7C84.45,34,74.41,16.11,67.64,11l1.24-2.62L67.45,10.9C65.34,9.41,62.77,10,60,12l-1.2-4,1,4.16a30.86,30.86,0,0,0-4.4,4.06h0l-.71.67-10.6-5.7,10.1,6.21c-6.87,7.11-15.36,23-15.36,23-11.73-.26-32.51,1-37.59,7h0a4.87,4.87,0,0,0-.47.65l-.1.17a3.5,3.5,0,0,0-.47,3h0c0,.09,0,.17,0,.25a6,6,0,0,0,.28.85c.22.52.47,1.06.74,1.6l.31.57c.19.37.39.74.61,1.11s.28.47.42.71l.64,1.05.51.77.7,1,.57.81.75,1,.64.84c.26.34.52.69.79,1l.68.87.82,1c.24.3.48.6.73.89s.55.67.83,1l.77.91.83,1,.82.93.8.9.86,1,.73.8.94,1,.57.6L17.63,75l.11.12c2.15,2.26,4.21,4.34,6,6.1-3.08,8.74-7.6,25.56-6.5,35.08,0,0,0,.08,0,.12,0,.3.08.58.13.86,0,.12,0,.24.06.36s.1.46.15.69.07.29.11.43.12.39.18.58l.15.43c.07.17.14.34.22.5s.13.28.2.41l.24.41.19.29.16.3a3,3,0,0,0,2.23,1.44h.08a5.15,5.15,0,0,0,.59.11,2.91,2.91,0,0,0,.31,0,5.59,5.59,0,0,0,1,0c.55,0,1.13-.14,1.72-.24l-.42.88,3.83-.73c1.57-.3,7.56-3,14.09-6.15,4.26-1.9,8.43-4,12-5.83,3.73-1.84,6.63-3.29,7.56-3.76,7.71,4.29,27.49,14.81,38.19,15.83a5.6,5.6,0,0,0,1,0,2.91,2.91,0,0,0,.31,0,5.33,5.33,0,0,0,.6-.11l.33-.11a3.85,3.85,0,0,0,.47-.19,2.69,2.69,0,0,0,.32-.19,4.4,4.4,0,0,0,.39-.26l.29-.26a3.22,3.22,0,0,0,.32-.32,2.88,2.88,0,0,0,.27-.34c.09-.12.18-.24.26-.37a3.38,3.38,0,0,0,.24-.41l.21-.41.21-.5.15-.42c.07-.2.13-.39.19-.6s.06-.27.1-.41.11-.46.16-.71c0-.1,0-.22,0-.32,0-.29.1-.59.14-.9v0c1.14-9.5-3.4-26.39-6.49-35.15,1.78-1.76,3.84-3.84,6-6.1l.11-.12,1.08-1.15.57-.61.94-1,.73-.8.86-1,.81-.91.81-.93.83-1,.77-.91.84-1,.72-.88.83-1,.68-.87c.27-.34.53-.69.79-1l.63-.84c.26-.35.5-.7.75-1l.57-.81c.25-.35.47-.7.7-1l.51-.77c.23-.36.43-.71.64-1.05s.29-.47.43-.7c.22-.39.41-.76.61-1.13.1-.18.21-.37.3-.56.27-.54.52-1.08.74-1.6a6.85,6.85,0,0,0,.27-.8c0-.09,0-.18.05-.27A2.94,2.94,0,0,0,123.37,50.85Z"/><path class="cls-5" d="M123,44.41c4-9.61-20-12-35-12C84.43,26,74.3,7.94,67.53,3,60-2.58,46.62,19.11,38.79,32.44c-14.44-.32-42.6,1.63-38.3,12C4,53,16.31,65.9,23.72,73.22c-4.53,12.84-12.18,43.16-.48,42.05,10.84-1,31-11.8,38.48-16,7.5,4.19,27.65,15,38.49,16,11.7,1.11,4.05-29.21-.48-42C107.14,65.9,119.41,53,123,44.41Z"/><path class="cls-6" d="M123,44.41c4-9.61-20-12-35-12C84.43,26,74.3,7.94,67.53,3,60-2.58,46.62,19.11,38.79,32.44c-14.44-.32-42.6,1.63-38.3,12C4,53,16.31,65.9,23.72,73.22c-4.53,12.84-12.18,43.16-.48,42.05,10.84-1,31-11.8,38.48-16,7.5,4.19,27.65,15,38.49,16,11.7,1.11,4.05-29.21-.48-42C107.14,65.9,119.41,53,123,44.41Z"/><path class="cls-7" d="M113.09,46.71c3.35-8.06-16.81-10-29.4-10.06C80.77,31.24,72.28,16.12,66.6,11.94,60.29,7.3,49.06,25.49,42.48,36.67,30.37,36.4,6.75,38,10.35,46.71c3,7.18,13.28,18,19.49,24.17-3.8,10.77-10.21,36.21-.4,35.27,9.09-.86,26-9.9,32.28-13.41C68,96.25,84.92,105.29,94,106.15c9.82.94,3.4-24.5-.39-35.27C99.82,64.74,110.12,53.89,113.09,46.71Z"/><path class="cls-8" d="M83.69,36.65C80.77,31.24,72.28,16.12,66.6,11.94,60.29,7.3,49.06,25.49,42.48,36.67,30.37,36.4,6.75,38,10.35,46.71c3,7.18,13.28,18,19.49,24.17-.95,2.71-2.08,6.36-3.06,10.27,11.57,1.67,27.51-2.68,39.12-7C85.5,66.94,92.05,65.4,112.53,48c.2-.43.4-.84.56-1.24C116.44,38.65,96.28,36.67,83.69,36.65Z"/><path class="cls-9" d="M26.12,37.21c-6.35,1.15-14.36,3.49-15,6.21s16.14-.08,19-3S32.47,36.06,26.12,37.21Z"/><path class="cls-9" d="M64.36,11.2c-3-.09-10.46,6.94-15.84,15.65s11.22-9.27,15.84-8.94S70.14,11.36,64.36,11.2Z"/><path class="cls-9" d="M43,38.6c0,1.17-1.69,2.13-3.78,2.13s-3.77-1-3.77-2.13,1.69-2.13,3.77-2.13S43,37.42,43,38.6Z"/><path class="cls-9" d="M106.24,39.76c-8.55-2.3-19.76-4.4-21.88-2.33s19.07,4.43,25.4,7.32C114.42,46.87,114.78,42.05,106.24,39.76Z"/><g class="cls-10"><path class="cls-11" d="M99.73,66.73c.5,1.43,1,3.09,1.6,4.89,7.46-7.49,18.33-19.24,21.63-27.21a4.49,4.49,0,0,0-.71-5C118,48,106.71,59.83,99.73,66.73Z"/><path class="cls-11" d="M23.72,66.73C16.74,59.83,5.44,48,1.19,39.44a4.5,4.5,0,0,0-.7,5c3.3,8,14.17,19.72,21.63,27.21C22.67,69.82,23.22,68.16,23.72,66.73Z"/><path class="cls-12" d="M100.21,108.78c-10.84-1-31-11.8-38.49-16-7.49,4.19-27.64,15-38.48,16-3.8.36-5.55-2.62-6-7.23-.63,8.06.65,14.23,6,13.72,10.84-1,31-11.8,38.48-16,7.5,4.19,27.65,15,38.49,16,5.39.51,6.67-5.66,6-13.72C105.76,106.16,104,109.14,100.21,108.78Z"/></g><path class="cls-9" d="M36.59,102.36c.63-.25,16.91-7.14,21.28-10.09s4.55-2.38,17.19,5,19.14,8.52,21.42,6.61.76,3.12-5.27,1.77S64.94,95.3,63.33,94s-21.76,11.3-31.44,11.75S29.35,105.29,36.59,102.36Z"/><path class="cls-9" d="M68.18,4s-.62,7.7-2.24,6.84a3.39,3.39,0,0,0-3.64.34L60.75,4S64.9.1,68.18,4Z"/><path class="cls-9" d="M2.88,38.6a19.93,19.93,0,0,1,5.93,2.33L11,42.46a4.17,4.17,0,0,0-1.29,2.81c0,1.6.26,1.75.26,1.75S.93,46.22.15,43.3A3.9,3.9,0,0,1,2.88,38.6Z"/><path class="cls-13" d="M120,38a25.35,25.35,0,0,0-4.22,2.17,6.59,6.59,0,0,0-2.29,2.24,11,11,0,0,1,.41,1.88v1.57s5.84-.66,7.63-1.57,1.69-3.56,1.22-4.2S120.51,37.79,120,38Z"/><path class="cls-13" d="M27.12,106s-2.49,8.19-3.22,8.72-3.75,1-4.86-1.06-1.7-3.38-1.15-4.56S25,104,25,104,25.94,106,27.12,106Z"/><path class="cls-13" d="M95.84,106s2.5,8.19,3.22,8.72,3.75,1,4.87-1.06,1.7-3.38,1.15-4.56S97.93,104,97.93,104,97,106,95.84,106Z"/><path class="cls-14" d="M62.34,94v5.26s-30.14,15.16-34,15.9l-3.82.73,3.82-8.12S59,96.9,62.34,94Z"/><path class="cls-15" d="M42.48,36.67l-3.69-4.23S48.32,14.55,55.36,8.23,66.05.46,66,5.65s-1.63,5.55-1.63,5.55S56.51,11.86,42.48,36.67Z"/><polygon class="cls-16" points="61.82 12.76 68.87 0.41 63.04 12.76 81.08 21.71 62.9 13.84 53.68 30.57 61.14 13.71 44.04 3.2 61.82 12.76"/><polygon class="cls-16" points="62.6 12.7 71.62 10.24 63.17 13.27 67.39 25.82 62.6 13.71 50.54 17.2 61.85 12.83 58.78 0 62.6 12.7"/><g class="cls-17"><path class="cls-18" d="M68.15,13.8A5.78,5.78,0,1,1,62.37,8,5.78,5.78,0,0,1,68.15,13.8Z"/></g></g></g></g></svg>