<svg xmlns="http://www.w3.org/2000/svg" xmlns:xlink="http://www.w3.org/1999/xlink" viewBox="0 0 94.4 119.73"><defs><style>.cls-1{isolation:isolate;}.cls-2{fill:#8a7d63;}.cls-2,.cls-7{opacity:0.6;}.cls-10,.cls-2,.cls-5,.cls-8{mix-blend-mode:multiply;}.cls-3{fill:url(#radial-gradient);}.cls-4{fill:url(#radial-gradient-2);}.cls-5,.cls-6,.cls-7{fill:#c3bcb3;}.cls-10,.cls-5{opacity:0.7;}.cls-6{opacity:0.4;}.cls-11,.cls-12,.cls-13,.cls-6,.cls-7{mix-blend-mode:screen;}.cls-10,.cls-8{fill:#665d4a;}.cls-8,.cls-9{opacity:0.8;}.cls-9{fill:url(#radial-gradient-3);}.cls-11{fill:url(#radial-gradient-4);}.cls-12{fill:url(#radial-gradient-5);}.cls-13,.cls-14{fill:#fff;}</style><radialGradient id="radial-gradient" cx="37.63" cy="39.09" fy="55.843895884059954" r="69.93" gradientUnits="userSpaceOnUse"><stop offset="0" stop-color="#f0eee8"/><stop offset="0.4" stop-color="#b7a892"/><stop offset="1" stop-color="#6c614f"/></radialGradient><radialGradient id="radial-gradient-2" cx="49.38" cy="7.93" fy="7.9310690268339386" r="56.92" xlink:href="#radial-gradient"/><radialGradient id="radial-gradient-3" cx="63.96" cy="85.96" r="39.17" gradientUnits="userSpaceOnUse"><stop offset="0" stop-color="#fff"/><stop offset="0.32" stop-color="#b2b2b2"/><stop offset="1"/></radialGradient><radialGradient id="radial-gradient-4" cx="52.5" cy="3.96" r="45.37" gradientUnits="userSpaceOnUse"><stop offset="0" stop-color="#f0eee8"/><stop offset="0.4" stop-color="#b7a892"/><stop offset="1"/></radialGradient><radialGradient id="radial-gradient-5" cx="65.85" cy="109.36" r="41.21" xlink:href="#radial-gradient-4"/></defs><title>icon-lock</title><g class="cls-1"><g id="Layer_2" data-name="Layer 2"><g id="Layer_1-2" data-name="Layer 1"><path class="cls-2" d="M53.73,5.75C45.91,8.52,34.36,19.37,31.25,26.8A83,83,0,0,0,27.1,39.86c-.25,1.09-.45,4.93-1.22,5.62a15.58,15.58,0,0,0-3.38.44C16.21,48.37,7.41,53.66,5.63,59.36,1.81,71.53-.21,79.08.7,84.35,4.3,105.19,22.59,105,32.2,109.62a149.83,149.83,0,0,0,19.72,8.14c4,1.26,8.08,2.91,12.25,1.29,3.54-1.39,6.1-4.43,8.28-7.43,4.16-5.72,7-12.18,10.39-18.34,2.79-5,7.6-11.59,7.17-17.65-.14-1.9-2.57-7-4.65-10.59.92-1.62,2.73-5.36,3.6-7,6.3-11.91,7.62-20.51,1.33-33.53C82.33,8,69.43.22,53.73,5.75ZM43.85,31.46A20,20,0,0,1,68.17,24.4c9.49,4.12,13.39,14.35,10.23,23.92a71.4,71.4,0,0,1-3,7.26c-.64,1.36-1.32,2.7-2,4-.86,1.67-2.11.22-3.57-.43a148.2,148.2,0,0,0-16.32-6c-2.74-.87-5.49-1.72-8.22-2.63-1.5-.49-3-1-4.49-1.54S37.59,48.69,38,47c1.27-5.33,2.73-10.94,5.85-15.52C48.57,24.54,40.81,36,43.85,31.46Z"/><path class="cls-3" d="M84.61,16.55A35.75,35.75,0,0,0,62.87.87,40.44,40.44,0,0,0,39.28,3c-6.89,2.89-10.93,9.14-13.72,15.8a97.32,97.32,0,0,0-5.38,18.78C11.78,36.2,8.17,51,6.27,56.71,3.91,63.85.43,70.71,0,78.36-.29,84.48,2.64,88.83,7.17,92c5.59,4.38,13.25,6.73,19.34,9.64,5.43,2.59,10.93,5,16.57,7.07,2.78,1,5.63,1.81,8.48,2.62,5.36,1.57,9.74-1,13.16-5.07,4.28-5.09,7.37-11.12,10.34-17s6.8-11.45,8.74-17.66c1.14-3.56.49-6.69-1.71-9.08a.91.91,0,0,0-.08-.13,27.48,27.48,0,0,0-3.16-2.86c3.51-6.11,6.74-12.38,8.62-19.19A30.76,30.76,0,0,0,84.61,16.55Zm-14.41,30c-.91,2.08-2,4.08-3,6.08a114,114,0,0,0-13.5-5.5c-5.84-2-11.78-3.67-17.6-5.73-1.29-.46-2.63-.93-4-1.38,1.35-5.78,3-12,6.1-16.57A19.61,19.61,0,0,1,59.1,15.33,19,19,0,0,1,74,32.67C74.21,37.44,72.08,42.35,70.2,46.58Z"/><path class="cls-4" d="M85.62,41.55a84.61,84.61,0,0,1-8,17A71.57,71.57,0,0,0,69.8,54c-.41-.23-.82-.42-1.22-.63,1.1-2.38,2.19-4.78,3.16-7.2,1.93-4.74,3.64-9.83,3.17-15-.73-8.06-7.25-14.54-14.75-16.81C52.09,11.92,44,15,38.72,21.29c-4,4.79-7,11.79-8.3,18.25a36.36,36.36,0,0,0-9-1.58,3.59,3.59,0,0,0-.35-.12c1-4.14,1.95-8.29,3.26-12.34,1.76-5.39,4.06-11.77,8.12-15.87C35.87,6.17,40.57,4,45.12,2.82a39.59,39.59,0,0,1,16.41-.6C70.67,3.72,78.3,10,82.89,17.81A29.5,29.5,0,0,1,85.62,41.55Z"/><path class="cls-5" d="M84.61,16.55A34.81,34.81,0,0,0,72.72,4.92a36.38,36.38,0,0,0-7.53-3.41A33.79,33.79,0,0,1,75.5,8.16c5.72,5.58,9.85,12.63,9.42,20.82A37.3,37.3,0,0,1,82,42.43a20,20,0,0,1-3.88,5.85c-1,.95-4,2.08-3.53-.7,1-5.53,4.13-10,3.61-15.92-.39-4.3-1.19-9.22-3.78-12.81C69.53,12.06,59.86,9.2,51.77,9.63c-9.7.49-17.59,7.93-20.58,16.86-.6,1.77-3,7.61-5.24,7.3-4.62-.6-1.06-13.42-.09-15.66-.11.24-.2.47-.3.7a97.32,97.32,0,0,0-5.38,18.78C11.78,36.2,8.17,51,6.27,56.71,3.91,63.85.43,70.71,0,78.36-.29,84.48,2.64,88.83,7.17,92c5.59,4.38,13.25,6.73,19.34,9.64,5.43,2.59,10.93,5,16.57,7.07,2.78,1,5.63,1.81,8.48,2.62,5.36,1.57,9.74-1,13.16-5.07,4.28-5.09,7.37-11.12,10.34-17s6.8-11.45,8.74-17.66c1.14-3.56.49-6.69-1.71-9.08a.91.91,0,0,0-.08-.13,27.48,27.48,0,0,0-3.16-2.86c3.51-6.11,6.74-12.38,8.62-19.19A30.76,30.76,0,0,0,84.61,16.55ZM38.17,23.48A19.61,19.61,0,0,1,59.1,15.33,19,19,0,0,1,74,32.67c.25,4.77-1.88,9.68-3.76,13.91-.91,2.08-2,4.08-3,6.08a114,114,0,0,0-13.5-5.5c-5.84-2-11.78-3.67-17.6-5.73-1.29-.46-2.63-.93-4-1.38C33.42,34.27,35.12,28,38.17,23.48ZM76.11,67.77c0,6.29-5.59,13.29-8.79,18.76-2.63,4.51-4.79,9.64-8.88,13.08-7.6,6.39-19.06,2.14-27.34-.94A114.06,114.06,0,0,1,14,90.81c-3.33-1.91-7.18-4-8.58-7.82C2.06,73.82,8.87,63.46,12,55.1c1.6-4.26,3.5-9.61,8.11-11.37,6.25-2.4,14.27,1.05,20.35,2.45a98.23,98.23,0,0,1,20.14,6.71,70.14,70.14,0,0,1,10.92,6.84C74.83,62.1,76.08,64.88,76.11,67.77Z"/><path class="cls-6" d="M76.11,67.77a13.1,13.1,0,0,1-.25,2.47,57.68,57.68,0,0,1,5.91,1.6c.59.16,1.19.31,1.79.45.08-.24.18-.47.24-.7,1.14-3.56.49-6.69-1.71-9.08a.91.91,0,0,0-.08-.13A17.34,17.34,0,0,0,80.56,61c-.54-.37-1.06-.74-1.59-1.12-1.9.43-3.81.87-5.69,1.35A9.21,9.21,0,0,1,76.11,67.77Z"/><path class="cls-6" d="M82.74,65.11l1-.07a8.35,8.35,0,0,0-1.61-2.53.91.91,0,0,0-.08-.13l-.57-.55-3.42.6c-1.12.19-2.2.44-3.28.65a8.58,8.58,0,0,1,.94,2C78,65.08,80.36,65.22,82.74,65.11Z"/><path class="cls-6" d="M80.1,69.43c1.33.3,2.69.53,4.05.75a11.12,11.12,0,0,0,.19-2h-.16c-2.7.13-5.41-.1-8.1,0,0,.18,0,.37,0,.55A29.35,29.35,0,0,1,80.1,69.43Z"/><path class="cls-5" d="M56.16,101.12a14.62,14.62,0,0,1-5.38,1.64,27.65,27.65,0,0,1,1.48,8.78c4.81,1.08,8.79-1.13,12-4.7-1.44-.88-2.81-1.62-3.49-2.09A26.5,26.5,0,0,1,56.16,101.12Z"/><path class="cls-5" d="M5.41,83a15.51,15.51,0,0,1-.9-5.23,38.87,38.87,0,0,1-4.46.37,1.6,1.6,0,0,1,0,.23c-.29,5.83,2.34,10,6.5,13.19A39.38,39.38,0,0,1,8.25,87,10.14,10.14,0,0,1,5.41,83Z"/><path class="cls-6" d="M25.05,38.8a31,31,0,0,0-4.84-1.29.93.93,0,0,0,0,.1c-3.14-.53-5.61,1.22-7.58,3.91,1.54,1.34,3.05,2.74,4.54,4.15a8.81,8.81,0,0,1,3-1.94,13.58,13.58,0,0,1,5.47-.81C25.41,41.54,25.22,40.16,25.05,38.8Z"/><path class="cls-7" d="M19.54,44a6.57,6.57,0,0,1,.61-.26,9.93,9.93,0,0,1,1.47-.45,35.88,35.88,0,0,1-2.09-5.72A6.65,6.65,0,0,0,15.07,39C16.11,40.76,18.17,42.3,19.54,44Z"/><path class="cls-7" d="M12.91,41.13a4.08,4.08,0,0,0-.31.39c1.32,1.16,2.62,2.36,3.9,3.57C15.36,43.71,14,42.52,12.91,41.13Z"/><path class="cls-8" d="M84.61,16.55A35.75,35.75,0,0,0,62.87.87,40.44,40.44,0,0,0,39.28,3c-6.89,2.89-10.93,9.14-13.72,15.8a97.32,97.32,0,0,0-5.38,18.78C11.78,36.2,8.17,51,6.27,56.71,3.91,63.85.43,70.71,0,78.36-.29,84.48,2.64,88.83,7.17,92c5.59,4.38,13.25,6.73,19.34,9.64,5.43,2.59,10.93,5,16.57,7.07,2.78,1,5.63,1.81,8.48,2.62,5.36,1.57,9.74-1,13.16-5.07,4.28-5.09,7.37-11.12,10.34-17s6.8-11.45,8.74-17.66c1.14-3.56.49-6.69-1.71-9.08a.91.91,0,0,0-.08-.13,27.48,27.48,0,0,0-3.16-2.86c3.51-6.11,6.74-12.38,8.62-19.19A30.76,30.76,0,0,0,84.61,16.55ZM81.8,65.05c1.59,2.93,0,6.54-1.2,9.3-2.26,5-5.15,9.88-7.63,14.82a103.52,103.52,0,0,1-8.51,14.58,24,24,0,0,1-4.69,5.06c-4.68,3.56-12.43-.42-17.21-2.09-5.57-1.93-11-4.26-16.32-6.69-5.58-2.52-11.61-4.57-16.88-7.78-.42-.2-.83-.44-1.23-.68a20.89,20.89,0,0,1-4.54-4.7c-2-3-2.24-6.79-1.93-10.27C2.24,70.1,5.24,64,7.37,57.84c2.32-6.66,4.58-17.64,12.54-19,5,1.1,10,1.73,14.9,3.33C40.36,44,45.88,45.9,51.37,47.83a123.33,123.33,0,0,1,15.94,6.62c1.63.85,3.25,1.71,4.82,2.62a35.67,35.67,0,0,1,3.32,1.82C77.72,60.59,80.42,62.49,81.8,65.05Zm-49.73-25c1.35-5.78,3-12,6.1-16.57A19.61,19.61,0,0,1,59.1,15.33,19,19,0,0,1,74,32.67c.25,4.77-1.88,9.68-3.76,13.91-.91,2.08-2,4.08-3,6.08a114,114,0,0,0-13.5-5.5c-5.84-2-11.78-3.67-17.6-5.73C34.81,41,33.47,40.5,32.07,40.05Zm53.55,1.5a84.61,84.61,0,0,1-8,17A71.57,71.57,0,0,0,69.8,54c-.41-.23-.82-.42-1.22-.63,1.1-2.38,2.19-4.78,3.16-7.2,1.93-4.74,3.64-9.83,3.17-15-.73-8.06-7.25-14.54-14.75-16.81C52.09,11.92,44,15,38.72,21.29c-4,4.79-7,11.79-8.3,18.25a36.36,36.36,0,0,0-9-1.58,3.59,3.59,0,0,0-.35-.12c1-4.14,1.95-8.29,3.26-12.34,1.76-5.39,4.06-11.77,8.12-15.87C35.87,6.17,40.57,4,45.12,2.82a39.59,39.59,0,0,1,16.41-.6C70.67,3.72,78.3,10,82.89,17.81A29.5,29.5,0,0,1,85.62,41.55Z"/><path class="cls-9" d="M47.35,57.23c-4.51-1.81-10.53-.71-13.22,3.6-2.25,3.59-1.94,7.83,1.61,11.6-3.42,3.33-6.33,7-9.74,10.33-.42.4-.76.91.34,1.31,5.07,1.93,8.77,3.7,14,5.67.47.18,1.08.07,1.16-.41.56-4.4,1.27-9.3,1.78-13.7C54,76.83,57.07,61.13,47.35,57.23Z"/><path class="cls-10" d="M47.35,57.23c-4.51-1.81-10.53-.71-13.22,3.6-2.25,3.59-1.94,7.83,1.61,11.6-3.42,3.33-6.33,7-9.74,10.33-.42.4-.76.91.34,1.31,5.07,1.93,8.77,3.7,14,5.67.47.18,1.08.07,1.16-.41.56-4.4,1.27-9.3,1.78-13.7C54,76.83,57.07,61.13,47.35,57.23Zm-4,17.33a1.49,1.49,0,0,0-1.09-.08c-.36,2.42-1.49,10.3-2.07,13.21A121.59,121.59,0,0,1,28.1,82.87c3.07-3.05,4.65-5.19,7.57-8.39,1.28-1.62,2.15-2.12,1.84-2.33-2.84-2.22-3.88-4.81-3-8.32,1-4.37,6.74-6.36,10.52-5.69a8.28,8.28,0,0,1,6.65,8C51.82,70.61,47.81,75,43.37,74.56Z"/><path class="cls-11" d="M25.79,30.1s1.86-13.5,7.82-18.76S47.67.84,63.87,4.8s19,18.77,19.6,23.87S82,41.6,79.92,44.29A33.67,33.67,0,0,0,82.18,29C81.33,20.72,77.12,10,62,7.08,43.84,3.53,31.19,7.79,25.79,30.1Z"/><path class="cls-12" d="M15.86,92.31s22.72,10.52,29.82,11.37,11.65,1.42,17.9-8.82S73.81,76.12,75.52,73.28s4-8.08-4-13.55c0,0,4.52,5,3.66,7.87S69.55,81,64.43,89.19s-8.15,13.13-14.2,13.64C43.4,103.4,15.86,92.31,15.86,92.31Z"/><path class="cls-13" d="M4.51,77.76S3.92,72.61,10,59.54s6.62-16.09,14-16.86S51.65,48.75,61.31,53.1c0,0-23.49-7-28.79-8S22.1,43.83,18.13,48.2,4.73,70.39,4.51,77.76Z"/><path class="cls-14" d="M46.44,55.85A11.24,11.24,0,0,0,34,59.92a8.52,8.52,0,0,0-1.3,7A18.41,18.41,0,0,1,33,64.27c1-6.34,10.61-9.84,16.2-5.39s3,11.65,3,11.65C56.48,62.85,49.47,56.71,46.44,55.85Z"/><path class="cls-14" d="M41.5,89.33l1.78-13.7s3.92.87,7.79-3.11c0,0-2.36,4.17-6.9,3.79Z"/></g></g></g></svg>