<svg xmlns="http://www.w3.org/2000/svg" xmlns:xlink="http://www.w3.org/1999/xlink" width="1921.83" height="980" viewBox="0 0 1921.83 980"><defs><style>.cls-1{fill:url(#linear-gradient);}.cls-2{fill:#fff;opacity:0.1;}</style><linearGradient id="linear-gradient" x1="-5557.58" y1="9374.64" x2="-4139.62" y2="9374.64" gradientTransform="translate(12478.46 3841.02) rotate(90) scale(0.69 1.23)" gradientUnits="userSpaceOnUse"><stop offset="0" stop-color="#9248c3"/><stop offset="0.13" stop-color="#8c4ec1"/><stop offset="0.31" stop-color="#7a5fbc"/><stop offset="0.52" stop-color="#5d7bb4"/><stop offset="0.74" stop-color="#35a3a8"/><stop offset="0.99" stop-color="#02d599"/><stop offset="0.99" stop-color="#00d699"/></linearGradient></defs><title>map-bg</title><g id="Layer_2" data-name="Layer 2"><g id="map"><g id="bg"><rect class="cls-1" x="0.03" width="1920" height="980"/><path class="cls-2" d="M1862.74,362.64c-106.16-21.72-191.4-10.39-299.58,4-179.36,23.85-172.51,59.64-295.6,68-77.64,5.27-94.5-8-411.43-76-213.71-45.85-251.67-49.59-299.59-48-124.75,4.14-162.66,39.34-291.6,72C155.21,410.43,72.84,412.76,0,408.82V540.89c108.74-48.12,212.24-99.46,376.78-114.25,102.78-9.24,188.36,3.17,359.51,28,317.63,46.07,386.85,113.72,595.18,96,177.7-15.12,170.8-68,323.56-64,124.39,3.28,183.06,39.79,265,71.1V377.51A541.72,541.72,0,0,0,1862.74,362.64Z"/><path class="cls-2" d="M1846.37,489.25c-55-8.52-80.86,8.18-140.22,10.71-80.84,3.43-90-25.12-201.06-38.25-70.31-8.3-126.77-4-198.42,1.53-118.78,9.12-114.25,22.81-195.77,26-51.42,2-62.59-3.07-272.49-29.07-141.54-17.53-166.68-19-198.42-18.35-82.61,1.58-107.73,15-193.12,27.53C246,498.74,183.49,453.73,10.35,489.25c-3.41.7-6.86,1.43-10.32,2.18v74.73c15.44-.08,26.49-.36,28.84-.43,222.49-6.15,282.59-68.67,492.07-79.54C589,482.65,645.69,487.4,759,496.9c210.37,17.62,256.21,43.49,394.19,36.71,117.69-5.78,113.12-26,214.29-24.48,128.36,2,151.06,34.76,291,42.84,123.69,7.13,257.7-9.74,261.91-30.6C1922.92,509.09,1880.56,494.54,1846.37,489.25Z"/><path class="cls-2" d="M74.12,865c54.95,9,80.92-7.49,140.3-9.51,80.87-2.74,89.75,25.89,200.73,40,70.23,8.91,126.72,5.06,198.42.17,118.86-8.11,114.44-21.83,196-24.33,51.44-1.58,62.56,3.6,272.24,31.39,141.38,18.75,166.51,20.39,198.25,20.06,82.63-.88,107.86-14.13,193.35-25.89,201.14-27.66,263.24,17.89,436.68-16.15q5.12-1,10.33-2.1l.64-74.72c-15.44-.05-26.49.13-28.84.18-222.53,4.25-283.17,66.25-492.73,75.33-68.1,3-124.74-2.28-238-12.74C951.26,847.21,905.64,821,767.61,826.55c-117.74,4.77-113.34,25-214.49,22.64-128.34-3.05-150.76-36.05-290.64-45.32C138.86,795.68,4.71,811.4.32,832.22-2.26,844.49,40,859.4,74.12,865Z"/><path class="cls-2" d="M1864.54,588.28c-106.16-21.73-191.4-10.39-299.59,4-179.35,23.85-172.5,59.64-295.59,68-77.64,5.27-94.5-8-411.44-76-213.7-45.85-251.66-49.6-299.58-48-124.75,4.14-162.67,39.34-291.6,72C157,636.07,74.63,638.4,1.8,634.46V766.53C110.54,718.41,214,667.07,378.58,652.28c102.78-9.25,188.36,3.17,359.51,28,317.63,46.07,386.85,113.72,595.18,96,177.7-15.12,170.79-68,323.56-64,124.39,3.28,183.06,39.78,265,71.1V603.15A541.72,541.72,0,0,0,1864.54,588.28Z"/><path class="cls-2" d="M1846.37,762c-55-8.52-80.86,8.18-140.22,10.71-80.84,3.43-90-25.12-201.06-38.25-70.31-8.3-126.77-4-198.42,1.53-118.78,9.12-114.25,22.81-195.77,26-51.42,2-62.59-3.06-272.49-29.07C696.87,715.41,671.73,714,640,714.59c-82.61,1.58-107.73,15-193.12,27.53C246,771.5,183.49,726.49,10.35,762c-3.41.7-6.86,1.43-10.32,2.18v74.73c15.44-.08,26.49-.36,28.84-.43,222.49-6.15,282.59-68.66,492.07-79.54,68.07-3.53,124.75,1.21,238.1,10.71,210.37,17.62,256.21,43.49,394.19,36.71,117.69-5.78,113.12-26,214.29-24.47,128.36,2,151.06,34.75,291,42.83,123.69,7.13,257.7-9.74,261.91-30.6C1922.92,781.85,1880.56,767.3,1846.37,762Z"/></g></g></g></svg>