<svg xmlns="http://www.w3.org/2000/svg" xmlns:xlink="http://www.w3.org/1999/xlink" viewBox="0 0 512.88 399.54"><defs><style>.cls-1{fill:none;}.cls-2{isolation:isolate;}.cls-13,.cls-3{opacity:0.3;}.cls-4{fill:#b88937;}.cls-5{fill:#ffc45f;}.cls-6{fill:#bda45d;}.cls-7{fill:#cca439;}.cls-8{fill:#fff;}.cls-9{fill:#002d6a;}.cls-24,.cls-9{opacity:0.4;}.cls-13,.cls-9{mix-blend-mode:multiply;}.cls-10{fill:#d8531e;}.cls-11{fill:#ba4211;}.cls-12{fill:#231f20;}.cls-13{fill:#623690;}.cls-14{fill:#c96d2f;}.cls-15{fill:#b76629;}.cls-16{fill:#a85822;}.cls-17{fill:#8e4717;}.cls-18{fill:#773910;}.cls-19{fill:#edba15;}.cls-20{fill:#f7c331;}.cls-21{fill:#d89b03;}.cls-22{clip-path:url(#clip-path);}.cls-23{fill:#ffce45;}.cls-24{fill:#666;}.cls-25{fill:#c69c6d;}.cls-26{fill:#7a9c1a;}.cls-27{fill:#bbde80;}</style><clipPath id="clip-path"><polygon class="cls-1" points="304.18 103.7 359.08 118.72 415.42 108.47 302.01 84.92 304.18 103.7"/></clipPath></defs><title>pirat</title><g class="cls-2"><g id="Layer_2" data-name="Layer 2"><g id="map"><g id="pirates"><g id="island"><path class="cls-3" d="M412.61,118.9c-55.65-4-118.22-4.32-136.07-4.32-43.25,0-71.32,25.33-96.1,47.69-9.6,8.66-18.67,16.85-28.33,23.55C125.84,204,136,220.56,145.77,236.58c5.25,8.58,10.67,17.45,11.86,27.61,3.13,27.11,49.21,38.55,113,54.38,16.62,4.12,33.81,8.39,51.51,13.26,14.1,3.9,27,5.88,38.31,5.88h0c37.2,0,45.54-20.37,47.21-26.61,3-11.17-1.44-22.73-10.77-28.1-3-1.73-4.68-3.67-5.2-5.93-1.42-6.2,5.14-15.85,12.08-26.06,10.62-15.64,23.85-35.1,15.15-54-1.74-3.79-1-6.06-.36-7.45,4.53-9.29,28.88-15.05,48.44-19.69,26.06-6.17,48.56-11.5,45.61-25.84C510.91,135.57,498,125.06,412.61,118.9Z"/><path class="cls-4" d="M508.69,120.32l-26.41,6c-51-11.41-161.69-13-205.74-13-57.53,0-86.27,45.63-122.14,70.52-.88.61-1.67,1.2-2.46,1.8H139.43v20h0c.07,15.74,19.65,31.29,22.17,52.8,3.57,31,78.89,41.46,161.59,64.23,58.66,16.22,81.06-5.27,81.35-23.54l0-20.5-6.72,4.72a18.41,18.41,0,0,0-3-2.17c-25.24-14.63,22.15-45.41,22.83-75.79h0V184.64l-3.9,3.13c-1.06-27.89,99.4-26.13,94.84-48.27Z"/><path class="cls-5" d="M276.54,94.08c-57.53,0-86.27,45.63-122.14,70.52s3.57,43.47,7.22,74.62,78.89,41.46,161.59,64.23,93.33-29,71.68-41.49c-28.58-16.56,36-53.85,20.39-87.79-15.48-33.79,98.25-30.34,93.41-53.85S333.86,94.08,276.54,94.08Z"/><path class="cls-6" d="M247.48,189.56a9.62,9.62,0,0,0-8.71,0c-2.41,1.38-2.4,3.63,0,5a9.62,9.62,0,0,0,8.71,0C249.88,193.2,249.88,190.94,247.48,189.56Z"/><path class="cls-6" d="M294.9,197.2a9.62,9.62,0,0,0-8.71,0c-2.41,1.38-2.4,3.63,0,5a9.62,9.62,0,0,0,8.71,0C297.3,200.83,297.3,198.58,294.9,197.2Z"/><path class="cls-6" d="M469.18,117a16.1,16.1,0,0,0-14.59,0c-4,2.32-4,6.1,0,8.42a16.1,16.1,0,0,0,14.59,0C473.21,123.1,473.21,119.32,469.18,117Z"/><path class="cls-6" d="M183.12,246.08a5.21,5.21,0,0,0-4.68,0c-1.3.75-1.3,2,0,2.71a5.21,5.21,0,0,0,4.68,0C184.41,248,184.41,246.83,183.12,246.08Z"/><path class="cls-6" d="M165.49,195.28a5.21,5.21,0,0,0-4.68,0c-1.29.75-1.29,2,0,2.7a5.18,5.18,0,0,0,4.68,0C166.78,197.24,166.78,196,165.49,195.28Z"/><path class="cls-6" d="M238,124a9.07,9.07,0,0,0-8.24,0c-2.27,1.31-2.27,3.44,0,4.75a9.13,9.13,0,0,0,8.24,0C240.27,127.44,240.27,125.31,238,124Z"/><path class="cls-6" d="M332.85,251.3a9.6,9.6,0,0,0-8.7,0c-2.41,1.39-2.41,3.64,0,5a9.6,9.6,0,0,0,8.7,0C335.26,254.94,335.26,252.69,332.85,251.3Z"/><path class="cls-6" d="M186.18,170.71a9.6,9.6,0,0,0-8.7,0c-2.41,1.39-2.41,3.64,0,5a9.6,9.6,0,0,0,8.7,0C188.59,174.35,188.59,172.1,186.18,170.71Z"/><path class="cls-7" d="M259.4,192a5.42,5.42,0,0,0-4.93,0c-1.36.78-1.36,2.06,0,2.85a5.49,5.49,0,0,0,4.93,0C260.76,194.09,260.76,192.81,259.4,192Z"/><path class="cls-7" d="M220,131.6a5.42,5.42,0,0,0-4.93,0c-1.36.78-1.36,2.06,0,2.84a5.42,5.42,0,0,0,4.93,0C221.31,133.66,221.31,132.38,220,131.6Z"/><path class="cls-7" d="M424.24,109.25a5.49,5.49,0,0,0-4.93,0c-1.36.79-1.36,2.06,0,2.85a5.49,5.49,0,0,0,4.93,0C425.61,111.31,425.61,110,424.24,109.25Z"/><path class="cls-7" d="M308.05,253.23a5.42,5.42,0,0,0-4.93,0c-1.37.78-1.37,2.06,0,2.84a5.42,5.42,0,0,0,4.93,0C309.41,255.29,309.41,254,308.05,253.23Z"/><path class="cls-7" d="M328.67,267.53a5.46,5.46,0,0,0-4.92,0c-1.37.79-1.37,2.06,0,2.85a5.4,5.4,0,0,0,4.92,0C330,269.59,330,268.32,328.67,267.53Z"/><path class="cls-7" d="M297.28,272.87a5.49,5.49,0,0,0-4.93,0c-1.36.79-1.36,2.06,0,2.85a5.49,5.49,0,0,0,4.93,0C298.64,274.93,298.64,273.66,297.28,272.87Z"/><path class="cls-7" d="M388,191.7a10.51,10.51,0,0,0-9.46,0c-2.62,1.51-2.62,4,0,5.47a10.51,10.51,0,0,0,9.46,0C390.57,195.66,390.57,193.21,388,191.7Z"/><path class="cls-7" d="M204.63,169.5a14.4,14.4,0,0,0-13,0c-3.59,2.07-3.59,5.43,0,7.51a14.4,14.4,0,0,0,13,0C208.22,174.93,208.22,171.57,204.63,169.5Z"/></g><g id="waves"><path class="cls-8" d="M212.73,373.44c-9.28,14.84-53,26.36-51.25,26.09,0,0,35.44-.64,51.93-19.42,31,6.9,46.46-1.48,46.46-1.48S238.67,384,212.73,373.44Z"/><path class="cls-8" d="M51.3,320.56C42,335.4-1.67,346.92.05,346.65c0,0,35.44-.65,51.93-19.42,31,6.9,46.46-1.48,46.46-1.48S77.24,331.14,51.3,320.56Z"/><path class="cls-8" d="M307.37,333.61c-8.21,13.12-33.52,17.06-33.52,17.06s23.18-.42,34-12.7c20.3,4.51,30.39-1,30.39-1S324.33,340.52,307.37,333.61Z"/><path class="cls-8" d="M470,293c-5.54,8.87-22.64,11.53-22.64,11.53s15.66-.29,22.94-8.58c13.71,3.05,20.52-.65,20.52-.65S481.49,297.71,470,293Z"/><path class="cls-8" d="M67.33,249C61.79,257.84,44.7,260.5,44.7,260.5s15.65-.28,22.93-8.58c13.71,3.05,20.52-.65,20.52-.65S78.79,253.65,67.33,249Z"/><path class="cls-8" d="M417,347.63c-8.21,13.13-33.52,17.07-33.52,17.07s23.18-.43,34-12.71c20.3,4.52,30.39-1,30.39-1S434,354.55,417,347.63Z"/><path class="cls-8" d="M114.06,361.23c-8.21,13.13-33.52,17.06-33.52,17.06s23.18-.42,34-12.7c20.3,4.51,30.38-1,30.38-1S131,368.14,114.06,361.23Z"/></g><g id="boat"><path class="cls-9" d="M74.42,335.37c34.81-3.48,53.42-7.72,92.24-8s68.46-3.26,82.55-3.81c23.69-.93,44.28,7.78,26.77,9.73s-14.15,4,2.44,3.12,28.7,8.07,10.3,9.79c-25.08,2.35-23.5,2.45-41.75,3.28s-52.26-.83-79.64,2.49-48.94,3.32-66.36.83S5.74,342.24,74.42,335.37Z"/><path class="cls-10" d="M128.1,90.25a5.82,5.82,0,1,1-6-5.65A5.83,5.83,0,0,1,128.1,90.25Z"/><path class="cls-11" d="M122.36,93s48.06,170.2,49,234l12,.05s-11-103.95-59.13-234.48Z"/><path class="cls-10" d="M97.75,268.75s114.5-10.45,122.62-8S76.52,278.05,97.75,268.75Z"/><path class="cls-10" d="M87.13,178.63s114.49-10.44,122.61-8S65.89,187.93,87.13,178.63Z"/><path class="cls-10" d="M94.14,115.76s80.63-15.85,86.58-14.69S79.74,123.94,94.14,115.76Z"/><path class="cls-12" d="M87.13,178.81s36.72,53.69,17.19,89.53c0,0,71.67-25.46,109.76-7.75,0,0,7-64.84-13.18-87.49C200.9,173.1,137.49,202.44,87.13,178.81Z"/><path class="cls-12" d="M91.73,116.94s18.65,28.48,7.56,60.79c0,0,41.36-19.95,95.39-7,0,0,3.28-44.88-20.87-67C173.81,103.71,134.55,131.09,91.73,116.94Z"/><path class="cls-10" d="M116.47,90.56s-23.71-8.09-32.25-1.14a17.82,17.82,0,0,0-6.26,17,57.72,57.72,0,0,1-26.1,1.13s19.74,11.79,27.7,8.21,5.74-11.36,23.3-11.32c14.57,0,23.15.56,23.15.56S110,99,116.47,90.56Z"/><path class="cls-10" d="M66.77,269.58s47.26,3.78,62.38-1.26l6.3,29.62s56.71,6.93,72.46-7.56-9.45-47.89,84.44-49.78c0,0-8.82,15.75-14.49,43.47s-27.73,58-79.4,59.86S80.63,353.39,66.77,269.58Z"/><path class="cls-13" d="M238.42,248.34a18.14,18.14,0,0,0,1,3.6s33.37-1.9,31.48,10.39-18.91,61.44-56.72,69-97.82,11-116.25-15.12-26.34-42.16-4.64-41.83c6.66.1,8.32-1.36,7.28-3.44-16.85,0-33.83-1.36-33.83-1.36,13.86,83.81,80,76.24,131.69,74.35s73.73-32.13,79.4-59.86,14.49-43.47,14.49-43.47C266.38,241.12,249.55,244.06,238.42,248.34Z"/><path class="cls-11" d="M164.23,303.17c-8,0-15.47-.34-20.79-.68-10.68-.67-12.39-6.15-12.65-8.28l-4.46-21c-19.08,4.64-59.65-1.62-64.57-2.4a3.78,3.78,0,0,1,1.2-7.47c13.89,2.22,52.59,6.84,64.67,1.53a3.69,3.69,0,0,1,3.24.1,3.75,3.75,0,0,1,2,2.57l5.38,25.28c0,.16.05.33.07.5.28.41,1.74,1.4,5.62,1.64,31.6,2,57.67-.75,60.66-6.35a65,65,0,0,0,3.65-9.85c3.92-12.44,9.31-29.47,29.5-34.17,24.09-5.62,59.16-8.27,60.64-8.38a3.71,3.71,0,0,1,4.05,3.49,3.79,3.79,0,0,1-3.49,4.05c-.36,0-36,2.72-59.48,8.2-16,3.73-20.26,17.2-24,29.09a68.57,68.57,0,0,1-4.19,11.12C206.46,301.17,183.61,303.17,164.23,303.17Z"/><path class="cls-11" d="M135.77,318.57a8,8,0,1,1-8-8A8,8,0,0,1,135.77,318.57Z"/><path class="cls-11" d="M177.83,320a8,8,0,1,1-8-8A8,8,0,0,1,177.83,320Z"/><path class="cls-11" d="M221.3,313.37a8,8,0,1,1-8-8A8,8,0,0,1,221.3,313.37Z"/><path class="cls-8" d="M140.7,229.06c1.5,2.75,7.27,2.11,8.33,2.27s1.85,6,2,6.91.58.58.75.14.3-.66,1.08-.12,1.16.06,1.33-.39.52-.71,1.15,0,1.43-.19,1.61-.64.86-.39,1.44.11,1-.09,1.05-.52.79-.7,1.46-.31,1.33.36,1.43-.09a64.06,64.06,0,0,0-.95-7c-.31-1.56,3.17-2.6,5.34-3.56s2.79-3.34,2.4-6.11-.62-9.46-7-14.73-14.84-1.67-14.84-1.67c-2.21.67-6,1.25-9.26,9.64C135,220.72,139.19,226.28,140.7,229.06Zm14.53-15.17s.33-1.78,3.43-2.17,6.54,2.62,7.13,5.55-.88,4.46-2.91,5.76a5.71,5.71,0,0,1-7.43-2C153.89,218.23,154,215.37,155.23,213.89Zm-3.46,7.86a5.71,5.71,0,0,1-6,4.82c-2.38-.4-4.34-1.29-4.95-4.15s1.28-7,4.36-7.92,4,.63,4,.63C150.92,216,152.11,218.59,151.77,221.75Zm3.32,3.62s2.21,2.53,2.17,3.34-1.3,1.09-1.84,1.08a3,3,0,0,1-2-1.1C153.08,228.12,154.26,224.37,155.09,225.37Z"/><path class="cls-8" d="M136.19,211.26s-5-2.22-5.34-2.49-.21-2.29-1.29-2.71-1.42-.69-2.4-.21a1.15,1.15,0,0,0-.66,1.72c.26.64,1.28.46.51,1.28s-1.53.36-2,.66-1.21,1.11-.69,1.9.73,2.11,2,1.9,1.84-.4,2.41-1.26,2.81.11,3.48.64,3.26.78,3.26.78Z"/><path class="cls-8" d="M148.14,232.52l.78,2.6L142.34,243a7.21,7.21,0,0,0,.41,2.28c.36.74.16,1.5-.48,1.7s-2.23.1-2.43-.54a8.42,8.42,0,0,1-.15-1.93l-1.2-.21s-1.14.91-1.55.47-1.2-1.19-.89-2,.39-1.52,1.21-1.63,1.46-.3,1.84,0,1.28,0,1.28,0Z"/><path class="cls-8" d="M165.42,205.24s3.72-4,3.93-4.41-.72-2.18.1-3,1-1.2,2.12-1.15,1.27.63,1.29,1.32-1,.93,0,1.38,1.56-.27,2.09-.18,1.56.54,1.4,1.47.16,2.23-1.13,2.55-1.85.37-2.72-.19-2.54,1.2-2.95,2-2.68,2-2.68,2Z"/><path class="cls-8" d="M162.85,229.49l.3,2.69,9,3.64a7.17,7.17,0,0,1,.52,2.25c0,.83.44,1.45,1.11,1.38s2.09-.79,2-1.46a8.59,8.59,0,0,0-.62-1.83l1-.66s1.41.38,1.61-.19.64-1.57,0-2.18-1-1.25-1.74-1-1.47.3-1.69.73-1.16.55-1.16.55Z"/></g><g id="treasures"><path class="cls-14" d="M302.73,81.45s8.67-19.36,25.43-14.16,10.4,29.76,10.4,29.76Z"/><polygon class="cls-15" points="297.24 103.41 359.65 120.75 396.35 113.81 337.69 97.05 297.24 103.41"/><polygon class="cls-16" points="297.24 103.41 297.24 142.13 359.65 164.67 359.65 120.75 297.24 103.41"/><polygon class="cls-14" points="359.65 120.75 396.35 113.81 396.35 153.11 359.65 164.67 359.65 120.75"/><polygon class="cls-17" points="302.73 81.45 359.65 96.48 396.35 113.81 337.69 97.05 302.73 81.45"/><path class="cls-18" d="M337.69,97.05s6.94-19.07-5.77-25.42-29.19,9.82-29.19,9.82Z"/><path class="cls-14" d="M359.65,96.48s8.67-19.36,25.43-14.16,11.27,31.49,11.27,31.49Z"/><path class="cls-16" d="M302.73,81.45l56.92,15s11-20.81,27.74-13.29l-59.23-15.9S313.71,61.51,302.73,81.45Z"/><polygon class="cls-17" points="304.18 103.7 359.08 118.72 389.99 113.23 337.98 98.21 304.18 103.7"/><polygon class="cls-17" points="321.08 68.02 368.18 81.02 365.87 81.31 319.93 68.59 321.08 68.02"/><polygon class="cls-17" points="314.15 74.95 361.24 87.95 358.93 88.24 312.99 75.53 314.15 74.95"/><polygon class="cls-14" points="337.98 98.21 337.98 113.23 304.18 103.7 337.98 98.21"/><polygon class="cls-17" points="297.24 111.5 359.37 133.17 359.37 131.15 296.95 109.48 297.24 111.5"/><path class="cls-19" d="M302.73,81.45s8.67-18.2,24.27-15l4.92,1.15s-13-3.46-24.56,15.32Z"/><path class="cls-19" d="M359.65,96.48l-7.8-1.74s12.43-18.2,22-15.89l11.27,3.47S373.81,76.83,359.65,96.48Z"/><path class="cls-19" d="M348.67,117.86l4.05-.87,6.36,1.73,8.38-1.73,3.75,1.45v5.77L364,126.53v7.8l-4.05.86-4.33-1.73v-8.09l-6.94-2.31Z"/><polygon class="cls-17" points="359.37 130.28 396.2 121.18 396.2 123.13 359.37 132.31 359.37 130.28"/><polygon class="cls-20" points="359.94 135.19 359.94 121.04 371.21 118.44 371.21 124.22 363.99 126.53 363.99 134.33 359.94 135.19"/><polygon class="cls-17" points="359.37 153.9 396.64 144.37 396.64 146.32 359.37 155.93 359.37 153.9"/><polygon class="cls-21" points="348.67 117.86 359.94 121.04 359.94 135.19 355.61 133.46 355.61 125.37 348.67 123.06 348.67 117.86"/><polygon class="cls-17" points="298.69 135.48 359.65 156.87 359.65 154.84 297.24 133.17 298.69 135.48"/><polygon class="cls-17" points="297.24 123.64 359.37 145.31 359.37 143.28 296.95 121.61 297.24 123.64"/><polygon class="cls-21" points="348.1 160.33 348.1 155.42 355.03 158.02 355.03 149.93 359.37 151.66 363.41 150.22 363.41 157.44 369.48 156 369.48 161.2 359.65 164.67 348.1 160.33"/><polygon class="cls-20" points="359.37 151.66 359.37 164.67 369.48 161.2 369.48 156 363.41 157.44 363.41 150.22 359.37 151.66"/><polygon class="cls-21" points="304.18 103.7 311.4 102.25 308.51 101.1 297.24 103.41 297.24 117.57 300.42 118.44 300.42 108.03 306.49 110.06 306.49 106.59 310.82 105.72 304.18 103.7"/><polygon class="cls-19" points="297.24 103.41 306.49 106.59 310.82 105.72 304.18 103.7 311.4 102.25 308.51 101.1 297.24 103.41"/><polygon class="cls-21" points="315.45 108.61 315.45 124.22 332.2 129.42 332.2 113.23 335.38 112.37 319.06 107.89 315.45 108.61"/><polygon class="cls-19" points="315.45 108.61 332.2 113.23 335.38 112.37 319.06 107.89 315.45 108.61"/><path class="cls-21" d="M318.62,85.5a18.21,18.21,0,0,1,4.92-6.65L340,82.9a22.88,22.88,0,0,0-4.63,6.64Z"/><polyline class="cls-16" points="315.45 84.92 302.73 81.45 337.69 97.05 396.35 113.81 359.65 96.48 315.45 84.92 316.89 86.08 359.08 97.34 385.95 109.77 337.69 95.61 312.85 85.21 319.2 86.65"/><path class="cls-16" d="M365.43,96.19s10.69-15.61,20.81-9.83S394,108.9,394,108.9Z"/><polygon class="cls-19" points="385.66 114.1 389.13 114.97 389.13 121.04 393.75 120.17 393.75 128.55 396.35 127.97 396.35 113.81 387.39 110.92 384.5 111.21 389.99 113.23 385.66 114.1"/><polygon class="cls-20" points="389.13 114.97 396.35 113.81 396.35 127.97 393.75 128.55 393.75 120.17 389.13 121.04 389.13 114.97"/><polygon class="cls-19" points="297.24 142.13 303.31 144.15 303.02 139.82 299.84 138.66 299.84 134.04 297.24 133.17 297.24 142.13"/><polygon class="cls-17" points="359.37 143.28 396.64 133.75 396.64 135.7 359.37 145.31 359.37 143.28"/><g class="cls-22"><path class="cls-19" d="M322.09,99.4v1.52h9.39V99.4S322.09,99.11,322.09,99.4Z"/><path class="cls-19" d="M331.48,100.92c0,.9-2.1,1.62-4.69,1.62s-4.7-.72-4.7-1.62,2.1-1.62,4.7-1.62S331.48,100,331.48,100.92Z"/><path class="cls-23" d="M331.48,99.4c0,.89-2.1,1.62-4.69,1.62s-4.7-.73-4.7-1.62,2.1-1.62,4.7-1.62S331.48,98.5,331.48,99.4Z"/><path class="cls-19" d="M312.41,102v1.52h9.39V102S312.41,101.71,312.41,102Z"/><path class="cls-19" d="M321.8,103.52c0,.9-2.1,1.62-4.69,1.62s-4.7-.72-4.7-1.62,2.1-1.62,4.7-1.62S321.8,102.63,321.8,103.52Z"/><path class="cls-23" d="M321.8,102c0,.89-2.1,1.62-4.69,1.62s-4.7-.73-4.7-1.62,2.1-1.62,4.7-1.62S321.8,101.1,321.8,102Z"/><path class="cls-19" d="M323,94.92v1.52h9.39V94.92S323,94.63,323,94.92Z"/><path class="cls-19" d="M332.35,96.44c0,.9-2.1,1.63-4.7,1.63S323,97.34,323,96.44s2.1-1.62,4.69-1.62S332.35,95.55,332.35,96.44Z"/><path class="cls-23" d="M332.35,94.92c0,.89-2.1,1.62-4.7,1.62S323,95.81,323,94.92s2.1-1.62,4.69-1.62S332.35,94,332.35,94.92Z"/><path class="cls-19" d="M320.94,102.14v1.53h9.39v-1.53S320.94,101.86,320.94,102.14Z"/><path class="cls-19" d="M330.33,103.67c0,.89-2.11,1.62-4.7,1.62s-4.69-.73-4.69-1.62,2.1-1.62,4.69-1.62S330.33,102.77,330.33,103.67Z"/><path class="cls-23" d="M330.33,102.14c0,.9-2.11,1.62-4.7,1.62s-4.69-.72-4.69-1.62,2.1-1.62,4.69-1.62S330.33,101.25,330.33,102.14Z"/><path class="cls-19" d="M310.25,98.39v1.52h9.1V98.39S310.25,98.1,310.25,98.39Z"/><path class="cls-19" d="M319.35,99.91c0,.9-2,1.62-4.55,1.62s-4.55-.72-4.55-1.62,2-1.62,4.55-1.62S319.35,99,319.35,99.91Z"/><path class="cls-23" d="M319.35,98.39c0,.89-2,1.62-4.55,1.62s-4.55-.73-4.55-1.62,2-1.62,4.55-1.62S319.35,97.49,319.35,98.39Z"/><path class="cls-19" d="M324.19,99.11v1.52h9.39V99.11S324.19,98.82,324.19,99.11Z"/><path class="cls-19" d="M333.58,100.63c0,.9-2.11,1.63-4.7,1.63s-4.69-.73-4.69-1.63,2.1-1.62,4.69-1.62S333.58,99.74,333.58,100.63Z"/><path class="cls-23" d="M333.58,99.11c0,.89-2.11,1.62-4.7,1.62s-4.69-.73-4.69-1.62,2.1-1.62,4.69-1.62S333.58,98.21,333.58,99.11Z"/><path class="cls-19" d="M331,102.43V104h9.39v-1.53S331,102.15,331,102.43Z"/><path class="cls-19" d="M340.37,104c0,.89-2.11,1.62-4.7,1.62S331,104.85,331,104s2.1-1.62,4.69-1.62S340.37,103.06,340.37,104Z"/><path class="cls-23" d="M340.37,102.43c0,.9-2.11,1.62-4.7,1.62s-4.69-.72-4.69-1.62,2.1-1.62,4.69-1.62S340.37,101.54,340.37,102.43Z"/><path class="cls-19" d="M319.35,98.24v1.53h9.39V98.24S319.35,98,319.35,98.24Z"/><path class="cls-19" d="M328.74,99.77c0,.89-2.1,1.62-4.7,1.62s-4.69-.73-4.69-1.62,2.1-1.62,4.69-1.62S328.74,98.87,328.74,99.77Z"/><path class="cls-23" d="M328.74,98.24c0,.9-2.1,1.62-4.7,1.62s-4.69-.72-4.69-1.62,2.1-1.62,4.69-1.62S328.74,97.35,328.74,98.24Z"/><path class="cls-19" d="M329.1,96.94v1.53h9.39V96.94S329.1,96.66,329.1,96.94Z"/><path class="cls-19" d="M338.49,98.47c0,.89-2.1,1.62-4.7,1.62s-4.69-.73-4.69-1.62,2.1-1.62,4.69-1.62S338.49,97.57,338.49,98.47Z"/><path class="cls-23" d="M338.49,96.94c0,.9-2.1,1.62-4.7,1.62s-4.69-.72-4.69-1.62,2.1-1.62,4.69-1.62S338.49,96.05,338.49,96.94Z"/><path class="cls-19" d="M340.22,102.58v1.52h9.39v-1.52S340.22,102.29,340.22,102.58Z"/><path class="cls-19" d="M349.61,104.1c0,.9-2.1,1.62-4.69,1.62s-4.7-.72-4.7-1.62,2.1-1.62,4.7-1.62S349.61,103.21,349.61,104.1Z"/><path class="cls-23" d="M349.61,102.58c0,.89-2.1,1.62-4.69,1.62s-4.7-.73-4.7-1.62,2.1-1.62,4.7-1.62S349.61,101.68,349.61,102.58Z"/><path class="cls-19" d="M346.29,102.58v1.52h9.39v-1.52S346.29,102.29,346.29,102.58Z"/><path class="cls-19" d="M355.68,104.1c0,.9-2.1,1.62-4.69,1.62s-4.7-.72-4.7-1.62,2.1-1.62,4.7-1.62S355.68,103.21,355.68,104.1Z"/><path class="cls-23" d="M355.68,102.58c0,.89-2.1,1.62-4.69,1.62s-4.7-.73-4.7-1.62,2.1-1.62,4.7-1.62S355.68,101.68,355.68,102.58Z"/><path class="cls-19" d="M333.29,99.54v1.53h9.39V99.54S333.29,99.26,333.29,99.54Z"/><path class="cls-19" d="M342.68,101.07c0,.89-2.1,1.62-4.7,1.62s-4.69-.73-4.69-1.62,2.1-1.62,4.69-1.62S342.68,100.17,342.68,101.07Z"/><path class="cls-23" d="M342.68,99.54c0,.9-2.1,1.62-4.7,1.62s-4.69-.72-4.69-1.62,2.1-1.62,4.69-1.62S342.68,98.65,342.68,99.54Z"/><path class="cls-19" d="M342.82,99.69v1.52h9.39V99.69S342.82,99.4,342.82,99.69Z"/><path class="cls-19" d="M352.21,101.21c0,.9-2.1,1.62-4.69,1.62s-4.7-.72-4.7-1.62,2.11-1.62,4.7-1.62S352.21,100.32,352.21,101.21Z"/><path class="cls-23" d="M352.21,99.69c0,.89-2.1,1.62-4.69,1.62s-4.7-.73-4.7-1.62,2.11-1.62,4.7-1.62S352.21,98.79,352.21,99.69Z"/><path class="cls-19" d="M305.19,102.86v1.53h9.39v-1.53S305.19,102.58,305.19,102.86Z"/><path class="cls-19" d="M314.58,104.39c0,.9-2.1,1.62-4.7,1.62s-4.69-.72-4.69-1.62,2.1-1.62,4.69-1.62S314.58,103.5,314.58,104.39Z"/><path class="cls-23" d="M314.58,102.86c0,.9-2.1,1.63-4.7,1.63s-4.69-.73-4.69-1.63,2.1-1.62,4.69-1.62S314.58,102,314.58,102.86Z"/><path class="cls-19" d="M312.7,106.19v1.52h9.39v-1.52S312.7,105.9,312.7,106.19Z"/><path class="cls-19" d="M322.09,107.71c0,.9-2.1,1.62-4.69,1.62s-4.7-.72-4.7-1.62,2.1-1.62,4.7-1.62S322.09,106.82,322.09,107.71Z"/><path class="cls-23" d="M322.09,106.19c0,.89-2.1,1.62-4.69,1.62s-4.7-.73-4.7-1.62,2.1-1.62,4.7-1.62S322.09,105.29,322.09,106.19Z"/><path class="cls-19" d="M304.61,106.19v1.52H314v-1.52S304.61,105.9,304.61,106.19Z"/><path class="cls-19" d="M314,107.71c0,.9-2.1,1.62-4.69,1.62s-4.7-.72-4.7-1.62,2.1-1.62,4.7-1.62S314,106.82,314,107.71Z"/><path class="cls-23" d="M314,106.19c0,.89-2.1,1.62-4.69,1.62s-4.7-.73-4.7-1.62,2.1-1.62,4.7-1.62S314,105.29,314,106.19Z"/><path class="cls-19" d="M323.25,99.11v1.52h9.39V99.11S323.25,98.82,323.25,99.11Z"/><path class="cls-19" d="M332.64,100.63c0,.9-2.1,1.63-4.7,1.63s-4.69-.73-4.69-1.63,2.1-1.62,4.69-1.62S332.64,99.74,332.64,100.63Z"/><path class="cls-23" d="M332.64,99.11c0,.89-2.1,1.62-4.7,1.62s-4.69-.73-4.69-1.62,2.1-1.62,4.69-1.62S332.64,98.21,332.64,99.11Z"/><path class="cls-19" d="M321.22,106.33v1.53h9.4v-1.53S321.22,106.05,321.22,106.33Z"/><path class="cls-19" d="M330.62,107.86c0,.89-2.11,1.62-4.7,1.62s-4.7-.73-4.7-1.62,2.11-1.62,4.7-1.62S330.62,107,330.62,107.86Z"/><path class="cls-23" d="M330.62,106.33c0,.9-2.11,1.62-4.7,1.62s-4.7-.72-4.7-1.62,2.11-1.62,4.7-1.62S330.62,105.44,330.62,106.33Z"/><path class="cls-19" d="M310.25,102.58v1.52h9.39v-1.52S310.25,102.29,310.25,102.58Z"/><path class="cls-19" d="M319.64,104.1c0,.9-2.11,1.62-4.7,1.62s-4.69-.72-4.69-1.62,2.1-1.62,4.69-1.62S319.64,103.21,319.64,104.1Z"/><path class="cls-23" d="M319.64,102.58c0,.89-2.11,1.62-4.7,1.62s-4.69-.73-4.69-1.62,2.1-1.62,4.69-1.62S319.64,101.68,319.64,102.58Z"/><path class="cls-19" d="M324.48,103.3v1.52h9.39V103.3S324.48,103,324.48,103.3Z"/><path class="cls-19" d="M333.87,104.82c0,.9-2.11,1.62-4.7,1.62s-4.69-.72-4.69-1.62,2.1-1.62,4.69-1.62S333.87,103.93,333.87,104.82Z"/><path class="cls-23" d="M333.87,103.3c0,.89-2.11,1.62-4.7,1.62s-4.69-.73-4.69-1.62,2.1-1.62,4.69-1.62S333.87,102.4,333.87,103.3Z"/><path class="cls-19" d="M331.27,106.62v1.53h9.39v-1.53S331.27,106.34,331.27,106.62Z"/><path class="cls-19" d="M340.66,108.15c0,.89-2.11,1.62-4.7,1.62s-4.69-.73-4.69-1.62,2.1-1.62,4.69-1.62S340.66,107.25,340.66,108.15Z"/><path class="cls-23" d="M340.66,106.62c0,.9-2.11,1.62-4.7,1.62s-4.69-.72-4.69-1.62S333.37,105,336,105,340.66,105.73,340.66,106.62Z"/><path class="cls-19" d="M319.64,102.43V104H329v-1.53S319.64,102.15,319.64,102.43Z"/><path class="cls-19" d="M329,104c0,.89-2.11,1.62-4.7,1.62s-4.69-.73-4.69-1.62,2.1-1.62,4.69-1.62S329,103.06,329,104Z"/><path class="cls-23" d="M329,102.43c0,.9-2.11,1.62-4.7,1.62s-4.69-.72-4.69-1.62,2.1-1.62,4.69-1.62S329,101.54,329,102.43Z"/><path class="cls-19" d="M329.39,101.13v1.53h9.39v-1.53S329.39,100.85,329.39,101.13Z"/><path class="cls-19" d="M338.78,102.66c0,.89-2.1,1.62-4.7,1.62s-4.69-.73-4.69-1.62,2.1-1.62,4.69-1.62S338.78,101.76,338.78,102.66Z"/><path class="cls-23" d="M338.78,101.13c0,.9-2.1,1.62-4.7,1.62s-4.69-.72-4.69-1.62,2.1-1.62,4.69-1.62S338.78,100.24,338.78,101.13Z"/><path class="cls-19" d="M340.51,106.77v1.52h9.39v-1.52S340.51,106.48,340.51,106.77Z"/><path class="cls-19" d="M349.9,108.29c0,.9-2.1,1.62-4.69,1.62s-4.7-.72-4.7-1.62,2.1-1.62,4.7-1.62S349.9,107.4,349.9,108.29Z"/><path class="cls-23" d="M349.9,106.77c0,.89-2.1,1.62-4.69,1.62s-4.7-.73-4.7-1.62,2.1-1.63,4.7-1.63S349.9,105.87,349.9,106.77Z"/><path class="cls-19" d="M346.58,106.77v1.52H356v-1.52S346.58,106.48,346.58,106.77Z"/><path class="cls-19" d="M356,108.29c0,.9-2.1,1.62-4.7,1.62s-4.69-.72-4.69-1.62,2.1-1.62,4.69-1.62S356,107.4,356,108.29Z"/><path class="cls-23" d="M356,106.77c0,.89-2.1,1.62-4.7,1.62s-4.69-.73-4.69-1.62,2.1-1.63,4.69-1.63S356,105.87,356,106.77Z"/><path class="cls-19" d="M333.58,103.73v1.53H343v-1.53S333.58,103.45,333.58,103.73Z"/><path class="cls-19" d="M343,105.26c0,.89-2.1,1.62-4.7,1.62s-4.69-.73-4.69-1.62,2.1-1.62,4.69-1.62S343,104.36,343,105.26Z"/><path class="cls-23" d="M343,103.73c0,.9-2.1,1.62-4.7,1.62s-4.69-.72-4.69-1.62,2.1-1.62,4.69-1.62S343,102.84,343,103.73Z"/><path class="cls-19" d="M343.11,103.88v1.52h9.39v-1.52S343.11,103.59,343.11,103.88Z"/><path class="cls-19" d="M352.5,105.4c0,.9-2.1,1.62-4.69,1.62s-4.7-.72-4.7-1.62,2.1-1.62,4.7-1.62S352.5,104.51,352.5,105.4Z"/><path class="cls-23" d="M352.5,103.88c0,.89-2.1,1.62-4.69,1.62s-4.7-.73-4.7-1.62,2.1-1.62,4.7-1.62S352.5,103,352.5,103.88Z"/><path class="cls-19" d="M335.53,110.09v1.52h9.39v-1.52S335.53,109.8,335.53,110.09Z"/><path class="cls-19" d="M344.92,111.61c0,.9-2.1,1.63-4.7,1.63s-4.69-.73-4.69-1.63,2.1-1.62,4.69-1.62S344.92,110.72,344.92,111.61Z"/><path class="cls-23" d="M344.92,110.09c0,.89-2.1,1.62-4.7,1.62s-4.69-.73-4.69-1.62,2.1-1.62,4.69-1.62S344.92,109.19,344.92,110.09Z"/><path class="cls-19" d="M327.44,109.08v1.52h9.39v-1.52S327.44,108.79,327.44,109.08Z"/><path class="cls-19" d="M336.83,110.6c0,.9-2.1,1.62-4.7,1.62s-4.69-.72-4.69-1.62,2.1-1.62,4.69-1.62S336.83,109.71,336.83,110.6Z"/><path class="cls-23" d="M336.83,109.08c0,.89-2.1,1.62-4.7,1.62s-4.69-.73-4.69-1.62,2.1-1.62,4.69-1.62S336.83,108.18,336.83,109.08Z"/><path class="cls-19" d="M343,113.41v1.53h9.39v-1.53S343,113.13,343,113.41Z"/><path class="cls-19" d="M352.43,114.94c0,.89-2.1,1.62-4.69,1.62s-4.7-.73-4.7-1.62,2.1-1.62,4.7-1.62S352.43,114,352.43,114.94Z"/><path class="cls-23" d="M352.43,113.41c0,.9-2.1,1.62-4.69,1.62s-4.7-.72-4.7-1.62,2.1-1.62,4.7-1.62S352.43,112.52,352.43,113.41Z"/><path class="cls-19" d="M353.59,106.33v1.53H363v-1.53S353.59,106.05,353.59,106.33Z"/><path class="cls-19" d="M363,107.86c0,.89-2.11,1.62-4.7,1.62s-4.69-.73-4.69-1.62,2.1-1.62,4.69-1.62S363,107,363,107.86Z"/><path class="cls-23" d="M363,106.33c0,.9-2.11,1.62-4.7,1.62s-4.69-.72-4.69-1.62,2.1-1.62,4.69-1.62S363,105.44,363,106.33Z"/><path class="cls-19" d="M351.56,113.56v1.52H361v-1.52S351.56,113.27,351.56,113.56Z"/><path class="cls-19" d="M361,115.08c0,.9-2.1,1.62-4.69,1.62s-4.7-.72-4.7-1.62,2.11-1.62,4.7-1.62S361,114.19,361,115.08Z"/><path class="cls-23" d="M361,113.56c0,.89-2.1,1.62-4.69,1.62s-4.7-.73-4.7-1.62,2.11-1.63,4.7-1.63S361,112.66,361,113.56Z"/><path class="cls-19" d="M340.58,109.8v1.53H350V109.8S340.58,109.51,340.58,109.8Z"/><path class="cls-19" d="M350,111.33c0,.89-2.1,1.62-4.69,1.62s-4.7-.73-4.7-1.62,2.11-1.63,4.7-1.63S350,110.43,350,111.33Z"/><path class="cls-23" d="M350,109.8c0,.89-2.1,1.62-4.69,1.62s-4.7-.73-4.7-1.62,2.11-1.62,4.7-1.62S350,108.9,350,109.8Z"/><path class="cls-19" d="M354.81,110.52v1.53h9.39v-1.53S354.81,110.24,354.81,110.52Z"/><path class="cls-19" d="M364.2,112.05c0,.89-2.1,1.62-4.69,1.62s-4.7-.73-4.7-1.62,2.11-1.62,4.7-1.62S364.2,111.15,364.2,112.05Z"/><path class="cls-23" d="M364.2,110.52c0,.9-2.1,1.62-4.69,1.62s-4.7-.72-4.7-1.62,2.11-1.62,4.7-1.62S364.2,109.63,364.2,110.52Z"/><path class="cls-19" d="M361.6,113.84v1.53H371v-1.53S361.6,113.56,361.6,113.84Z"/><path class="cls-19" d="M371,115.37c0,.9-2.1,1.62-4.69,1.62s-4.7-.72-4.7-1.62,2.11-1.62,4.7-1.62S371,114.48,371,115.37Z"/><path class="cls-23" d="M371,113.84c0,.9-2.1,1.63-4.69,1.63s-4.7-.73-4.7-1.63,2.11-1.62,4.7-1.62S371,113,371,113.84Z"/><path class="cls-19" d="M350,109.66v1.52h9.39v-1.52S350,109.37,350,109.66Z"/><path class="cls-19" d="M359.36,111.18c0,.9-2.1,1.62-4.69,1.62s-4.7-.72-4.7-1.62,2.11-1.62,4.7-1.62S359.36,110.29,359.36,111.18Z"/><path class="cls-23" d="M359.36,109.66c0,.89-2.1,1.62-4.69,1.62s-4.7-.73-4.7-1.62,2.11-1.63,4.7-1.63S359.36,108.76,359.36,109.66Z"/><path class="cls-19" d="M359.73,108.35v1.53h9.39v-1.53S359.73,108.07,359.73,108.35Z"/><path class="cls-19" d="M369.12,109.88c0,.9-2.11,1.62-4.7,1.62s-4.69-.72-4.69-1.62,2.1-1.62,4.69-1.62S369.12,109,369.12,109.88Z"/><path class="cls-23" d="M369.12,108.35c0,.9-2.11,1.63-4.7,1.63s-4.69-.73-4.69-1.63,2.1-1.62,4.69-1.62S369.12,107.46,369.12,108.35Z"/><path class="cls-19" d="M370.85,114v1.52h9.39V114S370.85,113.7,370.85,114Z"/><path class="cls-19" d="M380.24,115.51c0,.9-2.1,1.63-4.69,1.63s-4.7-.73-4.7-1.63,2.1-1.62,4.7-1.62S380.24,114.62,380.24,115.51Z"/><path class="cls-23" d="M380.24,114c0,.89-2.1,1.62-4.69,1.62s-4.7-.73-4.7-1.62,2.1-1.62,4.7-1.62S380.24,113.09,380.24,114Z"/><path class="cls-19" d="M376.92,114v1.52h9.39V114S376.92,113.7,376.92,114Z"/><path class="cls-19" d="M386.31,115.51c0,.9-2.1,1.63-4.7,1.63s-4.69-.73-4.69-1.63,2.1-1.62,4.69-1.62S386.31,114.62,386.31,115.51Z"/><path class="cls-23" d="M386.31,114c0,.89-2.1,1.62-4.7,1.62s-4.69-.73-4.69-1.62,2.1-1.62,4.69-1.62S386.31,113.09,386.31,114Z"/><path class="cls-19" d="M363.92,111v1.52h9.39V111S363.92,110.67,363.92,111Z"/><path class="cls-19" d="M373.31,112.48c0,.9-2.11,1.62-4.7,1.62s-4.69-.72-4.69-1.62,2.1-1.62,4.69-1.62S373.31,111.59,373.31,112.48Z"/><path class="cls-23" d="M373.31,111c0,.89-2.11,1.62-4.7,1.62s-4.69-.73-4.69-1.62,2.1-1.63,4.69-1.63S373.31,110.06,373.31,111Z"/><path class="cls-19" d="M373.45,111.1v1.53h9.39V111.1S373.45,110.81,373.45,111.1Z"/><path class="cls-19" d="M382.84,112.63c0,.89-2.1,1.62-4.69,1.62s-4.7-.73-4.7-1.62,2.1-1.63,4.7-1.63S382.84,111.73,382.84,112.63Z"/><path class="cls-23" d="M382.84,111.1c0,.89-2.1,1.62-4.69,1.62s-4.7-.73-4.7-1.62,2.1-1.62,4.7-1.62S382.84,110.2,382.84,111.1Z"/><path class="cls-19" d="M335.82,114.28v1.52h9.39v-1.52S335.82,114,335.82,114.28Z"/><path class="cls-19" d="M345.21,115.8c0,.9-2.11,1.62-4.7,1.62s-4.69-.72-4.69-1.62,2.1-1.62,4.69-1.62S345.21,114.91,345.21,115.8Z"/><path class="cls-23" d="M345.21,114.28c0,.89-2.11,1.62-4.7,1.62s-4.69-.73-4.69-1.62,2.1-1.62,4.69-1.62S345.21,113.38,345.21,114.28Z"/><path class="cls-19" d="M343.33,117.6v1.53h9.39V117.6S343.33,117.31,343.33,117.6Z"/><path class="cls-19" d="M352.72,119.13c0,.89-2.1,1.62-4.7,1.62s-4.69-.73-4.69-1.62,2.1-1.62,4.69-1.62S352.72,118.23,352.72,119.13Z"/><path class="cls-23" d="M352.72,117.6c0,.9-2.1,1.62-4.7,1.62s-4.69-.72-4.69-1.62S345.43,116,348,116,352.72,116.71,352.72,117.6Z"/><path class="cls-19" d="M335.24,117.6v1.53h9.39V117.6S335.24,117.31,335.24,117.6Z"/><path class="cls-19" d="M344.63,119.13c0,.89-2.1,1.62-4.7,1.62s-4.69-.73-4.69-1.62,2.1-1.62,4.69-1.62S344.63,118.23,344.63,119.13Z"/><path class="cls-23" d="M344.63,117.6c0,.9-2.1,1.62-4.7,1.62s-4.69-.72-4.69-1.62,2.1-1.62,4.69-1.62S344.63,116.71,344.63,117.6Z"/><path class="cls-19" d="M353.87,110.52v1.53h9.4v-1.53S353.87,110.24,353.87,110.52Z"/><path class="cls-19" d="M363.27,112.05c0,.89-2.11,1.62-4.7,1.62s-4.7-.73-4.7-1.62,2.11-1.62,4.7-1.62S363.27,111.15,363.27,112.05Z"/><path class="cls-23" d="M363.27,110.52c0,.9-2.11,1.62-4.7,1.62s-4.7-.72-4.7-1.62,2.11-1.62,4.7-1.62S363.27,109.63,363.27,110.52Z"/><path class="cls-19" d="M351.85,117.75v1.52h9.39v-1.52S351.85,117.46,351.85,117.75Z"/><path class="cls-19" d="M361.24,119.27c0,.9-2.1,1.62-4.69,1.62s-4.7-.72-4.7-1.62,2.1-1.62,4.7-1.62S361.24,118.38,361.24,119.27Z"/><path class="cls-23" d="M361.24,117.75c0,.89-2.1,1.62-4.69,1.62s-4.7-.73-4.7-1.62,2.1-1.63,4.7-1.63S361.24,116.85,361.24,117.75Z"/><path class="cls-19" d="M340.87,114v1.52h9.39V114S340.87,113.7,340.87,114Z"/><path class="cls-19" d="M350.26,115.51c0,.9-2.1,1.63-4.69,1.63s-4.7-.73-4.7-1.63,2.1-1.62,4.7-1.62S350.26,114.62,350.26,115.51Z"/><path class="cls-23" d="M350.26,114c0,.89-2.1,1.62-4.69,1.62s-4.7-.73-4.7-1.62,2.1-1.62,4.7-1.62S350.26,113.09,350.26,114Z"/><path class="cls-19" d="M355.1,114.71v1.53h9.39v-1.53S355.1,114.43,355.1,114.71Z"/><path class="cls-19" d="M364.49,116.24c0,.89-2.1,1.62-4.69,1.62s-4.7-.73-4.7-1.62,2.11-1.62,4.7-1.62S364.49,115.34,364.49,116.24Z"/><path class="cls-23" d="M364.49,114.71c0,.9-2.1,1.62-4.69,1.62s-4.7-.72-4.7-1.62,2.11-1.62,4.7-1.62S364.49,113.82,364.49,114.71Z"/><path class="cls-19" d="M361.89,118v1.53h9.39V118S361.89,117.75,361.89,118Z"/><path class="cls-19" d="M371.28,119.56c0,.9-2.1,1.62-4.69,1.62s-4.7-.72-4.7-1.62,2.11-1.62,4.7-1.62S371.28,118.66,371.28,119.56Z"/><path class="cls-23" d="M371.28,118c0,.9-2.1,1.63-4.69,1.63s-4.7-.73-4.7-1.63,2.11-1.62,4.7-1.62S371.28,117.14,371.28,118Z"/><path class="cls-19" d="M350.26,113.84v1.53h9.39v-1.53S350.26,113.56,350.26,113.84Z"/><path class="cls-19" d="M359.65,115.37c0,.9-2.1,1.62-4.69,1.62s-4.7-.72-4.7-1.62,2.11-1.62,4.7-1.62S359.65,114.48,359.65,115.37Z"/><path class="cls-23" d="M359.65,113.84c0,.9-2.1,1.63-4.69,1.63s-4.7-.73-4.7-1.63,2.11-1.62,4.7-1.62S359.65,113,359.65,113.84Z"/><path class="cls-19" d="M360,112.54v1.53h9.4v-1.53S360,112.26,360,112.54Z"/><path class="cls-19" d="M369.41,114.07c0,.9-2.11,1.62-4.7,1.62s-4.7-.72-4.7-1.62,2.11-1.62,4.7-1.62S369.41,113.17,369.41,114.07Z"/><path class="cls-23" d="M369.41,112.54c0,.9-2.11,1.63-4.7,1.63s-4.7-.73-4.7-1.63,2.11-1.62,4.7-1.62S369.41,111.65,369.41,112.54Z"/><path class="cls-19" d="M371.14,118.18v1.52h9.39v-1.52S371.14,117.89,371.14,118.18Z"/><path class="cls-19" d="M380.53,119.7c0,.9-2.1,1.63-4.7,1.63s-4.69-.73-4.69-1.63,2.1-1.62,4.69-1.62S380.53,118.81,380.53,119.7Z"/><path class="cls-23" d="M380.53,118.18c0,.89-2.1,1.62-4.7,1.62s-4.69-.73-4.69-1.62,2.1-1.62,4.69-1.62S380.53,117.28,380.53,118.18Z"/><path class="cls-19" d="M377.21,118.18v1.52h9.39v-1.52S377.21,117.89,377.21,118.18Z"/><path class="cls-19" d="M386.6,119.7c0,.9-2.1,1.63-4.7,1.63s-4.69-.73-4.69-1.63,2.1-1.62,4.69-1.62S386.6,118.81,386.6,119.7Z"/><path class="cls-23" d="M386.6,118.18c0,.89-2.1,1.62-4.7,1.62s-4.69-.73-4.69-1.62,2.1-1.62,4.69-1.62S386.6,117.28,386.6,118.18Z"/><path class="cls-19" d="M351.64,106.77v1.52H361v-1.52S351.64,106.48,351.64,106.77Z"/><path class="cls-19" d="M361,108.29c0,.9-2.11,1.62-4.7,1.62s-4.69-.72-4.69-1.62,2.1-1.62,4.69-1.62S361,107.4,361,108.29Z"/><path class="cls-23" d="M361,106.77c0,.89-2.11,1.62-4.7,1.62s-4.69-.73-4.69-1.62,2.1-1.63,4.69-1.63S361,105.87,361,106.77Z"/><path class="cls-19" d="M373.74,115.29v1.52h9.39v-1.52S373.74,115,373.74,115.29Z"/><path class="cls-19" d="M383.13,116.81c0,.9-2.1,1.63-4.7,1.63s-4.69-.73-4.69-1.63,2.1-1.62,4.69-1.62S383.13,115.92,383.13,116.81Z"/><path class="cls-23" d="M383.13,115.29c0,.89-2.1,1.62-4.7,1.62s-4.69-.73-4.69-1.62,2.1-1.62,4.69-1.62S383.13,114.39,383.13,115.29Z"/></g></g><g id="palm"><path class="cls-24" d="M504.13,122.93c.06,3.49-19.83,6.57-44.44,6.87S415.08,127.52,415,124s19.83-6.56,44.44-6.86S504.06,119.44,504.13,122.93Z"/><path class="cls-25" d="M451.53,121.82c-9.11-13-37.83-51.93-60.94-58.91-45.74-13.82,8-4.27-2.62-6.17-3-.53,26-2.2,56.56,38.27,15.89,21,19.07,25.89,15.78,28.48C459.11,124.43,453.4,124.5,451.53,121.82Z"/><path class="cls-26" d="M324.84,77c-2.38-4-4-8.65-3.21-13.3.93-5.45,4.91-9.75,11.84-12.8a25.15,25.15,0,0,0-8.2.83c-6.87,1.48-8.46,6.35-9.36,5.75-.63-.42-.57-7.42-.11-9.12,1.27-4.69,5.51-11.32,12.59-13.89a19.52,19.52,0,0,1,5.19-1.11c12-.91,17.37,4,21.23,8.86A28.36,28.36,0,0,1,365.5,35.1a23.82,23.82,0,0,1,8.81-1.43c14.5.38,22.69,10.3,25.51,19.45l2.31,7.49-7-3.46a58.56,58.56,0,0,0-14.68-4.6,23.83,23.83,0,0,1,4.89,3.34c4.87,4.32,7.49,10.38,7.78,18l.34,8.61-6.06-6.08C383.14,72.15,370.45,62,361.05,64a25.06,25.06,0,0,0-.54,12l2.73,10.66L355,79.4c-4.25-3.78-6.29-9-7.24-12.78a32.78,32.78,0,0,1-.82-4.38c-3.09,1.26-9.92,4.9-10.41,9.18-.84,7.41,4.73,20.27,4.73,20.27S328.54,83.25,324.84,77Z"/><path class="cls-27" d="M361.07,51c9.24-7.33,26.76,1.34,26.76,1.34a18.88,18.88,0,0,0-17.9-13.65c-10-.27-15.59,8.5-15.59,8.5-3.32-4.39-6.42-7.43-16.68-8.73-11.5-1.45-13.83,11.67-12.78,11.26,10.79-4.19,20.87.24,20.87.24C312.56,58.14,335,80.59,335,80.59c-2.6-3.7-1.3-12.77,1.77-16,3.76-4,10.31-7.36,14.42-6.61-.93,5.74,5.22,12.6,5.22,12.6-.93-3.63-.23-7.73,1.47-9.94,10.84-3.65,24.51,7.67,24.51,7.67C381.62,49.26,361.07,51,361.07,51Z"/><path class="cls-25" d="M458.93,122.62c-2-10.47-14-64-34.06-81.08-36.46-31,9.07-.7,0-6.71-2.54-1.7,24.72,8.41,36.71,57.8,4.74,19.51,8.39,27.55,7.4,30.49-.69,2-4.5,1.41-8.17,1.27A2.39,2.39,0,0,1,458.93,122.62Z"/><path class="cls-26" d="M378.42,55.31c-3-5.06-5.08-10.93-4.07-16.82,1.18-6.89,6.21-12.32,15-16.18-3.15-.41-6.58.24-10.37,1.05-8.69,1.87-10.7,8-11.84,7.26-.79-.53-.71-9.38-.13-11.52,1.6-5.93,7-14.31,15.92-17.56a24.88,24.88,0,0,1,6.56-1.4c15.12-1.16,22,5.05,26.84,11.19a35.72,35.72,0,0,1,13.5-9A30.07,30.07,0,0,1,441,.49c18.33.48,28.68,13,32.24,24.59l2.92,9.47-8.84-4.38a74,74,0,0,0-18.56-5.81,30.38,30.38,0,0,1,6.18,4.22c6.15,5.47,9.46,13.12,9.84,22.75l.42,10.88-7.66-7.69c-5.38-5.39-21.43-18.21-33.3-15.67A31.5,31.5,0,0,0,423.51,54L427,67.5,416.6,58.3c-5.39-4.77-8-11.42-9.16-16.15a39.79,39.79,0,0,1-1-5.54c-3.91,1.6-12.55,6.19-13.17,11.6-1.06,9.37,6,25.63,6,25.63S383.09,63.17,378.42,55.31Z"/><path class="cls-27" d="M424.22,22.44C435.89,13.17,458,24.13,458,24.13c-2.54-8.27-9.94-16.92-22.62-17.26s-19.71,10.75-19.71,10.75c-4.2-5.55-8.12-9.39-21.09-11-14.54-1.84-17.48,14.75-16.15,14.23,13.63-5.29,26.38.3,26.38.3-42,10.3-13.63,38.68-13.63,38.68-3.28-4.68-1.65-16.13,2.23-20.27,4.76-5.06,13-9.31,18.24-8.36-1.17,7.26,6.6,15.94,6.6,15.94-1.18-4.6-.29-9.78,1.85-12.57,13.71-4.62,31,9.69,31,9.69C450.19,20.2,424.22,22.44,424.22,22.44Z"/></g></g></g></g></g></svg>