<svg xmlns="http://www.w3.org/2000/svg" viewBox="0 0 106 106"><defs><style>.cls-1{fill:#fff;}.cls-2{fill:#21c3c8;}</style></defs><title>tornado</title><g id="Layer_2" data-name="Layer 2"><g id="Layer_1-2" data-name="Layer 1"><path class="cls-1" d="M56.09,78.25A4.12,4.12,0,0,1,55.88,70c1-.06,2.07-.15,3.15-.27l.44,0a4.06,4.06,0,0,1,4,3.68A4.11,4.11,0,0,1,59.91,78c-1.21.13-2.43.23-3.61.3Z"/><path class="cls-2" d="M59.47,71.24a2.62,2.62,0,0,1,.27,5.22c-1.15.12-2.32.22-3.52.29h-.13A2.62,2.62,0,0,1,56,71.52c1.09,0,2.18-.15,3.24-.26l.27,0m0-3q-.3,0-.6,0c-1.07.12-2.1.21-3.07.26a5.62,5.62,0,0,0,.29,11.22h.27c1.24-.07,2.47-.17,3.71-.31a5.62,5.62,0,0,0-.6-11.2Z"/><path class="cls-1" d="M29.13,76.28a3.89,3.89,0,0,1-1.07-.15,33.4,33.4,0,0,1-3.62-1.21,4.15,4.15,0,0,1-2.31-5.3A4.08,4.08,0,0,1,25.91,67a4.13,4.13,0,0,1,1.47.28,27.37,27.37,0,0,0,2.82,1,4.12,4.12,0,0,1,2.83,5A4,4,0,0,1,29.13,76.28Z"/><path class="cls-2" d="M25.91,68.47a2.55,2.55,0,0,1,.92.18,29.33,29.33,0,0,0,3,1,2.62,2.62,0,0,1,1.79,3.21,2.54,2.54,0,0,1-2.45,1.93,2.63,2.63,0,0,1-.67-.09c-1.2-.34-2.37-.73-3.46-1.16a2.64,2.64,0,0,1-1.46-3.38,2.55,2.55,0,0,1,2.37-1.68m0-3a5.57,5.57,0,0,0-5.18,3.63,5.67,5.67,0,0,0,3.16,7.22,39.65,39.65,0,0,0,3.77,1.26,5.66,5.66,0,0,0,1.47.2,5.56,5.56,0,0,0,5.36-4.17,5.64,5.64,0,0,0-3.89-6.86,26.1,26.1,0,0,1-2.67-.89,5.42,5.42,0,0,0-2-.39Z"/><path class="cls-1" d="M39.16,77.92a2,2,0,0,1-.35,0c-1.25-.1-2.42-.22-3.53-.36a4.12,4.12,0,0,1,.49-8.2,3,3,0,0,1,.52,0c1,.12,2.08.23,3.19.32a4.12,4.12,0,0,1-.32,8.22Z"/><path class="cls-2" d="M35.77,70.84l.32,0c1,.14,2.14.25,3.26.34a2.62,2.62,0,0,1-.19,5.22H39c-1.2-.1-2.37-.21-3.49-.36a2.62,2.62,0,0,1,.3-5.21m0-3A5.62,5.62,0,0,0,35.1,79c1.11.14,2.29.26,3.59.37a3.7,3.7,0,0,0,.47,0,5.62,5.62,0,0,0,.43-11.21c-1.09-.09-2.14-.2-3.12-.32a5.24,5.24,0,0,0-.7,0Z"/><path class="cls-1" d="M49.29,78.32c-1.2,0-2.35,0-3.47-.06A4.1,4.1,0,0,1,41.88,74a4.05,4.05,0,0,1,4-4h.2l3.24,0a4.12,4.12,0,0,1,0,8.23Z"/><path class="cls-2" d="M45.92,71.53H46c1.09,0,2.21,0,3.35.06a2.62,2.62,0,0,1,0,5.23h0c-1.17,0-2.32,0-3.43-.06a2.62,2.62,0,0,1,.06-5.23m0-3A5.54,5.54,0,0,0,40.38,74a5.6,5.6,0,0,0,5.4,5.76q1.69,0,3.48.06h.06a5.62,5.62,0,0,0,0-11.23c-1.11,0-2.2,0-3.26-.06Z"/><path class="cls-1" d="M66.15,76.83a4.13,4.13,0,0,1-.9-8.13c1-.25,2.09-.52,3.07-.81a3.77,3.77,0,0,1,1.11-.16,4.07,4.07,0,0,1,3.9,3,4.14,4.14,0,0,1-2.77,5.07c-1.14.34-2.32.65-3.51.92A3.82,3.82,0,0,1,66.15,76.83Z"/><path class="cls-2" d="M69.43,69.23a2.57,2.57,0,0,1,2.45,1.9,2.62,2.62,0,0,1-1.75,3.23q-1.66.49-3.42.9a2.6,2.6,0,0,1-.56.07,2.57,2.57,0,0,1-2.48-2,2.62,2.62,0,0,1,1.92-3.13c1.07-.25,2.13-.53,3.15-.83a2.35,2.35,0,0,1,.69-.1m0-3a5.49,5.49,0,0,0-1.55.23c-.94.27-1.94.54-3,.78a5.62,5.62,0,0,0,1.24,11.09,5.28,5.28,0,0,0,1.25-.15c1.19-.28,2.4-.59,3.58-.94a5.64,5.64,0,0,0,3.79-6.91,5.57,5.57,0,0,0-5.34-4.1Z"/><path class="cls-1" d="M20,71.88a4,4,0,0,1-2.41-.81,27.25,27.25,0,0,1-3-2.66,4.18,4.18,0,0,1-.05-5.78,4,4,0,0,1,5.75-.05,19,19,0,0,0,2.14,1.89,4.18,4.18,0,0,1,.84,5.73A4,4,0,0,1,20,71.88Z"/><path class="cls-2" d="M17.41,62.88a2.46,2.46,0,0,1,1.78.76,22.93,22.93,0,0,0,2.3,2A2.66,2.66,0,0,1,22,69.32a2.49,2.49,0,0,1-3.55.55,26.84,26.84,0,0,1-2.84-2.51,2.67,2.67,0,0,1,0-3.7,2.49,2.49,0,0,1,1.81-.78m0-3a5.47,5.47,0,0,0-4,1.71,5.7,5.7,0,0,0,.06,7.88,29.88,29.88,0,0,0,3.16,2.79,5.5,5.5,0,0,0,7.81-1.19,5.7,5.7,0,0,0-1.15-7.8,18,18,0,0,1-2-1.74,5.49,5.49,0,0,0-3.92-1.65Z"/><path class="cls-1" d="M75.85,73.69a4,4,0,0,1-3.75-2.58,4.14,4.14,0,0,1,2.2-5.35c1-.43,2-.87,2.88-1.31A4,4,0,0,1,78.94,64,4.07,4.07,0,0,1,82.6,66.4a4.16,4.16,0,0,1-1.9,5.46c-1.07.53-2.18,1-3.31,1.51A3.9,3.9,0,0,1,75.85,73.69Z"/><path class="cls-2" d="M78.94,65.54A2.55,2.55,0,0,1,81.24,67,2.65,2.65,0,0,1,80,70.52c-1,.51-2.11,1-3.23,1.47a2.4,2.4,0,0,1-1,.2,2.55,2.55,0,0,1-2.36-1.63,2.64,2.64,0,0,1,1.39-3.41q1.55-.65,3-1.35a2.36,2.36,0,0,1,1.09-.26m0-3a5.65,5.65,0,0,0-2.42.56c-.89.44-1.83.87-2.8,1.28a5.66,5.66,0,0,0-3,7.29,5.52,5.52,0,0,0,5.15,3.52A5.42,5.42,0,0,0,78,74.75c1.16-.49,2.3-1,3.38-1.54A5.67,5.67,0,0,0,84,65.76a5.57,5.57,0,0,0-5-3.22Z"/><path class="cls-1" d="M84.88,68.91A4,4,0,0,1,81.46,67a4.16,4.16,0,0,1,1.24-5.65c.89-.59,1.75-1.19,2.55-1.81a4,4,0,0,1,2.42-.82,4.05,4.05,0,0,1,3.27,1.68,4.18,4.18,0,0,1-.84,5.73c-.95.73-2,1.45-3,2.14A4,4,0,0,1,84.88,68.91Z"/><path class="cls-2" d="M87.67,60.2a2.53,2.53,0,0,1,2,1.06,2.67,2.67,0,0,1-.53,3.66c-.92.7-1.92,1.4-3,2.08a2.49,2.49,0,0,1-3.51-.81,2.66,2.66,0,0,1,.79-3.61c.92-.61,1.82-1.24,2.64-1.87a2.54,2.54,0,0,1,1.51-.51m0-3a5.44,5.44,0,0,0-3.33,1.13c-.77.59-1.6,1.17-2.47,1.74a5.69,5.69,0,0,0-1.69,7.7,5.48,5.48,0,0,0,7.71,1.73C89,68.8,90,68.06,91,67.31a5.69,5.69,0,0,0,1.14-7.8,5.51,5.51,0,0,0-4.48-2.31Z"/><path class="cls-1" d="M92.7,62.26a4,4,0,0,1-2.62-1,4.19,4.19,0,0,1-.49-5.77,7,7,0,0,0,.65-.9,4,4,0,0,1,3.44-2,4,4,0,0,1,2.16.64A4.17,4.17,0,0,1,97.11,59a14.68,14.68,0,0,1-1.31,1.83A4,4,0,0,1,92.7,62.26Z"/><path class="cls-2" d="M93.68,54.16a2.5,2.5,0,0,1,1.35.4,2.66,2.66,0,0,1,.8,3.61,14.09,14.09,0,0,1-1.19,1.66,2.51,2.51,0,0,1-1.94.93,2.47,2.47,0,0,1-1.64-.62,2.67,2.67,0,0,1-.31-3.68,10.44,10.44,0,0,0,.78-1.07,2.53,2.53,0,0,1,2.15-1.23m0-3A5.5,5.5,0,0,0,89,53.83a5.49,5.49,0,0,1-.53.73,5.69,5.69,0,0,0,.67,7.85A5.48,5.48,0,0,0,97,61.72a18.77,18.77,0,0,0,1.43-2A5.68,5.68,0,0,0,96.65,52a5.49,5.49,0,0,0-3-.88Z"/><path class="cls-1" d="M53,55.66C29.93,55.66,6.58,49.26,6.58,37a9.57,9.57,0,0,1,1.29-4.74c-4.23-3-6.37-6.49-6.37-10.37C1.5,8.51,27.41,1.5,53,1.5s51.5,7,51.5,20.4c0,3.88-2.14,7.36-6.37,10.37A9.47,9.47,0,0,1,99.42,37C99.42,49.26,76.07,55.66,53,55.66ZM15,36.09a1.87,1.87,0,0,0-.34.92c0,3.12,13,10.42,38.33,10.42S91.33,40.13,91.33,37a1.73,1.73,0,0,0-.34-.92c-9.5,3.89-23.57,6.2-38,6.2S24.51,40,15,36.09Zm9.32-5.48A109.48,109.48,0,0,0,53,34.06a109.48,109.48,0,0,0,28.67-3.45c-7.44-2.57-17.61-4-28.67-4S31.77,28,24.33,30.61ZM53,18.36c16,0,30.88,3.09,39.08,8.1,3.18-1.88,4.34-3.57,4.34-4.56C96.42,17.77,81.09,9.73,53,9.73S9.58,17.77,9.58,21.9c0,1,1.16,2.68,4.34,4.55C22.11,21.45,37,18.36,53,18.36Z"/><path class="cls-2" d="M53,3c24.24,0,50,6.62,50,18.9,0,3.89-2.61,7.22-6.93,10A8.49,8.49,0,0,1,97.92,37c0,11.14-23.15,17.15-44.92,17.15S8.08,48.15,8.08,37a8.53,8.53,0,0,1,1.85-5.16C5.61,29.12,3,25.8,3,21.9,3,9.62,28.76,3,53,3M14,28.2c8.26-5.46,24-8.34,39-8.34s30.78,2.88,39,8.35c3.83-2.09,5.88-4.34,5.88-6.31C97.92,16.19,80.83,8.23,53,8.23S8.08,16.19,8.08,21.9c0,2,2.05,4.21,5.88,6.3m39,7.36c14.06,0,25.37-2,33.13-4.78C79.43,27.66,68,25.09,53,25.09s-26.43,2.57-33.13,5.69c7.76,2.75,19.07,4.78,33.13,4.78m0,5.23c-14.09,0-28.68-2.24-38.44-6.53A4.22,4.22,0,0,0,13.17,37c0,5,15.15,11.92,39.83,11.92S92.83,42,92.83,37a4.22,4.22,0,0,0-1.39-2.75C81.68,38.55,67.09,40.79,53,40.79M53,0C27.47,0,0,6.85,0,21.9c0,2.88,1.1,6.94,6,10.82A10.81,10.81,0,0,0,5.08,37C5.08,50.86,29.92,57.16,53,57.16s47.92-6.3,47.92-20.15a10.81,10.81,0,0,0-.89-4.29c4.87-3.88,6-7.94,6-10.82C106,6.85,78.53,0,53,0ZM13.94,24.7c-2.26-1.47-2.83-2.56-2.86-2.81.05-.54,2-3.41,10.33-6.24S41,11.23,53,11.23s23.25,1.57,31.59,4.42,10.28,5.7,10.33,6.25c0,.24-.6,1.33-2.86,2.8C82,18.94,65.51,16.86,53,16.86S24,18.94,13.94,24.7Zm16.31,5.78A98,98,0,0,1,53,28.09a98,98,0,0,1,22.75,2.39A117.32,117.32,0,0,1,53,32.56a117.32,117.32,0,0,1-22.75-2.08ZM53,43.79c12.88,0,25.51-1.83,35-5a28.94,28.94,0,0,1-7.62,3.48C73,44.64,63.33,45.93,53,45.93s-20-1.29-27.33-3.64a28.94,28.94,0,0,1-7.62-3.48c9.44,3.15,22.07,5,35,5Z"/><path class="cls-1" d="M64.14,66.85a4.05,4.05,0,0,1-4-3.43,4.12,4.12,0,0,1,3.3-4.74c1-.18,2.12-.39,3.17-.62a4.11,4.11,0,0,1,1.7,8c-1.17.26-2.35.5-3.5.69A4,4,0,0,1,64.14,66.85Z"/><path class="cls-2" d="M67.47,59.47A2.56,2.56,0,0,1,70,61.54a2.62,2.62,0,0,1-2,3.1c-1.14.25-2.28.48-3.43.68l-.43,0a2.57,2.57,0,0,1-2.51-2.17,2.61,2.61,0,0,1,2.08-3c1.08-.19,2.16-.4,3.23-.64a2.38,2.38,0,0,1,.53-.05m0-3a5.81,5.81,0,0,0-1.17.12c-1,.23-2.08.43-3.11.62a5.62,5.62,0,0,0-4.52,6.46,5.55,5.55,0,0,0,5.47,4.68,5.82,5.82,0,0,0,.93-.07c1.2-.21,2.4-.45,3.58-.71a5.62,5.62,0,0,0-1.18-11.1Z"/><path class="cls-1" d="M37.14,66.6a3.91,3.91,0,0,1-.68-.06c-1.21-.21-2.4-.44-3.52-.69a4.12,4.12,0,0,1,.87-8.13,3.93,3.93,0,0,1,.84.09c1,.23,2.1.43,3.15.61a4.12,4.12,0,0,1,3.32,4.73A4,4,0,0,1,37.14,66.6Z"/><path class="cls-2" d="M33.81,59.22a2.38,2.38,0,0,1,.53.05q1.54.34,3.21.63a2.61,2.61,0,0,1,2.09,3,2.57,2.57,0,0,1-2.5,2.19,3,3,0,0,1-.42,0c-1.19-.2-2.34-.43-3.45-.67a2.62,2.62,0,0,1-2-3.11,2.56,2.56,0,0,1,2.49-2.06m0-3a5.62,5.62,0,0,0-1.19,11.1c1.14.25,2.35.48,3.59.7a5.74,5.74,0,0,0,.93.08,5.55,5.55,0,0,0,5.46-4.71,5.63,5.63,0,0,0-4.55-6.45c-1-.17-2.06-.38-3.07-.6a5.81,5.81,0,0,0-1.17-.12Z"/><path class="cls-1" d="M47.11,67.71c-1.28-.07-2.46-.16-3.61-.26a4.12,4.12,0,0,1,.36-8.22l.36,0q1.59.14,3.24.24a4.12,4.12,0,0,1-.22,8.22Z"/><path class="cls-2" d="M43.86,60.73h.22q1.62.15,3.3.24a2.62,2.62,0,0,1-.14,5.23h-.13c-1.18-.07-2.34-.15-3.47-.26a2.62,2.62,0,0,1,.22-5.22m0-3a5.62,5.62,0,0,0-.49,11.21c1.13.11,2.33.19,3.57.26h.3A5.62,5.62,0,0,0,47.54,58c-1-.06-2.11-.14-3.18-.24l-.5,0Z"/><path class="cls-1" d="M54,67.86A4.12,4.12,0,0,1,54,59.63c1,0,2.1-.07,3.16-.15h.31a4.12,4.12,0,0,1,.29,8.22c-1.22.09-2.43.15-3.61.17H54Z"/><path class="cls-2" d="M57.42,61a2.62,2.62,0,0,1,.17,5.22c-1.18.09-2.36.15-3.52.17h0a2.62,2.62,0,0,1,0-5.23c1.07,0,2.16-.07,3.24-.15h.2m0-3A3.24,3.24,0,0,0,57,58c-1,.07-2.06.12-3.06.14A5.62,5.62,0,0,0,54,69.36h.11c1.22,0,2.46-.08,3.69-.17A5.62,5.62,0,0,0,57.42,58Z"/><path class="cls-1" d="M74,64.45a4.08,4.08,0,0,1-3.87-2.93,4.13,4.13,0,0,1,2.69-5.12c1.06-.33,2.09-.68,3.06-1a4.16,4.16,0,0,1,1.35-.23,4,4,0,0,1,3.82,2.77,4.15,4.15,0,0,1-2.48,5.23c-1.12.4-2.26.78-3.39,1.13A4,4,0,0,1,74,64.45Z"/><path class="cls-2" d="M77.27,56.64a2.56,2.56,0,0,1,2.4,1.75,2.63,2.63,0,0,1-1.56,3.33c-1.09.39-2.2.77-3.33,1.12A2.76,2.76,0,0,1,74,63a2.55,2.55,0,0,1-2.43-1.86,2.62,2.62,0,0,1,1.7-3.26c1.06-.33,2.1-.68,3.12-1a2.26,2.26,0,0,1,.84-.15m0-3a5.64,5.64,0,0,0-1.86.32c-1,.35-2,.69-3,1a5.65,5.65,0,0,0-3.68,7,5.53,5.53,0,0,0,6.93,3.77c1.14-.36,2.3-.75,3.46-1.16a5.66,5.66,0,0,0,3.39-7.12,5.54,5.54,0,0,0-5.24-3.79Z"/><path class="cls-1" d="M18.62,58.83a4,4,0,0,1-3.17-1.55,9.24,9.24,0,0,1-2.09-5.73,4,4,0,1,1,8.09,0,1.32,1.32,0,0,0,.33.61,4.18,4.18,0,0,1-.61,5.75A4,4,0,0,1,18.62,58.83Z"/><path class="cls-2" d="M17.41,48.93A2.58,2.58,0,0,1,20,51.55a2.62,2.62,0,0,0,.65,1.53,2.67,2.67,0,0,1-.39,3.68,2.51,2.51,0,0,1-3.58-.41,7.73,7.73,0,0,1-1.77-4.8,2.58,2.58,0,0,1,2.55-2.62m0-3a5.59,5.59,0,0,0-5.55,5.62,10.65,10.65,0,0,0,2.41,6.65,5.47,5.47,0,0,0,4.35,2.13,5.54,5.54,0,0,0,3.5-1.26A5.7,5.7,0,0,0,23,51.23l0,0a5.58,5.58,0,0,0-5.53-5.27Z"/><path class="cls-1" d="M92.26,55.38a4,4,0,0,1-3.09-1.46,4.19,4.19,0,0,1,.45-5.78,8.72,8.72,0,0,0,1.55-1.68,4,4,0,0,1,5.63-1.17A4.17,4.17,0,0,1,97.93,51a16.4,16.4,0,0,1-3,3.41A4,4,0,0,1,92.26,55.38Z"/><path class="cls-2" d="M94.55,46.1a2.53,2.53,0,0,1,1.41.43,2.66,2.66,0,0,1,.71,3.63,15.32,15.32,0,0,1-2.76,3.09A2.49,2.49,0,0,1,90.32,53a2.67,2.67,0,0,1,.29-3.69,10,10,0,0,0,1.82-2,2.52,2.52,0,0,1,2.12-1.17m0-3a5.5,5.5,0,0,0-4.64,2.55A7.52,7.52,0,0,1,88.63,47,5.68,5.68,0,0,0,88,54.87a5.5,5.5,0,0,0,7.87.65,18.3,18.3,0,0,0,3.31-3.74,5.68,5.68,0,0,0-1.55-7.73,5.49,5.49,0,0,0-3.09-.95Z"/><path class="cls-1" d="M83.56,60.77a4,4,0,0,1-3.68-2.41,4.17,4.17,0,0,1,2-5.44c1-.47,1.94-1,2.82-1.44a4,4,0,0,1,5.49,1.69,4.16,4.16,0,0,1-1.64,5.55c-1,.57-2.12,1.13-3.26,1.67A4,4,0,0,1,83.56,60.77Z"/><path class="cls-2" d="M86.6,52.49a2.53,2.53,0,0,1,2.24,1.38,2.64,2.64,0,0,1-1,3.54c-1,.55-2.06,1.09-3.17,1.62a2.42,2.42,0,0,1-1.07.24,2.54,2.54,0,0,1-2.31-1.52,2.65,2.65,0,0,1,1.25-3.47c1-.48,2-1,2.9-1.48a2.47,2.47,0,0,1,1.2-.31m0-3a5.47,5.47,0,0,0-2.65.68c-.84.47-1.76.94-2.74,1.4A5.67,5.67,0,0,0,78.52,59a5.51,5.51,0,0,0,7.4,2.76c1.15-.55,2.27-1.12,3.33-1.7a5.68,5.68,0,0,0,2.25-7.56,5.51,5.51,0,0,0-4.9-3Z"/><path class="cls-1" d="M27.27,64.1a3.84,3.84,0,0,1-1.35-.24,37.55,37.55,0,0,1-3.51-1.45,4.15,4.15,0,0,1-2-5.43,4,4,0,0,1,3.68-2.41,3.92,3.92,0,0,1,1.71.39c.82.38,1.76.77,2.78,1.14a4.14,4.14,0,0,1,2.48,5.22A4.06,4.06,0,0,1,27.27,64.1Z"/><path class="cls-2" d="M24.12,56.07a2.34,2.34,0,0,1,1.06.24c.89.42,1.87.82,2.92,1.2a2.64,2.64,0,0,1,1.57,3.33,2.56,2.56,0,0,1-2.4,1.76,2.48,2.48,0,0,1-.84-.15,35.91,35.91,0,0,1-3.38-1.39,2.65,2.65,0,0,1-1.24-3.47,2.54,2.54,0,0,1,2.31-1.52m0-3a5.56,5.56,0,0,0-5.05,3.29,5.68,5.68,0,0,0,2.7,7.41,39.22,39.22,0,0,0,3.64,1.5,5.32,5.32,0,0,0,1.86.33,5.56,5.56,0,0,0,5.24-3.79,5.65,5.65,0,0,0-3.4-7.12c-1-.35-1.86-.72-2.64-1.09a5.46,5.46,0,0,0-2.35-.53Z"/><path class="cls-1" d="M29,85a4.06,4.06,0,0,1-1.34-.23,19.73,19.73,0,0,1-3.89-1.83,4.18,4.18,0,0,1-1.29-5.65A4,4,0,0,1,28,76a11.34,11.34,0,0,0,2.27,1,4.13,4.13,0,0,1,2.47,5.22A4,4,0,0,1,29,85Z"/><path class="cls-2" d="M25.88,76.84a2.48,2.48,0,0,1,1.35.39,12.59,12.59,0,0,0,2.57,1.19,2.62,2.62,0,0,1,1.56,3.33A2.53,2.53,0,0,1,29,83.5a2.45,2.45,0,0,1-.83-.14,17.29,17.29,0,0,1-3.59-1.69,2.65,2.65,0,0,1-.82-3.6,2.53,2.53,0,0,1,2.16-1.23m0-3a5.47,5.47,0,0,0-4.72,2.68,5.67,5.67,0,0,0,1.76,7.68,20.8,20.8,0,0,0,4.19,2,5.53,5.53,0,0,0,7.1-3.47,5.66,5.66,0,0,0-3.4-7.12,10.47,10.47,0,0,1-2-.88,5.45,5.45,0,0,0-3-.87Z"/><path class="cls-1" d="M48.82,88.14c-1.15,0-2.33-.1-3.47-.18a4.12,4.12,0,0,1,.3-8.22h.23c1.07.07,2.16.13,3.27.17A4.12,4.12,0,0,1,49,88.15Z"/><path class="cls-2" d="M45.65,81.24h.14c1.08.07,2.18.13,3.31.17A2.62,2.62,0,0,1,49,86.65h-.09c-1.18-.05-2.34-.11-3.47-.18a2.62,2.62,0,0,1,.2-5.23m0-3a5.62,5.62,0,0,0-.4,11.22c1.18.08,2.38.14,3.56.19H49a5.62,5.62,0,0,0,.19-11.23c-1,0-2.09-.09-3.2-.17Z"/><path class="cls-1" d="M65.79,86.34a4.06,4.06,0,0,1-3.9-3,4.13,4.13,0,0,1,2.83-5c1-.28,2-.59,3-1a4,4,0,0,1,5.13,2.62,4.14,4.14,0,0,1-2.55,5.18c-1.14.39-2.31.76-3.46,1.08A3.91,3.91,0,0,1,65.79,86.34Z"/><path class="cls-2" d="M69,78.59a2.56,2.56,0,0,1,2.41,1.79,2.64,2.64,0,0,1-1.61,3.31c-1.1.38-2.23.73-3.38,1.06a2.52,2.52,0,0,1-.67.09,2.56,2.56,0,0,1-2.45-1.93,2.62,2.62,0,0,1,1.79-3.21c1.05-.3,2.09-.62,3.11-1a2.45,2.45,0,0,1,.8-.14m0-3a5.41,5.41,0,0,0-1.78.3c-1,.35-2,.66-2.94.92a5.65,5.65,0,0,0-3.88,6.87,5.58,5.58,0,0,0,5.35,4.16,5.68,5.68,0,0,0,1.48-.2c1.18-.34,2.37-.71,3.54-1.11a5.64,5.64,0,0,0,3.49-7.07A5.52,5.52,0,0,0,69,75.59Z"/><path class="cls-1" d="M38.88,87.27a3.6,3.6,0,0,1-.56,0c-1.21-.17-2.4-.37-3.53-.58a4.12,4.12,0,0,1-3.23-4.79,4,4,0,0,1,4.73-3.3c1,.18,2,.36,3.16.52a4.11,4.11,0,0,1,3.43,4.64A4.07,4.07,0,0,1,38.88,87.27Z"/><path class="cls-2" d="M35.52,80A2.5,2.5,0,0,1,36,80c1,.2,2.1.37,3.24.54a2.61,2.61,0,0,1,2.17,3,2.57,2.57,0,0,1-2.52,2.25,2.11,2.11,0,0,1-.35,0c-1.22-.18-2.37-.37-3.46-.58a2.61,2.61,0,0,1-2-3A2.58,2.58,0,0,1,35.52,80m0-3a5.55,5.55,0,0,0-5.44,4.62,5.61,5.61,0,0,0,4.43,6.52c1.15.22,2.35.42,3.59.6a6.66,6.66,0,0,0,.78,0,5.62,5.62,0,0,0,.78-11.17c-1.12-.16-2.17-.34-3.1-.52a5.91,5.91,0,0,0-1-.1Z"/><path class="cls-1" d="M75.34,82.76a4,4,0,0,1-3.67-2.41,4.15,4.15,0,0,1,2-5.44c1-.45,1.91-.94,2.83-1.44A4,4,0,0,1,82,75.17a4.17,4.17,0,0,1-1.66,5.55c-1,.55-2.11,1.11-3.25,1.65A3.89,3.89,0,0,1,75.34,82.76Z"/><path class="cls-2" d="M78.38,74.48a2.54,2.54,0,0,1,2.25,1.38,2.65,2.65,0,0,1-1,3.54c-1,.55-2.06,1.09-3.17,1.62a2.56,2.56,0,0,1-1.07.24A2.54,2.54,0,0,1,73,79.74a2.65,2.65,0,0,1,1.25-3.47c1-.49,2-1,2.91-1.49a2.56,2.56,0,0,1,1.19-.3m0-3a5.53,5.53,0,0,0-2.63.67q-1.34.73-2.76,1.41A5.66,5.66,0,0,0,70.3,81a5.54,5.54,0,0,0,5,3.3,5.46,5.46,0,0,0,2.35-.53C78.85,83.18,80,82.61,81,82a5.68,5.68,0,0,0,2.27-7.55,5.52,5.52,0,0,0-4.91-3Z"/><path class="cls-1" d="M55.78,88.12a4.12,4.12,0,0,1-.27-8.22c1-.07,2.05-.18,3.08-.33a3.82,3.82,0,0,1,.57,0,4.12,4.12,0,0,1,.57,8.19c-1.21.17-2.44.31-3.67.39Z"/><path class="cls-2" d="M59.16,81a2.56,2.56,0,0,1,2.52,2.25,2.6,2.6,0,0,1-2.16,3c-1.2.18-2.4.31-3.56.39h-.18a2.62,2.62,0,0,1-.16-5.22c1-.08,2.11-.19,3.19-.35l.35,0m0-3a6.81,6.81,0,0,0-.78,0c-1,.15-2,.26-3,.32a5.62,5.62,0,0,0,.37,11.22h.35c1.3-.09,2.57-.23,3.82-.41A5.62,5.62,0,0,0,59.16,78Z"/><path class="cls-1" d="M84.12,77.5a4.06,4.06,0,0,1-3.23-1.64,4.19,4.19,0,0,1,.77-5.74,12.74,12.74,0,0,0,1.92-1.77A4,4,0,0,1,89.32,68a4.19,4.19,0,0,1,.38,5.78,21.77,21.77,0,0,1-3.11,2.9A4,4,0,0,1,84.12,77.5Z"/><path class="cls-2" d="M86.64,68.43a2.54,2.54,0,0,1,1.68.65,2.67,2.67,0,0,1,.23,3.69,19.82,19.82,0,0,1-2.89,2.69,2.49,2.49,0,0,1-1.54.54,2.53,2.53,0,0,1-2-1,2.68,2.68,0,0,1,.48-3.67,15,15,0,0,0,2.15-2,2.5,2.5,0,0,1,1.91-.9m0-3a5.52,5.52,0,0,0-4.2,1.95,11.56,11.56,0,0,1-1.71,1.56,5.69,5.69,0,0,0-1,7.81A5.54,5.54,0,0,0,84.12,79a5.48,5.48,0,0,0,3.39-1.18,23.2,23.2,0,0,0,3.33-3.1,5.7,5.7,0,0,0-.52-7.87,5.5,5.5,0,0,0-3.68-1.42Z"/><path class="cls-1" d="M52.1,100.59a4,4,0,0,1-4-3.22,4.14,4.14,0,0,1,3.05-4.91c1.09-.25,2.15-.52,3.18-.79a3.91,3.91,0,0,1,1-.13,4,4,0,0,1,3.91,3.1,4.13,4.13,0,0,1-2.9,5c-1.1.29-2.24.58-3.41.85A4.07,4.07,0,0,1,52.1,100.59Z"/><path class="cls-2" d="M55.4,93a2.57,2.57,0,0,1,2.46,2A2.63,2.63,0,0,1,56,98.19c-1.09.29-2.22.57-3.37.84a2.74,2.74,0,0,1-.56.06,2.56,2.56,0,0,1-2.48-2,2.62,2.62,0,0,1,1.92-3.13c1.1-.25,2.18-.52,3.22-.8A2.39,2.39,0,0,1,55.4,93m0-3a5.62,5.62,0,0,0-1.41.18c-1,.27-2.07.53-3.13.78a5.63,5.63,0,0,0-4.17,6.69,5.52,5.52,0,0,0,5.41,4.4,5.66,5.66,0,0,0,1.23-.14c1.17-.27,2.33-.56,3.47-.86a5.64,5.64,0,0,0,4-6.81A5.56,5.56,0,0,0,55.4,90Z"/><path class="cls-1" d="M14,104.5a4.12,4.12,0,0,1,0-8.23h1a4.12,4.12,0,0,1,0,8.23Z"/><path class="cls-2" d="M15.08,97.77a2.62,2.62,0,0,1,0,5.23H14a2.62,2.62,0,0,1,0-5.23h1.06m0-3H14A5.62,5.62,0,0,0,14,106h1.07a5.62,5.62,0,0,0,0-11.23Z"/><path class="cls-1" d="M42.1,102.5a4.12,4.12,0,0,1-.6-8.19c1.1-.17,2.19-.35,3.25-.54a4.2,4.2,0,0,1,.69-.06,4.07,4.07,0,0,1,4,3.42,4.13,4.13,0,0,1-3.29,4.75c-1.13.2-2.27.39-3.44.57A4.18,4.18,0,0,1,42.1,102.5Z"/><path class="cls-2" d="M45.44,95.21A2.59,2.59,0,0,1,48,97.38a2.61,2.61,0,0,1-2.08,3c-1.11.2-2.24.39-3.4.57l-.38,0a2.56,2.56,0,0,1-2.51-2.23,2.61,2.61,0,0,1,2.14-3c1.11-.17,2.21-.35,3.29-.54a2,2,0,0,1,.42,0m0-3a5.84,5.84,0,0,0-.93.08c-1.11.2-2.2.38-3.24.54A5.62,5.62,0,0,0,42.1,104a6.11,6.11,0,0,0,.86-.07c1.29-.2,2.42-.39,3.45-.57a5.64,5.64,0,0,0,4.51-6.47,5.57,5.57,0,0,0-5.48-4.68Z"/><path class="cls-1" d="M21.85,104.36a4.12,4.12,0,0,1-.15-8.23Q23.38,96.07,25,96h.2a4.12,4.12,0,0,1,.23,8.23l-3.46.16Z"/><path class="cls-2" d="M25.23,97.47a2.62,2.62,0,0,1,.14,5.23c-1.12.06-2.26.12-3.42.16h-.1a2.62,2.62,0,0,1-.09-5.23c1.13,0,2.25-.09,3.35-.15h.12m0-3H25c-1.1.06-2.2.11-3.32.15a5.62,5.62,0,0,0,.21,11.23h.23l3.45-.16a5.62,5.62,0,0,0-.3-11.23Z"/><path class="cls-1" d="M79.68,88a4,4,0,0,1-2.89-1.24,4.19,4.19,0,0,1,0-5.79,11.28,11.28,0,0,0,1.56-2A4,4,0,0,1,84,77.72a4.19,4.19,0,0,1,1.27,5.65,19.34,19.34,0,0,1-2.71,3.42A3.94,3.94,0,0,1,79.68,88Z"/><path class="cls-2" d="M81.82,78.58a2.44,2.44,0,0,1,1.34.4,2.66,2.66,0,0,1,.81,3.6,17.71,17.71,0,0,1-2.5,3.17,2.54,2.54,0,0,1-1.79.76,2.49,2.49,0,0,1-1.81-.78,2.67,2.67,0,0,1,0-3.7,12.2,12.2,0,0,0,1.77-2.22,2.53,2.53,0,0,1,2.16-1.23m0-3a5.49,5.49,0,0,0-4.72,2.67,9.55,9.55,0,0,1-1.36,1.68,5.71,5.71,0,0,0,0,7.89,5.51,5.51,0,0,0,4,1.69,5.45,5.45,0,0,0,3.93-1.67,20.42,20.42,0,0,0,2.92-3.7,5.66,5.66,0,0,0-1.74-7.68,5.51,5.51,0,0,0-3-.88Z"/><path class="cls-1" d="M71.31,93.88A4,4,0,0,1,67.7,91.6a4.16,4.16,0,0,1,1.77-5.5c1-.51,1.89-1,2.71-1.54a4,4,0,0,1,2.1-.59,4.06,4.06,0,0,1,3.48,2,4.18,4.18,0,0,1-1.38,5.62c-1,.63-2.1,1.24-3.23,1.83A4,4,0,0,1,71.31,93.88Z"/><path class="cls-2" d="M74.28,85.47a2.54,2.54,0,0,1,2.18,1.26,2.68,2.68,0,0,1-.87,3.6c-1,.6-2,1.2-3.13,1.77a2.5,2.5,0,0,1-1.15.28A2.54,2.54,0,0,1,69,90.94a2.65,2.65,0,0,1,1.13-3.51c1-.52,1.93-1.05,2.8-1.59a2.5,2.5,0,0,1,1.31-.37m0-3a5.44,5.44,0,0,0-2.88.82c-.8.49-1.68,1-2.62,1.47a5.68,5.68,0,0,0-2.43,7.5,5.49,5.49,0,0,0,7.49,2.5c1.16-.6,2.28-1.24,3.33-1.88a5.69,5.69,0,0,0,1.88-7.66,5.54,5.54,0,0,0-4.77-2.75Z"/><path class="cls-1" d="M61.9,97.82A4,4,0,0,1,58.06,95a4.15,4.15,0,0,1,2.56-5.19c1.07-.36,2.09-.73,3-1.1a4,4,0,0,1,1.44-.27,4.06,4.06,0,0,1,3.79,2.68,4.16,4.16,0,0,1-2.35,5.28c-1.06.41-2.19.82-3.36,1.22A4,4,0,0,1,61.9,97.82Z"/><path class="cls-2" d="M65.1,89.93a2.55,2.55,0,0,1,2.38,1.69A2.64,2.64,0,0,1,66,95q-1.59.62-3.3,1.2a2.44,2.44,0,0,1-.8.13,2.54,2.54,0,0,1-2.41-1.79,2.64,2.64,0,0,1,1.62-3.31c1.07-.36,2.1-.74,3.09-1.12a2.39,2.39,0,0,1,.9-.17m0-3a5.35,5.35,0,0,0-2,.37c-.93.36-1.94.72-3,1.08a5.66,5.66,0,0,0-3.5,7.07,5.53,5.53,0,0,0,7,3.58c1.18-.4,2.33-.82,3.41-1.24A5.66,5.66,0,0,0,70.3,90.6a5.58,5.58,0,0,0-5.2-3.67Z"/><path class="cls-1" d="M32,103.72a4.12,4.12,0,0,1-.35-8.22c1.11-.1,2.21-.21,3.29-.33l.44,0a4.12,4.12,0,0,1,.44,8.21l-3.45.34Z"/><path class="cls-2" d="M35.38,96.65a2.62,2.62,0,0,1,.27,5.21c-1.12.13-2.26.24-3.42.35H32A2.62,2.62,0,0,1,31.78,97c1.13-.1,2.23-.22,3.33-.34h.27m0-3-.62,0c-1,.12-2.14.23-3.25.33a5.61,5.61,0,0,0-5,6.08A5.55,5.55,0,0,0,32,105.22l.5,0,3.48-.35a5.62,5.62,0,0,0,4.91-6.18,5.56,5.56,0,0,0-5.51-5Z"/><path class="cls-1" d="M90.29,101.88a3.24,3.24,0,1,1,3.19-3.24A3.22,3.22,0,0,1,90.29,101.88Z"/><path class="cls-2" d="M90.29,96.9a1.74,1.74,0,1,1-1.7,1.74,1.72,1.72,0,0,1,1.7-1.74m0-3A4.74,4.74,0,1,0,95,98.64a4.72,4.72,0,0,0-4.69-4.74Z"/><path class="cls-1" d="M92,86.19a3.25,3.25,0,1,1,3.2-3.25A3.22,3.22,0,0,1,92,86.19Z"/><path class="cls-2" d="M92,81.2a1.75,1.75,0,1,1-1.69,1.74A1.72,1.72,0,0,1,92,81.2m0-3a4.75,4.75,0,1,0,4.7,4.74A4.72,4.72,0,0,0,92,78.2Z"/><path class="cls-1" d="M100.46,89.67a3.24,3.24,0,1,1,3.19-3.24A3.22,3.22,0,0,1,100.46,89.67Z"/><path class="cls-2" d="M100.46,84.69a1.74,1.74,0,1,1-1.7,1.74,1.72,1.72,0,0,1,1.7-1.74m0-3a4.74,4.74,0,1,0,4.69,4.74,4.72,4.72,0,0,0-4.69-4.74Z"/><path class="cls-1" d="M97.07,74a3.25,3.25,0,1,1,3.19-3.25A3.23,3.23,0,0,1,97.07,74Z"/><path class="cls-2" d="M97.07,69a1.75,1.75,0,1,1-1.7,1.74A1.72,1.72,0,0,1,97.07,69m0-3a4.75,4.75,0,1,0,4.69,4.74A4.73,4.73,0,0,0,97.07,66Z"/></g></g></svg>