<svg xmlns="http://www.w3.org/2000/svg" viewBox="0 0 46.76 51.52"><defs><style>.cls-1{fill:#21c3c8;}.cls-2{fill:#fff;}.cls-3{fill-opacity:0.1;}</style></defs><title>triangle</title><g id="Layer_2" data-name="Layer 2"><g id="map"><g id="next"><g id="g4168"><path class="cls-1" d="M44.49,21.54l-.19-.16L44,21.22,8.82.9,8.59.76,8.45.7C6.18-.22,4.22-.25,2.61.7S0,3.53,0,6.24H0V44.4c0,4,1.47,6,3.7,6.8,1.92.7,4,.18,6.06-.68l.17-.07.19-.12L43.9,30.84l.27-.16.2-.16a6.08,6.08,0,0,0,2.38-4.24v0A5.58,5.58,0,0,0,44.49,21.54ZM5.74,6c.08,0,.08,0,.1.06S5.61,6.08,5.74,6ZM7.27,44.9a7.53,7.53,0,0,1-1.47.52c-.22-.08.36-.19.36-1h0V6.46L40,26Z"/><path class="cls-2" d="M42.49,23.88,7.29,3.56C4.6,2.47,3.07,3.19,3.09,6.24V44.38c0,4.86,2.57,4.5,5.51,3.29L42.36,28.18C44,26.8,44.23,25.37,42.49,23.88Z"/><path class="cls-3" d="M11.49,42.05C8.55,43.26,6,43.62,6,38.76V3.16a3.4,3.4,0,0,0-1.13-.05,1.8,1.8,0,0,0-1.25.8,4.23,4.23,0,0,0-.5,2.33V44.38a5.2,5.2,0,0,0,.84,3.34,2.14,2.14,0,0,0,1.74.73,8.49,8.49,0,0,0,2.93-.78L42.36,28.18c1.56-1.33,1.85-2.7.31-4.13Z"/></g></g></g></g></svg>