<svg id="Layer_1" data-name="Layer 1" xmlns="http://www.w3.org/2000/svg" viewBox="0 0 38 40"><defs><style>.cls-1,.cls-8{fill:#fff;}.cls-2{fill:#4ee2bd;}.cls-3{fill:#21c8a0;}.cls-4{fill:#2fddb3;}.cls-5{fill:#84ebd3;}.cls-6{fill:#c7f7ed;}.cls-7{fill:#e6e6e6;}.cls-8{stroke:#21c8a0;stroke-miterlimit:10;stroke-width:0.97px;}</style></defs><title>2</title><g id="g1912"><path class="cls-1" d="M5.08,4.23C-.35,9.81-.36,30,5.06,35.6s24.53,5.53,29.89,0,5.4-25.79,0-31.37S10.56-1.41,5.08,4.23Z" transform="translate(-1)"/><path class="cls-2" d="M6.48,4.71c-4.92,5.06-4.93,23.36,0,28.43s22.23,5,27.08,0,4.89-23.37,0-28.43S11.45-.4,6.48,4.71Z" transform="translate(-1)"/><path class="cls-3" d="M33.54,29.3c-4.85,5-22.23,5-27.08,0C4.28,27.05,3.07,22.19,2.83,17c-.3,6.43.91,13.29,3.63,16.1,4.85,5,22.23,5,27.08,0,2.72-2.8,3.93-9.67,3.63-16.1C36.93,22.19,35.72,27.05,33.54,29.3Z" transform="translate(-1)"/><path class="cls-4" d="M4.91,27A8.7,8.7,0,0,0,6.46,29.3c4.85,5,22.23,5,27.08,0,1.87-1.93,3-5.79,3.47-10.11C27.9,26.11,17.18,28.64,4.91,27Z" transform="translate(-1)"/><path class="cls-5" d="M6.48,5C5,6.48,4,9.18,3.38,12.37,11.89,3.22,29,1.76,36.18,10.42A12.52,12.52,0,0,0,33.52,5C28.55-.14,11.45-.14,6.48,5Z" transform="translate(-1)"/><path class="cls-6" d="M10.73,3.76c-2.09.61-3.78,2.1-3.78,3.33S8.64,8.81,10.73,8.2s3.78-2.1,3.78-3.32S12.82,3.15,10.73,3.76Z" transform="translate(-1)"/><path class="cls-6" d="M17,2.08c-1.18.07-2.24.66-2.38,1.31s.71,1.12,1.88,1,2.24-.66,2.38-1.32S18.17,2,17,2.08Z" transform="translate(-1)"/><path class="cls-6" d="M31.41,26.83c-1.32.66-2.27,1.86-2.13,2.67s1.32.94,2.64.28,2.27-1.86,2.14-2.67S32.73,26.17,31.41,26.83Z" transform="translate(-1)"/><path class="cls-6" d="M37,19.45c-.44,4.32-1.6,8.18-3.47,10.11-4.85,5-22.23,5-27.08,0a8.7,8.7,0,0,1-1.55-2.34,27.15,27.15,0,0,1-2.08-9.93c0,.75,0,1.51,0,2.26,0-.52,0-1,0-1.56.24,5.15,1.45,10,3.63,12.27,4.85,5,22.23,5,27.08,0C35.72,28,36.93,23.15,37.17,18c0,.52,0,1,0,1.56,0-.75,0-1.51,0-2.26Q37.12,18.38,37,19.45Z" transform="translate(-1)"/><path class="cls-7" d="M34.95,35c-5.36,5.53-24.53,5.53-29.89,0-2.64-2.73-4-8.93-4.05-15.22C.94,26.35,2.29,33,5.06,35.86c5.36,5.53,24.53,5.53,29.89,0C37.71,33,39.06,26.35,39,19.77,38.94,26.06,37.59,32.27,34.95,35Z" transform="translate(-1)"/></g><path class="cls-8" d="M22.28,22.61a3.55,3.55,0,0,1-2.73,1.17,3.73,3.73,0,0,1-3.87-3.87V18.51a3.73,3.73,0,0,1,3.87-3.87,2.94,2.94,0,0,1,2,.7h.11a1.47,1.47,0,0,1,1.36-.7,1.61,1.61,0,0,1,1.71,1.64V21a1.15,1.15,0,0,0,.45.12c.91,0,1.59-.7,1.59-2.68a6.28,6.28,0,0,0-6.59-6.12,6.71,6.71,0,0,0-6.59,6.81,6.71,6.71,0,0,0,6.59,6.81c2.73,0,3.41-.7,4.43-.7a1.43,1.43,0,0,1,1.59,1.53A1.79,1.79,0,0,1,25,28.58a13.78,13.78,0,0,1-4.77.84,10.33,10.33,0,1,1,0-20.65c6.14,0,10.69,4.69,10.69,9.62a5.28,5.28,0,0,1-5.46,5.4,3.9,3.9,0,0,1-3.07-1.17Zm-.91-4.11a1.14,1.14,0,0,0-2.27,0v1.41a1.14,1.14,0,0,0,2.27,0Z" transform="translate(-1)"/></svg>