<svg id="Layer_1" data-name="Layer 1" xmlns="http://www.w3.org/2000/svg" viewBox="0 0 38 40"><defs><style>.cls-1{fill-opacity:0.2;}.cls-2{fill:#fff;}.cls-3{fill:#fe6048;}.cls-4{fill:#d42c12;}.cls-5{fill:#ff3617;}.cls-6{fill:#ff956e;}.cls-7{fill:#ffbea7;}.cls-8{fill:#e6e6e6;}.cls-9{fill:none;stroke:#d42c12;stroke-miterlimit:22.93;stroke-width:2.92px;}.cls-10{fill-opacity:0.1;}</style></defs><title>5</title><g id="g5452"><path class="cls-1" d="M5.08,5.63C-.35,11-.36,30.58,5.05,36s24.53,5.35,29.89,0,5.4-25,0-30.36S10.56.18,5.08,5.63Z" transform="translate(-1)"/><path class="cls-2" d="M5.08,4.09C-.35,9.49-.36,29,5.05,34.45s24.53,5.35,29.89,0,5.4-25,0-30.36S10.56-1.36,5.08,4.09Z" transform="translate(-1)"/><path class="cls-3" d="M6.48,4.55c-4.92,4.89-4.93,22.6,0,27.51s22.23,4.84,27.08,0,4.9-22.61,0-27.51S11.45-.38,6.48,4.55Z" transform="translate(-1)"/><path class="cls-4" d="M33.54,28.35c-4.85,4.84-22.23,4.84-27.08,0-2.18-2.18-3.39-6.88-3.63-11.87-.3,6.22.91,12.86,3.63,15.58,4.85,4.84,22.23,4.84,27.08,0,2.72-2.72,3.93-9.36,3.63-15.58C36.93,21.47,35.72,26.18,33.54,28.35Z" transform="translate(-1)"/><path class="cls-5" d="M4.91,26.09a8.46,8.46,0,0,0,1.55,2.26c4.85,4.84,22.23,4.84,27.08,0,1.87-1.87,3-5.61,3.47-9.78C27.9,25.26,17.18,27.71,4.91,26.09Z" transform="translate(-1)"/><path class="cls-6" d="M6.48,4.55C5,6,4,8.64,3.38,11.72,11.89,2.87,29,1.46,36.18,9.83a11.92,11.92,0,0,0-2.67-5.28C28.56-.38,11.45-.38,6.48,4.55Z" transform="translate(-1)"/><path class="cls-7" d="M10.36,3.37C8.27,4,6.58,5.4,6.58,6.59s1.69,1.66,3.78,1.07,3.78-2,3.78-3.21S12.45,2.78,10.36,3.37Z" transform="translate(-1)"/><path class="cls-7" d="M16.63,1.77c-1.18.07-2.24.64-2.38,1.27S15,4.12,16.13,4s2.24-.64,2.38-1.27S17.81,1.7,16.63,1.77Z" transform="translate(-1)"/><path class="cls-7" d="M31,25.69c-1.32.64-2.28,1.8-2.14,2.59s1.32.91,2.64.27,2.28-1.79,2.14-2.59S32.36,25.06,31,25.69Z" transform="translate(-1)"/><path class="cls-6" d="M37,18.57c-.44,4.17-1.6,7.91-3.47,9.78-4.85,4.84-22.23,4.84-27.08,0a8.46,8.46,0,0,1-1.55-2.26,25.63,25.63,0,0,1-2.08-9.61c0,.73,0,1.46,0,2.19,0-.51,0-1,0-1.51.24,5,1.45,9.69,3.63,11.87,4.85,4.84,22.23,4.84,27.08,0,2.18-2.18,3.39-6.88,3.63-11.87,0,.5,0,1,0,1.51,0-.73,0-1.46,0-2.19C37.14,17.19,37.09,17.89,37,18.57Z" transform="translate(-1)"/><path class="cls-8" d="M5.05,33.61C2.41,31,1.06,25,1,18.88c-.06,6.36,1.29,12.8,4.05,15.56,5.36,5.35,24.53,5.35,29.89,0,2.77-2.76,4.11-9.2,4.05-15.56C38.94,25,37.59,31,34.95,33.61,29.59,39,10.41,39,5.05,33.61Z" transform="translate(-1)"/></g><g id="g5466"><g id="g5458"><path class="cls-9" d="M28.81,11.6,26,8.91a.89.89,0,0,0-1.26,0L20,13.85,15.21,8.92a.89.89,0,0,0-1.26,0L11.19,11.6a.89.89,0,0,0,0,1.26l4.9,5-4.9,5a.89.89,0,0,0,0,1.26L14,26.86a.89.89,0,0,0,1.26,0L20,21.92l4.79,4.92a.89.89,0,0,0,1.26,0l2.76-2.69a.89.89,0,0,0,0-1.26l-4.9-5,4.9-5A.89.89,0,0,0,28.81,11.6Z" transform="translate(-1)"/><path class="cls-2" d="M28.81,11.6,26,8.91a.89.89,0,0,0-1.26,0L20,13.85,15.21,8.92a.89.89,0,0,0-1.26,0L11.19,11.6a.89.89,0,0,0,0,1.26l4.9,5-4.9,5a.89.89,0,0,0,0,1.26L14,26.86a.89.89,0,0,0,1.26,0L20,21.92l4.79,4.92a.89.89,0,0,0,1.26,0l2.76-2.69a.89.89,0,0,0,0-1.26l-4.9-5,4.9-5A.89.89,0,0,0,28.81,11.6Z" transform="translate(-1)"/></g><path class="cls-10" d="M11.19,11.6a.89.89,0,0,0,0,1.26l4.9,5,.73-.75-5.5-5.65Z" transform="translate(-1)"/><path class="cls-10" d="M28.7,22.78,26,25.36a.89.89,0,0,1-1.26,0L20,20.43l-4.79,4.92a.89.89,0,0,1-1.26,0L11.3,22.78l-.13.13a.89.89,0,0,0,0,1.26L14,26.86l0,0,.56.22a.9.9,0,0,0,.66-.27L20,21.92l4.79,4.92a.9.9,0,0,0,.67.27l.56-.22,0,0,2.76-2.69a.89.89,0,0,0,0-1.26Z" transform="translate(-1)"/><path class="cls-10" d="M28.7,11.49,23.2,17.14l.72.75,4.9-5a.89.89,0,0,0,0-1.26Z" transform="translate(-1)"/></g></svg>