<svg id="Layer_1" data-name="Layer 1" xmlns="http://www.w3.org/2000/svg" viewBox="0 0 38 40"><defs><style>.cls-1{fill-opacity:0.2;}.cls-2{fill:#fff;}.cls-3{fill:#a5e24d;}.cls-4{fill:#82c822;}.cls-5{fill:#94dd2f;}.cls-6{fill:#c0eb85;}.cls-7{fill:#e1f6c6;}.cls-8{fill:#e6e6e6;}.cls-9{fill:none;stroke:#82c822;stroke-miterlimit:22.93;stroke-width:2.14px;}.cls-10{fill-opacity:0.1;}</style></defs><title>6</title><g id="g3360"><g id="g3348"><path class="cls-1" d="M5.08,5.63C-.35,11-.36,30.58,5.06,36s24.53,5.35,29.89,0,5.4-25,0-30.36S10.56.18,5.08,5.63Z" transform="translate(-1)"/><path class="cls-2" d="M5.08,4.09C-.35,9.49-.36,29,5.06,34.45s24.53,5.35,29.89,0,5.4-25,0-30.36S10.56-1.36,5.08,4.09Z" transform="translate(-1)"/><path class="cls-3" d="M6.48,4.55c-4.92,4.89-4.93,22.6,0,27.5s22.23,4.84,27.08,0,4.89-22.61,0-27.5S11.45-.38,6.48,4.55Z" transform="translate(-1)"/><path class="cls-4" d="M33.54,28.35c-4.86,4.84-22.23,4.84-27.08,0-2.18-2.18-3.39-6.88-3.63-11.87-.3,6.22.91,12.86,3.63,15.57,4.86,4.84,22.23,4.84,27.08,0,2.72-2.72,3.93-9.36,3.63-15.57C36.93,21.47,35.72,26.18,33.54,28.35Z" transform="translate(-1)"/><path class="cls-5" d="M4.91,26.09a8.46,8.46,0,0,0,1.55,2.26c4.86,4.84,22.23,4.84,27.08,0,1.87-1.87,3-5.6,3.47-9.78C27.9,25.26,17.18,27.71,4.91,26.09Z" transform="translate(-1)"/><path class="cls-6" d="M6.48,4.55C5,6,4,8.64,3.38,11.72,11.89,2.87,29,1.46,36.18,9.83a11.94,11.94,0,0,0-2.67-5.28C28.55-.38,11.45-.38,6.48,4.55Z" transform="translate(-1)"/><path class="cls-7" d="M10.36,3.37c-2.09.59-3.78,2-3.78,3.22s1.69,1.67,3.78,1.07,3.78-2,3.78-3.22S12.45,2.78,10.36,3.37Z" transform="translate(-1)"/><path class="cls-7" d="M16.63,1.77c-1.18.07-2.24.64-2.38,1.27S15,4.12,16.13,4s2.24-.64,2.38-1.27S17.8,1.7,16.63,1.77Z" transform="translate(-1)"/><path class="cls-7" d="M31,25.69c-1.32.64-2.27,1.8-2.14,2.59s1.32.91,2.64.27,2.27-1.8,2.14-2.59S32.36,25.06,31,25.69Z" transform="translate(-1)"/><path class="cls-6" d="M37,18.57c-.44,4.18-1.6,7.91-3.47,9.78-4.86,4.84-22.23,4.84-27.08,0a8.46,8.46,0,0,1-1.55-2.26,25.62,25.62,0,0,1-2.08-9.61c0,.73,0,1.46,0,2.19,0-.5,0-1,0-1.51.24,5,1.45,9.69,3.63,11.87,4.86,4.84,22.23,4.84,27.08,0,2.18-2.18,3.39-6.88,3.63-11.87,0,.5,0,1,0,1.51,0-.73,0-1.46,0-2.19Q37.12,17.54,37,18.57Z" transform="translate(-1)"/><path class="cls-8" d="M34.94,33.61C29.59,39,10.41,39,5.06,33.61,2.41,31,1.06,25,1,18.88c-.06,6.36,1.29,12.8,4.05,15.56,5.36,5.35,24.53,5.35,29.89,0,2.76-2.76,4.11-9.2,4.05-15.56C38.94,25,37.59,31,34.94,33.61Z" transform="translate(-1)"/></g><g id="g3358"><g id="g3354"><path class="cls-9" d="M28.19,10.82c-.45-.51-1-.43-1.64.14l-8.33,7.77c-.47.44-.72.36-1.13,0l-3.92-3.81c-.41-.4-.88-.48-1.27-.05L9.41,17.59a.71.71,0,0,0,0,1.13l6.45,6.84a1.91,1.91,0,0,0,2.74.16L30.35,15.06c.51-.47.73-.85.25-1.47C29.86,12.63,29,11.75,28.19,10.82Z" transform="translate(-1)"/><path class="cls-2" d="M28.19,10.82c-.45-.51-1-.43-1.64.14l-8.33,7.77c-.47.44-.72.36-1.13,0l-3.92-3.81c-.41-.4-.88-.48-1.27-.05L9.41,17.59a.71.71,0,0,0,0,1.13l6.45,6.84a1.91,1.91,0,0,0,2.74.16L30.35,15.06c.51-.47.73-.85.25-1.47C29.86,12.63,29,11.75,28.19,10.82Z" transform="translate(-1)"/></g><path class="cls-10" d="M30.26,13.16,18.59,23.73a1.91,1.91,0,0,1-2.74-.16L9.8,17.16l-.39.43a.71.71,0,0,0,0,1.13l6.45,6.84a1.91,1.91,0,0,0,2.74.16L30.35,15.06c.51-.47.73-.84.25-1.47Z" transform="translate(-1)"/></g></g></svg>