<svg id="Layer_1" data-name="Layer 1" xmlns="http://www.w3.org/2000/svg" viewBox="0 0 38 40"><defs><style>.cls-1,.cls-9{fill:#fff;}.cls-2{fill:#e2964e;}.cls-3{fill:#c87421;}.cls-4{fill:#dd852f;}.cls-5{fill:#ebb884;}.cls-6{fill:#f7e0c7;}.cls-7{fill:#e4ab6e;}.cls-8{fill:#e6e6e6;}.cls-9{stroke:#c87421;stroke-miterlimit:10;stroke-width:0.97px;}</style></defs><title>1</title><g id="g1912"><path class="cls-1" d="M4.94,4.23C-.49,9.81-.51,30,4.91,35.6s24.53,5.53,29.89,0,5.4-25.79,0-31.37S10.42-1.41,4.94,4.23Z" transform="translate(-0.86 0)"/><path class="cls-2" d="M6.34,4.71c-4.92,5.06-4.93,23.36,0,28.43s22.23,5,27.08,0,4.89-23.37,0-28.43S11.31-.4,6.34,4.71Z" transform="translate(-0.86 0)"/><path class="cls-3" d="M33.4,29.3c-4.85,5-22.23,5-27.08,0C4.13,27.05,2.93,22.19,2.69,17c-.3,6.43.91,13.29,3.63,16.1,4.85,5,22.23,5,27.08,0,2.72-2.8,3.93-9.67,3.63-16.1C36.79,22.19,35.58,27.05,33.4,29.3Z" transform="translate(-0.86 0)"/><path class="cls-4" d="M4.77,27A8.7,8.7,0,0,0,6.32,29.3c4.85,5,22.23,5,27.08,0,1.87-1.93,3-5.79,3.47-10.11C27.76,26.11,17,28.64,4.77,27Z" transform="translate(-0.86 0)"/><path class="cls-5" d="M6.34,5c-1.47,1.52-2.51,4.22-3.1,7.4C11.75,3.22,28.82,1.76,36,10.42A12.52,12.52,0,0,0,33.38,5C28.41-.14,11.31-.14,6.34,5Z" transform="translate(-0.86 0)"/><path class="cls-6" d="M10.59,3.74C8.5,4.35,6.8,5.84,6.8,7.07S8.5,8.79,10.59,8.17s3.78-2.1,3.78-3.32S12.68,3.13,10.59,3.74Z" transform="translate(-0.86 0)"/><path class="cls-6" d="M16.85,2.08c-1.18.07-2.24.66-2.38,1.31s.71,1.12,1.88,1,2.24-.66,2.38-1.32S18,2,16.85,2.08Z" transform="translate(-0.86 0)"/><path class="cls-6" d="M31.27,26.81c-1.32.66-2.27,1.86-2.13,2.67s1.32.94,2.64.28,2.27-1.86,2.14-2.67S32.59,26.15,31.27,26.81Z" transform="translate(-0.86 0)"/><path class="cls-7" d="M36.87,19.45c-.44,4.32-1.6,8.18-3.47,10.11-4.85,5-22.23,5-27.08,0a8.7,8.7,0,0,1-1.55-2.34,27.15,27.15,0,0,1-2.08-9.93c0,.75,0,1.51,0,2.26,0-.52,0-1,0-1.56.24,5.15,1.45,10,3.63,12.27,4.85,5,22.23,5,27.08,0C35.58,28,36.79,23.15,37,18c0,.52,0,1,0,1.56,0-.75,0-1.51,0-2.26Q37,18.38,36.87,19.45Z" transform="translate(-0.86 0)"/><path class="cls-8" d="M34.8,35c-5.36,5.53-24.53,5.53-29.89,0C2.27,32.27.92,26.06.86,19.77.8,26.35,2.15,33,4.91,35.86c5.36,5.53,24.53,5.53,29.89,0,2.76-2.85,4.11-9.51,4.05-16.08C38.8,26.06,37.45,32.27,34.8,35Z" transform="translate(-0.86 0)"/></g><path class="cls-9" d="M8.46,28.09l1,1,0,0A5.85,5.85,0,0,0,11,30a6,6,0,0,0,1.51.39c.24,0,5.73.56,12.55-6.48C30,18.81,31.81,15.06,31.33,11A6.54,6.54,0,0,0,31,9.4a6.16,6.16,0,0,0-.84-1.54l0,0-1-1.06a1.85,1.85,0,0,0-2.67-.05l-3.63,3.75a2,2,0,0,0,0,2.76l.6.62,1.23,1.27-.2.36A18.9,18.9,0,0,1,21.3,20a18.23,18.23,0,0,1-4.4,3.29l-.36.21-1.83-1.89A1.85,1.85,0,0,0,12,21.58L8.41,25.33A2,2,0,0,0,8.46,28.09Z" transform="translate(-0.86 0)"/></svg>