<svg id="Layer_1" data-name="Layer 1" xmlns="http://www.w3.org/2000/svg" viewBox="0 0 37.06 40"><defs><style>.cls-1{fill-opacity:0.2;}.cls-2{fill:#fff;}.cls-3{fill:#5f7c7c;}.cls-4{fill:#324e4e;}.cls-5{fill:#4f6d6d;}.cls-6{fill:#738f8f;}.cls-7{fill:#839d9d;}.cls-8{fill:#e6e6e6;}.cls-9{fill-opacity:0.1;}</style></defs><title>3</title><g id="g2108"><g id="g2096"><path class="cls-1" d="M5.45,5.63C.15,11,.14,30.58,5.42,36s23.93,5.35,29.15,0,5.27-25,0-30.36S10.79.18,5.45,5.63Z" transform="translate(-1.47 0)"/><path class="cls-2" d="M5.45,4.09C.15,9.49.14,29,5.42,34.45s23.93,5.35,29.15,0,5.27-25,0-30.36S10.79-1.36,5.45,4.09Z" transform="translate(-1.47 0)"/><path class="cls-3" d="M6.81,4.55C2,9.45,2,27.16,6.79,32.06s21.68,4.85,26.41,0,4.77-22.61,0-27.5S11.66-.38,6.81,4.55Z" transform="translate(-1.47 0)"/><path class="cls-4" d="M33.21,28.36c-4.74,4.85-21.68,4.85-26.41,0-2.13-2.18-3.31-6.89-3.54-11.87C3,22.7,4.14,29.35,6.79,32.06c4.73,4.85,21.68,4.85,26.41,0,2.65-2.71,3.83-9.36,3.54-15.58C36.52,21.47,35.33,26.18,33.21,28.36Z" transform="translate(-1.47 0)"/><path class="cls-5" d="M5.28,26.09a8.43,8.43,0,0,0,1.51,2.26c4.73,4.85,21.68,4.85,26.41,0,1.83-1.87,3-5.61,3.38-9.78C27.71,25.26,17.25,27.72,5.28,26.09Z" transform="translate(-1.47 0)"/><path class="cls-6" d="M6.81,4.55C5.38,6,4.37,8.64,3.79,11.72c8.3-8.84,24.95-10.26,32-1.89a12.09,12.09,0,0,0-2.6-5.28C28.34-.38,11.66-.38,6.81,4.55Z" transform="translate(-1.47 0)"/><path class="cls-7" d="M10.6,3.37c-2,.59-3.69,2-3.69,3.22S8.56,8.26,10.6,7.66s3.69-2,3.69-3.22S12.63,2.78,10.6,3.37Z" transform="translate(-1.47 0)"/><path class="cls-7" d="M16.71,1.77c-1.15.07-2.19.64-2.32,1.27s.69,1.08,1.84,1,2.19-.64,2.32-1.27S17.86,1.7,16.71,1.77Z" transform="translate(-1.47 0)"/><path class="cls-7" d="M30.77,25.7c-1.29.64-2.22,1.8-2.09,2.59s1.29.91,2.58.27,2.22-1.8,2.08-2.59S32.06,25.06,30.77,25.7Z" transform="translate(-1.47 0)"/><path class="cls-7" d="M36.59,18.57c-.43,4.18-1.56,7.91-3.38,9.78-4.74,4.85-21.68,4.85-26.41,0a8.43,8.43,0,0,1-1.51-2.26,26.19,26.19,0,0,1-2-9.61c0,.73,0,1.46,0,2.19,0-.5,0-1,0-1.51.23,5,1.41,9.69,3.54,11.87,4.73,4.85,21.68,4.85,26.41,0,2.13-2.18,3.31-6.88,3.54-11.87,0,.5,0,1,0,1.51,0-.73,0-1.46,0-2.19C36.72,17.19,36.66,17.89,36.59,18.57Z" transform="translate(-1.47 0)"/><path class="cls-8" d="M34.58,33.61C29.35,39,10.65,39,5.42,33.61,2.84,31,1.53,25,1.47,18.89c-.06,6.36,1.26,12.8,4,15.56,5.22,5.35,23.93,5.35,29.15,0,2.69-2.76,4-9.2,4-15.56C38.47,25,37.16,31,34.58,33.61Z" transform="translate(-1.47 0)"/></g><g id="g2106"><g id="g2102"><polygon class="cls-4" points="23.14 13.47 23.5 13.84 23.5 10.78 23.14 10.78 23.14 13.47"/><polygon class="cls-4" points="13.95 14.21 13.95 13.84 12.94 13.84 12.94 14.68 13.1 14.68 13.1 14.69 13.1 14.85 13.32 14.85 13.95 14.21"/><polygon class="cls-4" points="22.85 9.18 22.85 9.18 22.85 9.18 22.85 9.18"/><polygon class="cls-4" points="22.85 9.18 22.85 9.18 22.72 9.31 22.85 9.18"/><polygon class="cls-4" points="23.14 13.84 21.53 13.84 21.53 12.83 15.91 12.83 15.91 13.84 14.93 14.85 22.52 14.85 23.14 14.21 23.14 13.84"/><polygon class="cls-4" points="21.34 8.88 21.39 8.88 21.43 8.89 21.48 8.89 21.52 8.9 21.57 8.9 21.61 8.91 21.66 8.92 21.7 8.93 21.75 8.94 21.79 8.95 21.83 8.97 21.88 8.98 21.92 9 21.96 9.01 22 9.03 22.05 9.05 22.09 9.07 22.13 9.09 22.17 9.11 22.2 9.13 22.25 9.16 22.28 9.18 22.32 9.21 22.36 9.23 22.39 9.26 22.43 9.29 22.46 9.32 22.5 9.35 22.53 9.38 22.56 9.41 22.6 9.44 22.72 9.31 22.85 9.18 22.81 9.14 22.78 9.11 22.73 9.07 22.69 9.04 22.65 9 22.61 8.96 22.57 8.93 22.53 8.91 22.48 8.87 22.43 8.84 22.39 8.82 22.34 8.79 22.29 8.76 22.25 8.74 22.2 8.72 22.15 8.69 22.09 8.67 22.05 8.65 22 8.63 21.95 8.62 21.89 8.6 21.84 8.58 21.79 8.57 21.73 8.56 21.68 8.55 21.63 8.54 21.57 8.53 21.51 8.52 21.46 8.52 21.41 8.52 21.34 8.52 21.29 8.51 21.29 8.88 21.34 8.88"/><polygon class="cls-4" points="23.14 14.21 23.14 14.85 23.5 14.85 23.5 14.21 23.32 14.02 23.14 14.21"/><polygon class="cls-4" points="22.52 14.85 23.14 14.85 23.14 14.21 22.52 14.85"/><polygon class="cls-4" points="23.32 14.02 23.5 13.84 23.14 13.84 23.32 14.02"/><polygon class="cls-4" points="23.5 14.21 23.5 13.84 23.32 14.02 23.5 14.21"/><polygon class="cls-4" points="23.14 13.84 23.5 13.84 23.14 13.47 23.14 13.84"/><polygon class="cls-4" points="14.3 13.84 13.95 13.47 13.95 13.84 14.3 13.84"/><polygon class="cls-4" points="14.3 10.78 13.95 10.78 13.95 13.47 14.3 13.84 14.3 10.78"/><polygon class="cls-4" points="13.95 13.47 13.32 12.83 12.94 12.83 12.94 13.84 13.95 13.84 13.95 13.47"/><polygon class="cls-4" points="13.1 14.7 13.1 14.71 13.1 14.72 13.1 14.73 13.09 14.73 13.09 14.74 13.09 14.75 13.09 14.76 13.08 14.76 13.08 14.77 13.08 14.78 13.07 14.78 13.06 14.79 13.06 14.79 13.06 14.8 13.05 14.81 13.04 14.81 13.04 14.81 13.03 14.82 13.02 14.83 13.02 14.83 13.01 14.83 13 14.84 12.99 14.84 12.98 14.84 12.97 14.84 12.97 14.85 12.96 14.85 12.95 14.85 12.94 14.85 13.1 14.85 13.1 14.69 13.1 14.7"/><polygon class="cls-4" points="14.31 10.73 14.31 10.68 14.31 10.63 14.32 10.59 14.32 10.54 14.33 10.49 14.33 10.45 14.34 10.4 14.35 10.35 14.36 10.31 14.37 10.26 14.39 10.22 14.4 10.18 14.42 10.13 14.43 10.09 14.45 10.04 14.47 10 14.49 9.96 14.51 9.92 14.53 9.88 14.55 9.84 14.57 9.8 14.6 9.76 14.62 9.72 14.65 9.69 14.68 9.65 14.7 9.61 14.73 9.57 14.76 9.54 14.79 9.51 14.82 9.47 14.85 9.44 14.59 9.18 14.59 9.18 14.59 9.18 14.59 9.18 14.56 9.22 14.53 9.25 14.49 9.3 14.45 9.34 14.42 9.38 14.38 9.43 14.36 9.46 14.33 9.51 14.29 9.56 14.27 9.61 14.24 9.65 14.21 9.7 14.19 9.75 14.16 9.8 14.14 9.84 14.12 9.9 14.1 9.95 14.08 10 14.06 10.05 14.05 10.1 14.03 10.16 14.01 10.22 14 10.27 13.99 10.32 13.98 10.38 13.97 10.43 13.96 10.49 13.96 10.55 13.95 10.61 13.95 10.66 13.95 10.72 13.95 10.78 14.3 10.78 14.31 10.73"/><polygon class="cls-4" points="12.96 14.85 12.97 14.85 12.97 14.84 12.98 14.84 12.99 14.84 13 14.84 13.01 14.83 13.02 14.83 13.02 14.83 13.03 14.82 13.04 14.81 13.04 14.81 13.05 14.81 13.06 14.8 13.06 14.79 13.06 14.79 13.07 14.78 13.08 14.78 13.08 14.77 13.08 14.76 13.09 14.76 13.09 14.75 13.09 14.74 13.09 14.73 13.1 14.73 13.1 14.72 13.1 14.71 13.1 14.7 13.1 14.69 13.1 14.68 12.94 14.68 12.94 14.85 12.95 14.85 12.96 14.85"/><polygon class="cls-4" points="14.85 9.44 14.85 9.44 14.6 9.18 14.59 9.18 14.85 9.44"/><polygon class="cls-4" points="14.88 9.41 14.91 9.38 14.95 9.35 14.98 9.32 15.02 9.29 15.05 9.26 15.09 9.23 15.12 9.21 15.16 9.18 15.2 9.16 15.24 9.13 15.28 9.11 15.32 9.09 15.36 9.07 15.4 9.05 15.44 9.03 15.48 9.01 15.52 9 15.57 8.98 15.61 8.97 15.65 8.95 15.7 8.94 15.74 8.93 15.78 8.92 15.83 8.91 15.88 8.9 15.92 8.9 15.97 8.89 16.01 8.89 16.06 8.88 16.11 8.88 16.16 8.88 16.16 8.51 16.1 8.52 16.04 8.52 15.99 8.52 15.94 8.52 15.88 8.53 15.82 8.54 15.77 8.55 15.71 8.56 15.66 8.57 15.61 8.58 15.55 8.6 15.5 8.62 15.45 8.63 15.4 8.65 15.35 8.67 15.29 8.69 15.24 8.72 15.2 8.74 15.15 8.76 15.1 8.79 15.05 8.82 15.01 8.84 14.96 8.87 14.91 8.91 14.88 8.93 14.84 8.96 14.79 9 14.75 9.04 14.71 9.07 14.67 9.11 14.63 9.14 14.6 9.18 14.85 9.44 14.88 9.41"/><rect class="cls-4" x="16.16" y="8.51" width="5.13" height="0.37"/><polygon class="cls-4" points="14.59 9.18 14.59 9.18 14.59 9.18 14.59 9.18"/><polygon class="cls-4" points="14.59 9.18 14.59 9.18 14.59 9.18 14.59 9.18"/><circle class="cls-4" cx="16.06" cy="9.18" transform="translate(-2.36 1.78) rotate(-6.19)"/><polygon class="cls-4" points="22.72 9.31 22.6 9.44 22.63 9.47 22.66 9.51 22.69 9.54 22.71 9.57 22.74 9.61 22.77 9.65 22.8 9.69 22.82 9.72 22.85 9.76 22.87 9.8 22.89 9.84 22.92 9.88 22.94 9.92 22.96 9.96 22.98 10 22.99 10.04 23.01 10.09 23.03 10.13 23.04 10.18 23.06 10.22 23.07 10.26 23.08 10.31 23.09 10.35 23.1 10.4 23.11 10.45 23.12 10.49 23.12 10.54 23.13 10.59 23.14 10.63 23.14 10.68 23.14 10.73 23.14 10.78 23.5 10.78 23.5 10.72 23.5 10.66 23.49 10.61 23.49 10.55 23.48 10.49 23.47 10.43 23.46 10.38 23.45 10.32 23.44 10.27 23.43 10.22 23.42 10.16 23.4 10.1 23.38 10.05 23.36 10 23.35 9.95 23.32 9.9 23.3 9.84 23.28 9.8 23.26 9.75 23.23 9.7 23.2 9.65 23.18 9.61 23.15 9.56 23.12 9.51 23.09 9.46 23.06 9.43 23.02 9.38 22.99 9.34 22.96 9.3 22.92 9.25 22.89 9.22 22.85 9.18 22.85 9.18 22.85 9.18 22.72 9.31"/><polygon class="cls-4" points="13.32 14.85 13.95 14.85 13.95 14.21 13.32 14.85"/><polygon class="cls-4" points="21.53 12.83 22.52 12.83 23.14 13.47 23.14 10.78 21.53 10.78 21.53 12.83"/><polygon class="cls-4" points="22.72 9.31 22.6 9.44 22.6 9.44 22.72 9.31"/><polygon class="cls-4" points="23.32 14.02 23.14 13.84 23.14 14.21 23.32 14.02"/><polygon class="cls-4" points="21.53 12.83 21.53 13.84 23.14 13.84 23.14 13.47 22.52 12.83 21.53 12.83"/><polygon class="cls-4" points="24.12 14.85 23.5 14.21 23.5 14.85 24.12 14.85"/><polygon class="cls-4" points="22.85 9.18 22.85 9.18 22.85 9.18 22.85 9.18"/><polygon class="cls-4" points="24.47 23.97 24.46 23.98 24.45 23.98 24.45 23.98 24.44 23.99 24.43 23.99 24.43 23.99 24.42 24 24.41 24 24.41 24 24.4 24.01 24.39 24.02 24.39 24.02 24.39 24.02 24.38 24.03 24.37 24.04 24.37 24.04 24.37 24.05 24.36 24.06 24.36 24.06 24.36 24.07 24.35 24.08 24.35 24.08 24.35 24.09 24.34 24.1 24.34 24.11 24.34 24.12 24.34 24.13 24.34 24.14 24.5 24.14 24.5 23.97 24.5 23.97 24.48 23.97 24.48 23.97 24.47 23.97"/><polygon class="cls-4" points="24.34 24.12 24.34 24.11 24.34 24.1 24.35 24.09 24.35 24.08 24.35 24.08 24.36 24.07 24.36 24.06 24.36 24.06 24.37 24.05 24.37 24.04 24.37 24.04 24.38 24.03 24.39 24.02 24.39 24.02 24.39 24.02 24.4 24.01 24.41 24 24.41 24 24.42 24 24.43 23.99 24.43 23.99 24.44 23.99 24.45 23.98 24.45 23.98 24.46 23.98 24.47 23.97 24.48 23.97 24.48 23.97 24.34 23.97 24.34 24.13 24.34 24.12"/><polygon class="cls-4" points="13.1 24.11 13.1 24.1 13.1 24.09 13.09 24.08 13.09 24.08 13.09 24.07 13.09 24.06 13.08 24.06 13.08 24.05 13.07 24.04 13.07 24.04 13.06 24.03 13.06 24.02 13.06 24.02 13.05 24.02 13.04 24.01 13.04 24 13.03 24 13.03 24 13.02 23.99 13.02 23.99 13.01 23.99 13 23.98 12.99 23.98 12.98 23.98 12.97 23.97 12.97 23.97 12.96 23.97 12.95 23.97 12.94 23.97 12.94 24.14 13.1 24.14 13.1 24.13 13.1 24.12 13.1 24.11"/><polygon class="cls-4" points="12.97 23.97 12.97 23.97 12.98 23.98 12.99 23.98 13 23.98 13.01 23.99 13.02 23.99 13.02 23.99 13.03 24 13.03 24 13.04 24 13.04 24.01 13.05 24.02 13.06 24.02 13.06 24.02 13.06 24.03 13.07 24.04 13.07 24.04 13.08 24.05 13.08 24.06 13.09 24.06 13.09 24.07 13.09 24.08 13.09 24.08 13.1 24.09 13.1 24.1 13.1 24.11 13.1 24.12 13.1 24.13 13.1 23.97 12.96 23.97 12.97 23.97"/><polygon class="cls-4" points="14.3 14.85 14.93 14.85 14.3 14.21 14.3 14.85"/><polygon class="cls-4" points="13.95 13.84 13.95 14.21 14.13 14.02 13.95 13.84"/><polygon class="cls-4" points="14.13 14.02 13.95 14.21 13.95 14.85 14.3 14.85 14.3 14.21 14.13 14.02"/><polygon class="cls-4" points="15.91 12.83 15.91 10.78 14.3 10.78 14.3 13.84 14.3 14.21 14.93 14.85 14.93 12.83 15.91 12.83"/><polygon class="cls-4" points="21.46 10.61 21.47 10.62 21.48 10.62 21.48 10.62 21.48 10.63 21.48 10.63 21.49 10.64 21.5 10.65 21.5 10.65 21.5 10.66 21.5 10.66 21.51 10.66 21.51 10.67 21.52 10.68 21.52 10.69 21.52 10.7 21.52 10.7 21.52 10.71 21.52 10.71 21.53 10.71 21.53 10.72 21.53 10.73 21.53 10.74 21.53 10.74 21.53 10.75 21.53 10.75 21.53 10.76 21.53 10.77 21.53 10.77 21.53 10.78 23.14 10.78 23.14 10.73 23.14 10.68 23.14 10.63 23.13 10.59 23.12 10.54 23.12 10.49 23.11 10.45 23.1 10.4 23.09 10.35 23.08 10.31 23.07 10.26 23.06 10.22 23.04 10.18 23.03 10.13 23.01 10.09 22.99 10.04 22.98 10 22.96 9.96 22.94 9.92 22.92 9.88 22.89 9.84 22.87 9.8 22.85 9.76 22.82 9.72 22.8 9.69 22.77 9.65 22.74 9.61 22.71 9.57 22.69 9.54 22.66 9.51 22.63 9.47 22.6 9.44 22.6 9.44 21.46 10.6 21.46 10.61"/><polygon class="cls-4" points="14.3 13.84 13.95 13.84 14.13 14.02 14.3 13.84"/><polygon class="cls-4" points="15.91 12.83 14.93 12.83 14.93 14.85 15.91 13.84 15.91 12.83"/><rect class="cls-4" x="16.16" y="8.88" width="5.13" height="1.64"/><polygon class="cls-4" points="14.3 14.21 14.3 13.84 14.13 14.02 14.3 14.21"/><polygon class="cls-4" points="21.29 10.53 21.3 10.53 21.31 10.53 21.32 10.53 21.32 10.53 21.32 10.53 21.33 10.53 21.34 10.53 21.34 10.53 21.35 10.54 21.36 10.54 21.36 10.54 21.37 10.54 21.38 10.55 21.38 10.55 21.39 10.55 21.4 10.56 21.4 10.56 21.41 10.56 21.41 10.56 21.42 10.57 21.43 10.57 21.44 10.58 21.44 10.58 21.45 10.59 21.46 10.6 21.46 10.6 22.6 9.44 22.56 9.41 22.53 9.38 22.5 9.35 22.46 9.32 22.43 9.29 22.39 9.26 22.36 9.23 22.32 9.21 22.28 9.18 22.25 9.16 22.2 9.13 22.17 9.11 22.13 9.09 22.09 9.07 22.05 9.05 22 9.03 21.96 9.01 21.92 9 21.88 8.98 21.83 8.97 21.79 8.95 21.75 8.94 21.7 8.93 21.66 8.92 21.61 8.91 21.57 8.9 21.52 8.9 21.48 8.89 21.43 8.89 21.39 8.88 21.34 8.88 21.29 8.88 21.29 10.53 21.29 10.53"/><polygon class="cls-4" points="15.91 10.77 15.91 10.77 15.91 10.76 15.91 10.75 15.91 10.75 15.91 10.74 15.91 10.74 15.91 10.73 15.92 10.72 15.92 10.71 15.92 10.71 15.92 10.7 15.93 10.7 15.93 10.69 15.93 10.68 15.94 10.67 15.94 10.66 15.94 10.66 15.94 10.66 15.95 10.65 15.95 10.65 15.96 10.64 15.96 10.63 15.96 10.63 15.97 10.62 15.97 10.62 15.97 10.62 15.98 10.61 15.98 10.6 14.85 9.44 14.85 9.44 14.82 9.47 14.79 9.51 14.76 9.54 14.73 9.57 14.7 9.61 14.68 9.65 14.65 9.69 14.62 9.72 14.6 9.76 14.57 9.8 14.55 9.84 14.53 9.88 14.51 9.92 14.49 9.96 14.47 10 14.45 10.04 14.43 10.09 14.42 10.13 14.4 10.18 14.39 10.22 14.37 10.26 14.36 10.31 14.35 10.35 14.34 10.4 14.33 10.45 14.33 10.49 14.32 10.54 14.32 10.59 14.31 10.63 14.31 10.68 14.31 10.73 14.3 10.78 15.91 10.78 15.91 10.77"/><polygon class="cls-4" points="15.99 10.6 16 10.59 16 10.58 16.01 10.58 16.02 10.57 16.03 10.57 16.03 10.56 16.04 10.56 16.04 10.56 16.05 10.56 16.05 10.55 16.06 10.55 16.07 10.55 16.08 10.54 16.08 10.54 16.09 10.54 16.09 10.54 16.1 10.53 16.11 10.53 16.11 10.53 16.12 10.53 16.13 10.53 16.13 10.53 16.14 10.53 16.15 10.53 16.15 10.53 16.16 10.53 16.16 8.88 16.11 8.88 16.06 8.88 16.01 8.89 15.97 8.89 15.92 8.9 15.88 8.9 15.83 8.91 15.78 8.92 15.74 8.93 15.7 8.94 15.65 8.95 15.61 8.97 15.57 8.98 15.52 9 15.48 9.01 15.44 9.03 15.4 9.05 15.36 9.07 15.32 9.09 15.28 9.11 15.24 9.13 15.2 9.16 15.16 9.18 15.12 9.21 15.09 9.23 15.05 9.26 15.02 9.29 14.98 9.32 14.95 9.35 14.91 9.38 14.88 9.41 14.85 9.44 15.98 10.6 15.99 10.6"/><polygon class="cls-4" points="12.94 23.97 12.95 23.97 12.96 23.97 13.1 23.97 13.1 14.85 12.94 14.85 12.94 14.68 11.14 14.68 11.14 24.14 12.94 24.14 12.94 23.97"/><polygon class="cls-4" points="24.12 12.83 24.12 14.85 24.5 14.46 24.5 12.83 24.12 12.83"/><polygon class="cls-4" points="24.34 14.85 24.34 14.69 24.34 14.68 24.5 14.68 24.5 14.46 24.12 14.85 24.34 14.85"/><polygon class="cls-4" points="24.95 12.89 24.86 12.87 24.77 12.85 24.69 12.84 24.59 12.84 24.5 12.83 24.5 14.46 25.1 13.84 25.1 12.94 25.04 12.91 24.95 12.89"/><polygon class="cls-4" points="22.89 9.22 22.92 9.25 22.96 9.3 22.99 9.34 23.02 9.38 23.06 9.43 23.09 9.46 23.12 9.51 23.15 9.56 23.18 9.61 23.2 9.65 23.23 9.7 23.26 9.75 23.28 9.8 23.3 9.84 23.32 9.9 23.35 9.95 23.36 10 23.38 10.05 23.4 10.1 23.42 10.16 23.43 10.22 23.44 10.27 23.45 10.32 23.46 10.38 23.47 10.43 23.48 10.49 23.49 10.55 23.49 10.61 23.5 10.66 23.5 10.72 23.5 10.78 25.1 10.78 25.1 10.68 25.1 10.58 25.09 10.48 25.08 10.38 25.07 10.28 25.06 10.19 25.05 10.09 25.03 9.99 25.01 9.9 24.98 9.8 24.96 9.71 24.93 9.62 24.9 9.52 24.87 9.44 24.84 9.35 24.8 9.26 24.77 9.17 24.73 9.09 24.68 9 24.64 8.92 24.59 8.83 24.55 8.75 24.5 8.67 24.45 8.59 24.4 8.52 24.34 8.44 24.29 8.36 24.23 8.29 24.17 8.22 24.11 8.15 24.05 8.08 23.98 8.02 22.85 9.18 22.89 9.22"/><polygon class="cls-4" points="23.5 13.84 23.5 14.21 24.12 14.85 24.12 12.83 24.5 12.83 24.59 12.84 24.69 12.84 24.77 12.85 24.86 12.87 24.95 12.89 25.04 12.91 25.1 12.94 25.1 10.78 23.5 10.78 23.5 13.84"/><polygon class="cls-4" points="24.34 14.69 24.34 14.7 24.34 14.71 24.34 14.72 24.35 14.73 24.35 14.73 24.35 14.74 24.36 14.75 24.36 14.76 24.36 14.76 24.37 14.77 24.37 14.78 24.37 14.78 24.38 14.79 24.38 14.79 24.39 14.8 24.39 14.81 24.4 14.81 24.41 14.81 24.42 14.82 24.43 14.83 24.43 14.83 24.44 14.83 24.45 14.84 24.45 14.84 24.46 14.84 24.47 14.84 24.48 14.85 24.48 14.85 24.49 14.85 24.5 14.85 24.5 14.68 24.34 14.68 24.34 14.69"/><polygon class="cls-4" points="18.89 18.27 18.89 18.29 18.89 18.3 18.88 18.31 18.88 18.33 18.88 18.34 18.88 18.35 18.87 18.36 18.87 18.38 18.87 18.39 18.86 18.4 18.86 18.41 18.85 18.42 18.84 18.43 18.84 18.44 18.83 18.45 18.83 18.46 18.82 18.47 18.81 18.48 18.8 18.49 18.8 18.51 18.79 18.51 18.78 18.52 18.77 18.53 18.76 18.54 18.75 18.54 18.74 18.56 18.73 18.56 18.72 18.57 18.71 18.57 18.7 18.58 18.69 18.59 20.11 19.49 20.11 20.01 20.14 19.97 20.2 19.91 20.26 19.85 20.31 19.79 20.36 19.73 20.4 19.67 20.45 19.6 20.5 19.53 20.54 19.46 20.57 19.39 20.61 19.32 20.65 19.24 20.68 19.17 20.71 19.09 20.73 19.01 20.76 18.93 20.78 18.85 20.8 18.77 20.82 18.68 20.83 18.6 20.84 18.52 20.85 18.43 20.85 18.34 20.85 18.26 18.89 18.26 18.89 18.27"/><polygon class="cls-4" points="24.48 14.85 24.48 14.85 24.47 14.84 24.46 14.84 24.45 14.84 24.45 14.84 24.44 14.83 24.43 14.83 24.43 14.83 24.42 14.82 24.41 14.81 24.4 14.81 24.39 14.81 24.39 14.8 24.38 14.79 24.38 14.79 24.37 14.78 24.37 14.78 24.37 14.77 24.36 14.76 24.36 14.76 24.36 14.75 24.35 14.74 24.35 14.73 24.35 14.73 24.34 14.72 24.34 14.71 24.34 14.7 24.34 14.69 24.34 14.85 24.5 14.85 24.49 14.85 24.48 14.85"/><polygon class="cls-4" points="20.03 20.08 19.96 20.13 19.91 20.18 19.84 20.23 19.77 20.27 19.7 20.31 19.63 20.35 19.56 20.39 18.89 19 18.89 19.47 18.89 20.5 18.91 20.5 18.91 20.5 18.92 20.5 18.93 20.5 18.93 21.31 20.11 21.31 20.11 20.01 20.09 20.03 20.03 20.08"/><polygon class="cls-4" points="18.69 18.59 18.8 18.82 18.89 18.86 18.89 19 19.56 20.39 19.63 20.35 19.7 20.31 19.77 20.27 19.84 20.23 19.91 20.18 19.96 20.13 20.03 20.08 20.09 20.03 20.11 20.01 20.11 19.49 18.69 18.59"/><polygon class="cls-4" points="21.34 8.52 21.41 8.52 21.46 8.52 21.51 8.52 21.57 8.53 21.63 8.54 21.68 8.55 21.73 8.56 21.79 8.57 21.84 8.58 21.89 8.6 21.95 8.62 22 8.63 22.05 8.65 22.09 8.67 22.15 8.69 22.2 8.72 22.25 8.74 22.29 8.76 22.34 8.79 22.39 8.82 22.43 8.84 22.48 8.87 22.53 8.91 22.57 8.93 22.61 8.96 22.65 9 22.69 9.04 22.73 9.07 22.78 9.11 22.81 9.14 22.85 9.18 22.85 9.18 22.85 9.18 22.85 9.18 23.98 8.02 23.99 8.02 23.92 7.95 23.85 7.89 23.78 7.82 23.71 7.76 23.64 7.7 23.57 7.64 23.5 7.59 23.42 7.54 23.34 7.49 23.27 7.44 23.19 7.39 23.11 7.34 23.03 7.3 22.94 7.26 22.86 7.21 22.77 7.18 22.69 7.14 22.6 7.11 22.51 7.08 22.42 7.04 22.33 7.02 22.24 6.99 22.15 6.97 22.05 6.95 21.96 6.93 21.87 6.91 21.77 6.9 21.68 6.89 21.58 6.88 21.48 6.87 21.39 6.87 21.29 6.87 21.29 8.51 21.34 8.52"/><polygon class="cls-4" points="18.93 22.51 18.97 22.51 19 22.51 19.03 22.5 19.08 22.5 19.12 22.5 19.17 22.49 19.22 22.48 19.28 22.47 19.33 22.45 19.39 22.43 19.45 22.4 19.52 22.37 19.6 22.32 19.66 22.28 19.72 22.23 19.78 22.17 19.84 22.11 19.9 22.03 19.93 21.98 19.98 21.9 20.02 21.82 20.04 21.76 20.06 21.7 20.07 21.63 20.09 21.57 20.09 21.54 20.1 21.5 20.1 21.46 20.11 21.41 20.11 21.38 20.11 21.34 20.11 21.31 18.93 21.31 18.93 22.51"/><polygon class="cls-4" points="20.84 18.02 20.83 17.9 20.81 17.78 20.78 17.66 20.75 17.55 20.71 17.44 20.67 17.33 20.62 17.23 20.57 17.13 20.52 17.03 20.46 16.93 20.39 16.84 20.32 16.75 20.25 16.66 20.18 16.58 20.09 16.5 20.01 16.42 19.92 16.35 19.83 16.29 19.74 16.23 19.64 16.17 19.54 16.11 19.44 16.07 19.33 16.03 19.22 15.99 19.11 15.96 19 15.93 18.89 15.91 18.77 15.89 18.65 15.88 18.53 15.88 18.53 17.9 18.55 17.9 18.57 17.9 18.59 17.9 18.61 17.9 18.62 17.91 18.64 17.91 18.66 17.92 18.67 17.92 18.69 17.93 18.7 17.94 18.71 17.95 18.73 17.96 18.75 17.97 18.76 17.98 18.77 17.99 18.79 18 18.8 18.02 18.81 18.03 18.82 18.04 18.83 18.05 18.84 18.07 18.84 18.09 18.85 18.11 18.86 18.12 18.87 18.13 18.87 18.15 18.88 18.17 18.88 18.18 18.88 18.2 18.89 18.22 18.89 18.24 18.89 18.26 20.85 18.26 20.85 18.14 20.84 18.02"/><rect class="cls-4" x="16.16" y="6.87" width="5.13" height="1.64"/><polygon class="cls-4" points="24.5 25.99 24.59 25.98 24.69 25.98 24.78 25.96 24.86 25.95 24.95 25.93 25.04 25.9 25.12 25.87 25.21 25.84 25.29 25.8 25.36 25.76 25.44 25.72 25.51 25.67 25.58 25.62 25.65 25.56 25.72 25.5 25.78 25.44 25.84 25.38 25.89 25.31 25.95 25.24 26 25.17 26.05 25.09 26.09 25.02 26.13 24.94 26.16 24.86 26.2 24.77 26.23 24.68 26.25 24.6 26.27 24.51 26.29 24.42 26.3 24.32 26.31 24.23 26.31 24.14 24.5 24.14 24.5 25.99"/><polygon class="cls-4" points="11.14 24.14 11.14 24.23 11.14 24.32 11.16 24.42 11.17 24.51 11.19 24.6 11.22 24.68 11.25 24.77 11.28 24.86 11.31 24.94 11.35 25.02 11.4 25.09 11.45 25.17 11.49 25.24 11.55 25.31 11.61 25.38 11.67 25.44 11.73 25.5 11.79 25.56 11.86 25.62 11.93 25.67 12.01 25.72 12.08 25.76 12.16 25.8 12.24 25.84 12.32 25.87 12.4 25.9 12.49 25.93 12.58 25.95 12.67 25.96 12.76 25.98 12.85 25.98 12.94 25.99 12.94 24.14 11.14 24.14"/><polygon class="cls-4" points="26.3 14.49 26.29 14.4 26.27 14.31 26.25 14.22 26.23 14.13 26.2 14.05 26.16 13.96 26.13 13.88 26.09 13.8 26.05 13.72 26 13.65 25.95 13.58 25.89 13.51 25.84 13.44 25.78 13.38 25.71 13.31 25.65 13.25 25.59 13.2 25.52 13.15 25.44 13.1 25.36 13.05 25.29 13.02 25.21 12.98 25.12 12.95 25.1 12.94 25.1 13.84 24.5 14.46 24.5 14.68 26.31 14.68 26.31 14.59 26.3 14.49"/><polygon class="cls-4" points="24.5 14.85 24.34 14.85 24.34 23.97 24.48 23.97 24.5 23.97 24.5 23.97 24.5 24.14 26.31 24.14 26.31 14.68 24.5 14.68 24.5 14.85"/><polygon class="cls-4" points="18.89 18.86 18.8 18.82 18.89 19 18.89 18.86"/><polygon class="cls-4" points="13.95 10.72 13.95 10.66 13.95 10.61 13.96 10.55 13.96 10.49 13.97 10.43 13.98 10.38 13.99 10.32 14 10.27 14.01 10.22 14.03 10.16 14.05 10.1 14.06 10.05 14.08 10 14.1 9.95 14.12 9.9 14.14 9.84 14.16 9.8 14.19 9.75 14.21 9.7 14.24 9.65 14.27 9.61 14.29 9.56 14.33 9.51 14.36 9.46 14.38 9.43 14.42 9.38 14.45 9.34 14.49 9.3 14.53 9.25 14.56 9.22 14.59 9.18 13.46 8.02 13.4 8.08 13.33 8.15 13.27 8.22 13.21 8.29 13.16 8.36 13.1 8.44 13.05 8.52 12.99 8.59 12.94 8.67 12.89 8.75 12.85 8.83 12.8 8.92 12.76 9 12.72 9.09 12.68 9.17 12.64 9.26 12.61 9.35 12.57 9.44 12.54 9.52 12.51 9.62 12.48 9.71 12.46 9.8 12.44 9.9 12.42 9.99 12.4 10.09 12.38 10.19 12.37 10.28 12.36 10.38 12.35 10.48 12.34 10.58 12.34 10.68 12.34 10.78 13.95 10.78 13.95 10.72"/><polygon class="cls-4" points="14.59 9.18 14.6 9.18 14.63 9.14 14.67 9.11 14.71 9.07 14.75 9.04 14.79 9 14.84 8.96 14.88 8.93 14.91 8.91 14.96 8.87 15.01 8.84 15.05 8.82 15.1 8.79 15.15 8.76 15.2 8.74 15.24 8.72 15.29 8.69 15.35 8.67 15.4 8.65 15.45 8.63 15.5 8.62 15.55 8.6 15.61 8.58 15.66 8.57 15.71 8.56 15.77 8.55 15.82 8.54 15.88 8.53 15.94 8.52 15.99 8.52 16.04 8.52 16.1 8.52 16.16 8.51 16.16 6.87 16.06 6.87 15.96 6.87 15.87 6.88 15.77 6.89 15.67 6.9 15.58 6.91 15.48 6.93 15.39 6.95 15.29 6.97 15.2 6.99 15.11 7.02 15.02 7.04 14.93 7.08 14.85 7.11 14.76 7.14 14.67 7.18 14.59 7.21 14.5 7.26 14.42 7.3 14.34 7.34 14.26 7.39 14.18 7.44 14.1 7.49 14.02 7.54 13.95 7.59 13.87 7.65 13.8 7.7 13.73 7.76 13.66 7.82 13.59 7.89 13.53 7.95 13.46 8.02 14.59 9.18 14.59 9.18"/><polygon class="cls-4" points="12.94 13.84 12.34 13.84 12.34 12.94 12.32 12.95 12.24 12.98 12.16 13.02 12.08 13.05 12.01 13.1 11.93 13.15 11.86 13.2 11.8 13.25 11.73 13.31 11.67 13.38 11.61 13.44 11.55 13.51 11.49 13.58 11.45 13.65 11.4 13.72 11.35 13.8 11.31 13.88 11.28 13.96 11.25 14.05 11.22 14.13 11.19 14.22 11.17 14.31 11.16 14.4 11.14 14.49 11.14 14.59 11.14 14.68 12.94 14.68 12.94 13.84"/><polygon class="cls-4" points="12.49 12.89 12.58 12.87 12.67 12.85 12.76 12.84 12.85 12.84 12.94 12.83 13.32 12.83 13.95 13.47 13.95 10.78 12.34 10.78 12.34 12.94 12.4 12.91 12.49 12.89"/><polygon class="cls-4" points="12.94 13.84 12.94 12.83 12.85 12.84 12.76 12.84 12.67 12.85 12.58 12.87 12.49 12.89 12.4 12.91 12.34 12.94 12.34 13.84 12.94 13.84"/><polygon class="cls-4" points="24.34 24.14 24.34 24.13 24.34 23.97 13.1 23.97 13.1 24.13 13.1 24.14 12.94 24.14 12.94 25.99 24.5 25.99 24.5 24.14 24.34 24.14"/><polygon class="cls-4" points="18.53 18.85 18.45 18.71 18.14 18.86 18.14 19.47 18.16 19.47 18.53 18.85"/><polygon class="cls-4" points="18.91 20.5 18.89 20.5 18.89 20.5 18.91 20.5"/><polygon class="cls-4" points="18.61 18.71 18.53 18.67 18.45 18.71 18.53 18.85 18.61 18.71"/><polygon class="cls-4" points="18.89 21.3 18.89 21.31 18.93 21.31 18.93 20.5 18.92 20.5 18.91 20.5 18.91 20.5 18.89 20.5 18.89 21.3"/><polygon class="cls-4" points="18.37 18.58 18.45 18.71 18.53 18.67 18.37 18.58"/><polygon class="cls-4" points="18.14 20.5 18.16 20.5 18.19 20.5 18.23 20.51 18.24 20.51 18.28 20.52 18.32 20.54 18.36 20.55 18.42 20.58 18.45 20.6 18.5 20.63 18.52 20.64 18.53 20.63 18.61 20.59 18.66 20.56 18.7 20.54 18.74 20.53 18.78 20.52 18.81 20.51 18.84 20.5 18.87 20.5 18.89 20.5 18.89 20.5 18.89 20.5 18.14 20.5 18.14 20.5"/><polygon class="cls-4" points="18.89 21.29 18.89 21.27 18.89 21.25 18.88 21.2 18.87 21.17 18.87 21.13 18.86 21.11 18.84 21.07 18.82 21.01 18.79 20.95 18.77 20.91 18.73 20.85 18.68 20.79 18.64 20.75 18.61 20.72 18.57 20.68 18.52 20.64 18.49 20.66 18.44 20.7 18.39 20.75 18.35 20.8 18.3 20.87 18.27 20.9 18.24 20.97 18.2 21.03 18.19 21.07 18.18 21.11 18.16 21.17 18.15 21.21 18.15 21.23 18.15 21.24 18.15 21.26 18.14 21.29 18.14 21.29 18.14 21.31 18.89 21.31 18.89 21.3 18.89 21.29"/><polygon class="cls-4" points="18.15 21.26 18.15 21.24 18.15 21.23 18.15 21.21 18.16 21.17 18.18 21.11 18.19 21.07 18.2 21.03 18.24 20.97 18.27 20.9 18.3 20.87 18.35 20.8 18.39 20.75 18.44 20.7 18.49 20.66 18.52 20.64 18.5 20.63 18.45 20.6 18.42 20.58 18.36 20.55 18.32 20.54 18.28 20.52 18.24 20.51 18.23 20.51 18.19 20.5 18.16 20.5 18.14 20.5 18.14 21.29 18.15 21.26"/><polygon class="cls-4" points="18.61 20.72 18.64 20.75 18.68 20.79 18.73 20.85 18.77 20.91 18.79 20.95 18.82 21.01 18.84 21.07 18.86 21.11 18.87 21.13 18.87 21.17 18.88 21.2 18.89 21.25 18.89 21.27 18.89 21.29 18.89 21.3 18.89 20.5 18.89 20.5 18.87 20.5 18.84 20.5 18.81 20.51 18.78 20.52 18.74 20.53 18.7 20.54 18.66 20.56 18.61 20.59 18.53 20.63 18.52 20.64 18.57 20.68 18.61 20.72"/><polygon class="cls-4" points="18.14 21.29 18.14 21.29 18.14 20.5 18.13 20.5 18.12 20.5 18.12 20.5 18.09 20.5 18.09 20.5 18.09 21.32 18.89 21.32 18.89 21.31 18.14 21.31 18.14 21.29"/><rect class="cls-4" x="18.13" y="20.49" width="0.02"/><polygon class="cls-4" points="16.93 21.32 16.93 21.36 16.93 21.4 16.93 21.45 16.93 21.49 16.95 21.56 16.96 21.61 16.97 21.66 16.98 21.71 17 21.77 17.03 21.85 17.07 21.92 17.1 21.97 17.14 22.04 17.21 22.12 17.25 22.17 17.29 22.21 17.34 22.26 17.43 22.32 17.49 22.36 17.54 22.38 17.61 22.42 17.66 22.44 17.73 22.46 17.78 22.47 17.81 22.48 17.86 22.49 17.92 22.5 17.96 22.5 17.99 22.5 18.02 22.51 18.06 22.51 18.09 22.51 18.09 21.32 16.93 21.32"/><polygon class="cls-4" points="17 20.05 17.06 20.1 17.12 20.14 17.18 20.19 17.25 20.24 17.31 20.28 17.38 20.32 17.45 20.36 16.93 19.47 16.93 19.97 16.95 19.99 17 20.05"/><polygon class="cls-4" points="18.14 19.47 18.14 19.49 18.16 19.47 18.14 19.47"/><polygon class="cls-4" points="18.09 20.5 18.09 20.5 18.12 20.5 18.12 20.5 18.14 20.5 18.14 19.49 18.14 19.47 16.93 19.47 17.45 20.36 17.38 20.32 17.31 20.28 17.25 20.24 17.18 20.19 17.12 20.14 17.06 20.1 17 20.05 16.95 19.99 16.93 19.97 16.93 21.32 18.09 21.32 18.09 20.5"/><polygon class="cls-4" points="18.89 21.31 18.89 21.32 18.09 21.32 18.09 22.51 18.93 22.51 18.93 21.31 18.89 21.31"/><polygon class="cls-4" points="18.18 18.24 18.18 18.22 18.18 18.2 18.19 18.18 18.19 18.17 18.2 18.15 18.2 18.13 18.21 18.12 18.21 18.11 18.22 18.09 18.23 18.07 18.24 18.06 18.25 18.04 18.26 18.03 18.27 18.02 18.28 18 18.3 17.99 18.31 17.98 18.32 17.97 18.34 17.96 18.35 17.95 18.37 17.94 18.38 17.93 18.4 17.92 18.41 17.92 18.43 17.91 18.45 17.91 18.46 17.9 18.48 17.9 18.5 17.9 18.52 17.9 18.53 17.9 18.53 15.88 18.42 15.88 18.3 15.89 18.18 15.91 18.07 15.93 17.95 15.96 17.85 15.99 17.74 16.03 17.63 16.07 17.53 16.11 17.43 16.17 17.33 16.23 17.23 16.29 17.14 16.35 17.06 16.42 16.97 16.5 16.89 16.58 16.82 16.66 16.75 16.75 16.68 16.84 16.61 16.93 16.55 17.03 16.49 17.13 16.44 17.23 16.4 17.33 16.36 17.44 16.32 17.55 16.29 17.66 16.26 17.78 16.24 17.9 16.23 18.02 16.22 18.14 16.22 18.26 18.18 18.26 18.18 18.24"/><polygon class="cls-4" points="18.14 19.47 18.14 18.86 18.45 18.71 18.37 18.58 18.36 18.57 18.35 18.57 18.34 18.56 18.33 18.56 18.32 18.55 18.31 18.54 18.3 18.53 18.29 18.52 18.28 18.51 18.28 18.51 18.27 18.5 18.26 18.49 18.25 18.48 18.25 18.47 18.24 18.46 18.23 18.45 18.23 18.44 18.22 18.43 18.21 18.42 18.21 18.41 18.2 18.39 18.2 18.38 18.2 18.37 18.19 18.36 18.19 18.35 18.19 18.34 18.18 18.32 18.18 18.31 18.18 18.3 18.18 18.28 18.18 18.27 18.18 18.26 16.22 18.26 16.22 18.34 16.22 18.43 16.23 18.51 16.24 18.59 16.25 18.68 16.27 18.75 16.28 18.84 16.3 18.91 16.33 18.99 16.35 19.07 16.38 19.15 16.41 19.22 16.44 19.29 16.48 19.36 16.52 19.43 16.56 19.5 16.6 19.57 16.64 19.63 16.69 19.7 16.74 19.76 16.79 19.82 16.84 19.88 16.89 19.94 16.93 19.97 16.93 19.47 18.14 19.47"/><polygon class="cls-4" points="18.61 18.71 18.69 18.59 18.53 18.67 18.61 18.71"/><polygon class="cls-4" points="18.16 19.47 18.89 19.47 18.53 18.85 18.16 19.47"/><polygon class="cls-4" points="18.14 19.49 18.14 20.5 18.89 20.5 18.89 19.47 18.16 19.47 18.14 19.49"/><polygon class="cls-4" points="18.53 18.85 18.89 19.47 18.89 19 18.8 18.82 18.61 18.71 18.53 18.85"/><polygon class="cls-4" points="18.8 18.82 18.69 18.59 18.61 18.71 18.8 18.82"/><path class="cls-2" d="M26,13.84h-.38V10.78a2.93,2.93,0,0,0-.83-2.05,2.8,2.8,0,0,0-2-.86H17.63a2.8,2.8,0,0,0-2,.86,2.93,2.93,0,0,0-.83,2.05v3.06h-.38a.84.84,0,0,0-.83.85v9.45a.84.84,0,0,0,.83.84H26a.84.84,0,0,0,.83-.84V14.68A.84.84,0,0,0,26,13.84ZM20.6,19.49v1.82c0,.14,0,.19-.2.19h-.84c-.12,0-.18,0-.18-.18V19.47a1.38,1.38,0,0,1-.71-1.21,1.34,1.34,0,1,1,2.67,0A1.38,1.38,0,0,1,20.6,19.49ZM24,13.84H16.4V10.78a1.27,1.27,0,0,1,.36-.89,1.22,1.22,0,0,1,.87-.37h5.13a1.22,1.22,0,0,1,.87.37,1.27,1.27,0,0,1,.36.89Z" transform="translate(-1.47 0)"/></g><path class="cls-9" d="M17.63,9.52h5.13a1.22,1.22,0,0,1,.87.37,1.28,1.28,0,0,1,.36.88V10a1.27,1.27,0,0,0-.36-.89,1.21,1.21,0,0,0-.87-.37H17.63a1.21,1.21,0,0,0-.87.37,1.27,1.27,0,0,0-.36.89v.74a1.29,1.29,0,0,1,.36-.88A1.22,1.22,0,0,1,17.63,9.52Z" transform="translate(-1.47 0)"/><path class="cls-9" d="M18.67,17.5a1.36,1.36,0,0,0,.05.38,1.33,1.33,0,0,1,2.57,0,1.32,1.32,0,0,0,.05-.37,1.34,1.34,0,1,0-2.67,0Z" transform="translate(-1.47 0)"/><path class="cls-9" d="M26,24.22H14.41a.84.84,0,0,1-.83-.83v.74a.84.84,0,0,0,.83.84H26a.84.84,0,0,0,.83-.84V23.4A.84.84,0,0,1,26,24.22Z" transform="translate(-1.47 0)"/></g></g></svg>