<svg id="Layer_1" data-name="Layer 1" xmlns="http://www.w3.org/2000/svg" viewBox="0 0 38 40"><defs><style>.cls-1{fill-opacity:0.2;}.cls-2,.cls-9{fill:#fff;}.cls-3{fill:#bb4de2;}.cls-4{fill:#9f22c8;}.cls-5{fill:#b12fdd;}.cls-6{fill:#d185eb;}.cls-7{fill:#ebc6f6;}.cls-8{fill:#e6e6e6;}.cls-9{stroke:#a835ce;stroke-miterlimit:10;}</style></defs><title>4</title><g id="g4270"><path class="cls-1" d="M5.08,5.63C-.35,11-.36,30.58,5.06,36s24.53,5.35,29.89,0,5.4-25,0-30.36S10.56.18,5.08,5.63Z" transform="translate(-1 0)"/><path class="cls-2" d="M5.08,4.09C-.35,9.49-.36,29,5.06,34.45s24.53,5.35,29.89,0,5.4-25,0-30.36S10.56-1.36,5.08,4.09Z" transform="translate(-1 0)"/><path class="cls-3" d="M6.48,4.55c-4.92,4.89-4.93,22.61,0,27.5s22.23,4.85,27.08,0,4.89-22.61,0-27.5S11.45-.38,6.48,4.55Z" transform="translate(-1 0)"/><path class="cls-4" d="M33.54,28.35c-4.85,4.85-22.23,4.85-27.08,0-2.18-2.18-3.39-6.88-3.63-11.87-.3,6.22.91,12.86,3.63,15.57,4.85,4.85,22.23,4.85,27.08,0,2.72-2.71,3.93-9.35,3.63-15.57C36.93,21.47,35.72,26.18,33.54,28.35Z" transform="translate(-1 0)"/><path class="cls-5" d="M4.91,26.09a8.5,8.5,0,0,0,1.55,2.26c4.85,4.85,22.23,4.85,27.08,0,1.87-1.87,3-5.6,3.47-9.78C27.9,25.26,17.18,27.71,4.91,26.09Z" transform="translate(-1 0)"/><path class="cls-6" d="M6.48,4.55C5,6,4,8.64,3.38,11.72,11.89,2.87,29,1.46,36.18,9.83a12,12,0,0,0-2.67-5.28C28.55-.38,11.45-.38,6.48,4.55Z" transform="translate(-1 0)"/><path class="cls-7" d="M10.36,3.37c-2.09.59-3.78,2-3.78,3.22s1.69,1.67,3.78,1.07,3.78-2,3.78-3.22S12.45,2.78,10.36,3.37Z" transform="translate(-1 0)"/><path class="cls-7" d="M16.63,1.77c-1.18.08-2.24.64-2.38,1.27S15,4.12,16.13,4s2.24-.64,2.38-1.27S17.81,1.7,16.63,1.77Z" transform="translate(-1 0)"/><path class="cls-7" d="M31,25.69c-1.32.64-2.27,1.8-2.14,2.59s1.32.91,2.64.27,2.28-1.8,2.14-2.59S32.36,25.05,31,25.69Z" transform="translate(-1 0)"/><path class="cls-7" d="M37,18.57c-.44,4.18-1.6,7.91-3.47,9.78-4.85,4.85-22.23,4.85-27.08,0a8.5,8.5,0,0,1-1.55-2.26,25.63,25.63,0,0,1-2.08-9.61c0,.73-.05,1.46,0,2.19,0-.51,0-1,0-1.51.24,5,1.45,9.69,3.63,11.87,4.85,4.85,22.23,4.85,27.08,0,2.18-2.18,3.39-6.89,3.63-11.87,0,.5,0,1,0,1.51,0-.73,0-1.46,0-2.19C37.14,17.19,37.08,17.89,37,18.57Z" transform="translate(-1 0)"/><path class="cls-8" d="M34.94,33.61C29.59,39,10.41,39,5.06,33.61,2.41,31,1.06,25,1,18.88c-.06,6.36,1.29,12.8,4.05,15.56,5.36,5.35,24.53,5.35,29.89,0,2.76-2.76,4.11-9.2,4.05-15.56C38.94,25,37.59,31,34.94,33.61Z" transform="translate(-1 0)"/></g><g id="g4280"><g id="g4276"><rect class="cls-9" x="9.97" y="14.41" width="5.35" height="5.35" rx="0.89" ry="0.89"/><rect class="cls-9" x="9.97" y="7.89" width="5.35" height="5.36" rx="0.89" ry="0.89"/><path class="cls-9" d="M10.86,20.94h3.57a.89.89,0,0,1,.89.89v3.57a.89.89,0,0,1-.89.89H10.86a.89.89,0,0,1-.89-.89V21.84A.9.9,0,0,1,10.86,20.94Z"/><path class="cls-9" d="M17.19,20.94h3.57a.89.89,0,0,1,.89.89v3.57a.89.89,0,0,1-.89.89H17.19a.89.89,0,0,1-.89-.89V21.84A.9.9,0,0,1,17.19,20.94Z"/><path class="cls-9" d="M23.57,14.41h3.57a.9.9,0,0,1,.9.9v3.57a.89.89,0,0,1-.89.89H23.57a.89.89,0,0,1-.89-.89V15.3A.89.89,0,0,1,23.57,14.41Z"/><rect class="cls-9" x="16.29" y="14.41" width="5.35" height="5.35" rx="0.89" ry="0.89"/><path class="cls-9" d="M23.57,20.94h3.57a.9.9,0,0,1,.9.9v3.57a.89.89,0,0,1-.89.89H23.57a.89.89,0,0,1-.89-.89V21.84A.9.9,0,0,1,23.57,20.94Z"/><path class="cls-9" d="M23.57,7.89h3.57a.9.9,0,0,1,.9.9v3.57a.9.9,0,0,1-.9.9H23.57a.89.89,0,0,1-.89-.89V8.78A.89.89,0,0,1,23.57,7.89Z"/><path class="cls-9" d="M17.19,7.89h3.57a.89.89,0,0,1,.89.89v3.57a.9.9,0,0,1-.9.9H17.19a.89.89,0,0,1-.89-.89V8.78A.89.89,0,0,1,17.19,7.89Z"/><rect class="cls-9" x="9.97" y="7.89" width="5.35" height="5.36" rx="0.89" ry="0.89"/><path class="cls-9" d="M17.19,20.94h3.57a.89.89,0,0,1,.89.89v3.57a.89.89,0,0,1-.89.89H17.19a.89.89,0,0,1-.89-.89V21.84A.9.9,0,0,1,17.19,20.94Z"/><rect class="cls-9" x="9.97" y="14.41" width="5.35" height="5.35" rx="0.89" ry="0.89"/><path class="cls-9" d="M10.86,20.94h3.57a.89.89,0,0,1,.89.89v3.57a.89.89,0,0,1-.89.89H10.86a.89.89,0,0,1-.89-.89V21.84A.9.9,0,0,1,10.86,20.94Z"/><path class="cls-9" d="M23.57,20.94h3.57a.9.9,0,0,1,.9.9v3.57a.89.89,0,0,1-.89.89H23.57a.89.89,0,0,1-.89-.89V21.84A.9.9,0,0,1,23.57,20.94Z"/><rect class="cls-9" x="16.29" y="14.41" width="5.35" height="5.35" rx="0.89" ry="0.89"/><path class="cls-9" d="M23.57,7.89h3.57a.9.9,0,0,1,.9.9v3.57a.9.9,0,0,1-.9.9H23.57a.89.89,0,0,1-.89-.89V8.78A.89.89,0,0,1,23.57,7.89Z"/><path class="cls-9" d="M23.57,14.41h3.57a.9.9,0,0,1,.9.9v3.57a.89.89,0,0,1-.89.89H23.57a.89.89,0,0,1-.89-.89V15.3A.89.89,0,0,1,23.57,14.41Z"/><path class="cls-9" d="M17.19,7.89h3.57a.89.89,0,0,1,.89.89v3.57a.9.9,0,0,1-.9.9H17.19a.89.89,0,0,1-.89-.89V8.78A.89.89,0,0,1,17.19,7.89Z"/></g></g></svg>