<svg xmlns="http://www.w3.org/2000/svg" xmlns:xlink="http://www.w3.org/1999/xlink" viewBox="0 0 36.36 40"><defs><style>.cls-1{isolation:isolate;}.cls-2{opacity:0.58;}.cls-3{fill:#fff;}.cls-4{fill:#376e73;}.cls-5{fill:url(#linear-gradient);}.cls-6{fill:#5db3c1;}.cls-7{fill:#a8e2ef;}.cls-11,.cls-8{mix-blend-mode:screen;}.cls-8{fill:url(#linear-gradient-2);}.cls-9{fill:#295648;}.cls-10{fill:#377360;}.cls-11{fill:#bdf7e9;}</style><linearGradient id="linear-gradient" x1="1.95" y1="18.76" x2="36.75" y2="18.76" gradientUnits="userSpaceOnUse"><stop offset="0" stop-color="#6edfe5"/><stop offset="1" stop-color="#376e73"/></linearGradient><linearGradient id="linear-gradient-2" x1="2.11" y1="22.25" x2="36.59" y2="22.25" gradientUnits="userSpaceOnUse"><stop offset="0" stop-color="#53aaac"/><stop offset="1"/></linearGradient></defs><title>7</title><g class="cls-1"><g id="Layer_1" data-name="Layer 1"><g class="cls-2"><polygon points="30.12 20.23 30.12 20.23 30.12 20.23 25.62 15.64 25.62 15.64 25.6 15.62 25.6 15.62 25.6 15.62 25.6 15.62 22.76 14 22.76 14 20.1 14 14.27 14 11.43 15.62 6.84 20.23 6.84 20.23 6.84 20.23 6.84 20.23 6.87 20.27 6.8 20.23 6.88 20.29 18.44 34.21 18.46 34.18 18.48 34.21 18.46 34.18 18.46 34.18 18.48 34.21 18.59 34.03 30.12 20.23 30.12 20.23"/></g><path class="cls-3" d="M28.16,7a5.45,5.45,0,0,1-1.22-3.11A5.45,5.45,0,0,1,25.72,7a4.43,4.43,0,0,1-2.92,1.29,4.43,4.43,0,0,1,2.92,1.29,5.45,5.45,0,0,1,1.22,3.11,5.45,5.45,0,0,1,1.22-3.11,4.43,4.43,0,0,1,2.92-1.29A4.43,4.43,0,0,1,28.16,7Z" transform="translate(-1.54)"/><path class="cls-3" d="M34.43,4.91a3,3,0,0,1-.66-1.69,3,3,0,0,1-.66,1.69,2.4,2.4,0,0,1-1.58.7,2.4,2.4,0,0,1,1.58.7A3,3,0,0,1,33.77,8a3,3,0,0,1,.66-1.69A2.4,2.4,0,0,1,36,5.61,2.4,2.4,0,0,1,34.43,4.91Z" transform="translate(-1.54)"/><path class="cls-4" d="M35.68,7a9,9,0,0,0-1.94-3.76C32.17,1.69,27.59,0,19.44,0S6.67,1.69,5.05,3.27C2.45,5.82,1.42,13,1.55,19c0,1.7.1,3.34.16,5C1.9,29.81,3,34.38,4.79,36.19c1.57,1.58,6.15,3.28,14.3,3.28s12.78-1.69,14.39-3.27c1.8-1.77,3.08-6.18,3.42-11.8a47.1,47.1,0,0,0,.24-5.87A33.31,33.31,0,0,0,35.68,7Z" transform="translate(-1.54)"/><g class="cls-1"><path class="cls-5" d="M35.3,7.17a8.72,8.72,0,0,0-1.84-3.61c-2.08-2.1-8-3.16-14-3.16S7.48,1.46,5.33,3.56C3,5.88,1.81,12.67,2,19A33.2,33.2,0,0,0,3.4,30.35,8.72,8.72,0,0,0,5.24,34c2.08,2.1,8,3.16,14,3.16s12-1.05,14.11-3.16c2.37-2.32,3.52-9.11,3.37-15.43A33.2,33.2,0,0,0,35.3,7.17Z" transform="translate(-1.54)"/><path class="cls-6" d="M20.92,6.38c6,0,11.93,1.05,14,3.16,4.17,4.21,3.88,23.1-.42,27.31C32.37,38.95,26.38,40,20.41,40s-11.93-1.05-14-3.16c-4.17-4.21-3.88-23.1.42-27.31C9,7.43,15,6.38,20.92,6.38Z" transform="translate(-1.54)"/><path class="cls-7" d="M7.62,10.34c2.15-2.1,8.14-3.16,14.11-3.16,5.6,0,11.19.92,13.58,2.77a4.49,4.49,0,0,0-.37-.43c-2.08-2.1-8-3.16-14-3.16S9,7.43,6.81,9.53c-4.29,4.21-4.58,23.1-.42,27.31a4.38,4.38,0,0,0,.43.38C3.06,32.3,3.46,14.42,7.62,10.34Z" transform="translate(-1.54)"/><path class="cls-8" d="M19.6,5.44c6,0,11.93,1.05,14,3.16,4.17,4.21,3.88,23.1-.42,27.31-2.15,2.1-8.14,3.16-14.11,3.16S7.16,38,5.08,35.91C.91,31.7,1.2,12.8,5.49,8.59,7.64,6.49,13.63,5.44,19.6,5.44Z" transform="translate(-1.54)"/><path class="cls-3" d="M9.06,11.43c-1,1-2.31,1.3-2.86.71s-.15-1.85.88-2.82S9.4,8,9.95,8.6,10.09,10.45,9.06,11.43Z" transform="translate(-1.54)"/><ellipse class="cls-3" cx="5.32" cy="13.22" rx="1.03" ry="0.75" transform="translate(-10.35 11.36) rotate(-60.6)"/></g><ellipse class="cls-9" cx="9.03" cy="20.02" rx="3.39" ry="3.6"/><ellipse class="cls-10" cx="9.03" cy="20.02" rx="2.58" ry="2.75"/><ellipse class="cls-3" cx="7.48" cy="18.66" rx="1.05" ry="1.11"/><ellipse class="cls-3" cx="9.2" cy="19.39" rx="0.4" ry="0.43"/><path class="cls-9" d="M34.68,18.89a3.74,3.74,0,0,1-2,.82,4.66,4.66,0,0,0-.2-.71,4.59,4.59,0,0,0,2.22-1.13c.24-.22-.11-.58-.34-.36a4,4,0,0,1-2.09,1,4.31,4.31,0,0,0-.33-.55,3.89,3.89,0,0,0,2.23-1.23c.22-.24-.12-.6-.34-.36a3.36,3.36,0,0,1-2.28,1.13A3.65,3.65,0,0,0,29,16.36a4,4,0,0,0-3.9,4c-.08,1.1,1.53,1.1,1.61,0a2.24,2.24,0,1,1,4.47.11.81.81,0,1,0,1.61,0q0-.1,0-.2a4.13,4.13,0,0,0,2.17-.89C35.17,19.14,34.93,18.7,34.68,18.89Z" transform="translate(-1.54)"/><ellipse class="cls-11" cx="10.35" cy="27.89" rx="3.39" ry="1.82"/><ellipse class="cls-11" cx="28.58" cy="27.89" rx="3.39" ry="1.82"/><path class="cls-9" d="M25.51,31.87c0,1.18-2.71,2.14-6.05,2.14s-6.05-1-6.05-2.14,2.71.43,6.05.43S25.51,30.69,25.51,31.87Z" transform="translate(-1.54)"/></g></g></svg>